<svg xmlns="http://www.w3.org/2000/svg" width="599.441" height="394.549" viewBox="0 0 599.441 394.549"><g transform="translate(7900.001 4922.913)"><g transform="translate(-8367.545 -4197.94)"><g transform="translate(467.544 -724.973)"><rect width="599.442" height="0.265" transform="translate(0 346.727)" fill="#ececec"/><rect width="35.072" height="0.265" transform="translate(511.32 363.771)" fill="#ececec"/><rect width="74.976" height="0.265" transform="translate(407.385 363.771)" fill="#ececec"/><rect width="20.322" height="0.265" transform="translate(331.399 353.938)" fill="#ececec"/><rect width="36.309" height="0.265" transform="translate(55.548 355.717)" fill="#ececec"/><rect width="66.019" height="0.265" transform="translate(116.584 355.717)" fill="#ececec"/><rect width="38.982" height="0.265" transform="translate(227.885 360.188)" fill="#ececec"/><path d="M716.264-425.471H511.8a6.051,6.051,0,0,1-6.044-6.044V-718.929a6.052,6.052,0,0,1,6.044-6.044H716.264a6.051,6.051,0,0,1,6.043,6.044v287.414A6.051,6.051,0,0,1,716.264-425.471ZM511.8-724.708a5.785,5.785,0,0,0-5.779,5.779v287.414a5.785,5.785,0,0,0,5.779,5.779H716.264a5.786,5.786,0,0,0,5.778-5.779V-718.929a5.786,5.786,0,0,0-5.778-5.779Z" transform="translate(-465.294 724.973)" fill="#ececec"/><path d="M932.56-425.471H728.092a6.05,6.05,0,0,1-6.043-6.044V-718.929a6.051,6.051,0,0,1,6.043-6.044H932.56a6.052,6.052,0,0,1,6.045,6.044v287.414A6.051,6.051,0,0,1,932.56-425.471ZM728.092-724.708a5.785,5.785,0,0,0-5.778,5.779v287.414a5.785,5.785,0,0,0,5.778,5.779H932.56a5.786,5.786,0,0,0,5.781-5.779V-718.929a5.786,5.786,0,0,0-5.781-5.779Z" transform="translate(-382.558 724.973)" fill="#ececec"/></g><g transform="translate(533.25 -708.215)"><g transform="translate(0 20.221)"><rect width="102.387" height="282.401" fill="#f5f5f5"/><rect width="1.037" height="282.401" transform="translate(103.424 282.401) rotate(180)" fill="#ececec"/><rect width="82.627" height="260.856" transform="translate(9.88 10.772)" fill="#fff"/></g><g transform="translate(205.035)"><g transform="translate(7.489 7.93)"><g transform="translate(0 0)"><rect width="241.524" height="179.45" transform="translate(245.262 179.45) rotate(180)" fill="#e7e7e7"/><rect width="241.524" height="179.45" transform="translate(241.524 179.45) rotate(180)" fill="#f5f5f5"/><rect width="164.376" height="228.104" transform="translate(234.814 7.537) rotate(90)" fill="#fff"/><rect width="164.376" height="2.826" transform="translate(9.536 7.537) rotate(90)" fill="#e7e7e7"/><rect width="235.973" height="10.118" transform="translate(238.749 136.798) rotate(180)" fill="#f5f5f5"/></g></g><g opacity="0.4"><rect width="22.803" height="57.673" fill="#e7e7e7"/><rect width="11.304" height="53.038" transform="translate(34.107 53.038) rotate(180)" fill="#f5f5f5"/><rect width="22.803" height="57.673" transform="translate(34.107)" fill="#e7e7e7"/><rect width="11.304" height="53.038" transform="translate(68.213 53.038) rotate(180)" fill="#f5f5f5"/><rect width="22.803" height="57.673" transform="translate(68.213)" fill="#e7e7e7"/><rect width="11.304" height="53.038" transform="translate(102.32 53.038) rotate(180)" fill="#f5f5f5"/><rect width="22.803" height="57.673" transform="translate(102.32)" fill="#e7e7e7"/><rect width="11.304" height="53.038" transform="translate(136.426 53.038) rotate(180)" fill="#f5f5f5"/><rect width="22.803" height="57.673" transform="translate(136.426)" fill="#e7e7e7"/><rect width="11.304" height="53.038" transform="translate(170.533 53.038) rotate(180)" fill="#f5f5f5"/><rect width="22.803" height="57.673" transform="translate(170.533)" fill="#e7e7e7"/><rect width="11.304" height="53.038" transform="translate(204.639 53.038) rotate(180)" fill="#f5f5f5"/><rect width="22.803" height="57.673" transform="translate(204.639)" fill="#e7e7e7"/><rect width="11.304" height="53.038" transform="translate(238.746 53.038) rotate(180)" fill="#f5f5f5"/><rect width="22.803" height="57.673" transform="translate(238.746)" fill="#e7e7e7"/></g></g><g transform="translate(220.008 224.718)"><g transform="translate(0 0)"><rect width="28.259" height="105.251" transform="translate(28.259 105.251) rotate(180)" fill="#e7e7e7"/><path d="M675.965-397h-4.7v-9.471H680.9Z" transform="translate(-671.262 502.252)" fill="#f0f0f0"/><rect width="28.26" height="105.251" transform="translate(231.603 105.251) rotate(180)" fill="#e7e7e7"/><rect width="207.447" height="101.614" transform="translate(207.447 101.614) rotate(180)" fill="#f0f0f0"/><rect width="200.15" height="27.867" transform="translate(203.799 32.37) rotate(180)" fill="#e7e7e7"/><path d="M723.2-483.965h98.891c4.588,0,8.975-3.438,12.13-9.507H711.065C714.222-487.4,718.607-483.965,723.2-483.965Z" transform="translate(-668.919 497.129)" fill="#f0f0f0"/><path d="M863.007-397h4.7v-9.471h-9.634Z" transform="translate(-660.262 502.252)" fill="#f0f0f0"/><rect width="200.15" height="27.866" transform="translate(203.799 64.74) rotate(180)" fill="#e7e7e7"/><path d="M723.2-453.4h98.891c4.588,0,8.975-3.438,12.13-9.507H711.065C714.222-456.834,718.607-453.4,723.2-453.4Z" transform="translate(-668.919 498.929)" fill="#f0f0f0"/><rect width="200.15" height="27.867" transform="translate(203.799 97.111) rotate(180)" fill="#e7e7e7"/><path d="M723.2-422.825h98.891c4.588,0,8.975-3.437,12.13-9.507H711.065C714.222-426.262,718.607-422.825,723.2-422.825Z" transform="translate(-668.919 500.729)" fill="#f0f0f0"/></g></g></g><ellipse cx="240.306" cy="11.99" rx="240.306" ry="11.99" transform="translate(526.959 -354.404)" fill="#f5f5f5"/><g transform="translate(783.854 -588.622)"><g transform="translate(20.848 93.889)"><g transform="translate(23.259 96.832)"><g transform="translate(72.849)"><path d="M837.926-366.641h-1.134a.985.985,0,0,1-.9-.921l-6.973-48.526h5.294l4.618,48.2A1.055,1.055,0,0,1,837.926-366.641Z" transform="translate(-828.92 416.089)" fill="#007cff"/><path d="M837.926-366.641h-1.134a.985.985,0,0,1-.9-.921l-6.973-48.526h5.294l4.618,48.2A1.055,1.055,0,0,1,837.926-366.641Z" transform="translate(-828.92 416.089)" fill="#6836bf"/></g><g transform="translate(87.376)"><path d="M851.645-366.641H850.51a.985.985,0,0,1-.9-.921l-6.973-48.526h5.294l4.618,48.2A1.055,1.055,0,0,1,851.645-366.641Z" transform="translate(-842.639 416.089)" fill="#007cff"/><path d="M851.645-366.641H850.51a.985.985,0,0,1-.9-.921l-6.973-48.526h5.294l4.618,48.2A1.055,1.055,0,0,1,851.645-366.641Z" transform="translate(-842.639 416.089)" fill="#6836bf"/></g><g transform="translate(14.527)"><path d="M774.753-366.641h1.135a.985.985,0,0,0,.9-.921l6.973-48.526h-5.294l-4.617,48.2A1.055,1.055,0,0,0,774.753-366.641Z" transform="translate(-773.841 416.089)" fill="#007cff"/><path d="M774.753-366.641h1.135a.985.985,0,0,0,.9-.921l6.973-48.526h-5.294l-4.617,48.2A1.055,1.055,0,0,0,774.753-366.641Z" transform="translate(-773.841 416.089)" fill="#6836bf"/></g><path d="M761.034-366.641h1.135a.985.985,0,0,0,.9-.921l6.973-48.526h-5.294l-4.617,48.2A1.055,1.055,0,0,0,761.034-366.641Z" transform="translate(-760.122 416.089)" fill="#007cff"/><path d="M761.034-366.641h1.135a.985.985,0,0,0,.9-.921l6.973-48.526h-5.294l-4.617,48.2A1.055,1.055,0,0,0,761.034-366.641Z" transform="translate(-760.122 416.089)" fill="#6836bf"/></g><path d="M743.5-468.227h35.663c6.328-21.974,29.095-39.309,52.412-39.309h11.583c24.405,0,40.155,18.99,35.179,42.415a47.558,47.558,0,0,1-4.538,12.36l-5.625,34.09c-.725,4.4-4.236,7.967-7.84,7.967H752.991c-3.6,0-7.115-3.567-7.84-7.967l-6.862-41.59C737.563-464.661,739.9-468.227,743.5-468.227Z" transform="translate(-738.157 507.536)" fill="#007cff"/><path d="M743.5-468.227h35.663c6.328-21.974,29.095-39.309,52.412-39.309h11.583c24.405,0,40.155,18.99,35.179,42.415a47.558,47.558,0,0,1-4.538,12.36l-5.625,34.09c-.725,4.4-4.236,7.967-7.84,7.967H752.991c-3.6,0-7.115-3.567-7.84-7.967l-6.862-41.59C737.563-464.661,739.9-468.227,743.5-468.227Z" transform="translate(-738.157 507.536)" fill="#f7ca18"/></g><g transform="translate(0 119.344)"><path d="M735.732-381.1l8.833,4.053a.619.619,0,0,1,.337.8l-2.78,7.186a1.532,1.532,0,0,1-2.017.767c-3.052-1.464-4.438-2.32-8.322-4.1A103.482,103.482,0,0,1,719.9-379.28c-2.882-2.074-.767-4.975.672-4.339,6.453,2.846,10.561,3.1,13.581,2.377A2.431,2.431,0,0,1,735.732-381.1Z" transform="translate(-718.468 489.373)" fill="#1a2e35"/><g transform="translate(16.574)"><path d="M797.441-483.5s-56.469.7-57.342,22.961c-1.254,32-5.979,85.118-5.979,85.118l9.523,4.243s16.684-53.308,17.28-78.3c15.843-3.946,56.721.033,61.524-12.989a42.734,42.734,0,0,0,1.8-21.037Z" transform="translate(-734.121 483.497)" fill="#007cff"/><path d="M797.441-483.5s-56.469.7-57.342,22.961c-1.254,32-5.979,85.118-5.979,85.118l9.523,4.243s16.684-53.308,17.28-78.3c15.843-3.946,56.721.033,61.524-12.989a42.734,42.734,0,0,0,1.8-21.037Z" transform="translate(-734.121 483.497)" fill="#6836bf"/></g></g><path d="M808.528-538.359c-.491,2.054-.987,3.908-1.555,5.83q-.835,2.856-1.75,5.687c-1.24,3.772-2.6,7.518-4.182,11.226A92.722,92.722,0,0,1,795.6-504.59a53.694,53.694,0,0,1-3.586,5.4,30.8,30.8,0,0,1-4.92,5.2l-.157.128a4.1,4.1,0,0,1-.344.254,8.011,8.011,0,0,1-3.552,1.275,10.1,10.1,0,0,1-2.411-.017,14.869,14.869,0,0,1-3.243-.786,33.956,33.956,0,0,1-4.738-2.155,77.507,77.507,0,0,1-7.864-5c-2.462-1.77-4.832-3.6-7.135-5.506-2.288-1.937-4.53-3.849-6.713-5.953a3.236,3.236,0,0,1-.084-4.573,3.235,3.235,0,0,1,3.893-.586l.052.03c2.5,1.385,5.021,2.854,7.549,4.22,2.518,1.393,5.03,2.771,7.542,4.06,2.495,1.306,5.029,2.517,7.442,3.513a22.56,22.56,0,0,0,3.374,1.129,4.008,4.008,0,0,0,1.03.138c.072,0,.02-.042-.227-.025a3.275,3.275,0,0,0-1.5.564l-.5.381a19.636,19.636,0,0,0,2.743-3.377,50.155,50.155,0,0,0,2.551-4.339,100.6,100.6,0,0,0,4.347-9.82c1.3-3.414,2.523-6.907,3.654-10.442,1.149-3.5,2.2-7.174,3.151-10.6l.036-.129a6.479,6.479,0,0,1,7.981-4.5A6.492,6.492,0,0,1,808.528-538.359Z" transform="translate(-716.615 599.14)" fill="#1a2e35"/><g transform="translate(45.131 119.344)"><path d="M784.532-376.908h10.594a.673.673,0,0,1,.7.644l.514,8.382a1.671,1.671,0,0,1-1.65,1.677c-3.689-.064-5.451-.281-10.11-.281-2.866,0-8.647.3-12.6.3-3.871,0-3.846-3.914-2.168-4.268,7.521-1.589,10.438-3.781,13.1-5.873A2.655,2.655,0,0,1,784.532-376.908Z" transform="translate(-760.64 489.773)" fill="#1a2e35"/><path d="M811.073-483.5s-51.22,4.326-49.96,26.566c1.38,24.356,23.869,86.3,23.869,86.3H795.34s-8.866-56.725-11.983-81.526c14.437,0,47.92,2.719,52.723-10.3a42.735,42.735,0,0,0,1.8-21.037Z" transform="translate(-761.089 483.497)" fill="#3d2c65"/></g><path d="M755.564-517.328a17.313,17.313,0,0,0-2.88-3.534c-2.094,1.963-3.273,7.691-3.273,7.691l2.9.261S755.63-513.991,755.564-517.328Z" transform="translate(-716.646 600.641)" fill="#f7ca18"/><path d="M745.6-522.3l-3.293-1.431a1.926,1.926,0,0,0-2.415.771l-1.56,2.585a1.924,1.924,0,0,0,.258,2.327l4.521,4.717,7.541-.3a2.4,2.4,0,0,0,2.042-1.307l.872-1.7a2.373,2.373,0,0,0-.752-3.06C750.373-521.317,745.6-522.3,745.6-522.3Z" transform="translate(-717.315 600.463)" fill="#ffc3bd"/><path d="M793.57-540.384c-1.512,9.5-3.465,30.108.525,61.137l41.984-.4c-.251-21.5,3.12-41.69,6.408-61.411a5.872,5.872,0,0,0-4.987-6.79,155.72,155.72,0,0,0-36.246-.029A9.009,9.009,0,0,0,793.57-540.384Z" transform="translate(-714.154 598.989)" fill="#1a2e35"/><path d="M841.608-543.8c1.233,3.058,2.224,5.994,3.238,9.023,1.006,3.01,1.889,6.065,2.722,9.151.8,3.1,1.569,6.218,2.155,9.426a76.424,76.424,0,0,1,1.288,9.927c.056.858.072,1.746.083,2.636l-.017,1.356a8.211,8.211,0,0,1-1.053,3.966,7.162,7.162,0,0,1-1.761,2.056,6.546,6.546,0,0,1-1.05.7,6.606,6.606,0,0,1-1.012.468,8.724,8.724,0,0,1-3.11.541,14.211,14.211,0,0,1-3.708-.58,32.585,32.585,0,0,1-5.13-2.022c-1.534-.757-2.975-1.556-4.385-2.375a116.624,116.624,0,0,1-15.527-11.116,3.229,3.229,0,0,1-.4-4.551,3.231,3.231,0,0,1,3.864-.843l.074.036c5.476,2.609,11.039,5.281,16.465,7.529,1.353.558,2.705,1.081,4.018,1.517a22.339,22.339,0,0,0,3.618.989,1.822,1.822,0,0,0,.87.022,1.591,1.591,0,0,0-.842.143,4.717,4.717,0,0,0-.489.22,5.235,5.235,0,0,0-.574.379,4.553,4.553,0,0,0-1.023,1.179,3.808,3.808,0,0,0-.546,1.733l-.061-.957c-.058-.653-.114-1.308-.211-1.986a112.825,112.825,0,0,0-3.953-16.9c-1.7-5.68-3.648-11.488-5.631-17l-.019-.055a6.48,6.48,0,0,1,3.905-8.291A6.493,6.493,0,0,1,841.608-543.8Z" transform="translate(-712.891 599.051)" fill="#1a2e35"/><path d="M825.262-568.012l-5.079,4.212-6.915,5.742a22.652,22.652,0,0,1,.439,2.794c.33,3.338-.4,6.409-4.459,7.965a5.363,5.363,0,0,0-3.35,3.275c-.547,1.775.1,3.746,5.671,3.745,8.181,0,12.453-3.639,14.063-5.431a1.441,1.441,0,0,0,.069-1.8C822.46-552.108,823.94-562.273,825.262-568.012Z" transform="translate(-713.329 597.865)" fill="#ffc3bd"/><path d="M811.176-543.52a3.249,3.249,0,0,1,.708,1.44,5.849,5.849,0,0,1,1.534-1.44,5.48,5.48,0,0,1,2.935,3.437,15.516,15.516,0,0,1-4.4-1.637A7.532,7.532,0,0,1,809-540.8C809.07-542.636,811.176-543.52,811.176-543.52Z" transform="translate(-713.137 599.307)" fill="#3d2c65"/><path d="M813.173-543.12a12.818,12.818,0,0,1,2.8,6.174s13.556-3.387,12.919-12.224a13.774,13.774,0,0,0-3.758-1.153S822.222-545.029,813.173-543.12Z" transform="translate(-712.892 598.906)" fill="#6836bf"/><path d="M811.4-543.146a14.2,14.2,0,0,0-2.984,6.174s-6.953-6.329-.18-12.151a17.768,17.768,0,0,1,3.583-.752S807.316-546.222,811.4-543.146Z" transform="translate(-713.357 598.932)" fill="#6836bf"/><path d="M812.849-558.292a22.642,22.642,0,0,1,.439,2.794c2.578-.519,6.025-3.267,6.385-5.9a11.968,11.968,0,0,0,.09-2.635Z" transform="translate(-712.911 598.099)" opacity="0.2"/><path d="M806.028-585.2c-6.377,4.521-2.808,15.129,2.631,11.071S811.226-588.882,806.028-585.2Z" transform="translate(-713.513 596.808)" fill="#1a2e35"/><path d="M827.53-575.573c-1.766,8.12-2.386,12.947-7.181,16.651a10.8,10.8,0,0,1-17.474-7.774c-.631-7.558,2.362-19.566,10.9-21.865A10.929,10.929,0,0,1,827.53-575.573Z" transform="translate(-713.503 596.629)" fill="#ffc3bd"/><path d="M823.813-581.166c-4.5-1.243-16.108,1.711-20.227-2.683-4.419-4.713,2.029-7,3.927-5.367-2.406-2.75-1.508-5.7,1.9-5.433,2.483.191,3.275,2.945,3.275,2.945s-.415-4.814,3.857-4.483c3.881.3,3.891,5.532,3.891,5.532s9.26-2.619,12.346,6.218c5.826-.13,5.695,12.132-6.022,16.5C822-570.3,821.783-578.664,823.813-581.166Z" transform="translate(-713.546 596.204)" fill="#1a2e35"/><path d="M829.962-583.03a1.178,1.178,0,0,1-1.157-.97,1.178,1.178,0,0,1,.946-1.368,1.706,1.706,0,0,0,.682-.859,2.788,2.788,0,0,0,.128-2.206,1.18,1.18,0,0,1,.583-1.562,1.177,1.177,0,0,1,1.561.583,5.2,5.2,0,0,1-.255,4.421,3.443,3.443,0,0,1-2.277,1.941A1.1,1.1,0,0,1,829.962-583.03Z" transform="translate(-711.972 596.564)" fill="#1a2e35"/><path d="M827.785-568.942a7.4,7.4,0,0,1-4.459,2.762c-2.3.4-2.993-1.707-1.978-3.757.913-1.846,3.208-4.28,5.33-3.754C828.77-573.172,829.147-570.729,827.785-568.942Z" transform="translate(-712.437 597.526)" fill="#ffc3bd"/><path d="M813.111-575.545c-.1.666-.54,1.164-.977,1.112s-.708-.634-.606-1.3.54-1.164.977-1.112S813.214-576.211,813.111-575.545Z" transform="translate(-712.99 597.344)" fill="#1a2e35"/><path d="M805.973-576.393c-.1.666-.541,1.164-.977,1.112s-.708-.634-.606-1.3.54-1.164.977-1.112S806.076-577.06,805.973-576.393Z" transform="translate(-713.41 597.294)" fill="#1a2e35"/><path d="M808.235-576.213a21.451,21.451,0,0,1-3.157,4.748,3.261,3.261,0,0,0,2.691.653Z" transform="translate(-713.368 597.382)" fill="#ff847f"/><path d="M810.594-567.766a5.8,5.8,0,0,0,4.2-1.73.2.2,0,0,0-.019-.279.2.2,0,0,0-.279.018,5.544,5.544,0,0,1-4.643,1.552.2.2,0,0,0-.219.174.2.2,0,0,0,.173.219A6.74,6.74,0,0,0,810.594-567.766Z" transform="translate(-713.1 597.758)" fill="#1a2e35"/><path d="M816.083-579.134a.384.384,0,0,0,.176-.09.4.4,0,0,0,.033-.558,3.8,3.8,0,0,0-3.324-1.309.391.391,0,0,0-.323.457.4.4,0,0,0,.457.322,3.011,3.011,0,0,1,2.6,1.055A.4.4,0,0,0,816.083-579.134Z" transform="translate(-712.923 597.093)" fill="#1a2e35"/><path d="M803.351-579.56a.4.4,0,0,0,.362-.076,3.318,3.318,0,0,1,2.819-.766.394.394,0,0,0,.487-.273.4.4,0,0,0-.271-.487h0a4.085,4.085,0,0,0-3.538.919.4.4,0,0,0-.052.557A.4.4,0,0,0,803.351-579.56Z" transform="translate(-713.487 597.085)" fill="#1a2e35"/><path d="M816.89-522.8l-4.634-2.88a2.937,2.937,0,0,0-4.066.976l-.545.9a2.938,2.938,0,0,0,.3,3.448l3.2,3.671s2.783,6.489,6.009,4.776l2.461-4.264Z" transform="translate(-713.242 600.331)" fill="#ffc3bd"/><path d="M821.229-514.91a19.523,19.523,0,0,0-2.423-4.317c-2.326,1.994-4.212,8.35-4.212,8.35l2.847.613A5.3,5.3,0,0,0,821.229-514.91Z" transform="translate(-712.808 600.737)" fill="#f7ca18"/><g transform="translate(83.59 133.198)"><path d="M857.729-470.413H802.755c-3.606,0-5.938,3.566-5.213,7.966l6.863,41.59c.725,4.4,4.236,7.967,7.84,7.967h38.678Z" transform="translate(-797.41 470.413)" fill="#007cff"/><path d="M857.729-470.413H802.755c-3.606,0-5.938,3.566-5.213,7.966l6.863,41.59c.725,4.4,4.236,7.967,7.84,7.967h38.678Z" transform="translate(-797.41 470.413)" fill="#f7ca18"/></g></g><g transform="translate(630.774 -479.811)"><g transform="translate(6.912 2.698)"><g transform="translate(18.005)"><path d="M614.884-358.67h1.586a1.072,1.072,0,0,0,1.028-1.044L626.236-490.9h-6.562l-5.819,131.046A1.087,1.087,0,0,0,614.884-358.67Z" transform="translate(-613.854 490.897)" fill="#007cff"/><path d="M614.884-358.67h1.586a1.072,1.072,0,0,0,1.028-1.044L626.236-490.9h-6.562l-5.819,131.046A1.087,1.087,0,0,0,614.884-358.67Z" transform="translate(-613.854 490.897)" fill="#3d2c65"/></g><path d="M597.88-358.67h1.587a1.072,1.072,0,0,0,1.027-1.044L609.232-490.9H602.67l-5.819,131.046A1.087,1.087,0,0,0,597.88-358.67Z" transform="translate(-596.85 490.897)" fill="#007cff"/><path d="M597.88-358.67h1.587a1.072,1.072,0,0,0,1.027-1.044L609.232-490.9H602.67l-5.819,131.046A1.087,1.087,0,0,0,597.88-358.67Z" transform="translate(-596.85 490.897)" fill="#3d2c65"/><g transform="translate(211.671)"><path d="M808.1-358.67h-1.586a1.073,1.073,0,0,1-1.028-1.044L796.75-490.9h6.563l5.818,131.046A1.087,1.087,0,0,1,808.1-358.67Z" transform="translate(-796.75 490.897)" fill="#007cff"/><path d="M808.1-358.67h-1.586a1.073,1.073,0,0,1-1.028-1.044L796.75-490.9h6.563l5.818,131.046A1.087,1.087,0,0,1,808.1-358.67Z" transform="translate(-796.75 490.897)" fill="#3d2c65"/></g><g transform="translate(229.676)"><path d="M825.105-358.67h-1.586a1.073,1.073,0,0,1-1.028-1.044L813.754-490.9h6.562l5.819,131.046A1.087,1.087,0,0,1,825.105-358.67Z" transform="translate(-813.754 490.897)" fill="#007cff"/><path d="M825.105-358.67h-1.586a1.073,1.073,0,0,1-1.028-1.044L813.754-490.9h6.562l5.819,131.046A1.087,1.087,0,0,1,825.105-358.67Z" transform="translate(-813.754 490.897)" fill="#3d2c65"/></g></g><rect width="255.51" height="2.698" fill="#f7ca18"/></g><g transform="translate(571.983 -597.684)"><g transform="translate(25.166)"><path d="M587.087-532.823l-2.412,17.757c-.761,5.913-1.557,11.839-2.126,17.661-.08.732-.133,1.446-.193,2.165l-.088,1.078a2.354,2.354,0,0,0-.037-.529,2.251,2.251,0,0,0-.123-.5,2.051,2.051,0,0,0-.159-.371,1.584,1.584,0,0,0-.147-.239c-.187-.241-.208-.209-.158-.157a2.251,2.251,0,0,0,.36.3,10.859,10.859,0,0,0,1.4.821,56.234,56.234,0,0,0,7.774,2.885c5.556,1.685,11.386,3.144,17.144,4.564l-.651,5.058a127.939,127.939,0,0,1-18.363-1.9,52.992,52.992,0,0,1-9.437-2.49,20.019,20.019,0,0,1-2.616-1.227,11.373,11.373,0,0,1-1.478-1,8.1,8.1,0,0,1-1.689-1.8,6.831,6.831,0,0,1-.8-1.62,7.408,7.408,0,0,1-.251-1.052,7.957,7.957,0,0,1-.062-1.093l.026-1.175c.018-.784.031-1.571.069-2.34.251-6.186.807-12.223,1.467-18.259s1.416-12.018,2.362-18.031Z" transform="translate(-572.977 608.91)" fill="#903c38"/><path d="M620-484.605l-3.883,3.548a3,3,0,0,1-3.33.489l-4.293-2.066s-6.364-.263-7.271-4.151l1.645-3.021,9.858-1.095a4.6,4.6,0,0,1,2.906.646l4.063,2.481A1.99,1.99,0,0,1,620-484.605Z" transform="translate(-571.314 611.465)" fill="#903c38"/><path d="M597.133-567.362c1.007,6.091,1.862,17.221-2.5,21.135,0,0,10.634,5.568,17.607,15.285,7.458-5.907,1.212-14.725,1.212-14.725-6.7-1.813-6.381-6.817-5.065-11.488Z" transform="translate(-571.702 606.965)" fill="#903c38"/><g transform="translate(18.711 56.085)"><path d="M617.267-542.837s-.561-5.164-3.38-7.718c-2.368-2.144-14.794-.953-18.707-.517a2.139,2.139,0,0,0-1.693,1.207l-2.839,5.93Z" transform="translate(-590.648 551.797)" fill="#007cff"/><path d="M617.267-542.837s-.561-5.164-3.38-7.718c-2.368-2.144-14.794-.953-18.707-.517a2.139,2.139,0,0,0-1.693,1.207l-2.839,5.93Z" transform="translate(-590.648 551.797)" fill="#3d2c65"/></g><path d="M583.762-545.89c-7.667,2.5-9.314,12.774-8.625,20.776l15.476,9.519s3.757-11.684,3.726-17.923C594.3-540.157,588.968-547.583,583.762-545.89Z" transform="translate(-572.858 608.214)" fill="#3d2c65"/><g transform="translate(0.843 81.666)"><path d="M586.184-519.337a1.478,1.478,0,0,1-1.017-.413,1.621,1.621,0,0,1-.171-.221,1.032,1.032,0,0,1-.137-.255,2.085,2.085,0,0,1-.086-.265,1.284,1.284,0,0,1-.031-.274,1.45,1.45,0,0,1,.424-1.017,1.475,1.475,0,0,1,2.032,0,1.451,1.451,0,0,1,.425,1.017,1.222,1.222,0,0,1-.032.274,1.107,1.107,0,0,1-.085.265.947.947,0,0,1-.128.255c-.052.073-.115.147-.18.221A1.44,1.44,0,0,1,586.184-519.337Z" transform="translate(-573.127 527.959)" fill="#fff"/><path d="M583.733-520.069h.011a1.442,1.442,0,0,1-.921-1.292h0a1.416,1.416,0,0,1-1.557.233h0a1.448,1.448,0,0,1-.836-1.334h0a1.408,1.408,0,0,1-1.568.138h0a1.43,1.43,0,0,1-.752-1.375h0a1.444,1.444,0,0,1-1.577.052h0a1.439,1.439,0,0,1-.487-1.97h0a1.444,1.444,0,0,1,1.979-.487h0a1.477,1.477,0,0,1,.689,1.346h0a1.42,1.42,0,0,1,1.5-.1h0a1.449,1.449,0,0,1,.761,1.3h0a1.436,1.436,0,0,1,1.494-.18h0a1.443,1.443,0,0,1,.836,1.25h0a1.466,1.466,0,0,1,1.482-.265h0a1.443,1.443,0,0,1,.8,1.865h0a1.426,1.426,0,0,1-1.334.91h0A1.554,1.554,0,0,1,583.733-520.069Z" transform="translate(-573.651 527.716)" fill="#fff"/><path d="M575.214-524.766a1.266,1.266,0,0,1-.287-.032,1.059,1.059,0,0,1-.265-.085.93.93,0,0,1-.253-.127,1.571,1.571,0,0,1-.212-.18,1.123,1.123,0,0,1-.18-.212c-.053-.085-.1-.168-.138-.253a2.291,2.291,0,0,1-.085-.265,2.628,2.628,0,0,1-.022-.287,2.224,2.224,0,0,1,.022-.275,2.378,2.378,0,0,1,.085-.274,1.047,1.047,0,0,1,.138-.245,1.65,1.65,0,0,1,.18-.222,1.733,1.733,0,0,1,.212-.18,1.376,1.376,0,0,1,.253-.127,2.11,2.11,0,0,1,.265-.085,1.483,1.483,0,0,1,1.293.392,1.745,1.745,0,0,1,.18.222,1.76,1.76,0,0,1,.138.245,1.36,1.36,0,0,1,.074.274,1.155,1.155,0,0,1,.031.275,1.328,1.328,0,0,1-.031.287,1.293,1.293,0,0,1-.074.265c-.042.085-.085.168-.138.253a1.167,1.167,0,0,1-.18.212A1.448,1.448,0,0,1,575.214-524.766Z" transform="translate(-573.773 527.638)" fill="#fff"/></g><path d="M632.274-530.872c-.648,8.807-2.608,23.638-7.434,48.606L583.4-483.5c1.086-15.3-.555-26.706-4.3-53.481a8.7,8.7,0,0,1,7.738-9.861c2.661-.274,5.683-.5,8.726-.557a132.059,132.059,0,0,1,18.819.56c2.019.246,4.105.564,6.1.9A14.222,14.222,0,0,1,632.274-530.872Z" transform="translate(-572.622 608.136)" fill="#6836bf"/><path d="M617.245-577.861c.1.818.611,1.428,1.146,1.365s.888-.778.79-1.6-.611-1.428-1.145-1.364S617.148-578.678,617.245-577.861Z" transform="translate(-570.372 606.252)" fill="#1a2e35"/><path d="M617.773-579.344l1.9-.8S618.845-578.49,617.773-579.344Z" transform="translate(-570.339 606.212)" fill="#1a2e35"/><path d="M617.511-576.752a21.975,21.975,0,0,0,3.54,4.869,3.54,3.54,0,0,1-2.849.9Z" transform="translate(-570.355 606.412)" fill="#740606"/><path d="M617.525-584.678a.483.483,0,0,0,.036-.478.483.483,0,0,0-.644-.23,4.8,4.8,0,0,0-2.754,3.45.483.483,0,0,0,.414.544.483.483,0,0,0,.543-.412h0a3.832,3.832,0,0,1,2.211-2.708A.483.483,0,0,0,617.525-584.678Z" transform="translate(-570.552 605.901)" fill="#1a2e35"/><path d="M590.622-577.209c1.82,9.967,2.377,14.225,8.067,18.771,8.558,6.838,20.4,2.423,21.6-7.888,1.075-9.28-2.082-24.021-12.39-26.838A13.819,13.819,0,0,0,590.622-577.209Z" transform="translate(-571.952 605.415)" fill="#903c38"/><path d="M613.263-573.766c1.68,5.477,5.684,18.719-3.16,21.667-6.92,2.306-28.581,4.151-31.076-8.542-2.579-13.125,9.123-22.465,9.123-22.465s-9.272-7.6-3.331-15.888c7.656-10.678,25.987-4.64,31.429,2.9C621.539-588.757,613.263-573.766,613.263-573.766Z" transform="translate(-572.643 604.762)" fill="#1a2e35"/><path d="M596.619-551.458a30.862,30.862,0,0,1-11.57-2.284c-4.92-2.119-7.791-5.392-8.3-9.467-1.738-13.841,11.142-21.447,11.272-21.521l.513.887c-.124.072-12.42,7.349-10.767,20.505.587,4.668,4.507,7.283,7.692,8.654,6.288,2.707,14.41,2.693,16.382,1.246l.606.828C601.416-551.857,599.253-551.458,596.619-551.458Z" transform="translate(-572.765 605.942)" fill="#1a2e35"/><path d="M583.871-586.114c-.117,1.77-1.586,4.2,4.552,5.118s14.667.828,16.417-.649,3.474-5.006-.185-4.691S584.069-589.14,583.871-586.114Z" transform="translate(-572.35 605.782)" fill="#3d2c65"/><path d="M608.2-573.711a7.948,7.948,0,0,0,4.7,3.838c2.674.782,4.045-1.6,3.33-4.141-.643-2.287-2.808-5.45-5.505-5.119C608.071-578.805,607-575.992,608.2-573.711Z" transform="translate(-570.932 606.27)" fill="#903c38"/><path d="M669.45-374.992l9.826-.187-4.758-24.529-9.826.187Z" transform="translate(-567.577 616.837)" fill="#903c38"/><path d="M676.558-386.453c2.6,9.789,12.152,20.153,12.152,20.153l-13.635-3.464-5.959-8.468,1.043-2.242Z" transform="translate(-567.316 617.617)" fill="#903c38"/><path d="M667-382.043a19.97,19.97,0,0,0,.2,3.426c.575,4.049,2.362,14.784,2.362,14.784l.925.005a96.009,96.009,0,0,1-.75-9.889c.127-2.663,1.846,2.046,3.921,4.709s5.812,5.089,11.857,5.279c7.079.221,9.9-.076,7.631-1.844s-7.091-2.92-7.091-2.92a21.518,21.518,0,0,1-9.55-7.985,24.905,24.905,0,0,0-8.783-7.6C667.152-383.978,667.032-382.907,667-382.043Z" transform="translate(-567.441 617.757)" fill="#1a2e35"/><path d="M702.617-406.7l12.544.387-14.029-20.858-8.686,7.424Z" transform="translate(-565.943 615.22)" fill="#903c38"/><path d="M704.864-416.2c9.113,4.245,23.709,3.41,23.709,3.41l-11.865,9.519-10.174-.754-1.075-2.261Z" transform="translate(-565.211 615.865)" fill="#903c38"/><path d="M703.1-405.462a19.967,19.967,0,0,0,2.638,2.188c3.328,2.318,12.313,8.257,12.313,8.257l.576-.724a95.075,95.075,0,0,1-7.723-6.176c-1.877-1.922,2.641-.052,5.879.138s7.325-1.09,11.2-5.716c4.533-5.416,6.057-7.838,3.359-7.263s-6.524,3.58-6.524,3.58a19.09,19.09,0,0,1-11.759,2.048,22.022,22.022,0,0,0-11,1.709C701.777-406.907,702.49-406.08,703.1-405.462Z" transform="translate(-565.38 615.945)" fill="#1a2e35"/><path d="M610.275-486.417s67.1-9.925,74.042,7.275C696.4-449.218,713.47-414.93,713.47-414.93l-8.241,6.817s-29.254-27.081-39.66-57.145c-12.431,4.022-51.979,16.963-66.465,16.963-15.471,0-21.79-13.19-16.2-35.093a4.4,4.4,0,0,1,4.293-3.3C596.934-486.636,610.275-486.417,610.275-486.417Z" transform="translate(-572.511 611.563)" fill="#1a2e35"/><path d="M616.414-477.809s55.068-1.659,55.532,17.851c.769,32.263,9.861,78.494,9.861,78.494l-10.045.935S655.341-417.3,651-448.82c-19.616,1.274-37.7.395-52.186.395-16.234,0-17.575-17.828-1.775-38.631C606.694-487.056,616.414-477.809,616.414-477.809Z" transform="translate(-572.217 611.693)" fill="#1a2e35"/><path d="M582.7-489.355l-1.17,3.679c-.154.284.179.587.658.6l42.655,1.269c.374.011.688-.163.719-.4l.484-3.7c.034-.256-.284-.483-.693-.5l-41.969-1.248A.755.755,0,0,0,582.7-489.355Z" transform="translate(-572.476 611.541)" fill="#fff"/><g transform="translate(14.226 121.698)"><path d="M587.908-484.484l-1.123-.033c-.224-.007-.391-.127-.372-.268l.67-4.8c.02-.141.219-.25.443-.244l1.125.034c.223.006.391.127.372.267l-.671,4.8C588.332-484.586,588.133-484.476,587.908-484.484Z" transform="translate(-586.412 489.832)" fill="#1a2e35"/><path d="M619.521-483.543l-1.123-.034c-.224-.006-.392-.127-.372-.268l.67-4.8c.02-.141.219-.25.443-.244l1.125.034c.223.006.391.127.371.268l-.67,4.8C619.945-483.646,619.746-483.536,619.521-483.543Z" transform="translate(-584.55 489.888)" fill="#1a2e35"/><path d="M603.715-484.014l-1.125-.033c-.223-.006-.391-.127-.371-.268l.67-4.8c.019-.141.218-.25.443-.244l1.123.034c.225.006.392.127.372.268l-.67,4.8C604.138-484.116,603.939-484.006,603.715-484.014Z" transform="translate(-585.481 489.86)" fill="#1a2e35"/></g><g transform="translate(72.243 80.947)"><path d="M652.5-528.317h26.789a1.284,1.284,0,0,1,1.233,1.642l-10.011,34.359a1.281,1.281,0,0,1-1.231.924H642.487a1.283,1.283,0,0,1-1.233-1.642l10.011-34.359A1.282,1.282,0,0,1,652.5-528.317Z" transform="translate(-641.203 528.317)" fill="#f7ca18"/><path d="M652.908-527.125l26.036.618L668.663-494.1l-26.036-.618Z" transform="translate(-641.119 528.387)" fill="#e1e1e1"/><path d="M652.1-527.427l26.043.108-9.645,32.6-26.044-.108Z" transform="translate(-641.129 528.369)" fill="#fff"/></g><path d="M629.959-526.79c.053,1.033.15,2.317.245,3.49.1,1.2.237,2.4.4,3.595.3,2.392.695,4.76,1.185,7.072a50.92,50.92,0,0,0,1.891,6.677,32.025,32.025,0,0,0,1.291,3.044c.229.493.489.949.744,1.407l.388.65c-.033-.043-.078-.046-.042-.007a4.739,4.739,0,0,0,1.687.987,20.308,20.308,0,0,0,3.051.912,58.52,58.52,0,0,0,7.081,1.094c4.891.476,10,.714,15.006.817l.505,5.074a95.773,95.773,0,0,1-15.786,1.784,56.232,56.232,0,0,1-8.255-.339,29.193,29.193,0,0,1-4.434-.9,13.216,13.216,0,0,1-5.065-2.614,9,9,0,0,1-1.329-1.437l-.682-.952c-.427-.629-.849-1.264-1.218-1.909a33.4,33.4,0,0,1-2-3.919,51.5,51.5,0,0,1-2.734-8.009,68.886,68.886,0,0,1-1.576-8.085q-.265-2.03-.437-4.066c-.12-1.387-.192-2.667-.206-4.2Z" transform="translate(-570.228 609.354)" fill="#903c38"/><path d="M626.843-541.485c6.668,6.278,5.061,22.64,5.061,22.64l-12.777,2.233s-7.889-11.73-5.115-16.649C616.9-538.382,623.236-544.88,626.843-541.485Z" transform="translate(-570.596 608.433)" fill="#3d2c65"/><g transform="translate(47.096 88.152)"><path d="M630.954-518.636a1.47,1.47,0,0,1-1.017-.423,1.27,1.27,0,0,1-.18-.222,1.549,1.549,0,0,1-.127-.244,1.9,1.9,0,0,1-.085-.275,2.206,2.206,0,0,1-.022-.275,1.445,1.445,0,0,1,.414-1.017,1.753,1.753,0,0,1,.222-.18,1.022,1.022,0,0,1,.244-.127,1.344,1.344,0,0,1,.274-.085,1.467,1.467,0,0,1,1.293.392,1.453,1.453,0,0,1,.422,1.017,1.151,1.151,0,0,1-.031.275,1.174,1.174,0,0,1-.085.275,1.027,1.027,0,0,1-.127.244,1.27,1.27,0,0,1-.18.222A1.454,1.454,0,0,1,630.954-518.636Z" transform="translate(-616.743 521.512)" fill="#fff"/><path d="M619.914-517.915a1.437,1.437,0,0,1,1.312-1.557h0a1.419,1.419,0,0,1,1.346.678h0a1.46,1.46,0,0,1,1.154-.974h0a1.46,1.46,0,0,1,1.387.6h0a1.419,1.419,0,0,1,1.091-1.026h0a1.429,1.429,0,0,1,1.418.518h0a1.45,1.45,0,0,1,1.039-1.1v.012a1.427,1.427,0,0,1,1.758,1.017h0a1.44,1.44,0,0,1-1.028,1.757h0a1.448,1.448,0,0,1-1.492-.5h0a1.455,1.455,0,0,1-1.122,1.112h0a1.461,1.461,0,0,1-1.461-.593h0a1.433,1.433,0,0,1-1.176,1.048h0a1.444,1.444,0,0,1-1.428-.666h0a1.453,1.453,0,0,1-1.239.974h-.118A1.447,1.447,0,0,1,619.914-517.915Z" transform="translate(-617.309 521.553)" fill="#fff"/><path d="M618.893-516.525a1.314,1.314,0,0,1-.285-.033,1.8,1.8,0,0,1-.265-.085,1.894,1.894,0,0,1-.254-.127,1.65,1.65,0,0,1-.212-.18.9.9,0,0,1-.18-.222,1.805,1.805,0,0,1-.138-.243,1.338,1.338,0,0,1-.075-.275,1.214,1.214,0,0,1-.031-.275,1.391,1.391,0,0,1,.031-.286,1.245,1.245,0,0,1,.075-.265c.042-.085.085-.168.138-.253a1.057,1.057,0,0,1,.18-.213,1.656,1.656,0,0,1,.212-.18,1.237,1.237,0,0,1,.254-.127,1.1,1.1,0,0,1,.265-.085,1.42,1.42,0,0,1,1.292.392,1.1,1.1,0,0,1,.18.213c.052.085.094.168.137.253a2.313,2.313,0,0,1,.086.265c.01.1.021.191.021.286a2.452,2.452,0,0,1-.021.275,2.484,2.484,0,0,1-.086.275,1.943,1.943,0,0,1-.137.243,1.149,1.149,0,0,1-.18.222A1.448,1.448,0,0,1,618.893-516.525Z" transform="translate(-617.454 521.636)" fill="#fff"/></g><path d="M672.618-503.69l-4.421-.3a4.992,4.992,0,0,0-3.117.837l-8.124,5.456-.061,3.439c2.6,3.027,8.367.318,8.367.318l5.346-.173a2.14,2.14,0,0,0,1.941-1.405l1.935-5.307A2.139,2.139,0,0,0,672.618-503.69Z" transform="translate(-568.036 610.696)" fill="#903c38"/></g><g transform="translate(0 102.951)"><g transform="translate(21.718 102.35)"><g transform="translate(15.355)"><path d="M585.186-358.613h1.2a1.043,1.043,0,0,0,.95-.974l7.37-51.291h-5.6l-4.88,50.951A1.114,1.114,0,0,0,585.186-358.613Z" transform="translate(-584.222 410.878)" fill="#007cff"/><path d="M585.186-358.613h1.2a1.043,1.043,0,0,0,.95-.974l7.37-51.291h-5.6l-4.88,50.951A1.114,1.114,0,0,0,585.186-358.613Z" transform="translate(-584.222 410.878)" fill="#6836bf"/></g><path d="M570.685-358.613h1.2a1.043,1.043,0,0,0,.95-.974l7.37-51.291h-5.6l-4.88,50.951A1.115,1.115,0,0,0,570.685-358.613Z" transform="translate(-569.721 410.878)" fill="#007cff"/><path d="M570.685-358.613h1.2a1.043,1.043,0,0,0,.95-.974l7.37-51.291h-5.6l-4.88,50.951A1.115,1.115,0,0,0,570.685-358.613Z" transform="translate(-569.721 410.878)" fill="#6836bf"/><g transform="translate(77.001)"><path d="M651.958-358.613h-1.2a1.041,1.041,0,0,1-.95-.974l-7.37-51.291h5.6l4.881,50.951A1.115,1.115,0,0,1,651.958-358.613Z" transform="translate(-642.44 410.878)" fill="#007cff"/><path d="M651.958-358.613h-1.2a1.041,1.041,0,0,1-.95-.974l-7.37-51.291h5.6l4.881,50.951A1.115,1.115,0,0,1,651.958-358.613Z" transform="translate(-642.44 410.878)" fill="#6836bf"/></g><g transform="translate(92.355)"><path d="M666.459-358.613h-1.2a1.043,1.043,0,0,1-.95-.974l-7.37-51.291h5.6l4.88,50.951A1.114,1.114,0,0,1,666.459-358.613Z" transform="translate(-656.94 410.878)" fill="#007cff"/><path d="M666.459-358.613h-1.2a1.043,1.043,0,0,1-.95-.974l-7.37-51.291h5.6l4.88,50.951A1.114,1.114,0,0,1,666.459-358.613Z" transform="translate(-656.94 410.878)" fill="#6836bf"/></g></g><path d="M692.7-465.988h-37.7c-6.688-23.226-30.753-41.548-55.4-41.548H587.365c-25.8,0-42.443,20.072-37.184,44.832a50.289,50.289,0,0,0,4.8,13.064l5.945,36.033c.768,4.651,4.478,8.42,8.288,8.42h113.46c3.81,0,7.52-3.77,8.288-8.42l7.252-43.961C698.978-462.218,696.512-465.988,692.7-465.988Z" transform="translate(-549.211 507.536)" fill="#007cff"/><path d="M692.7-465.988h-37.7c-6.688-23.226-30.753-41.548-55.4-41.548H587.365c-25.8,0-42.443,20.072-37.184,44.832a50.289,50.289,0,0,0,4.8,13.064l5.945,36.033c.768,4.651,4.478,8.42,8.288,8.42h113.46c3.81,0,7.52-3.77,8.288-8.42l7.252-43.961C698.978-462.218,696.512-465.988,692.7-465.988Z" transform="translate(-549.211 507.536)" fill="#f7ca18"/></g></g><g transform="translate(686.072 -675.682)"><g transform="translate(0 53.626)"><rect width="8.648" height="1.059" transform="translate(32.871)" fill="#6836bf"/><path d="M641.925-615.3h-1.059v-5.21a7.277,7.277,0,0,1,7.269-7.268h19.3v1.059h-19.3a6.217,6.217,0,0,0-6.21,6.209Z" transform="translate(-640.866 627.779)" fill="#6836bf"/><rect width="103.668" height="44.985" rx="3.365" transform="translate(3.706 3.706)" fill="#6836bf"/><path d="M739.587-600.511H652.176a2.394,2.394,0,0,1-2.394-2.394h0a2.394,2.394,0,0,1,2.394-2.394h87.411a2.394,2.394,0,0,1,2.394,2.394h0A2.394,2.394,0,0,1,739.587-600.511Z" transform="translate(-640.341 629.103)" fill="#fff"/><path d="M720.881-591.121h-68.7a2.394,2.394,0,0,1-2.394-2.394h0a2.394,2.394,0,0,1,2.394-2.394h68.7a2.394,2.394,0,0,1,2.393,2.394h0A2.394,2.394,0,0,1,720.881-591.121Z" transform="translate(-640.341 629.656)" fill="#fff"/><path d="M681.653-609.9H652.176a2.394,2.394,0,0,1-2.394-2.394h0a2.394,2.394,0,0,1,2.394-2.394h29.477a2.394,2.394,0,0,1,2.394,2.394h0A2.394,2.394,0,0,1,681.653-609.9Z" transform="translate(-640.341 628.55)" fill="#fff"/><path d="M718.555-609.9H689.078a2.394,2.394,0,0,1-2.394-2.394h0a2.394,2.394,0,0,1,2.394-2.394h29.477a2.394,2.394,0,0,1,2.394,2.394h0A2.394,2.394,0,0,1,718.555-609.9Z" transform="translate(-638.168 628.55)" fill="#fff"/><path d="M649.782-584.506v11.47a2.656,2.656,0,0,0,4.282,2.1l17.578-13.6Z" transform="translate(-640.341 630.325)" fill="#3d2c65"/></g><g transform="translate(57.658)"><path d="M795.924-677.922H699.382a3.562,3.562,0,0,0-3.563,3.563V-636.5a3.562,3.562,0,0,0,3.563,3.563h76.265l13.824,10.7a2.656,2.656,0,0,0,4.281-2.1v-8.6h2.172a3.563,3.563,0,0,0,3.563-3.563v-37.858A3.563,3.563,0,0,0,795.924-677.922Z" transform="translate(-695.289 678.452)" fill="#fff"/><path d="M791.121-621.121a3.168,3.168,0,0,1-1.945-.67L775.5-632.378H699.412a4.1,4.1,0,0,1-4.094-4.093v-37.859a4.1,4.1,0,0,1,4.094-4.094h96.54a4.1,4.1,0,0,1,4.094,4.094v37.859a4.1,4.1,0,0,1-4.094,4.093h-1.64v8.068a3.167,3.167,0,0,1-1.783,2.86A3.2,3.2,0,0,1,791.121-621.121Zm-91.71-56.244a3.039,3.039,0,0,0-3.035,3.035v37.859a3.038,3.038,0,0,0,3.035,3.034h76.446l13.966,10.808a2.086,2.086,0,0,0,2.24.229,2.088,2.088,0,0,0,1.19-1.91v-9.127h2.7a3.037,3.037,0,0,0,3.035-3.034v-37.859a3.038,3.038,0,0,0-3.035-3.035Z" transform="translate(-695.318 678.423)" fill="#6836bf"/><path d="M742.955-654.154h45.768a2.394,2.394,0,0,0,2.394-2.393h0a2.394,2.394,0,0,0-2.394-2.394H742.955a2.394,2.394,0,0,0-2.394,2.394h0A2.394,2.394,0,0,0,742.955-654.154Z" transform="translate(-692.654 679.57)" fill="#6836bf"/><path d="M712.778-654.154h22.66a2.394,2.394,0,0,0,2.394-2.393h0a2.394,2.394,0,0,0-2.394-2.394h-22.66a2.394,2.394,0,0,0-2.394,2.394h0A2.394,2.394,0,0,0,712.778-654.154Z" transform="translate(-694.431 679.57)" fill="#6836bf"/><rect width="73.492" height="4.788" rx="2.261" transform="translate(98.464 35.359) rotate(180)" fill="#6836bf"/><path d="M703.628-663.543h87.411a2.394,2.394,0,0,0,2.394-2.394h0a2.394,2.394,0,0,0-2.394-2.394H703.628a2.394,2.394,0,0,0-2.394,2.394h0A2.394,2.394,0,0,0,703.628-663.543Z" transform="translate(-694.97 679.017)" fill="#6836bf"/></g></g></g></g></svg>