<svg xmlns="http://www.w3.org/2000/svg" xmlns:xlink="http://www.w3.org/1999/xlink" width="108" height="108" viewBox="0 0 108 108"><defs><filter id="a" x="0" y="0" width="108" height="108" filterUnits="userSpaceOnUse"><feOffset dy="3" input="SourceAlpha"/><feGaussianBlur stdDeviation="3" result="b"/><feFlood flood-opacity="0.161"/><feComposite operator="in" in2="b"/><feComposite in="SourceGraphic"/></filter></defs><g transform="translate(7579 3676.557)"><g transform="translate(-7804 -5020.557)"><g transform="matrix(1, 0, 0, 1, 225, 1344)" filter="url(#a)"><path d="M10,0H80A10,10,0,0,1,90,10V90a0,0,0,0,1,0,0H10A10,10,0,0,1,0,80V10A10,10,0,0,1,10,0Z" transform="translate(9 6)" fill="#f6f6f6"/></g></g><g transform="translate(-7558.756 -3659.145)"><path d="M67.51,28.311H65.064L61.417,30.23a5.413,5.413,0,0,0-1.3-.534l-4.587-1.148v-.522A7.647,7.647,0,0,0,58.8,21.778v-1.9a7.823,7.823,0,0,0-7.388-7.893c-.207-.005-.41,0-.615.012l1.189-2.784L46.219,3.444l-3.4,2.212a18.418,18.418,0,0,0-4.076-1.691L37.9,0h-8.3l-.84,3.967a18.4,18.4,0,0,0-4.076,1.691l-3.4-2.212L15.531,9.206,16.7,11.993c-.045,0-.087-.01-.132-.011A7.625,7.625,0,0,0,8.711,19.6v2.178a7.644,7.644,0,0,0,3.267,6.248v.523L8.985,29.3,3.561,26.133H0V48.7l10.712,3.57H12.8l.261-.912,3.284,1.971a3.39,3.39,0,0,0,3.269,3.285,3.39,3.39,0,0,0,3.267,3.267,3.39,3.39,0,0,0,3.267,3.267,3.386,3.386,0,0,0,5.295,2.689l.964.852a3.316,3.316,0,0,0,2.191.827h.2a3.315,3.315,0,0,0,3.309-3.271,3.312,3.312,0,0,0,3.267-3.267A3.312,3.312,0,0,0,44.64,57.7a3.348,3.348,0,0,0,3.271-3.341,3.188,3.188,0,0,0-.016-.326L67.51,44.228ZM56.622,19.874v1.9A5.466,5.466,0,0,1,53.9,26.489l-.544.315,0,3.446,5.44,1.359-11.974,6.3V34.978a5.418,5.418,0,0,0-1.559-3.795L49,30.25V26.8l-.543-.314a5.46,5.46,0,0,1-2.723-4.71V19.6a5.444,5.444,0,0,1,5.613-5.441,5.63,5.63,0,0,1,5.276,5.716ZM35.4,37.055,30.468,35.48a13.447,13.447,0,0,0-6.977-.318l-.624.138v-.322a3.264,3.264,0,0,1,2.474-3.17l6.237-1.558V26.8l-.543-.314a5.46,5.46,0,0,1-2.723-4.71V19.6a5.444,5.444,0,0,1,5.613-5.441A5.63,5.63,0,0,1,39.2,19.874v1.9a5.466,5.466,0,0,1-2.725,4.712l-.544.315,0,3.446,6.236,1.558a3.264,3.264,0,0,1,2.474,3.17v4.08l-.269.141h-.667l-6.694-1.913a6.864,6.864,0,0,0-1.616-.231ZM23.11,16.3a11.969,11.969,0,0,1,21.245-.088,7.573,7.573,0,0,0-.8,3.391v2.178a7.644,7.644,0,0,0,3.267,6.248v.523l-4.356,1.09-4.357-1.09v-.522a7.647,7.647,0,0,0,3.268-6.249v-1.9a7.823,7.823,0,0,0-7.388-7.893A7.624,7.624,0,0,0,26.133,19.6v2.178A7.644,7.644,0,0,0,29.4,28.025v.523l-4.356,1.09-4.357-1.09v-.522a7.647,7.647,0,0,0,3.268-6.249v-1.9A8.026,8.026,0,0,0,23.11,16.3ZM18.1,9.711l3.479-3.479,3.062,1.993.586-.359a16.249,16.249,0,0,1,4.715-1.956l.67-.161.758-3.572H36.14L36.9,5.749l.67.16A16.264,16.264,0,0,1,42.28,7.865l.586.359,3.062-1.993L49.4,9.707,48.167,12.6a7.611,7.611,0,0,0-2.3,1.528c-.045.044-.083.09-.127.135a14.141,14.141,0,0,0-24.016.065,7.68,7.68,0,0,0-2.4-1.7ZM14.155,30.25V26.8l-.543-.314a5.46,5.46,0,0,1-2.723-4.71V19.6A5.444,5.444,0,0,1,16.5,14.159a5.63,5.63,0,0,1,5.276,5.716v1.9a5.466,5.466,0,0,1-2.725,4.712l-.544.315,0,3.446,3.736.934a5.418,5.418,0,0,0-1.559,3.795v.807l-3.4.755.088-.308.041-2.012-5.743-3.35ZM2.177,28.311h.794L10.8,32.878,6.851,48.684,2.177,47.125Zm8.888,21.778-2.143-.714,3.839-15.353,2.483,1.448v.311L11.156,50.088Zm7.446,3.135a1.229,1.229,0,0,1,.357-.863l1.914-1.914a1.221,1.221,0,0,1,1.727,1.727l-1.914,1.914a1.221,1.221,0,0,1-2.084-.863Zm3.267,3.267a1.229,1.229,0,0,1,.357-.863l1.914-1.914a1.221,1.221,0,0,1,1.727,1.727l-1.914,1.914a1.221,1.221,0,0,1-2.084-.863Zm3.267,3.267a1.229,1.229,0,0,1,.357-.863l1.914-1.914a1.221,1.221,0,0,1,1.727,1.727L27.128,60.62a1.221,1.221,0,0,1-2.084-.863Zm4.487,4.487a1.221,1.221,0,0,1-.863-2.084l1.914-1.914a1.221,1.221,0,0,1,1.727,1.727l-1.914,1.914A1.229,1.229,0,0,1,29.531,64.244ZM34.8,65.333h-.2a1.128,1.128,0,0,1-.75-.284l-.815-.718.818-.818a3.385,3.385,0,0,0,.686-1.012l.99.824a1.136,1.136,0,0,1-.727,2.008Zm9.765-9.8h-.188a1.168,1.168,0,0,1-.749-.272l-5.9-4.921-1.4,1.674,5.734,4.778A1.136,1.136,0,0,1,41.33,58.8h-.238a1.136,1.136,0,0,1-.726-.264l-5.914-4.928-1.4,1.674,5.734,4.778a1.135,1.135,0,0,1-.727,2.007,1.8,1.8,0,0,1-1.146-.415l-2.43-2.026a3.387,3.387,0,0,0-2.924-1.9A3.39,3.39,0,0,0,28.3,54.456a3.39,3.39,0,0,0-3.267-3.267,3.391,3.391,0,0,0-5.788-2.284L17.328,50.82a3.356,3.356,0,0,0-.305.373l-3.345-2.007L16.61,38.923l7.351-1.634a11.217,11.217,0,0,1,5.842.264l1.6.513L25.97,40.785a3.63,3.63,0,0,0-2.015,3.262v.215a3.647,3.647,0,0,0,5.524,3.127l4.055-2.431a2.248,2.248,0,0,1,2.611.251l9.2,8.28a1.172,1.172,0,0,1-.783,2.043ZM65.333,42.882,46.988,52.055c-.06-.063-.122-.123-.187-.182l-9.2-8.28a4.382,4.382,0,0,0-5.19-.5l-4.056,2.432a1.468,1.468,0,0,1-2.223-1.261v-.215a1.461,1.461,0,0,1,.812-1.314L33.019,39.7a4.733,4.733,0,0,1,3.394-.315l6.843,1.954,1.657.041L65.333,30.63Zm0,0" transform="translate(0)" fill="#6836bf"/></g></g></svg>