<svg xmlns="http://www.w3.org/2000/svg" xmlns:xlink="http://www.w3.org/1999/xlink" width="88" height="88" viewBox="0 0 88 88">
  <defs>
    <filter id="Trazado_188616" x="0" y="0" width="88" height="88" filterUnits="userSpaceOnUse">
      <feOffset dy="3" input="SourceAlpha"/>
      <feGaussianBlur stdDeviation="3" result="blur"/>
      <feFlood flood-opacity="0.161"/>
      <feComposite operator="in" in2="blur"/>
      <feComposite in="SourceGraphic"/>
    </filter>
  </defs>
  <g id="Grupo_134459" data-name="Grupo 134459" transform="translate(13054 12141)">
    <g transform="matrix(1, 0, 0, 1, -13054, -12141)" filter="url(#Trazado_188616)">
      <path id="Trazado_188616-2" data-name="Trazado 188616" d="M7.778,0H62.222A7.778,7.778,0,0,1,70,7.778V70H7.778A7.778,7.778,0,0,1,0,62.222V7.778A7.778,7.778,0,0,1,7.778,0Z" transform="translate(9 6)" fill="#f7ca18"/>
    </g>
    <g id="equipo_1_" data-name="equipo (1)" transform="translate(-13037.123 -12127.123)">
      <path id="Trazado_189545" data-name="Trazado 189545" d="M53.917,22.61H51.962L49.05,24.143a4.323,4.323,0,0,0-1.036-.426L44.35,22.8v-.417a6.107,6.107,0,0,0,2.61-4.991v-1.52a6.248,6.248,0,0,0-5.9-6.3c-.165,0-.328,0-.491.01l.95-2.224-4.605-4.6L34.2,4.517a14.71,14.71,0,0,0-3.255-1.35L30.272,0H23.645l-.67,3.168a14.693,14.693,0,0,0-3.255,1.35L17,2.751l-4.6,4.6.934,2.225c-.036,0-.07-.008-.105-.009a6.09,6.09,0,0,0-6.275,6.084v1.739a6.1,6.1,0,0,0,2.609,4.99V22.8l-2.39.6L2.844,20.871H0v18.02l8.555,2.851h1.666l.208-.729,2.622,1.574a2.708,2.708,0,0,0,2.611,2.623,2.707,2.707,0,0,0,2.609,2.609,2.707,2.707,0,0,0,2.609,2.609,2.7,2.7,0,0,0,4.229,2.147l.77.68a2.648,2.648,0,0,0,1.75.661h.161A2.648,2.648,0,0,0,30.433,51.3,2.645,2.645,0,0,0,33.042,48.7a2.645,2.645,0,0,0,2.609-2.611,2.674,2.674,0,0,0,2.612-2.668,2.546,2.546,0,0,0-.013-.261l15.666-7.833Zm-8.7-6.738v1.52a4.365,4.365,0,0,1-2.177,3.763l-.435.251,0,2.752,4.345,1.085-9.563,5.033V27.935A4.327,4.327,0,0,0,36.148,24.9l2.985-.746V21.4l-.434-.251a4.36,4.36,0,0,1-2.175-3.761V15.653a4.348,4.348,0,0,1,4.483-4.346,4.5,4.5,0,0,1,4.214,4.565ZM28.269,29.594l-3.937-1.258a10.739,10.739,0,0,0-5.572-.254l-.5.11v-.257A2.607,2.607,0,0,1,20.238,25.4l4.981-1.245V21.4l-.434-.251a4.36,4.36,0,0,1-2.175-3.761V15.653a4.348,4.348,0,0,1,4.483-4.346,4.5,4.5,0,0,1,4.214,4.565v1.52a4.365,4.365,0,0,1-2.177,3.763l-.435.251,0,2.752,4.98,1.245a2.607,2.607,0,0,1,1.976,2.532v3.259l-.215.113h-.533L29.56,29.779a5.482,5.482,0,0,0-1.291-.185ZM18.457,13.015a9.559,9.559,0,0,1,16.967-.07,6.048,6.048,0,0,0-.639,2.708v1.739a6.1,6.1,0,0,0,2.609,4.99V22.8l-3.479.871L30.436,22.8v-.417a6.107,6.107,0,0,0,2.61-4.991v-1.52a6.248,6.248,0,0,0-5.9-6.3,6.088,6.088,0,0,0-6.274,6.085v1.739a6.1,6.1,0,0,0,2.609,4.99V22.8L20,23.67,16.522,22.8v-.417a6.107,6.107,0,0,0,2.61-4.991v-1.52a6.41,6.41,0,0,0-.675-2.857Zm-4-5.259,2.778-2.778,2.445,1.591.468-.287A12.977,12.977,0,0,1,23.914,4.72l.535-.128.605-2.853h3.808l.6,2.852L30,4.719a12.989,12.989,0,0,1,3.766,1.562l.468.287L36.68,4.977l2.775,2.776-.986,2.31a6.078,6.078,0,0,0-1.836,1.22c-.036.035-.066.072-.1.108a11.294,11.294,0,0,0-19.18.052,6.134,6.134,0,0,0-1.918-1.36ZM11.3,24.159V21.4l-.434-.251A4.36,4.36,0,0,1,8.7,17.392V15.653a4.348,4.348,0,0,1,4.483-4.346,4.5,4.5,0,0,1,4.214,4.565v1.52a4.365,4.365,0,0,1-2.177,3.763l-.435.251,0,2.752,2.984.746a4.327,4.327,0,0,0-1.245,3.031v.644l-2.712.6.07-.246.033-1.607L9.327,24.653ZM1.739,22.61h.634l6.254,3.648L5.471,38.881,1.739,37.636ZM8.837,40l-1.712-.57,3.066-12.262,1.983,1.157v.248L8.91,40Zm5.946,2.5a.982.982,0,0,1,.285-.69L16.6,40.288a.975.975,0,0,1,1.379,1.379L16.448,43.2a.975.975,0,0,1-1.665-.69Zm2.609,2.609a.982.982,0,0,1,.285-.69L19.206,42.9a.975.975,0,0,1,1.379,1.379L19.057,45.8a.975.975,0,0,1-1.665-.69ZM20,47.724a.982.982,0,0,1,.285-.69l1.529-1.529a.975.975,0,0,1,1.379,1.379l-1.529,1.529A.975.975,0,0,1,20,47.724Zm3.584,3.584a.975.975,0,0,1-.69-1.665l1.529-1.529A.975.975,0,0,1,25.8,49.494l-1.529,1.529A.982.982,0,0,1,23.585,51.308Zm4.205.87h-.161a.9.9,0,0,1-.6-.227l-.651-.574.653-.653a2.7,2.7,0,0,0,.548-.808l.791.658a.907.907,0,0,1-.581,1.6Zm7.8-7.827h-.15a.933.933,0,0,1-.6-.217L30.125,40.2,29.01,41.54l4.58,3.816a.908.908,0,0,1-.582,1.6h-.19a.907.907,0,0,1-.58-.211l-4.723-3.936L26.4,44.15l4.58,3.816a.906.906,0,0,1-.581,1.6,1.436,1.436,0,0,1-.915-.331L27.543,47.62a2.705,2.705,0,0,0-2.335-1.52A2.707,2.707,0,0,0,22.6,43.491a2.707,2.707,0,0,0-2.609-2.609,2.708,2.708,0,0,0-4.623-1.824l-1.529,1.529a2.68,2.68,0,0,0-.244.3l-2.671-1.6,2.342-8.2,5.871-1.305a8.959,8.959,0,0,1,4.666.211l1.281.41L20.74,32.573a2.9,2.9,0,0,0-1.609,2.605v.172a2.912,2.912,0,0,0,4.412,2.5l3.238-1.942a1.8,1.8,0,0,1,2.085.2l7.348,6.613a.936.936,0,0,1-.625,1.631Zm16.588-10.1L37.527,41.573c-.048-.051-.1-.1-.149-.145l-7.346-6.613a3.5,3.5,0,0,0-4.145-.4l-3.239,1.943a1.173,1.173,0,0,1-1.776-1.007v-.172a1.167,1.167,0,0,1,.649-1.05L26.371,31.7a3.78,3.78,0,0,1,2.71-.251l5.465,1.561,1.324.033,16.308-8.583Zm0,0" transform="translate(0)" fill="#6836bf"/>
    </g>
  </g>
</svg>
