<svg xmlns="http://www.w3.org/2000/svg" xmlns:xlink="http://www.w3.org/1999/xlink" width="88" height="88" viewBox="0 0 88 88">
  <defs>
    <filter id="Rect치ngulo_40821" x="0" y="0" width="88" height="88" filterUnits="userSpaceOnUse">
      <feOffset dy="3" input="SourceAlpha"/>
      <feGaussianBlur stdDeviation="3" result="blur"/>
      <feFlood flood-opacity="0.161"/>
      <feComposite operator="in" in2="blur"/>
      <feComposite in="SourceGraphic"/>
    </filter>
  </defs>
  <g id="Grupo_134457" data-name="Grupo 134457" transform="translate(13392 12141)">
    <g transform="matrix(1, 0, 0, 1, -13392, -12141)" filter="url(#Rect치ngulo_40821)">
      <path id="Rect치ngulo_40821-2" data-name="Rect치ngulo 40821" d="M10,0H60A10,10,0,0,1,70,10V70a0,0,0,0,1,0,0H10A10,10,0,0,1,0,60V10A10,10,0,0,1,10,0Z" transform="translate(9 6)" fill="#7fc733"/>
    </g>
    <path id="Trazado_192645" data-name="Trazado 192645" d="M-1234.6-115a1.325,1.325,0,0,1-1.536,1.18c-3.414-.021-6.828,0-10.242-.022-.6,0-.884.1-.809.776a10.285,10.285,0,0,1,0,1.692,1.17,1.17,0,0,1-1.187,1.254,1.146,1.146,0,0,1-1.212-1.223q-.054-1.813,0-3.628c.026-.867.5-1.27,1.424-1.276,1.908-.012,3.818-.036,5.725.015.639.017.756-.19.728-.765a11.133,11.133,0,0,1,.169-3.05,7.043,7.043,0,0,1,7.013-5.515c1.586-.021,3.172-.026,4.758.009.534.011.618-.168.681-.672.146-1.175-.251-1.722-1.4-2.212a11.363,11.363,0,0,1-6.227-6.618c-.167-.43-.3-.652-.831-.6a2.734,2.734,0,0,1-1.989-.739,6.1,6.1,0,0,1-1.738-6.169,3.228,3.228,0,0,1,1.363-1.841.994.994,0,0,0,.511-1.293,13.568,13.568,0,0,1,.605-7.6,9.431,9.431,0,0,1,6.378-6.012,23.676,23.676,0,0,1,13.964.024,10.376,10.376,0,0,1,1.834.811c1.031.544,1.165.921.816,2.014a1.426,1.426,0,0,1-1.9.169,7.282,7.282,0,0,0-1.921-.811,21.565,21.565,0,0,0-11.845.037,7.29,7.29,0,0,0-5.35,5.583,9.133,9.133,0,0,0-.368,1.89c-.057,2.028-.358,4.143,1.575,5.749.106-1.142.218-2.2.3-3.27a6.71,6.71,0,0,1,2.089-4.654,2.522,2.522,0,0,1,3.75-.02,14.573,14.573,0,0,0,5.9,3.625c2.973,1.139,6.076,2.09,8,5.034a3.151,3.151,0,0,1,.838-1.358,2.07,2.07,0,0,0,.742-1.355,11.436,11.436,0,0,0-.532-6.8,1.477,1.477,0,0,1,.389-1.877c1.1-.232,1.485-.028,1.9,1.044a13.631,13.631,0,0,1,.692,7.752c-.112.557-.117.944.475,1.306a3.492,3.492,0,0,1,1.57,2.608,6.092,6.092,0,0,1-1.283,4.76,3.123,3.123,0,0,1-2.677,1.394c-.5-.026-.612.183-.766.574a11.846,11.846,0,0,1-6.94,6.975.914.914,0,0,0-.687,1.048c.032,1.492.008,1.492,1.532,1.492,1.264,0,2.527-.008,3.791,0a7.055,7.055,0,0,1,7.3,7.257c.008.511.03,1.023-.007,1.532-.031.432.125.539.542.535,1.908-.021,3.818-.012,5.726-.008,1.2,0,1.606.4,1.618,1.582.01,1.048.017,2.1,0,3.145-.018.912-.457,1.4-1.206,1.4s-1.183-.488-1.211-1.4a16.484,16.484,0,0,1,.005-1.693c.036-.5-.125-.65-.627-.63-1.02.039-2.043.012-3.064.012-5.35,0-10.7.01-16.05-.014-.6,0-.82.127-.757.748a11.011,11.011,0,0,1,0,1.692c-.044.835-.515,1.3-1.242,1.283a1.173,1.173,0,0,1-1.164-1.275c-.027-.617-.035-1.238,0-1.854.026-.457-.124-.6-.585-.589-1.021.032-2.044-.019-3.064.019a1.343,1.343,0,0,1-1.549-1.176c.27-1.013.576-1.252,1.645-1.253q8.222-.005,16.444,0c2.19,0,2.19,0,2.12-2.184a4.628,4.628,0,0,0-4.787-4.7c-1.182-.017-2.365-.02-3.547,0-.584.009-1.315-.247-1.714.123-.374.347-.076,1.074-.132,1.63-.011.107-.018.214-.03.321a2.805,2.805,0,0,1-2.717,2.584,16.136,16.136,0,0,1-1.853-.006,2.776,2.776,0,0,1-2.626-2.581,11.782,11.782,0,0,1-.023-1.53c.018-.424-.142-.558-.56-.554-1.693.019-3.387-.036-5.078.022a4.563,4.563,0,0,0-4.548,4.427c-.047.641.008,1.29-.028,1.933-.025.451.175.537.57.527.859-.022,1.72-.012,2.579-.005C-1235.161-116.244-1234.831-115.974-1234.6-115Zm18.645-23.688c.037-.845.037-.846-.679-1.385a2.214,2.214,0,0,1-.683-.976,5.8,5.8,0,0,0-1.8-2.328,15.946,15.946,0,0,0-4.458-2.194c-2.715-1.04-5.446-2.041-7.411-4.352-.326-.383-.573-.121-.791.123a4.678,4.678,0,0,0-1.119,2.869,41.027,41.027,0,0,1-.648,5.434,1.78,1.78,0,0,1-.939,1.424c-.6.241-.6.643-.577,1.153a9.623,9.623,0,0,0,10.449,9.14A9.659,9.659,0,0,0-1215.959-138.691Zm-8.315,16.647c0-1.095,0-1.095-.879-1.1-1.524,0-1.524,0-1.526.848,0,1.395,0,1.395,1.075,1.4C-1224.275-120.894-1224.275-120.894-1224.273-122.045Zm-13.293-16.01c0-.679.009-1.259,0-1.838a11.3,11.3,0,0,0-.11-2.245c-.145-.658-.459-.627-.875-.247a1.994,1.994,0,0,0-.467,1.873A2.986,2.986,0,0,0-1237.566-138.055Zm24.038-.047c1.424-.572,2.123-3.035,1.276-4.109-.187-.238-.432-.493-.723-.439s-.31.428-.345.675C-1213.5-140.706-1213.294-139.426-1213.528-138.1Zm-11.983,12.39c.414-.231,1.246.445,1.241-.7,0-.738-.188-1.035-.937-.871a1.317,1.317,0,0,1-.56,0c-.773-.179-.916.164-.927.879C-1226.711-125.328-1225.936-125.906-1225.511-125.712Z" transform="translate(-12122.516 -11964.76)" fill="#12263f"/>
  </g>
</svg>
