<svg xmlns="http://www.w3.org/2000/svg" xmlns:xlink="http://www.w3.org/1999/xlink" width="108" height="108" viewBox="0 0 108 108">
  <defs>
    <filter id="Rect치ngulo_40720" x="0" y="0" width="108" height="108" filterUnits="userSpaceOnUse">
      <feOffset dy="3" input="SourceAlpha"/>
      <feGaussianBlur stdDeviation="3" result="blur"/>
      <feFlood flood-opacity="0.161"/>
      <feComposite operator="in" in2="blur"/>
      <feComposite in="SourceGraphic"/>
    </filter>
  </defs>
  <g id="Grupo_134434" data-name="Grupo 134434" transform="translate(10690 12071.904)">
    <g transform="matrix(1, 0, 0, 1, -10690, -12071.9)" filter="url(#Rect치ngulo_40720)">
      <path id="Rect치ngulo_40720-2" data-name="Rect치ngulo 40720" d="M10,0H80A10,10,0,0,1,90,10V90a0,0,0,0,1,0,0H10A10,10,0,0,1,0,80V10A10,10,0,0,1,10,0Z" transform="translate(9 6)" fill="#f6f6f6"/>
    </g>
    <path id="Trazado_192686" data-name="Trazado 192686" d="M-1230.426-102.38a1.694,1.694,0,0,1-1.963,1.509c-4.364-.027-8.728.006-13.092-.028-.768-.006-1.129.133-1.035.992a13.145,13.145,0,0,1,0,2.162,1.5,1.5,0,0,1-1.517,1.6,1.465,1.465,0,0,1-1.549-1.563q-.069-2.317,0-4.638c.033-1.108.635-1.624,1.821-1.631,2.44-.015,4.881-.046,7.319.019.817.022.966-.243.931-.978a14.236,14.236,0,0,1,.217-3.9,9,9,0,0,1,8.965-7.05c2.027-.026,4.056-.033,6.082.011.682.015.79-.215.87-.859.187-1.5-.321-2.2-1.791-2.828a14.524,14.524,0,0,1-7.961-8.46c-.214-.55-.383-.833-1.062-.766a3.5,3.5,0,0,1-2.542-.944,7.8,7.8,0,0,1-2.222-7.886,4.127,4.127,0,0,1,1.742-2.353,1.271,1.271,0,0,0,.653-1.652,17.346,17.346,0,0,1,.774-9.72,12.057,12.057,0,0,1,8.153-7.686,30.266,30.266,0,0,1,17.85.031,13.265,13.265,0,0,1,2.344,1.037c1.318.7,1.489,1.177,1.043,2.574a1.823,1.823,0,0,1-2.433.216,9.307,9.307,0,0,0-2.456-1.037,27.567,27.567,0,0,0-15.141.047,9.319,9.319,0,0,0-6.839,7.137,11.675,11.675,0,0,0-.471,2.417c-.073,2.592-.457,5.3,2.013,7.349.135-1.459.279-2.818.384-4.18a8.578,8.578,0,0,1,2.671-5.95c1.527-1.393,3.477-1.479,4.794-.026a18.631,18.631,0,0,0,7.543,4.634c3.8,1.456,7.768,2.672,10.221,6.435a4.027,4.027,0,0,1,1.071-1.736,2.646,2.646,0,0,0,.949-1.732,14.62,14.62,0,0,0-.68-8.69,1.888,1.888,0,0,1,.5-2.4c1.409-.3,1.9-.036,2.429,1.334a17.425,17.425,0,0,1,.884,9.909c-.143.712-.15,1.207.607,1.67a4.464,4.464,0,0,1,2.007,3.334,7.788,7.788,0,0,1-1.641,6.085,3.992,3.992,0,0,1-3.422,1.782c-.641-.034-.782.234-.979.733a15.143,15.143,0,0,1-8.871,8.917,1.168,1.168,0,0,0-.878,1.34c.041,1.907.011,1.907,1.958,1.907,1.615,0,3.231-.011,4.846,0a9.018,9.018,0,0,1,9.328,9.277c.01.653.038,1.308-.009,1.958-.04.553.159.69.692.684,2.44-.027,4.88-.016,7.32-.01,1.534,0,2.053.507,2.068,2.022.013,1.34.021,2.681,0,4.021-.022,1.166-.584,1.79-1.541,1.792s-1.512-.624-1.547-1.786a21.01,21.01,0,0,1,.007-2.164c.046-.634-.16-.831-.8-.806-1.3.05-2.611.015-3.917.015-6.839,0-13.678.013-20.517-.018-.761,0-1.048.162-.967.956a14.058,14.058,0,0,1,0,2.163c-.056,1.067-.658,1.665-1.588,1.64a1.5,1.5,0,0,1-1.488-1.63c-.035-.789-.044-1.582,0-2.37.033-.584-.158-.772-.748-.753-1.3.041-2.613-.024-3.917.024a1.716,1.716,0,0,1-1.98-1.5c.345-1.295.736-1.6,2.1-1.6q10.51-.007,21.021-.006c2.8,0,2.8,0,2.71-2.792a5.917,5.917,0,0,0-6.12-6.007c-1.511-.021-3.023-.026-4.534,0-.747.012-1.681-.316-2.191.157-.478.444-.1,1.373-.168,2.084-.014.137-.023.274-.039.41a3.586,3.586,0,0,1-3.474,3.3,20.634,20.634,0,0,1-2.368-.008,3.549,3.549,0,0,1-3.357-3.3,15.085,15.085,0,0,1-.029-1.956c.023-.542-.181-.714-.716-.708-2.164.024-4.33-.047-6.491.028a5.833,5.833,0,0,0-5.814,5.66c-.06.82.011,1.649-.035,2.471-.033.577.224.687.729.674,1.1-.028,2.2-.016,3.3-.007C-1231.138-103.966-1230.716-103.621-1230.426-102.38Zm23.835-30.281c.047-1.08.047-1.081-.868-1.771a2.828,2.828,0,0,1-.873-1.248,7.412,7.412,0,0,0-2.3-2.975,20.379,20.379,0,0,0-5.7-2.8c-3.471-1.33-6.961-2.609-9.474-5.564-.417-.49-.732-.155-1.011.157a5.98,5.98,0,0,0-1.431,3.667,52.46,52.46,0,0,1-.828,6.946,2.275,2.275,0,0,1-1.2,1.821c-.761.309-.762.822-.738,1.474a12.3,12.3,0,0,0,13.357,11.684A12.347,12.347,0,0,0-1206.591-132.661Zm-10.629,21.28c0-1.4,0-1.4-1.123-1.4-1.948,0-1.948,0-1.95,1.083,0,1.783,0,1.783,1.374,1.786C-1217.223-109.91-1217.223-109.91-1217.22-111.381Zm-16.992-20.466c0-.868.012-1.609,0-2.35a14.442,14.442,0,0,0-.141-2.869c-.186-.842-.586-.8-1.119-.316a2.548,2.548,0,0,0-.6,2.395A3.816,3.816,0,0,0-1234.212-131.847Zm30.728-.061c1.82-.731,2.714-3.88,1.63-5.253-.24-.3-.552-.63-.924-.562s-.4.547-.441.863C-1203.446-135.237-1203.185-133.6-1203.484-131.908Zm-15.319,15.839c.53-.295,1.593.569,1.586-.9,0-.944-.24-1.323-1.2-1.113a1.684,1.684,0,0,1-.716,0c-.988-.228-1.171.209-1.185,1.124C-1220.336-115.579-1219.346-116.317-1218.8-116.069Z" transform="translate(-9417.231 -11892.487)" fill="#6836bf"/>
  </g>
</svg>
