<svg xmlns="http://www.w3.org/2000/svg" width="1030" height="450" viewBox="0 0 1030 450"><g transform="translate(-13136 5542.168)"><path d="M20,0h990a20,20,0,0,1,20,20V430a20,20,0,0,1-20,20H20A20,20,0,0,1,0,430V20A20,20,0,0,1,20,0Z" transform="translate(13136 -5542.168)" fill="none"/><path d="M0,0H373.609V183.783H0Z" transform="translate(13464.222 -5331.284)" fill="#f1f2f2" stroke="#231f20" stroke-width="1"/><path d="M1600.4,1039.816l186.856,67.816,186.854-67.816Z" transform="translate(11863.772 -6371.1)" fill="#e6e7e8"/><path d="M1600.4,993.38l186.855-78,186.855,78Z" transform="translate(11863.772 -6324.665)" fill="#f1f2f2" stroke="#af418c" stroke-width="4"/><path d="M0,0H256.969V343.622H0Z" transform="translate(13522.541 -5497.168)" fill="#fff" stroke="#af418c" stroke-width="4"/><path d="M2021.044,1109.13a9.532,9.532,0,0,1-9.5,9.5H1921.3a9.532,9.532,0,0,1-9.5-9.5V858.019a9.532,9.532,0,0,1,9.5-9.5h90.239a9.533,9.533,0,0,1,9.5,9.505Z" transform="translate(11747.571 -6281.115)" fill="#6836bf" opacity="0.527"/><path d="M0,0H65.944V2.487H0Z" transform="translate(13537.181 -5444.202)" fill="#12263f"/><path d="M0,0H61.139V2.487H0Z" transform="translate(13564.012 -5432.601)" fill="#12263f"/><path d="M0,0H51.794V2.486H0Z" transform="translate(13546.124 -5421.621)" fill="#12263f"/><path d="M0,0H51.794V2.486H0Z" transform="translate(13562.143 -5398.465)" fill="#12263f"/><path d="M0,0H55.933V2.486H0Z" transform="translate(13570.152 -5411.262)" fill="#12263f"/><path d="M0,0H62.206V2.486H0Z" transform="translate(13551.528 -5367.816)" fill="#12263f"/><path d="M0,0H75.956V2.487H0Z" transform="translate(13537.18 -5352.634)" fill="#12263f"/><path d="M0,0H61.805V2.485H0Z" transform="translate(13562.143 -5341.678)" fill="#12263f"/><path d="M0,0H61.539V2.486H0Z" transform="translate(13544.255 -5326.292)" fill="#12263f"/><path d="M0,0H61.539V2.486H0Z" transform="translate(13562.276 -5312.271)" fill="#12263f"/><path d="M0,0H47.656V2.486H0Z" transform="translate(13671.798 -5326.6)" fill="#12263f"/><path d="M0,0H47.656V2.486H0Z" transform="translate(13711.127 -5315.07)" fill="#12263f"/><path d="M0,0H47.656V2.486H0Z" transform="translate(13671.798 -5303.54)" fill="#12263f"/><path d="M0,0H96.959V2.486H0Z" transform="translate(13671.799 -5292.01)" fill="#12263f"/><path d="M0,0H96.959V2.486H0Z" transform="translate(13542.807 -5384.667)" fill="#12263f"/><path d="M0,0H96.959V2.486H0Z" transform="translate(13542.807 -5293.029)" fill="#12263f"/><path d="M0,0H96.959V2.486H0Z" transform="translate(13542.807 -5201.39)" fill="#7fc733"/><path d="M0,0H47.656V2.486H0Z" transform="translate(13671.798 -5280.48)" fill="#12263f"/><path d="M0,0H64.484V2.486H0Z" transform="translate(13671.799 -5268.95)" fill="#939598"/><path d="M0,0H47.656V2.486H0Z" transform="translate(13699.54 -5257.42)" fill="#939598"/><path d="M0,0H47.656V2.486H0Z" transform="translate(13699.262 -5245.89)" fill="#939598"/><path d="M0,0H47.656V2.486H0Z" transform="translate(13671.798 -5234.36)" fill="#939598"/><path d="M0,0H96.959V2.486H0Z" transform="translate(13671.799 -5222.831)" fill="#7fc733"/><path d="M0,0H47.656V2.486H0Z" transform="translate(13671.798 -5211.301)" fill="#939598"/><path d="M0,0H47.656V2.485H0Z" transform="translate(13682.585 -5199.771)" fill="#939598"/><path d="M0,0H47.656V2.486H0Z" transform="translate(13702.929 -5188.241)" fill="#939598"/><path d="M0,0H47.656V2.485H0Z" transform="translate(13671.798 -5176.711)" fill="#939598"/><path d="M0,0H55.265V2.486H0Z" transform="translate(13563.878 -5268.733)" fill="#939598"/><path d="M0,0H62.207V2.487H0Z" transform="translate(13549.327 -5257.421)" fill="#939598"/><path d="M0,0H62.207V2.487H0Z" transform="translate(13559.366 -5280.743)" fill="#12263f"/><path d="M0,0H77.558V2.486H0Z" transform="translate(13542.653 -5246.566)" fill="#939598"/><path d="M0,0H84.232V2.487H0Z" transform="translate(13544.923 -5230.822)" fill="#939598"/><path d="M0,0H59.87V2.487H0Z" transform="translate(13575.158 -5217.564)" fill="#939598"/><path d="M2018.29,947.732a9.532,9.532,0,0,1-9.5,9.5h-71.564a9.533,9.533,0,0,1-9.5-9.5V873.15a9.533,9.533,0,0,1,9.5-9.505h71.563a9.533,9.533,0,0,1,9.5,9.5Z" transform="translate(11740.987 -6287.372)" fill="#e6e7e8"/><path d="M1991.5,940.452l-1.2-10.685a30.116,30.116,0,0,0,7.159-11.649c.481,1.089,1.049,1.719,1.659,1.719,1.727,0,3.128-5.061,3.128-11.305s-1.4-11.306-3.128-11.306a1.015,1.015,0,0,0-.551.174c-2.8-12.489-11.666-21.616-22.176-21.616s-19.381,9.128-22.178,21.616a1.014,1.014,0,0,0-.55-.174c-1.728,0-3.129,5.061-3.129,11.306s1.4,11.305,3.129,11.305c.609,0,1.177-.63,1.658-1.719a30.11,30.11,0,0,0,7.158,11.649l-1.2,10.685h-25.372v14.435h80.963V940.452Z" transform="translate(11737.599 -6292.392)" fill="#6836bf" opacity="0.329"/><path d="M-36.542,7.318h-2.465V-1.277H-48.38V7.318h-2.452V-11.276h2.452v7.994h9.373v-7.994h2.465Zm18.657-8.7a11.5,11.5,0,0,1-.919,4.77A6.964,6.964,0,0,1-21.409,6.5a7.167,7.167,0,0,1-3.933,1.073,7.106,7.106,0,0,1-3.895-1.079,7.131,7.131,0,0,1-2.637-3.078,11.036,11.036,0,0,1-.964-4.629V-2.554a11.365,11.365,0,0,1,.932-4.738,7.106,7.106,0,0,1,2.637-3.148,7.076,7.076,0,0,1,3.9-1.092,7.208,7.208,0,0,1,3.94,1.079A6.952,6.952,0,0,1-18.8-7.323a11.558,11.558,0,0,1,.919,4.77Zm-2.439-1.2a8.337,8.337,0,0,0-1.328-5.076,4.381,4.381,0,0,0-3.716-1.769,4.333,4.333,0,0,0-3.659,1.769A8.166,8.166,0,0,0-30.4-2.745v1.366a8.349,8.349,0,0,0,1.347,5.038,4.352,4.352,0,0,0,3.71,1.833,4.334,4.334,0,0,0,3.678-1.73A8.3,8.3,0,0,0-20.324-1.2Zm13.907-8.7h2.465V1.89a5.454,5.454,0,0,1-1.6,4.176A5.982,5.982,0,0,1-9.827,7.573a6.149,6.149,0,0,1-4.316-1.418,5.119,5.119,0,0,1-1.545-3.972h2.452a3.409,3.409,0,0,0,.875,2.49,3.389,3.389,0,0,0,2.535.894A3.288,3.288,0,0,0-7.368,4.61a3.71,3.71,0,0,0,.951-2.682ZM10.21,2.465H2.42L.671,7.318H-1.858l7.1-18.594H7.388L14.5,7.318H11.985ZM3.161.447H9.482l-3.167-8.7Zm20.318,6.87V-11.276h5.249A8.449,8.449,0,0,1,33.018-10.2,7.255,7.255,0,0,1,35.9-7.151,9.934,9.934,0,0,1,36.925-2.6v1.188a9.969,9.969,0,0,1-1.015,4.61,7.141,7.141,0,0,1-2.9,3.039,8.987,8.987,0,0,1-4.387,1.085ZM25.93-9.258V5.313h2.58A5.615,5.615,0,0,0,32.922,3.55,7.277,7.277,0,0,0,34.5-1.468V-2.554a7.392,7.392,0,0,0-1.488-4.923,5.3,5.3,0,0,0-4.221-1.781ZM51.139-1.277H43.081V5.313h9.361v2H40.629V-11.276H52.314v2.018H43.081v5.976h8.058ZM68.123,4.061l5.312-15.337h2.682l-6.9,18.594H67.051L60.167-11.276h2.669ZM81.238,7.318H78.786V-11.276h2.452Zm4.482,0V-11.276h5.249A8.449,8.449,0,0,1,95.26-10.2a7.255,7.255,0,0,1,2.88,3.052A9.934,9.934,0,0,1,99.168-2.6v1.188a9.969,9.969,0,0,1-1.015,4.61,7.141,7.141,0,0,1-2.9,3.039,8.987,8.987,0,0,1-4.387,1.085ZM88.173-9.258V5.313h2.58A5.615,5.615,0,0,0,95.164,3.55a7.277,7.277,0,0,0,1.577-5.019V-2.554a7.392,7.392,0,0,0-1.488-4.923,5.3,5.3,0,0,0-4.221-1.781Zm24.7,11.723h-7.79l-1.75,4.853H100.8l7.1-18.594h2.145l7.113,18.594h-2.516ZM105.821.447h6.321l-3.167-8.7Z" transform="translate(13614.711 -5473.638)" fill="#b13e8d"/><path d="M1791.53,1107.642l-191.05-67.8V1223.61h382.1V1039.845Z" transform="translate(11859.521 -6371.11)" fill="#f1f2f2" stroke="#af418c" stroke-width="4"/><path d="M1602.6,1263.97,1788.078,1148,1973.55,1263.97Z" transform="translate(11862.949 -6411.471)" fill="#f6f6f6" stroke="#af418c" stroke-width="4"/><path d="M17.5,0h168a17.5,17.5,0,0,1,0,35H17.5a17.5,17.5,0,0,1,0-35Z" transform="translate(13337 -5457.168)" fill="#b13e8d"/><path d="M17.5,0h224a17.5,17.5,0,0,1,0,35H17.5a17.5,17.5,0,0,1,0-35Z" transform="translate(13802 -5412.168)" fill="#b13e8d"/><path d="M17.5,0h168a17.5,17.5,0,0,1,0,35H17.5a17.5,17.5,0,0,1,0-35Z" transform="translate(13255 -5244.168)" fill="#b13e8d"/><path d="M17.5,0h168a17.5,17.5,0,0,1,0,35H17.5a17.5,17.5,0,0,1,0-35Z" transform="translate(13848 -5199.168)" fill="#b13e8d"/><path d="M24.021,19H20.953l-4.535-7.963V19H13.333V6.2h3.085l4.526,7.963V6.2h3.076Zm12.788-6.135a7.546,7.546,0,0,1-.694,3.313A5.132,5.132,0,0,1,34.141,18.4a5.494,5.494,0,0,1-2.914.778,5.572,5.572,0,0,1-2.9-.751,5.123,5.123,0,0,1-1.973-2.149,7.329,7.329,0,0,1-.743-3.208v-.721a7.58,7.58,0,0,1,.69-3.318A5.119,5.119,0,0,1,28.279,6.81,5.854,5.854,0,0,1,34.11,6.8,5.211,5.211,0,0,1,36.092,9a7.362,7.362,0,0,1,.716,3.274Zm-3.138-.536a5.381,5.381,0,0,0-.637-2.9,2.044,2.044,0,0,0-1.824-.989q-2.32,0-2.452,3.48l-.009.94a5.535,5.535,0,0,0,.624,2.892,2.041,2.041,0,0,0,1.854,1.011,2.016,2.016,0,0,0,1.8-.993,5.383,5.383,0,0,0,.642-2.856ZM42.451,6.2l2.856,8.9,2.848-8.9h4.061V19H49.122V16.012l.3-6.117L46.327,19H44.288l-3.1-9.114.3,6.126V19H38.4V6.2ZM54.176,19V6.2h4.6a6.509,6.509,0,0,1,3.757.905,3.012,3.012,0,0,1,1.288,2.628,3.045,3.045,0,0,1-.457,1.7,2.663,2.663,0,0,1-1.345,1.037,2.7,2.7,0,0,1,1.538.984,2.862,2.862,0,0,1,.536,1.758A3.388,3.388,0,0,1,62.9,18.038,5.667,5.667,0,0,1,59.37,19Zm3.085-5.44v3.067h2.021a1.923,1.923,0,0,0,1.283-.382,1.338,1.338,0,0,0,.448-1.077,1.419,1.419,0,0,0-1.591-1.608Zm0-2.021h1.608a2.285,2.285,0,0,0,1.441-.37,1.314,1.314,0,0,0,.431-1.067,1.379,1.379,0,0,0-.466-1.168,2.493,2.493,0,0,0-1.5-.357H57.261Zm13.28,2.936h-1.67V19H65.786V6.2h5.036a5.621,5.621,0,0,1,3.56,1.01,3.421,3.421,0,0,1,1.283,2.853,4.155,4.155,0,0,1-.541,2.213A3.837,3.837,0,0,1,73.433,13.7L76.1,18.868V19H72.8ZM68.871,12.1h1.951a1.751,1.751,0,0,0,1.323-.463,1.788,1.788,0,0,0,.444-1.291,1.809,1.809,0,0,0-.448-1.3,1.735,1.735,0,0,0-1.318-.471H68.871Zm16.594,1.468H80.613v3.059h5.73V19H77.528V6.2h8.833V8.585H80.613v2.7h4.852Z" transform="translate(13386.318 -5451.668)" fill="#fff"/><path d="M10.144,13.568H5.292v3.059h5.73V19H2.208V6.2h8.833V8.585H5.292v2.7h4.852Zm6.908-3.111L19.144,6.2h3.524l-3.577,6.346L22.765,19h-3.56l-2.153-4.333L14.9,19H11.348l3.665-6.451L11.445,6.2H14.96Zm9.8,4.2V19H23.767V6.2h5.106a5.948,5.948,0,0,1,2.6.541A4.074,4.074,0,0,1,33.22,8.282a4.2,4.2,0,0,1,.62,2.263,3.7,3.7,0,0,1-1.34,2.993,5.561,5.561,0,0,1-3.678,1.121Zm0-2.382h2.021a1.906,1.906,0,0,0,1.367-.448,1.665,1.665,0,0,0,.47-1.266,2.059,2.059,0,0,0-.483-1.433,1.712,1.712,0,0,0-1.318-.545H26.852Zm16.567,1.292H38.568v3.059H44.3V19H35.483V6.2h8.833V8.585H38.568v2.7h4.852Zm6.891.905H48.64V19H45.555V6.2h5.036a5.621,5.621,0,0,1,3.56,1.01,3.421,3.421,0,0,1,1.283,2.853,4.155,4.155,0,0,1-.541,2.213A3.837,3.837,0,0,1,53.2,13.7l2.672,5.167V19h-3.3ZM48.64,12.1h1.951a1.751,1.751,0,0,0,1.323-.463,1.788,1.788,0,0,0,.444-1.291,1.809,1.809,0,0,0-.448-1.3,1.735,1.735,0,0,0-1.318-.471H48.64ZM60.584,19H57.508V6.2h3.076Zm10.081-5.432H65.814v3.059h5.73V19H62.729V6.2h8.833V8.585H65.814v2.7h4.852ZM83.489,19H80.421l-4.535-7.963V19H72.8V6.2h3.085l4.526,7.963V6.2h3.076Zm12.3-4.333a4.673,4.673,0,0,1-.721,2.36,4.35,4.35,0,0,1-1.85,1.586,6.3,6.3,0,0,1-2.72.563,5.025,5.025,0,0,1-3.973-1.644,6.786,6.786,0,0,1-1.45-4.641v-.633a7.746,7.746,0,0,1,.655-3.292,4.961,4.961,0,0,1,1.885-2.18,5.26,5.26,0,0,1,2.848-.769,5.516,5.516,0,0,1,3.744,1.226,4.844,4.844,0,0,1,1.608,3.379H92.744a2.292,2.292,0,0,0-.589-1.679,2.422,2.422,0,0,0-1.687-.51A1.843,1.843,0,0,0,88.78,9.3a5.536,5.536,0,0,0-.562,2.751v.905a6.126,6.126,0,0,0,.514,2.927,1.882,1.882,0,0,0,1.771.879,2.369,2.369,0,0,0,1.626-.5,2.126,2.126,0,0,0,.6-1.591ZM100.54,19H97.463V6.2h3.076Zm9.413-2.391h-4.228L104.987,19h-3.3l4.693-12.8h2.9L114.013,19H110.7Zm-3.489-2.382h2.751l-1.38-4.438Zm16.049,2.4h5.37V19h-8.455V6.2h3.085Zm14.106-.018h-4.228L131.653,19h-3.3L133.05,6.2h2.9L140.679,19h-3.313Zm-3.489-2.382h2.751L134.5,9.789ZM141.611,19V6.2h4.6a6.509,6.509,0,0,1,3.757.905,3.012,3.012,0,0,1,1.288,2.628,3.045,3.045,0,0,1-.457,1.7,2.663,2.663,0,0,1-1.345,1.037,2.7,2.7,0,0,1,1.538.984,2.862,2.862,0,0,1,.536,1.758,3.388,3.388,0,0,1-1.191,2.826,5.667,5.667,0,0,1-3.529.962Zm3.085-5.44v3.067h2.021A1.923,1.923,0,0,0,148,16.245a1.338,1.338,0,0,0,.448-1.077,1.419,1.419,0,0,0-1.591-1.608Zm0-2.021H146.3a2.285,2.285,0,0,0,1.441-.37,1.314,1.314,0,0,0,.431-1.067,1.379,1.379,0,0,0-.466-1.168,2.493,2.493,0,0,0-1.5-.357H144.7Zm19.362,1.327a7.546,7.546,0,0,1-.694,3.313,5.132,5.132,0,0,1-1.973,2.219,5.494,5.494,0,0,1-2.914.778,5.572,5.572,0,0,1-2.9-.751,5.123,5.123,0,0,1-1.973-2.149,7.329,7.329,0,0,1-.743-3.208v-.721a7.58,7.58,0,0,1,.69-3.318,5.119,5.119,0,0,1,1.978-2.219A5.854,5.854,0,0,1,161.36,6.8,5.211,5.211,0,0,1,163.342,9a7.362,7.362,0,0,1,.716,3.274Zm-3.138-.536a5.381,5.381,0,0,0-.637-2.9,2.044,2.044,0,0,0-1.824-.989q-2.32,0-2.452,3.48l-.009.94a5.535,5.535,0,0,0,.624,2.892,2.041,2.041,0,0,0,1.854,1.011,2.016,2.016,0,0,0,1.8-.993,5.383,5.383,0,0,0,.642-2.856Zm9.483,2.145h-1.67V19h-3.085V6.2h5.036a5.621,5.621,0,0,1,3.56,1.01,3.421,3.421,0,0,1,1.283,2.853,4.155,4.155,0,0,1-.541,2.213A3.837,3.837,0,0,1,173.3,13.7l2.672,5.167V19h-3.3Zm-1.67-2.373h1.951a1.751,1.751,0,0,0,1.323-.463,1.788,1.788,0,0,0,.444-1.291,1.809,1.809,0,0,0-.448-1.3,1.735,1.735,0,0,0-1.318-.471h-1.951Zm15.926,4.509h-4.228L179.694,19h-3.3l4.693-12.8h2.9L188.72,19h-3.313Zm-3.489-2.382h2.751l-1.38-4.438Zm11.566,2.4h5.37V19h-8.455V6.2h3.085Z" transform="translate(13831.5 -5407.979)" fill="#fff"/><path d="M12.876,13.568H8.024v3.059h5.73V19H4.939V6.2h8.833V8.585H8.024v2.7h4.852ZM15.012,19V6.2h4.122a6.064,6.064,0,0,1,3.05.769A5.406,5.406,0,0,1,24.3,9.143a6.554,6.554,0,0,1,.769,3.142v.589a6.592,6.592,0,0,1-.743,3.151,5.429,5.429,0,0,1-2.092,2.18,5.93,5.93,0,0,1-3.01.8ZM18.1,8.585v8.042h1.072a2.4,2.4,0,0,0,2.039-.945,4.63,4.63,0,0,0,.712-2.808V12.32a4.592,4.592,0,0,0-.712-2.795,2.442,2.442,0,0,0-2.074-.94ZM36.686,6.2v8.376a4.814,4.814,0,0,1-.606,2.465,3.929,3.929,0,0,1-1.74,1.586,6.131,6.131,0,0,1-2.681.545,5.3,5.3,0,0,1-3.683-1.213A4.326,4.326,0,0,1,26.6,14.641V6.2h3.1v8.5q.053,2.1,1.951,2.1a1.889,1.889,0,0,0,1.45-.527,2.465,2.465,0,0,0,.492-1.714V6.2Zm12.278,8.464a4.673,4.673,0,0,1-.721,2.36,4.35,4.35,0,0,1-1.85,1.586,6.3,6.3,0,0,1-2.72.563A5.025,5.025,0,0,1,39.7,17.532a6.786,6.786,0,0,1-1.45-4.641v-.633A7.746,7.746,0,0,1,38.9,8.967a4.961,4.961,0,0,1,1.885-2.18,5.26,5.26,0,0,1,2.848-.769,5.516,5.516,0,0,1,3.744,1.226,4.844,4.844,0,0,1,1.608,3.379H45.914a2.292,2.292,0,0,0-.589-1.679,2.422,2.422,0,0,0-1.687-.51A1.843,1.843,0,0,0,41.95,9.3a5.536,5.536,0,0,0-.562,2.751v.905A6.126,6.126,0,0,0,41.9,15.88a1.882,1.882,0,0,0,1.771.879,2.369,2.369,0,0,0,1.626-.5,2.126,2.126,0,0,0,.6-1.591Zm8.728,1.942H53.464L52.726,19h-3.3L54.123,6.2h2.9L61.752,19H58.438ZM54.2,14.228h2.751l-1.38-4.438Zm18.835.439a4.673,4.673,0,0,1-.721,2.36,4.35,4.35,0,0,1-1.85,1.586,6.3,6.3,0,0,1-2.72.563,5.025,5.025,0,0,1-3.973-1.644,6.786,6.786,0,0,1-1.45-4.641v-.633a7.746,7.746,0,0,1,.655-3.292,4.961,4.961,0,0,1,1.885-2.18,5.26,5.26,0,0,1,2.848-.769,5.516,5.516,0,0,1,3.744,1.226,4.844,4.844,0,0,1,1.608,3.379H69.987A2.292,2.292,0,0,0,69.4,8.945a2.422,2.422,0,0,0-1.687-.51,1.843,1.843,0,0,0-1.687.861,5.536,5.536,0,0,0-.562,2.751v.905a6.126,6.126,0,0,0,.514,2.927,1.882,1.882,0,0,0,1.771.879,2.369,2.369,0,0,0,1.626-.5,2.126,2.126,0,0,0,.6-1.591ZM77.783,19H74.707V6.2h3.076Zm12.981-6.135a7.546,7.546,0,0,1-.694,3.313A5.132,5.132,0,0,1,88.1,18.4a5.494,5.494,0,0,1-2.914.778,5.572,5.572,0,0,1-2.9-.751,5.123,5.123,0,0,1-1.973-2.149,7.329,7.329,0,0,1-.743-3.208v-.721a7.58,7.58,0,0,1,.69-3.318A5.119,5.119,0,0,1,82.235,6.81,5.854,5.854,0,0,1,88.066,6.8,5.211,5.211,0,0,1,90.048,9a7.362,7.362,0,0,1,.716,3.274Zm-3.138-.536a5.381,5.381,0,0,0-.637-2.9,2.044,2.044,0,0,0-1.824-.989q-2.32,0-2.452,3.48l-.009.94a5.535,5.535,0,0,0,.624,2.892,2.041,2.041,0,0,0,1.854,1.011,2.016,2.016,0,0,0,1.8-.993,5.383,5.383,0,0,0,.642-2.856Zm-2.1-9.554h3.129l-2.443,2.76-2.417,0ZM103.043,19H99.976L95.44,11.037V19H92.355V6.2H95.44l4.526,7.963V6.2h3.076Z" transform="translate(13300.318 -5239.393)" fill="#fff"/><path d="M12.578,19H9.511V13.656H4.967V19H1.882V6.2H4.967v5.08H9.511V6.2h3.067Zm9.378-2.391H17.729L16.99,19h-3.3L18.388,6.2h2.9L26.017,19H22.7Zm-3.489-2.382h2.751l-1.38-4.438ZM26.948,19V6.2h4.6a6.509,6.509,0,0,1,3.757.905A3.012,3.012,0,0,1,36.59,9.736a3.045,3.045,0,0,1-.457,1.7,2.663,2.663,0,0,1-1.345,1.037,2.7,2.7,0,0,1,1.538.984,2.862,2.862,0,0,1,.536,1.758,3.388,3.388,0,0,1-1.191,2.826A5.667,5.667,0,0,1,32.143,19Zm3.085-5.44v3.067h2.021a1.923,1.923,0,0,0,1.283-.382,1.338,1.338,0,0,0,.448-1.077A1.419,1.419,0,0,0,32.2,13.56Zm0-2.021h1.608a2.285,2.285,0,0,0,1.441-.37,1.314,1.314,0,0,0,.431-1.067,1.379,1.379,0,0,0-.466-1.168,2.493,2.493,0,0,0-1.5-.357H30.033ZM41.846,19H38.77V6.2h3.076Zm5.229-2.373h5.37V19H43.99V6.2h3.085ZM57.033,19H53.957V6.2h3.076Zm2.145,0V6.2H63.3a6.064,6.064,0,0,1,3.05.769,5.406,5.406,0,0,1,2.114,2.171,6.554,6.554,0,0,1,.769,3.142v.589a6.592,6.592,0,0,1-.743,3.151A5.429,5.429,0,0,1,66.4,18.2a5.93,5.93,0,0,1-3.01.8ZM62.263,8.585v8.042h1.072a2.4,2.4,0,0,0,2.039-.945,4.63,4.63,0,0,0,.712-2.808V12.32a4.592,4.592,0,0,0-.712-2.795,2.442,2.442,0,0,0-2.074-.94Zm15.82,8.024H73.855L73.117,19h-3.3L74.515,6.2h2.9L82.144,19H78.83Zm-3.489-2.382h2.751l-1.38-4.438ZM83.075,19V6.2H87.2a6.064,6.064,0,0,1,3.05.769,5.406,5.406,0,0,1,2.114,2.171,6.554,6.554,0,0,1,.769,3.142v.589a6.592,6.592,0,0,1-.743,3.151A5.429,5.429,0,0,1,90.3,18.2a5.93,5.93,0,0,1-3.01.8ZM86.16,8.585v8.042h1.072a2.4,2.4,0,0,0,2.039-.945,4.63,4.63,0,0,0,.712-2.808V12.32a4.592,4.592,0,0,0-.712-2.795,2.442,2.442,0,0,0-2.074-.94Zm16.488,4.983H97.8v3.059h5.73V19H94.712V6.2h8.833V8.585H97.8v2.7h4.852Zm8.736,2.03a1.268,1.268,0,0,0-.479-1.055,5.954,5.954,0,0,0-1.683-.782,16.147,16.147,0,0,1-1.969-.782q-2.487-1.222-2.487-3.357a3.011,3.011,0,0,1,.62-1.876A4.008,4.008,0,0,1,107.14,6.48a6.823,6.823,0,0,1,2.549-.453,5.969,5.969,0,0,1,2.474.492,3.917,3.917,0,0,1,1.7,1.4A3.661,3.661,0,0,1,114.47,10h-3.076a1.547,1.547,0,0,0-.479-1.213,1.867,1.867,0,0,0-1.3-.431,2.106,2.106,0,0,0-1.305.365,1.074,1.074,0,0,0,.048,1.819,6.65,6.65,0,0,0,1.854.826,11.36,11.36,0,0,1,2.18.918,3.663,3.663,0,0,1,2.074,3.3,3.125,3.125,0,0,1-1.266,2.637,5.629,5.629,0,0,1-3.472.958,6.888,6.888,0,0,1-2.817-.558,4.247,4.247,0,0,1-1.9-1.529,3.985,3.985,0,0,1-.637-2.237h3.094a1.963,1.963,0,0,0,.532,1.516,2.513,2.513,0,0,0,1.727.488,1.985,1.985,0,0,0,1.208-.33A1.088,1.088,0,0,0,111.385,15.6Z" transform="translate(13897.318 -5193.668)" fill="#fff"/><path d="M15,0A15,15,0,1,1,0,15,15,15,0,0,1,15,0Z" transform="translate(13525 -5455.168)" fill="#7fc733"/><path d="M15,0A15,15,0,1,1,0,15,15,15,0,0,1,15,0Z" transform="translate(13787 -5410.168)" fill="#7fc733"/><path d="M15,0A15,15,0,1,1,0,15,15,15,0,0,1,15,0Z" transform="translate(13443 -5242.168)" fill="#7fc733"/><path d="M15,0A15,15,0,1,1,0,15,15,15,0,0,1,15,0Z" transform="translate(13841 -5197.168)" fill="#7fc733"/></g></svg>