<svg xmlns="http://www.w3.org/2000/svg" width="150" height="150" viewBox="0 0 150 150"><g transform="translate(-13750 8195.168)"><circle cx="75" cy="75" r="75" transform="translate(13750 -8195.168)" fill="#fff"/><g transform="translate(13787 -8161.168)"><g transform="translate(0.002 0)"><path d="M1115.609,107.976V56.723a4.307,4.307,0,0,1,.305-2.032,3.339,3.339,0,0,1,1.214-1.18l.176-.122c1.587-1.1,5.325-3.723,9.834-6.885,6.923-4.855,15.539-10.9,21.109-14.763,1.823-1.265,2.872-1.794,4.652-1.794s2.829.529,4.652,1.794c5.558,3.859,14.156,9.887,21.064,14.732,4.529,3.175,8.287,5.811,9.88,6.916l.175.121a3.358,3.358,0,0,1,1.214,1.18,4.13,4.13,0,0,1,.3,1.948v51.338Z" transform="translate(-1115.163 -29.501)" fill="#fff" stroke="#af418c" stroke-width="1"/><path d="M1189.012,55.014a4.467,4.467,0,0,0-.357-2.156,3.74,3.74,0,0,0-1.354-1.337l-.174-.12c-1.584-1.1-5.309-3.711-9.8-6.863-6.933-4.861-15.562-10.911-21.14-14.784-1.866-1.3-3.018-1.874-4.906-1.874s-3.04.578-4.906,1.874c-5.579,3.873-14.207,9.923-21.141,14.784-4.495,3.152-8.219,5.763-9.8,6.863l-.175.12a3.741,3.741,0,0,0-1.353,1.336,4.469,4.469,0,0,0-.358,2.159V106.8h75.471V55.014Zm-74.58,50.893V55.015a3.756,3.756,0,0,1,.252-1.737,3.415,3.415,0,0,1,1.251-1.145c4.008-2.783,21.721-15.245,30.944-21.648,1.871-1.3,2.818-1.715,4.4-1.715s2.526.416,4.4,1.715c9.223,6.4,26.936,18.865,30.943,21.648a3.415,3.415,0,0,1,1.251,1.145,3.756,3.756,0,0,1,.252,1.737v50.891Z" transform="translate(-1113.541 -27.878)" fill="#b13e8d" stroke="#af418c" stroke-width="1"/></g><g transform="translate(2.527 8.036)"><g transform="translate(0.446 0.445)"><rect width="69.53" height="46.84" fill="#fff" stroke="#af418c" stroke-width="1"/></g><path d="M1125.257,65.164v47.731h70.422V65.164ZM1194.787,112h-68.639V66.056h68.639Z" transform="translate(-1125.257 -65.164)" fill="#b13e8d" stroke="#af418c" stroke-width="1"/></g><g transform="translate(0.002 26.557)"><path d="M1115.61,204.647V153.175h1.744a14.848,14.848,0,0,1,9.537,3.569l26.009,22.225,26.007-22.223a14.847,14.847,0,0,1,9.539-3.571h1.744v51.472Z" transform="translate(-1115.164 -152.729)" fill="#fff" stroke="#af418c" stroke-width="1"/><path d="M1188.121,152v50.58h-73.688V152h1.3a14.419,14.419,0,0,1,9.25,3.464l26.3,22.471,26.3-22.471a14.419,14.419,0,0,1,9.25-3.464Zm0-.892h-1.3a15.3,15.3,0,0,0-9.825,3.674l-25.721,21.979-25.717-21.976a15.3,15.3,0,0,0-9.829-3.678h-1.3l-.892.892v51.472h75.472V152Z" transform="translate(-1113.541 -151.104)" fill="#b13e8d" stroke="#af418c" stroke-width="1"/></g><g transform="translate(0 51.073)"><g transform="translate(0.447 0.446)"><path d="M1115.6,293.889V293.2c0-1.341.964-2.753,2.716-3.973,4.05-2.866,20.9-14.569,29.871-20.771a8.031,8.031,0,0,1,9.407,0c8.969,6.2,25.821,17.905,29.833,20.745,1.789,1.246,2.754,2.658,2.754,4v.688Z" transform="translate(-1115.605 -266.934)" fill="#fff" stroke="#af418c" stroke-width="1"/></g><g transform="translate(0 0)"><path d="M1151.268,265.755a7.12,7.12,0,0,1,4.45,1.443c9.156,6.331,25.846,17.923,29.829,20.742.294.208,2.565,1.717,2.565,3.636v.242h-73.688v-.242c0-1.919,2.27-3.428,2.565-3.636,3.983-2.819,20.674-14.412,29.829-20.742A7.12,7.12,0,0,1,1151.268,265.755Zm0-.892a7.974,7.974,0,0,0-4.958,1.6c-8.935,6.178-25.772,17.871-29.837,20.748l-.037.026c-1.873,1.306-2.9,2.847-2.9,4.338v.24l0,.894H1189v-1.134c0-1.49-1.032-3.031-2.9-4.338l-.037-.026c-4.064-2.876-20.9-14.569-29.837-20.748A7.973,7.973,0,0,0,1151.269,264.863Z" transform="translate(-1113.53 -264.863)" fill="#b13e8d" stroke="#af418c" stroke-width="1"/></g></g><g transform="translate(24.36 14.721)"><ellipse cx="13.377" cy="13.377" rx="13.377" ry="13.377" fill="#b13e8d" stroke="#af418c" stroke-width="1"/><path d="M1269.488,126.911l-1.768-1.768a.663.663,0,0,0-.937,0l-4.28,4.28-4.28-4.28a.663.663,0,0,0-.937,0l-1.768,1.768a.663.663,0,0,0,0,.937l4.28,4.28-4.28,4.28a.662.662,0,0,0,0,.937l1.768,1.768a.662.662,0,0,0,.937,0l4.28-4.28,4.28,4.28a.663.663,0,0,0,.937,0l1.768-1.768a.662.662,0,0,0,0-.937l-4.28-4.28,4.28-4.28A.663.663,0,0,0,1269.488,126.911Z" transform="translate(-1249.126 -118.751)" fill="#fff" stroke="#af418c" stroke-width="1"/></g></g></g></svg>