<svg xmlns="http://www.w3.org/2000/svg" xmlns:xlink="http://www.w3.org/1999/xlink" width="108" height="108" viewBox="0 0 108 108"><defs><filter id="a" x="0" y="0" width="108" height="108" filterUnits="userSpaceOnUse"><feOffset dy="3" input="SourceAlpha"/><feGaussianBlur stdDeviation="3" result="b"/><feFlood flood-opacity="0.161"/><feComposite operator="in" in2="b"/><feComposite in="SourceGraphic"/></filter></defs><g transform="translate(-2652.691 7438)"><g transform="matrix(1, 0, 0, 1, 2652.69, -7438)" filter="url(#a)"><path d="M10,0H80A10,10,0,0,1,90,10V90a0,0,0,0,1,0,0H10A10,10,0,0,1,0,80V10A10,10,0,0,1,10,0Z" transform="translate(9 6)" fill="#f6f6f6"/></g><path d="M286.9,81.161a1.323,1.323,0,0,1-1.323-1.323V62.645h-9.258a1.323,1.323,0,0,1,0-2.645H286.9a1.323,1.323,0,0,1,1.323,1.323V79.838A1.323,1.323,0,0,1,286.9,81.161Z" transform="translate(2437.776 -7474.347)" fill="#6836bf"/><path d="M78.644,116.87H36.323A1.323,1.323,0,0,1,35,115.547V61.323A1.323,1.323,0,0,1,36.323,60H46.9a1.323,1.323,0,1,1,0,2.645H37.645v51.579H77.322v-9.258a1.323,1.323,0,1,1,2.645,0v10.58A1.323,1.323,0,0,1,78.644,116.87Z" transform="translate(2646.035 -7474.347)" fill="#6836bf"/><path d="M137.483,40.58H116.323A1.323,1.323,0,0,1,115,39.258V31.323A1.323,1.323,0,0,1,116.323,30h21.161a1.323,1.323,0,0,1,1.323,1.323v7.935A1.323,1.323,0,0,1,137.483,40.58Zm-19.838-2.645h18.516v-5.29H117.645Z" transform="translate(2576.615 -7448.314)" fill="#6836bf"/><path d="M331.347,264.407a1.319,1.319,0,0,1-.935-.387l-4.208-4.208a3.307,3.307,0,0,1,4.677-4.676l.467.467,3.273-3.273a3.307,3.307,0,0,1,4.678,4.676l-7.016,7.014A1.319,1.319,0,0,1,331.347,264.407Zm-2.805-7.595a.661.661,0,0,0-.468,1.129l3.274,3.273,6.079-6.079a.662.662,0,0,0-.937-.935l-4.207,4.208a1.322,1.322,0,0,1-1.87,0l-1.4-1.4A.659.659,0,0,0,328.542,256.813Z" transform="translate(2394.185 -7640.4)" fill="#6836bf"/><path d="M300.908,227.774H296a1.322,1.322,0,0,1-.954-.406c-1.194-1.243-2.217-2.264-3.118-3.166-2.866-2.865-4.444-4.442-5.239-6.976-.759-2.419-.749-5.538-.729-11.752,0-1.1.007-2.3.007-3.614a1.323,1.323,0,0,1,1.52-1.308,23.172,23.172,0,0,0,3.436.277,13.17,13.17,0,0,0,4.613-.745A1.322,1.322,0,0,1,296,200h4.911a1.322,1.322,0,0,1,.464.084,13.17,13.17,0,0,0,4.613.745,23.191,23.191,0,0,0,3.436-.277,1.323,1.323,0,0,1,1.52,1.308c0,1.313,0,2.513.007,3.614.02,6.214.03,9.334-.729,11.752-.795,2.533-2.373,4.111-5.239,6.976-.9.9-1.924,1.923-3.118,3.166A1.323,1.323,0,0,1,300.908,227.774Zm-4.349-2.645h3.787c1.045-1.08,1.953-1.987,2.764-2.8,2.736-2.735,3.985-3.983,4.585-5.9.636-2.028.627-5.011.608-10.952q0-1.006-.006-2.125c-.8.078-1.575.117-2.312.117a15.983,15.983,0,0,1-5.31-.829H296.23a15.983,15.983,0,0,1-5.31.829c-.738,0-1.511-.039-2.312-.117q0,1.121-.006,2.125c-.019,5.942-.028,8.924.608,10.952.6,1.914,1.849,3.162,4.585,5.9C294.606,223.142,295.514,224.049,296.559,225.129Z" transform="translate(2428.273 -7595.832)" fill="#6836bf"/><path d="M87.643,146.612a1.323,1.323,0,0,1-1.183-.731l-1.323-2.645a1.323,1.323,0,1,1,2.366-1.183l.614,1.228,4.022-3.017a1.323,1.323,0,0,1,1.587,2.116l-5.29,3.968A1.322,1.322,0,0,1,87.643,146.612Z" transform="translate(2602.649 -7543.766)" fill="#6836bf"/><path d="M172.935,142.645h-6.613a1.323,1.323,0,1,1,0-2.645h6.613a1.323,1.323,0,0,1,0,2.645Z" transform="translate(2533.228 -7543.767)" fill="#6836bf"/><path d="M179.548,172.645H166.323a1.323,1.323,0,1,1,0-2.645h13.226a1.323,1.323,0,0,1,0,2.645Z" transform="translate(2533.228 -7569.799)" fill="#6836bf"/><path d="M87.643,226.612a1.323,1.323,0,0,1-1.183-.731l-1.323-2.645a1.323,1.323,0,1,1,2.366-1.183l.614,1.228,4.022-3.017a1.323,1.323,0,0,1,1.587,2.116l-5.29,3.968A1.322,1.322,0,0,1,87.643,226.612Z" transform="translate(2602.649 -7613.186)" fill="#6836bf"/><path d="M172.935,222.645h-6.613a1.323,1.323,0,1,1,0-2.645h6.613a1.323,1.323,0,0,1,0,2.645Z" transform="translate(2533.228 -7613.186)" fill="#6836bf"/><path d="M178.226,252.645h-11.9a1.323,1.323,0,1,1,0-2.645h11.9a1.323,1.323,0,1,1,0,2.645Z" transform="translate(2533.228 -7639.218)" fill="#6836bf"/><path d="M87.643,306.613a1.323,1.323,0,0,1-1.183-.731l-1.323-2.645a1.323,1.323,0,1,1,2.366-1.183l.614,1.228,4.022-3.017a1.323,1.323,0,0,1,1.587,2.116l-5.29,3.968A1.322,1.322,0,0,1,87.643,306.613Z" transform="translate(2602.649 -7682.605)" fill="#6836bf"/><path d="M172.935,302.645h-6.613a1.323,1.323,0,1,1,0-2.645h6.613a1.323,1.323,0,0,1,0,2.645Z" transform="translate(2533.228 -7682.605)" fill="#6836bf"/><path d="M179.548,332.645H166.323a1.323,1.323,0,1,1,0-2.645h13.226a1.323,1.323,0,0,1,0,2.645Z" transform="translate(2533.228 -7708.638)" fill="#6836bf"/><path d="M87.643,386.613a1.323,1.323,0,0,1-1.183-.731l-1.323-2.645a1.323,1.323,0,1,1,2.366-1.183l.614,1.228,4.022-3.017a1.323,1.323,0,0,1,1.587,2.116l-5.29,3.968A1.322,1.322,0,0,1,87.643,386.613Z" transform="translate(2602.649 -7752.025)" fill="#6836bf"/><path d="M172.935,382.645h-6.613a1.323,1.323,0,1,1,0-2.645h6.613a1.323,1.323,0,1,1,0,2.645Z" transform="translate(2533.228 -7752.025)" fill="#6836bf"/><path d="M179.548,412.645H166.323a1.323,1.323,0,1,1,0-2.645h13.226a1.323,1.323,0,0,1,0,2.645Z" transform="translate(2533.228 -7778.058)" fill="#6836bf"/></g></svg>