<svg xmlns="http://www.w3.org/2000/svg" xmlns:xlink="http://www.w3.org/1999/xlink" width="1328" height="4059" viewBox="0 0 1328 4059"><defs><clipPath id="a"><path d="M0,0H1328a0,0,0,0,1,0,0V527a20,20,0,0,1-20,20H20A20,20,0,0,1,0,527V0A0,0,0,0,1,0,0Z" transform="translate(136 2195)" fill="#7fc733"/></clipPath><linearGradient id="b" x1="0.666" y1="-0.309" x2="0.346" y2="1.251" gradientUnits="objectBoundingBox"><stop offset="0" stop-color="#ffc431"/><stop offset="1" stop-color="#ff8300"/></linearGradient><linearGradient id="d" x1="0.666" y1="1.309" x2="0.346" y2="-0.251" gradientUnits="objectBoundingBox"><stop offset="0" stop-color="#84088c"/><stop offset="0.999" stop-color="#b13f8c"/></linearGradient></defs><g transform="translate(4899 16021)"><g transform="translate(-4899 -16021)"><rect width="1328" height="4059" rx="20" fill="#fff"/></g><g transform="translate(-5035 -14704)" opacity="0.15" clip-path="url(#a)"><path d="M5573.415,11997.679c38.239,11.112,152.018,45.986,504.254,7.969s337.868-126.514,337.868-126.514v360.8s-424.7-203.231-923.5-174.509-551.723,919.082-551.723,919.082v-1275.9h128.555s105.884-51.179,232.136,96.023-17.163,142.916-17.163,142.916h188.439S5535.176,11986.566,5573.415,11997.679Z" transform="translate(-4931 -9480.305)" fill="#6836bf"/><circle cx="48.252" cy="48.252" r="48.252" transform="translate(196.217 2641.702) rotate(75)" fill="url(#b)"/><circle cx="15.961" cy="15.961" r="15.961" transform="translate(257.685 2656.848) rotate(75)" fill="url(#b)"/></g><circle cx="37.26" cy="37.26" r="37.26" transform="translate(-4843.57 -14848.336) rotate(-99.161)" fill="url(#d)"/><ellipse cx="53.459" cy="53.459" rx="53.459" ry="53.459" transform="matrix(0.259, 0.966, -0.966, 0.259, -3615.788, -14187.306)" fill="url(#b)"/></g></svg>