<svg xmlns="http://www.w3.org/2000/svg" xmlns:xlink="http://www.w3.org/1999/xlink" width="108" height="108" viewBox="0 0 108 108"><defs><filter id="a" x="0" y="0" width="108" height="108" filterUnits="userSpaceOnUse"><feOffset dy="3" input="SourceAlpha"/><feGaussianBlur stdDeviation="3" result="b"/><feFlood flood-opacity="0.161"/><feComposite operator="in" in2="b"/><feComposite in="SourceGraphic"/></filter></defs><g transform="translate(4661.319 6882.981)"><g transform="translate(-4882.319 -7292.981)"><g transform="translate(0 9)"><g transform="matrix(1, 0, 0, 1, 221, 401)" filter="url(#a)"><path d="M10,0H80A10,10,0,0,1,90,10V90a0,0,0,0,1,0,0H10A10,10,0,0,1,0,80V10A10,10,0,0,1,10,0Z" transform="translate(9 6)" fill="#f6f6f6"/></g></g><g transform="translate(-131.62 900.401)"><path d="M396.906-469.4a13.734,13.734,0,0,1,1.807.547,6.554,6.554,0,0,1,4.071,5.992c.019.34,0,.682,0,1.08h12.372v28.565h15.191A1.7,1.7,0,0,0,429.035-435a3.853,3.853,0,0,0-.913-.1c-2.077-.009-4.154.021-6.23-.013a3.728,3.728,0,0,1-3.817-3.758h1.8c.52,1.582.94,1.882,2.632,1.882,1.769,0,3.542.075,5.306-.018a4.014,4.014,0,0,1,4.553,3.807,3.7,3.7,0,0,1,2.953,1.515,11.169,11.169,0,0,1,.826,1.753v1.154c-.988,2.593-1.919,3.224-4.757,3.224H415.156v15.214H377.092V-461.8h12.342c0-.3,0-.551,0-.8a6.7,6.7,0,0,1,4.645-6.476c.4-.13.807-.221,1.21-.33Zm-14.089,13.385v39.941h26.621v-9.476c-1.218,0-2.406.013-3.592-.01a1.72,1.72,0,0,1-.806-.217c-1.871-1.1-3.73-2.224-5.59-3.343a4.427,4.427,0,0,1-.367-.279c1.457-.875,2.907-1.645,4.243-2.576a6.174,6.174,0,0,1,4.414-1.208,14.686,14.686,0,0,0,1.7.01V-456h-3.8v3.733h-3.752v-1.9h1.8v-5.658H388.516v5.671h11.358v1.876h-13.29v-3.741Zm28.531,41.868H380.905v-43.829h5.636v-1.841h-7.528v47.548h34.23v-13.236h-1.9Zm-8.609-15.222c.949.57,1.822,1.12,2.723,1.621a2.09,2.09,0,0,0,.967.264q8.338.024,16.676.01c.2,0,.408-.018.624-.029v-3.746c-.166-.014-.3-.035-.426-.035q-8.511,0-17.023,0a1.028,1.028,0,0,0-.5.095C404.789-430.61,403.808-430.012,402.738-429.37Zm2.942-28.578h5.688v24.734h1.873v-26.6h-7.561Zm-14.3-3.862h9.457a4.827,4.827,0,0,0-2.057-4.838,4.5,4.5,0,0,0-5.159-.106A4.871,4.871,0,0,0,391.381-461.81ZM429.5-431.256v3.777c.967,0,1.9.019,2.838,0a1.845,1.845,0,0,0,1.882-1.788,1.806,1.806,0,0,0-1.686-1.968C431.546-431.318,430.547-431.256,429.5-431.256Zm-1.969,3.748v-3.744H425.7v3.744Z" transform="translate(0)" fill="#6836bf"/><path d="M428.1-328.773h22.784v13.259H428.1Zm1.922,11.376h18.991v-4.693a2.617,2.617,0,0,0-.355-.05c-2.44,0-4.881-.012-7.321.014a.922.922,0,0,0-.616.383c-.715,1.019-1.394,2.063-2.123,3.154l-2.858-3.8-1.957,2.913c-.645-.966-1.317-1.839-1.838-2.795a1.476,1.476,0,0,0-1.924-.762Zm5.624-8.289,2.859,3.8c.4-.6.785-1.129,1.117-1.688a.881.881,0,0,1,.876-.48c2.633.021,5.265.01,7.9.01h.61v-2.83H430.036v1.886c.682,0,1.316-.03,1.944.016a.987.987,0,0,1,.636.342c.408.527.758,1.1,1.173,1.715Z" transform="translate(-43.39 -119.622)" fill="#6836bf"/><path d="M440.922-224.827v-1.817H452.3v1.817Z" transform="translate(-54.296 -206.496)" fill="#6836bf"/><path d="M440.876-173.784V-175.6h11.379v1.813Z" transform="translate(-54.256 -249.918)" fill="#6836bf"/><path d="M490.2-199.268h-4.7v-1.816h4.7Z" transform="translate(-92.216 -228.238)" fill="#6836bf"/><path d="M445.619-199.295H440.93v-1.819h4.689Z" transform="translate(-54.302 -228.213)" fill="#6836bf"/><path d="M504.625-148.264v-1.812h1.857v1.812Z" transform="translate(-108.483 -271.627)" fill="#6836bf"/><path d="M440.989-150.164h1.8v1.832h-1.8Z" transform="translate(-54.353 -271.552)" fill="#6836bf"/><path d="M472.8-150.191h1.814v1.822H472.8Z" transform="translate(-81.414 -271.529)" fill="#6836bf"/></g></g></g></svg>