<svg xmlns="http://www.w3.org/2000/svg" xmlns:xlink="http://www.w3.org/1999/xlink" width="356.811" height="386.106" viewBox="0 0 356.811 386.106"><defs><linearGradient id="a" y1="0.5" x2="1" y2="0.5" gradientUnits="objectBoundingBox"><stop offset="0.006" stop-color="#005b97"/><stop offset="0.135" stop-color="#0075be"/><stop offset="0.433" stop-color="#1e9cd7"/><stop offset="0.535" stop-color="#46abdd"/><stop offset="0.693" stop-color="#7fc2e7"/><stop offset="0.829" stop-color="#a9d2ee"/><stop offset="0.936" stop-color="#c2dcf2"/><stop offset="1" stop-color="#cce0f4"/></linearGradient></defs><g transform="translate(3058.121 6629.117)"><g transform="translate(-3106.685 -5881.898)"><path d="M70.764-625.851H66.047v-4.717a1.075,1.075,0,0,0-1.073-1.072,1.074,1.074,0,0,0-1.072,1.072v4.717H59.187a1.075,1.075,0,0,0-1.073,1.072,1.076,1.076,0,0,0,1.073,1.073H63.9v4.716a1.074,1.074,0,0,0,1.072,1.072,1.075,1.075,0,0,0,1.073-1.072v-4.716h4.717a1.075,1.075,0,0,0,1.072-1.073A1.075,1.075,0,0,0,70.764-625.851Z" transform="translate(-0.541 -6.553)" fill="#b13e8d"/><path d="M61.213-545.724H56.5v-4.717a1.075,1.075,0,0,0-1.072-1.072,1.075,1.075,0,0,0-1.072,1.072v4.717H49.637a1.076,1.076,0,0,0-1.073,1.072,1.075,1.075,0,0,0,1.073,1.072h4.717v4.716a1.075,1.075,0,0,0,1.072,1.072,1.075,1.075,0,0,0,1.072-1.072v-4.716h4.717a1.075,1.075,0,0,0,1.073-1.072A1.076,1.076,0,0,0,61.213-545.724Z" transform="translate(0 -11.096)" fill="#b13e8d"/><path d="M159.41-617.322h-3.537v-3.537a.806.806,0,0,0-.8-.8.806.806,0,0,0-.8.8v3.537h-3.537a.807.807,0,0,0-.8.8.807.807,0,0,0,.8.8h3.537v3.537a.806.806,0,0,0,.8.8.806.806,0,0,0,.8-.8v-3.537h3.537a.807.807,0,0,0,.8-.8A.807.807,0,0,0,159.41-617.322Z" transform="translate(-5.747 -7.119)" fill="#b13e8d"/><path d="M147.7-742.877h-3.537v-3.537a.807.807,0,0,0-.8-.8.807.807,0,0,0-.8.8v3.537h-3.537a.806.806,0,0,0-.8.8.806.806,0,0,0,.8.8h3.537v3.537a.806.806,0,0,0,.8.8.806.806,0,0,0,.8-.8v-3.537H147.7a.806.806,0,0,0,.8-.8A.806.806,0,0,0,147.7-742.877Z" transform="translate(-5.083 0)" fill="#b13e8d"/><path d="M301.2-602.6h-3.537v-3.537a.806.806,0,0,0-.8-.8.806.806,0,0,0-.8.8v3.537h-3.537a.807.807,0,0,0-.8.8.807.807,0,0,0,.8.8h3.537v3.537a.806.806,0,0,0,.8.8.806.806,0,0,0,.8-.8v-3.537H301.2a.807.807,0,0,0,.8-.8A.807.807,0,0,0,301.2-602.6Z" transform="translate(-13.786 -7.953)" fill="#b13e8d"/><path d="M396.917-632.463h-3.537V-636a.807.807,0,0,0-.8-.8.807.807,0,0,0-.8.8v3.537h-3.537a.806.806,0,0,0-.8.8.806.806,0,0,0,.8.8h3.537v3.537a.806.806,0,0,0,.8.8.806.806,0,0,0,.8-.8v-3.537h3.537a.806.806,0,0,0,.8-.8A.806.806,0,0,0,396.917-632.463Z" transform="translate(-19.213 -6.26)" fill="#b13e8d"/><path d="M151.948-517.755H148.41v-3.537a.807.807,0,0,0-.8-.8.807.807,0,0,0-.8.8v3.537h-3.537a.806.806,0,0,0-.8.8.806.806,0,0,0,.8.8H146.8v3.537a.806.806,0,0,0,.8.8.806.806,0,0,0,.8-.8v-3.537h3.537a.806.806,0,0,0,.8-.8A.806.806,0,0,0,151.948-517.755Z" transform="translate(-5.324 -12.764)" fill="#fff"/><path d="M355.139-514.366H351.6V-517.9a.807.807,0,0,0-.8-.8.807.807,0,0,0-.8.8v3.537h-3.537a.807.807,0,0,0-.8.8.807.807,0,0,0,.8.8h3.537v3.537a.806.806,0,0,0,.8.8.806.806,0,0,0,.8-.8v-3.537h3.537a.806.806,0,0,0,.8-.8A.806.806,0,0,0,355.139-514.366Z" transform="translate(-16.844 -12.956)" fill="#fff"/><path d="M342.441-740.308H338.9v-3.537a.806.806,0,0,0-.8-.8.806.806,0,0,0-.8.8v3.537h-3.537a.806.806,0,0,0-.8.8.806.806,0,0,0,.8.8H337.3v3.537a.806.806,0,0,0,.8.8.807.807,0,0,0,.8-.8V-738.7h3.537a.806.806,0,0,0,.8-.8A.806.806,0,0,0,342.441-740.308Z" transform="translate(-16.124 -0.146)" fill="#b13e8d"/><path d="M425.4-532.956H421.86v-3.537a.806.806,0,0,0-.8-.8.806.806,0,0,0-.8.8v3.537h-3.537a.806.806,0,0,0-.8.8.806.806,0,0,0,.8.8h3.537v3.537a.806.806,0,0,0,.8.8.806.806,0,0,0,.8-.8v-3.537H425.4a.806.806,0,0,0,.8-.8A.806.806,0,0,0,425.4-532.956Z" transform="translate(-20.828 -11.902)" fill="#b13e8d"/><g transform="translate(270.656 -604.49)"><rect width="97.828" height="90.23" rx="25.72" fill="#fff" opacity="0.56"/><g transform="translate(13.179 11.398)"><circle cx="31.998" cy="31.998" r="31.998" transform="translate(2.015 2.015)" fill="#7fc733"/><path d="M331.99-515.8a34.052,34.052,0,0,1-34.014-34.015,34.051,34.051,0,0,1,34.014-34.014A34.052,34.052,0,0,1,366-549.814,34.053,34.053,0,0,1,331.99-515.8Zm0-64a30.017,30.017,0,0,0-29.983,29.983,30.017,30.017,0,0,0,29.983,29.983,30.016,30.016,0,0,0,29.983-29.983A30.017,30.017,0,0,0,331.99-579.8Z" transform="translate(-297.976 583.828)" fill="#fff"/><circle cx="3.401" cy="3.401" r="3.401" transform="translate(29.166 36.291) rotate(-76.717)" fill="#6836bf"/><path d="M350.962-572.654h0a.885.885,0,0,0-1.24.142l-16.777,21.1a.885.885,0,0,0,.141,1.239h0a.885.885,0,0,0,1.239-.141l16.777-21.1A.884.884,0,0,0,350.962-572.654Z" transform="translate(-299.948 583.205)" fill="#6836bf"/><path d="M350.517-537.043l-16.251-7.479a1.894,1.894,0,0,1-.926-2.506h0a1.9,1.9,0,0,1,2.506-.927l16.251,7.478a1.9,1.9,0,0,1,.926,2.507h0A1.9,1.9,0,0,1,350.517-537.043Z" transform="translate(-299.971 581.804)" fill="#6836bf"/></g></g><g transform="translate(69.995 -615.485)"><rect width="113.369" height="96.049" rx="27.379" transform="translate(0 0.048)" fill="#fff" opacity="0.56"/><g transform="translate(11.495 0)"><path d="M114.27-538.832l-9.711,18.867,5.327.182,12.156-12.384Z" transform="translate(-84.665 603.67)" fill="#6836bf"/><path d="M142.592-537.714l8.4,19.486-5.327-.182L134.383-531.6Z" transform="translate(-86.356 603.606)" fill="#6836bf"/><circle cx="31.047" cy="31.047" r="31.047" transform="translate(0 43.907) rotate(-45)" fill="#7fc733"/><circle cx="27.184" cy="27.184" r="27.184" transform="translate(16.723 16.723)" fill="#fff"/><circle cx="20.788" cy="20.788" r="20.788" transform="matrix(0.635, -0.772, 0.772, 0.635, 14.647, 46.754)" fill="#7fc733"/><circle cx="15.28" cy="15.28" r="15.28" transform="translate(22.966 49.241) rotate(-59.29)" fill="#fff"/><circle cx="8.884" cy="8.884" r="8.884" transform="translate(31.587 46.368) rotate(-56.297)" fill="#6836bf"/><g transform="translate(44.018 11.495)"><path d="M130.252-562.2h0a1.011,1.011,0,0,0,1.367.417l41.835-22.285a1.011,1.011,0,0,0,.417-1.367h0a1.011,1.011,0,0,0-1.367-.417l-41.835,22.285A1.01,1.01,0,0,0,130.252-562.2Z" transform="translate(-130.133 594.847)" fill="#4d4d4d"/><path d="M174.013-586.184l1.381-9.2-13.076,8.087-2.083,8.936Z" transform="translate(-131.84 595.381)" fill="#6836bf"/><path d="M175.041-583.8l8.44,3.906-13.946,6.472-8.609-3.176Z" transform="translate(-131.879 594.724)" fill="#7fc733"/></g></g></g><g transform="translate(71.819 -739.086)"><rect width="182.745" height="93.366" rx="26.614" fill="#fff" opacity="0.56"/><rect width="80.247" height="6.551" rx="1.867" transform="translate(92.399 50.495)" opacity="0.26" fill="url(#a)"/><rect width="80.247" height="6.551" rx="1.867" transform="translate(92.399 61.632)" opacity="0.26" fill="url(#a)"/><rect width="80.247" height="6.551" rx="1.867" transform="translate(92.399 73.423)" opacity="0.26" fill="url(#a)"/><g transform="translate(16.451 17.196)"><path d="M122.353-720.367a31.7,31.7,0,0,0-31.7,31.7,31.7,31.7,0,0,0,31.7,31.7,31.7,31.7,0,0,0,31.7-31.7A31.7,31.7,0,0,0,122.353-720.367Zm0,55.468a23.772,23.772,0,0,1-23.772-23.772,23.772,23.772,0,0,1,23.772-23.772,23.772,23.772,0,0,1,23.772,23.772A23.772,23.772,0,0,1,122.353-664.9Z" transform="translate(-90.657 720.367)" fill="#b13e8d"/><path d="M139.527-665.98l-3.628-2.8a23.663,23.663,0,0,1-13.546,4.236,23.772,23.772,0,0,1-23.772-23.772c0-8.1,5.172-15.413,11.358-19.7,0-.161-5.705-6.128-5.705-6.128-6.763,4.226-13.577,13.626-13.577,25.832a31.7,31.7,0,0,0,31.7,31.7,31.568,31.568,0,0,0,20.518-7.539Q141.185-665.022,139.527-665.98Z" transform="translate(-90.657 720.015)" fill="#6836bf"/><path d="M139.915-670.663a23.713,23.713,0,0,1-17.561,7.749,23.772,23.772,0,0,1-23.717-22.165q-1.215.007-2.444-.038-2.782-.009-5.505-.233a31.7,31.7,0,0,0,31.666,30.359c10.247,0,17.926-3.075,23.719-10.618C146.074-665.608,139.939-670.686,139.915-670.663Z" transform="translate(-90.659 718.382)" fill="#7fc733"/></g><g transform="translate(90.966 10.371)"><path d="M195.3-723.764a15.456,15.456,0,0,0-21.811,1.424,15.456,15.456,0,0,0,1.424,21.811,15.455,15.455,0,0,0,21.811-1.423A15.457,15.457,0,0,0,195.3-723.764Zm-17.838,20.331a11.591,11.591,0,0,1-1.069-16.358,11.592,11.592,0,0,1,16.359-1.069,11.593,11.593,0,0,1,1.068,16.359A11.591,11.591,0,0,1,177.462-703.433Z" transform="translate(-169.65 727.602)" fill="#b13e8d"/><path d="M184.216-698.435q-.214-1.1-.428-2.194a11.526,11.526,0,0,1-6.327-2.8,11.591,11.591,0,0,1-1.069-16.358c2.605-2.969,6.852-3.986,10.5-3.569.052-.059-.12-4.082-.12-4.082a15.034,15.034,0,0,0-13.285,5.1,15.456,15.456,0,0,0,1.424,21.811,15.387,15.387,0,0,0,9.945,3.836Q184.516-697.55,184.216-698.435Z" transform="translate(-169.65 727.601)" fill="#6836bf"/><path d="M186.39-700.279a11.557,11.557,0,0,1-8.928-2.807,11.591,11.591,0,0,1-1.565-15.751q-.449-.388-.884-.8-1.017-.9-1.943-1.855a15.455,15.455,0,0,0,1.843,21.311c3.755,3.3,7.56,4.638,12.109,3.736C187.022-696.445,186.406-700.28,186.39-700.279Z" transform="translate(-169.65 727.255)" fill="#7fc733"/></g><g transform="translate(133.545 10.372)"><path d="M240.406-723.792a15.456,15.456,0,0,0-21.807,1.486,15.454,15.454,0,0,0,1.486,21.806,15.453,15.453,0,0,0,21.806-1.485A15.455,15.455,0,0,0,240.406-723.792Zm-17.781,20.381a11.591,11.591,0,0,1-1.114-16.355,11.591,11.591,0,0,1,16.355-1.114,11.591,11.591,0,0,1,1.114,16.355A11.591,11.591,0,0,1,222.625-703.411Z" transform="translate(-214.789 727.602)" fill="#b13e8d"/><path d="M229.394-698.432l-.435-2.193a11.53,11.53,0,0,1-6.334-2.785,11.591,11.591,0,0,1-1.114-16.355c2.6-2.976,6.841-4.005,10.49-3.6.052-.058-.131-4.08-.131-4.08a15.033,15.033,0,0,0-13.27,5.139,15.454,15.454,0,0,0,1.486,21.806,15.39,15.39,0,0,0,9.956,3.808Q229.7-697.547,229.394-698.432Z" transform="translate(-214.789 727.601)" fill="#6836bf"/><path d="M231.561-700.281a11.556,11.556,0,0,1-8.936-2.782,11.592,11.592,0,0,1-1.609-15.747q-.449-.386-.886-.8-1.02-.9-1.948-1.85a15.454,15.454,0,0,0,1.9,21.305c3.765,3.286,7.572,4.617,12.119,3.7C232.2-696.449,231.577-700.282,231.561-700.281Z" transform="translate(-214.789 727.253)" fill="#7fc733"/></g></g><g transform="translate(165.273 -659.766)"><ellipse cx="69.295" cy="24.457" rx="69.295" ry="24.457" transform="translate(0 249.739)" fill="#7fc733"/><g transform="translate(10.636)"><path d="M216.462-376.637a7.8,7.8,0,0,1,5.7-3.514l1.067-.125a3.512,3.512,0,0,1,3.31,2.126L237-365.895a6.57,6.57,0,0,1-4.774,7.938l-2.388.594c-2.513.625-5.479-.522-6.1-3.035l-8.06-7.153C215.429-368.529,214.036-372.811,216.462-376.637Z" transform="translate(-185.348 638.963)" fill="#64342f"/><path d="M276.888-376.637a7.8,7.8,0,0,0-5.7-3.514l-1.066-.125a3.512,3.512,0,0,0-3.31,2.126l-10.46,12.255a6.57,6.57,0,0,0,4.774,7.938l2.388.594c2.513.625,5.479-.522,6.1-3.035l8.06-7.153C277.921-368.529,279.314-372.811,276.888-376.637Z" transform="translate(-187.679 638.963)" fill="#64342f"/><path d="M215.269-514.128s-4.353,11.736-4.609,23.758c-.232,10.89,12.126,102.678,14.456,118.151A3.192,3.192,0,0,0,228-369.513l3.785.323a4.077,4.077,0,0,0,4.42-4.18L238.687-475.2l14.881,103.466s9.936,4.287,12.676-1.3c1.262-2.573-.1-121.269-2.3-131.393s-3.778-10.539-3.778-10.539Z" transform="translate(-185.099 646.598)" fill="#3d2c65"/><path d="M223.974-603.873s-13.358-18.907-10.789-31.871,5.651-14.046,9.761-15.126,14.9-2.7,18.5-.54,7.193,0,9.247-2.16,8.22-.54,8.734,4.321-2.054,9.724-2.054,9.724S252.745-624.94,251.2-619s-5.137,15.126-5.137,15.126-3.083,2.161-6.68,4.321S223.974-601.711,223.974-603.873Z" transform="translate(-185.224 654.51)" fill="#330f1d"/><path d="M252.519-618.108s1.009-3.08,3.515-1.582,1.9,5.907.49,7.364-3.961,4.373-4.517,4.073a4.046,4.046,0,0,1-1.108-1.189Z" transform="translate(-187.381 652.559)" fill="#ef9e78"/><path d="M217.275-618.108s-1.008-3.08-3.514-1.582-1.9,5.907-.491,7.364,3.961,4.373,4.518,4.073a4.06,4.06,0,0,0,1.108-1.189Z" transform="translate(-185.178 652.559)" fill="#ef9e78"/><rect width="17.1" height="16.305" transform="translate(41.658 52.493)" fill="#e08a68"/><path d="M256.234-634.768a24.843,24.843,0,0,1-10.71,7.235A24.055,24.055,0,0,1,232.7-624.52a31.892,31.892,0,0,1-16.8-4.777l-3.03-2.461c-.521,12.734,11.1,29.181,11.1,29.181,0,2.161,11.817,6.482,15.413,4.321s6.68-4.321,6.68-4.321,3.6-9.183,5.137-15.126c1.073-4.135,3.638-12.456,5.1-17.134Z" transform="translate(-185.224 653.394)" fill="#3d1623"/><path d="M221.245-586.239h29.667s17.483,3.6,16.952,5.766c-1.133,4.624-6.127,43.854-8.061,59.213a6.847,6.847,0,0,1-6.459,6.229l-33.113.573a6.8,6.8,0,0,1-6.639-6.017l-7.158-66.159S216.3-586.239,221.245-586.239Z" transform="translate(-184.86 650.661)" fill="#dadeea"/><path d="M219.293-586.41l5.17-6.363,23.264-.4,5.369,6.76Z" transform="translate(-185.589 651.032)" fill="#e1e4ea"/><path d="M260.488-546.056a46.861,46.861,0,0,1-23.975,5.359c-9.593-.029-17.039-2.1-25.518-6.212l2.856,28.865a6.805,6.805,0,0,0,6.639,6.017L253.6-512.6a6.849,6.849,0,0,0,6.459-6.229c.832-6.605,2.229-17.624,3.642-28.407C262.652-546.808,261.582-546.411,260.488-546.056Z" transform="translate(-185.118 648.427)" fill="#ced0d8"/><g transform="translate(70.943 68.798)"><path d="M266.634-524.644l-2.983,1.23s-.6-4.394-.6-5.8a25.127,25.127,0,0,1,.8-4.394s-.994-1.757-1.988-.527-2.188,4.042-1.988,5.8-.6,5.1-.6,6.679-.994,3.691-.2,5.976,1.192,4.218,2.187,5.272,4.573,1.055,4.772,0,3.182-4.745,2.585-5.624S266.634-524.644,266.634-524.644Z" transform="translate(-258.77 578.912)" fill="#ef9e78"/><path d="M269.421-581.577s27.343,22.481,30.223,25.649c3.977,4.375,3.579,8.749,1.988,12.726s-31.814,27.837-31.814,27.837-2.387-3.977-3.977-11.93l19.884-21.872-19.089-14.714Z" transform="translate(-259.171 581.577)" fill="#dadeea"/></g><path d="M241.215-471.785s9.942-1.989,12.726-3.977c0,0-9.544,15.51-9.942,23.861Z" transform="translate(-186.832 644.375)" fill="#161e3a"/><path d="M238.039-428.212a57.365,57.365,0,0,1-21.275-4.97c3.615,26.325,7.6,56.968,8.9,65.6a3.191,3.191,0,0,0,2.888,2.705l3.785.323a4.076,4.076,0,0,0,4.419-4.18Z" transform="translate(-185.445 641.961)" fill="#161e3a"/><path d="M267.514-432.083c-6.571,3.452-12.922,3.437-20.4,3.577l8.717,61.313s9.936,4.287,12.676-1.3c.672-1.371.43-35.5-.117-66.375C268.045-434.746,267.866-432.2,267.514-432.083Z" transform="translate(-187.166 642.057)" fill="#161e3a"/><path d="M284.558-545.621a64.137,64.137,0,0,0-3.521,9.589l-2.1,15.648c-5.217,4.252-9.275,7.456-9.275,7.456s-2.386-3.977-3.976-11.931Z" transform="translate(-188.219 648.336)" fill="#ced0d8"/><path d="M188.51-634.417s3.731-11.36,8.166-11.045,8.564,3.425,8.545,6.7c-.012,2.142-1.555,5.469-2.622,7.519a4.472,4.472,0,0,1-2.526,2.143,3.081,3.081,0,0,0-1.763,1.293c-.779,1.442-3.039,8.663-3.039,8.663l-8.091-2.071Z" transform="translate(-183.768 653.997)" fill="#ef9e78"/><path d="M186.5-624.972s8.117-5.126,12.817.427L198.037-597.2l7.69,8.544,3.985,32.733s-16.374-19.916-19.791-26.325c-.919-1.722-1.869-3.322-2.767-4.74a23.2,23.2,0,0,1-3.419-15.216Z" transform="translate(-183.563 652.957)" fill="#dadeea"/><path d="M192.856-605.508l5.437,4.2,1.09-23.238c-4.7-5.553-12.817-.427-12.817-.427l-1.881,15.461A64.3,64.3,0,0,1,192.856-605.508Z" transform="translate(-183.627 652.957)" fill="#ced0d8"/></g></g><g transform="translate(181.898 -681.316)"><circle cx="12.527" cy="12.527" r="12.527" transform="translate(0 18.704) rotate(-48.292)" fill="#333"/><path d="M0,0H4.772a0,0,0,0,1,0,0V9.178a1.36,1.36,0,0,1-1.36,1.36H1.36A1.36,1.36,0,0,1,0,9.178V0A0,0,0,0,1,0,0Z" transform="translate(11.699 25.493) rotate(23.448)" fill="#333"/><circle cx="10.439" cy="10.439" r="10.439" transform="translate(7.378 7.196)" fill="#7fc733"/><g transform="translate(17.865 9.173)" opacity="0.75"><path d="M214.095-665.383a1.19,1.19,0,0,0-1.259,2.015c.024.018.048.035.074.052,2.5,1.735,3.2,3.121,3.008,4.556s.826,2.092,1.666,1.156.226-4.02-.551-5.225A8.483,8.483,0,0,0,214.095-665.383Z" transform="translate(-209.048 667.512)" fill="#fff"/><path d="M211.521-665.685a1.392,1.392,0,0,1-1.831.724,1.392,1.392,0,0,1-.724-1.831,1.392,1.392,0,0,1,1.831-.723A1.391,1.391,0,0,1,211.521-665.685Z" transform="translate(-208.851 667.631)" fill="#fff"/></g></g><g transform="translate(264.609 -734.977)"><rect width="116.523" height="98.721" rx="28.14" fill="#fff" opacity="0.56"/><g transform="translate(23.766 4.402)"><rect width="13.468" height="23.944" transform="translate(0 62.002)" fill="#7fc733"/><rect width="12.221" height="35.666" transform="translate(20.701 50.28)" fill="#7fc733"/><rect width="12.471" height="49.134" transform="translate(41.652 36.811)" fill="#7fc733"/><rect width="12.221" height="65.346" transform="translate(61.605 20.6)" fill="#7fc733"/><path d="M356.939-729.575l-16.815,7.9,6.863,4.773-13.227,19.02-14.156-5.03-16.456,23.662,1.53,1.064,15.643-22.493,14.156,5.03,14.04-20.188,6.863,4.773Z" transform="translate(-302.809 729.575)" fill="#7fc733"/></g></g></g></g></svg>