<svg xmlns="http://www.w3.org/2000/svg" width="806" height="353.667" viewBox="0 0 806 353.667">
  <g id="Grupo_134449" data-name="Grupo 134449" transform="translate(-4581 5410)">
    <g id="Grupo_134444" data-name="Grupo 134444" transform="translate(3189.772 -6183.18)">
      <rect id="Rectángulo_41300" data-name="Rectángulo 41300" width="373.609" height="183.783" transform="translate(1600.449 941.064)" fill="#f1f2f2" stroke="#231f20" stroke-miterlimit="10" stroke-width="1"/>
      <path id="Trazado_190056" data-name="Trazado 190056" d="M1600.4,1039.816l186.856,67.816,186.854-67.816Z" transform="translate(0 -98.751)" fill="#e6e7e8"/>
      <path id="Trazado_190057" data-name="Trazado 190057" d="M1600.4,993.38l186.855-78,186.855,78Z" transform="translate(0 -52.316)" fill="#f1f2f2" stroke="#af418c" stroke-width="4"/>
      <g id="Grupo_133293" data-name="Grupo 133293" transform="translate(1658.768 775.18)">
        <path id="Trazado_192684" data-name="Trazado 192684" d="M0,0H256.969V343.622H0Z" transform="translate(0)" fill="#fff" stroke="#af418c" stroke-width="4"/>
        <path id="Trazado_190058" data-name="Trazado 190058" d="M2021.044,1109.13a9.532,9.532,0,0,1-9.5,9.5H1921.3a9.532,9.532,0,0,1-9.5-9.5V858.019a9.532,9.532,0,0,1,9.5-9.5h90.239a9.533,9.533,0,0,1,9.5,9.505Z" transform="translate(-1774.97 -783.947)" fill="#6836bf" opacity="0.527"/>
        <rect id="Rectángulo_41303" data-name="Rectángulo 41303" width="65.944" height="2.487" transform="translate(14.639 52.966)" fill="#12263f"/>
        <rect id="Rectángulo_41304" data-name="Rectángulo 41304" width="61.139" height="2.487" transform="translate(41.47 64.567)" fill="#12263f"/>
        <rect id="Rectángulo_41305" data-name="Rectángulo 41305" width="51.794" height="2.486" transform="translate(23.583 75.547)" fill="#12263f"/>
        <rect id="Rectángulo_41306" data-name="Rectángulo 41306" width="51.794" height="2.486" transform="translate(39.602 98.703)" fill="#12263f"/>
        <rect id="Rectángulo_41307" data-name="Rectángulo 41307" width="55.933" height="2.486" transform="translate(47.611 85.906)" fill="#12263f"/>
        <rect id="Rectángulo_41308" data-name="Rectángulo 41308" width="62.206" height="2.486" transform="translate(28.988 129.352)" fill="#12263f"/>
        <rect id="Rectángulo_41309" data-name="Rectángulo 41309" width="75.956" height="2.487" transform="translate(14.639 144.534)" fill="#12263f"/>
        <rect id="Rectángulo_41310" data-name="Rectángulo 41310" width="61.805" height="2.485" transform="translate(39.602 155.49)" fill="#12263f"/>
        <rect id="Rectángulo_41311" data-name="Rectángulo 41311" width="61.539" height="2.486" transform="translate(21.714 170.876)" fill="#12263f"/>
        <rect id="Rectángulo_41312" data-name="Rectángulo 41312" width="61.539" height="2.486" transform="translate(39.736 184.897)" fill="#12263f"/>
        <rect id="Rectángulo_41313" data-name="Rectángulo 41313" width="47.656" height="2.486" transform="translate(149.257 170.568)" fill="#12263f"/>
        <rect id="Rectángulo_41314" data-name="Rectángulo 41314" width="47.656" height="2.486" transform="translate(188.586 182.098)" fill="#12263f"/>
        <rect id="Rectángulo_41315" data-name="Rectángulo 41315" width="47.656" height="2.486" transform="translate(149.257 193.628)" fill="#12263f"/>
        <rect id="Rectángulo_41316" data-name="Rectángulo 41316" width="96.959" height="2.486" transform="translate(149.257 205.158)" fill="#12263f"/>
        <rect id="Rectángulo_41317" data-name="Rectángulo 41317" width="96.959" height="2.486" transform="translate(20.266 112.501)" fill="#12263f"/>
        <rect id="Rectángulo_41318" data-name="Rectángulo 41318" width="96.959" height="2.486" transform="translate(20.266 204.139)" fill="#12263f"/>
        <rect id="Rectángulo_41319" data-name="Rectángulo 41319" width="96.959" height="2.486" transform="translate(20.266 295.778)" fill="#7fc733"/>
        <rect id="Rectángulo_41320" data-name="Rectángulo 41320" width="47.656" height="2.486" transform="translate(149.257 216.688)" fill="#12263f"/>
        <rect id="Rectángulo_41321" data-name="Rectángulo 41321" width="64.484" height="2.486" transform="translate(149.257 228.218)" fill="#939598"/>
        <rect id="Rectángulo_41322" data-name="Rectángulo 41322" width="47.656" height="2.486" transform="translate(176.999 239.748)" fill="#939598"/>
        <rect id="Rectángulo_41323" data-name="Rectángulo 41323" width="47.656" height="2.486" transform="translate(176.721 251.278)" fill="#939598"/>
        <rect id="Rectángulo_41324" data-name="Rectángulo 41324" width="47.656" height="2.486" transform="translate(149.257 262.808)" fill="#939598"/>
        <rect id="Rectángulo_41325" data-name="Rectángulo 41325" width="96.959" height="2.486" transform="translate(149.258 274.338)" fill="#7fc733"/>
        <rect id="Rectángulo_41326" data-name="Rectángulo 41326" width="47.656" height="2.486" transform="translate(149.257 285.867)" fill="#939598"/>
        <rect id="Rectángulo_41327" data-name="Rectángulo 41327" width="47.656" height="2.485" transform="translate(160.044 297.398)" fill="#939598"/>
        <rect id="Rectángulo_41328" data-name="Rectángulo 41328" width="47.656" height="2.486" transform="translate(180.388 308.927)" fill="#939598"/>
        <rect id="Rectángulo_41329" data-name="Rectángulo 41329" width="47.656" height="2.485" transform="translate(149.257 320.457)" fill="#939598"/>
        <rect id="Rectángulo_41330" data-name="Rectángulo 41330" width="55.265" height="2.486" transform="translate(41.337 228.435)" fill="#939598"/>
        <rect id="Rectángulo_41331" data-name="Rectángulo 41331" width="62.207" height="2.487" transform="translate(26.786 239.747)" fill="#939598"/>
        <rect id="Rectángulo_41332" data-name="Rectángulo 41332" width="62.207" height="2.487" transform="translate(36.825 216.425)" fill="#12263f"/>
        <rect id="Rectángulo_41333" data-name="Rectángulo 41333" width="77.558" height="2.486" transform="translate(20.112 250.602)" fill="#939598"/>
        <rect id="Rectángulo_41334" data-name="Rectángulo 41334" width="84.232" height="2.487" transform="translate(22.382 266.346)" fill="#939598"/>
        <rect id="Rectángulo_41335" data-name="Rectángulo 41335" width="59.87" height="2.487" transform="translate(52.617 279.604)" fill="#939598"/>
        <path id="Trazado_190065" data-name="Trazado 190065" d="M2018.29,947.732a9.532,9.532,0,0,1-9.5,9.5h-71.564a9.533,9.533,0,0,1-9.5-9.5V873.15a9.533,9.533,0,0,1,9.5-9.505h71.563a9.533,9.533,0,0,1,9.5,9.5Z" transform="translate(-1781.554 -790.204)" fill="#e6e7e8"/>
        <path id="Trazado_190066" data-name="Trazado 190066" d="M1991.5,940.452l-1.2-10.685a30.116,30.116,0,0,0,7.159-11.649c.481,1.089,1.049,1.719,1.659,1.719,1.727,0,3.128-5.061,3.128-11.305s-1.4-11.306-3.128-11.306a1.015,1.015,0,0,0-.551.174c-2.8-12.489-11.666-21.616-22.176-21.616s-19.381,9.128-22.178,21.616a1.014,1.014,0,0,0-.55-.174c-1.728,0-3.129,5.061-3.129,11.306s1.4,11.305,3.129,11.305c.609,0,1.177-.63,1.658-1.719a30.11,30.11,0,0,0,7.158,11.649l-1.2,10.685h-25.372v14.435h80.963V940.452Z" transform="translate(-1784.943 -795.224)" fill="#6836bf" opacity="0.329"/>
        <text id="NOMBRE" transform="translate(-136.223 45.5)" fill="#fff" font-size="18" font-family="Roboto-Black, Roboto" font-weight="800"><tspan x="-37.134" y="17">NOMBRE</tspan></text>
      </g>
      <path id="Trazado_190072" data-name="Trazado 190072" d="M1791.53,1107.642l-191.05-67.8V1223.61h382.1V1039.845Z" transform="translate(-4.252 -98.762)" fill="#f1f2f2" stroke="#af418c" stroke-width="4"/>
      <path id="Trazado_190073" data-name="Trazado 190073" d="M1602.6,1263.97,1788.078,1148,1973.55,1263.97Z" transform="translate(-0.823 -139.122)" fill="#f6f6f6" stroke="#af418c" stroke-width="4"/>
    </g>
    <path id="Trazado_192686" data-name="Trazado 192686" d="M17.5,0h185a17.5,17.5,0,0,1,0,35H17.5a17.5,17.5,0,0,1,0-35Z" transform="translate(4646 -5368)" fill="#b13e8d"/>
    <path id="Trazado_192687" data-name="Trazado 192687" d="M17.5,0h224a17.5,17.5,0,0,1,0,35H17.5a17.5,17.5,0,0,1,0-35Z" transform="translate(5128 -5323)" fill="#b13e8d"/>
    <path id="Trazado_192688" data-name="Trazado 192688" d="M17.5,0h168a17.5,17.5,0,0,1,0,35H17.5a17.5,17.5,0,0,1,0-35Z" transform="translate(4581 -5155)" fill="#b13e8d"/>
    <path id="Trazado_192689" data-name="Trazado 192689" d="M17.5,0h168a17.5,17.5,0,0,1,0,35H17.5a17.5,17.5,0,0,1,0-35Z" transform="translate(5174 -5110)" fill="#b13e8d"/>
    <path id="Trazado_192690" data-name="Trazado 192690" d="M1.309,17V4.2H5.431a6.064,6.064,0,0,1,3.05.769,5.406,5.406,0,0,1,2.114,2.171,6.554,6.554,0,0,1,.769,3.142v.589a6.592,6.592,0,0,1-.743,3.151A5.429,5.429,0,0,1,8.529,16.2a5.93,5.93,0,0,1-3.01.8ZM4.394,6.585v8.042H5.466a2.4,2.4,0,0,0,2.039-.945,4.63,4.63,0,0,0,.712-2.808V10.32a4.592,4.592,0,0,0-.712-2.795,2.442,2.442,0,0,0-2.074-.94ZM20.03,14.609H15.8L15.064,17h-3.3L16.461,4.2h2.9L24.09,17H20.777Zm-3.489-2.382h2.751l-1.38-4.438ZM34.013,6.585H30.172V17H27.087V6.585H23.317V4.2h10.7ZM45.9,10.865a7.546,7.546,0,0,1-.694,3.313A5.132,5.132,0,0,1,43.237,16.4a5.494,5.494,0,0,1-2.914.778,5.572,5.572,0,0,1-2.9-.751,5.123,5.123,0,0,1-1.973-2.149,7.329,7.329,0,0,1-.743-3.208v-.721a7.58,7.58,0,0,1,.69-3.318A5.119,5.119,0,0,1,37.375,4.81,5.854,5.854,0,0,1,43.207,4.8,5.211,5.211,0,0,1,45.188,7a7.362,7.362,0,0,1,.716,3.274Zm-3.138-.536a5.381,5.381,0,0,0-.637-2.9,2.044,2.044,0,0,0-1.824-.989q-2.32,0-2.452,3.48l-.009.94a5.535,5.535,0,0,0,.624,2.892,2.041,2.041,0,0,0,1.854,1.011,2.016,2.016,0,0,0,1.8-.993,5.383,5.383,0,0,0,.642-2.856ZM54.1,13.6a1.268,1.268,0,0,0-.479-1.055,5.954,5.954,0,0,0-1.683-.782,16.147,16.147,0,0,1-1.969-.782q-2.487-1.222-2.487-3.357a3.011,3.011,0,0,1,.62-1.876A4.008,4.008,0,0,1,49.851,4.48,6.823,6.823,0,0,1,52.4,4.027a5.969,5.969,0,0,1,2.474.492,3.917,3.917,0,0,1,1.7,1.4A3.661,3.661,0,0,1,57.181,8H54.1a1.547,1.547,0,0,0-.479-1.213,1.867,1.867,0,0,0-1.3-.431,2.106,2.106,0,0,0-1.305.365,1.074,1.074,0,0,0,.048,1.819,6.65,6.65,0,0,0,1.854.826,11.36,11.36,0,0,1,2.18.918,3.663,3.663,0,0,1,2.074,3.3,3.125,3.125,0,0,1-1.266,2.637,5.629,5.629,0,0,1-3.472.958,6.888,6.888,0,0,1-2.817-.558,4.247,4.247,0,0,1-1.9-1.529,3.985,3.985,0,0,1-.637-2.237h3.094a1.963,1.963,0,0,0,.532,1.516,2.513,2.513,0,0,0,1.727.488,1.985,1.985,0,0,0,1.208-.33A1.088,1.088,0,0,0,54.1,13.6Zm12.234-.94V17H63.246V4.2h5.106a5.948,5.948,0,0,1,2.6.541A4.074,4.074,0,0,1,72.7,6.282a4.2,4.2,0,0,1,.62,2.263,3.7,3.7,0,0,1-1.34,2.993A5.561,5.561,0,0,1,68.3,12.658Zm0-2.382h2.021a1.906,1.906,0,0,0,1.367-.448,1.665,1.665,0,0,0,.47-1.266,2.059,2.059,0,0,0-.483-1.433,1.712,1.712,0,0,0-1.318-.545H66.331ZM82.9,11.568H78.046v3.059h5.73V17H74.961V4.2h8.833V6.585H78.046v2.7H82.9Zm6.891.905h-1.67V17H85.034V4.2H90.07a5.621,5.621,0,0,1,3.56,1.01,3.421,3.421,0,0,1,1.283,2.853,4.155,4.155,0,0,1-.541,2.213A3.837,3.837,0,0,1,92.68,11.7l2.672,5.167V17h-3.3ZM88.119,10.1H90.07a1.751,1.751,0,0,0,1.323-.463,1.788,1.788,0,0,0,.444-1.291,1.809,1.809,0,0,0-.448-1.3,1.735,1.735,0,0,0-1.318-.471H88.119Zm15.258,3.5a1.268,1.268,0,0,0-.479-1.055,5.954,5.954,0,0,0-1.683-.782,16.147,16.147,0,0,1-1.969-.782q-2.487-1.222-2.487-3.357a3.011,3.011,0,0,1,.62-1.876A4.008,4.008,0,0,1,99.131,4.48a6.823,6.823,0,0,1,2.549-.453,5.969,5.969,0,0,1,2.474.492,3.917,3.917,0,0,1,1.7,1.4A3.661,3.661,0,0,1,106.461,8h-3.076a1.547,1.547,0,0,0-.479-1.213,1.867,1.867,0,0,0-1.3-.431,2.106,2.106,0,0,0-1.305.365,1.074,1.074,0,0,0,.048,1.819,6.65,6.65,0,0,0,1.854.826,11.36,11.36,0,0,1,2.18.918,3.663,3.663,0,0,1,2.074,3.3,3.125,3.125,0,0,1-1.266,2.637,5.629,5.629,0,0,1-3.472.958,6.888,6.888,0,0,1-2.817-.558,4.247,4.247,0,0,1-1.9-1.529,3.985,3.985,0,0,1-.637-2.237h3.094A1.963,1.963,0,0,0,100,14.368a2.513,2.513,0,0,0,1.727.488,1.985,1.985,0,0,0,1.208-.33A1.088,1.088,0,0,0,103.376,13.6Zm15.5-2.733a7.546,7.546,0,0,1-.694,3.313,5.132,5.132,0,0,1-1.973,2.219,5.494,5.494,0,0,1-2.914.778,5.572,5.572,0,0,1-2.9-.751,5.123,5.123,0,0,1-1.973-2.149,7.329,7.329,0,0,1-.743-3.208v-.721a7.58,7.58,0,0,1,.69-3.318,5.119,5.119,0,0,1,1.978-2.219,5.854,5.854,0,0,1,5.832-.009A5.211,5.211,0,0,1,118.164,7a7.362,7.362,0,0,1,.716,3.274Zm-3.138-.536a5.381,5.381,0,0,0-.637-2.9,2.044,2.044,0,0,0-1.824-.989q-2.32,0-2.452,3.48l-.009.94a5.535,5.535,0,0,0,.624,2.892,2.041,2.041,0,0,0,1.854,1.011,2.016,2.016,0,0,0,1.8-.993,5.383,5.383,0,0,0,.642-2.856ZM131.159,17h-3.067l-4.535-7.963V17h-3.085V4.2h3.085l4.526,7.963V4.2h3.076Zm9.378-2.391h-4.228L135.571,17h-3.3l4.693-12.8h2.9L144.6,17h-3.313Zm-3.489-2.382H139.8l-1.38-4.438Zm11.566,2.4h5.37V17h-8.455V4.2h3.085Zm14.607-3.059H158.37v3.059h5.73V17h-8.815V4.2h8.833V6.585H158.37v2.7h4.852Zm8.736,2.03a1.268,1.268,0,0,0-.479-1.055,5.954,5.954,0,0,0-1.683-.782,16.147,16.147,0,0,1-1.969-.782q-2.487-1.222-2.487-3.357a3.011,3.011,0,0,1,.62-1.876,4.008,4.008,0,0,1,1.753-1.266,6.823,6.823,0,0,1,2.549-.453,5.969,5.969,0,0,1,2.474.492,3.917,3.917,0,0,1,1.7,1.4A3.661,3.661,0,0,1,175.042,8h-3.076a1.547,1.547,0,0,0-.479-1.213,1.867,1.867,0,0,0-1.3-.431,2.106,2.106,0,0,0-1.305.365,1.074,1.074,0,0,0,.048,1.819,6.65,6.65,0,0,0,1.854.826,11.36,11.36,0,0,1,2.18.918,3.663,3.663,0,0,1,2.074,3.3,3.125,3.125,0,0,1-1.266,2.637,5.629,5.629,0,0,1-3.472.958,6.888,6.888,0,0,1-2.817-.558,4.247,4.247,0,0,1-1.9-1.529,3.985,3.985,0,0,1-.637-2.237h3.094a1.963,1.963,0,0,0,.532,1.516,2.513,2.513,0,0,0,1.727.488,1.985,1.985,0,0,0,1.208-.33A1.088,1.088,0,0,0,171.958,13.6Z" transform="translate(4657 -5362.5)" fill="#fff"/>
    <path id="Trazado_192691" data-name="Trazado 192691" d="M11.333,11.568H6.482v3.059h5.73V17H3.4V4.2H12.23V6.585H6.482v2.7h4.852Zm6.908-3.111L20.333,4.2h3.524l-3.577,6.346L23.955,17H20.4l-2.153-4.333L16.088,17H12.538L16.2,10.549,12.634,4.2H16.15Zm9.8,4.2V17H24.957V4.2h5.106a5.948,5.948,0,0,1,2.6.541,4.074,4.074,0,0,1,1.749,1.538,4.2,4.2,0,0,1,.62,2.263,3.7,3.7,0,0,1-1.34,2.993,5.561,5.561,0,0,1-3.678,1.121Zm0-2.382h2.021a1.906,1.906,0,0,0,1.367-.448,1.665,1.665,0,0,0,.47-1.266,2.059,2.059,0,0,0-.483-1.433A1.712,1.712,0,0,0,30.1,6.585H28.042Zm16.567,1.292H39.757v3.059h5.73V17H36.672V4.2h8.833V6.585H39.757v2.7h4.852Zm6.891.905H49.83V17H46.745V4.2h5.036a5.621,5.621,0,0,1,3.56,1.01,3.421,3.421,0,0,1,1.283,2.853,4.155,4.155,0,0,1-.541,2.213A3.837,3.837,0,0,1,54.391,11.7l2.672,5.167V17h-3.3ZM49.83,10.1h1.951A1.751,1.751,0,0,0,53.1,9.638a1.788,1.788,0,0,0,.444-1.291,1.809,1.809,0,0,0-.448-1.3,1.735,1.735,0,0,0-1.318-.471H49.83ZM61.774,17H58.7V4.2h3.076Zm10.081-5.432H67v3.059h5.73V17H63.918V4.2h8.833V6.585H67v2.7h4.852ZM84.678,17H81.611L77.076,9.037V17H73.991V4.2h3.085L81.6,12.166V4.2h3.076Zm12.3-4.333a4.673,4.673,0,0,1-.721,2.36,4.35,4.35,0,0,1-1.85,1.586,6.3,6.3,0,0,1-2.72.563,5.025,5.025,0,0,1-3.973-1.644,6.786,6.786,0,0,1-1.45-4.641v-.633a7.746,7.746,0,0,1,.655-3.292,4.961,4.961,0,0,1,1.885-2.18,5.26,5.26,0,0,1,2.848-.769A5.516,5.516,0,0,1,95.4,5.245a4.844,4.844,0,0,1,1.608,3.379H93.933a2.292,2.292,0,0,0-.589-1.679,2.422,2.422,0,0,0-1.687-.51,1.843,1.843,0,0,0-1.687.861,5.536,5.536,0,0,0-.562,2.751v.905a6.126,6.126,0,0,0,.514,2.927,1.882,1.882,0,0,0,1.771.879,2.369,2.369,0,0,0,1.626-.5,2.126,2.126,0,0,0,.6-1.591ZM101.729,17H98.653V4.2h3.076Zm9.571-2.391h-4.228L106.334,17h-3.3l4.693-12.8h2.9L115.361,17h-3.313Zm-3.489-2.382h2.751l-1.38-4.438Zm16.049,2.4h5.37V17h-8.455V4.2h3.085Zm14.106-.018h-4.228L133,17h-3.3L134.4,4.2h2.9L142.027,17h-3.313Zm-3.489-2.382h2.751l-1.38-4.438ZM142.958,17V4.2h4.6a6.509,6.509,0,0,1,3.757.905A3.012,3.012,0,0,1,152.6,7.736a3.045,3.045,0,0,1-.457,1.7A2.663,2.663,0,0,1,150.8,10.47a2.7,2.7,0,0,1,1.538.984,2.862,2.862,0,0,1,.536,1.758,3.388,3.388,0,0,1-1.191,2.826,5.667,5.667,0,0,1-3.529.962Zm3.085-5.44v3.067h2.021a1.923,1.923,0,0,0,1.283-.382,1.338,1.338,0,0,0,.448-1.077,1.419,1.419,0,0,0-1.591-1.608Zm0-2.021h1.608a2.285,2.285,0,0,0,1.441-.37,1.314,1.314,0,0,0,.431-1.067,1.379,1.379,0,0,0-.466-1.168,2.493,2.493,0,0,0-1.5-.357h-1.512Zm19.362,1.327a7.546,7.546,0,0,1-.694,3.313,5.132,5.132,0,0,1-1.973,2.219,5.494,5.494,0,0,1-2.914.778,5.572,5.572,0,0,1-2.9-.751,5.123,5.123,0,0,1-1.973-2.149,7.329,7.329,0,0,1-.743-3.208v-.721a7.58,7.58,0,0,1,.69-3.318,5.119,5.119,0,0,1,1.978-2.219,5.854,5.854,0,0,1,5.832-.009A5.211,5.211,0,0,1,164.689,7a7.362,7.362,0,0,1,.716,3.274Zm-3.138-.536a5.381,5.381,0,0,0-.637-2.9,2.044,2.044,0,0,0-1.824-.989q-2.32,0-2.452,3.48l-.009.94a5.535,5.535,0,0,0,.624,2.892,2.041,2.041,0,0,0,1.854,1.011,2.016,2.016,0,0,0,1.8-.993,5.383,5.383,0,0,0,.642-2.856Zm9.483,2.145h-1.67V17H167V4.2h5.036a5.621,5.621,0,0,1,3.56,1.01,3.421,3.421,0,0,1,1.283,2.853,4.155,4.155,0,0,1-.541,2.213,3.837,3.837,0,0,1-1.692,1.422l2.672,5.167V17h-3.3Zm-1.67-2.373h1.951a1.751,1.751,0,0,0,1.323-.463,1.788,1.788,0,0,0,.444-1.291,1.809,1.809,0,0,0-.448-1.3,1.735,1.735,0,0,0-1.318-.471h-1.951Zm15.926,4.509H181.78L181.042,17h-3.3l4.693-12.8h2.9L190.068,17h-3.313Zm-3.489-2.382h2.751l-1.38-4.438Zm11.566,2.4h5.37V17H191V4.2h3.085Z" transform="translate(5168.1 -5317.5)" fill="#fff"/>
    <path id="Trazado_192692" data-name="Trazado 192692" d="M9.468,11.568H4.617v3.059h5.73V17H1.532V4.2h8.833V6.585H4.617v2.7H9.468ZM11.6,17V4.2h4.122a6.064,6.064,0,0,1,3.05.769A5.406,5.406,0,0,1,20.89,7.143a6.554,6.554,0,0,1,.769,3.142v.589a6.592,6.592,0,0,1-.743,3.151,5.429,5.429,0,0,1-2.092,2.18,5.93,5.93,0,0,1-3.01.8ZM14.689,6.585v8.042h1.072a2.4,2.4,0,0,0,2.039-.945,4.63,4.63,0,0,0,.712-2.808V10.32A4.592,4.592,0,0,0,17.8,7.525a2.442,2.442,0,0,0-2.074-.94ZM33.278,4.2v8.376a4.814,4.814,0,0,1-.606,2.465,3.929,3.929,0,0,1-1.74,1.586,6.131,6.131,0,0,1-2.681.545,5.3,5.3,0,0,1-3.683-1.213A4.326,4.326,0,0,1,23.2,12.641V4.2h3.1v8.5q.053,2.1,1.951,2.1a1.889,1.889,0,0,0,1.45-.527,2.465,2.465,0,0,0,.492-1.714V4.2Zm12.278,8.464a4.673,4.673,0,0,1-.721,2.36,4.35,4.35,0,0,1-1.85,1.586,6.3,6.3,0,0,1-2.72.563,5.025,5.025,0,0,1-3.973-1.644,6.786,6.786,0,0,1-1.45-4.641v-.633A7.746,7.746,0,0,1,35.5,6.967a4.961,4.961,0,0,1,1.885-2.18,5.26,5.26,0,0,1,2.848-.769,5.516,5.516,0,0,1,3.744,1.226,4.844,4.844,0,0,1,1.608,3.379H42.506a2.292,2.292,0,0,0-.589-1.679,2.422,2.422,0,0,0-1.687-.51,1.843,1.843,0,0,0-1.687.861,5.536,5.536,0,0,0-.562,2.751v.905a6.126,6.126,0,0,0,.514,2.927,1.882,1.882,0,0,0,1.771.879,2.369,2.369,0,0,0,1.626-.5,2.126,2.126,0,0,0,.6-1.591Zm8.728,1.942H50.056L49.318,17h-3.3L50.715,4.2h2.9L58.344,17H55.031Zm-3.489-2.382h2.751l-1.38-4.438Zm18.65.439a4.673,4.673,0,0,1-.721,2.36,4.35,4.35,0,0,1-1.85,1.586,6.3,6.3,0,0,1-2.72.563,5.025,5.025,0,0,1-3.973-1.644,6.786,6.786,0,0,1-1.45-4.641v-.633a7.746,7.746,0,0,1,.655-3.292,4.961,4.961,0,0,1,1.885-2.18,5.26,5.26,0,0,1,2.848-.769,5.516,5.516,0,0,1,3.744,1.226,4.844,4.844,0,0,1,1.608,3.379H66.4a2.292,2.292,0,0,0-.589-1.679,2.422,2.422,0,0,0-1.687-.51,1.843,1.843,0,0,0-1.687.861,5.536,5.536,0,0,0-.562,2.751v.905a6.126,6.126,0,0,0,.514,2.927,1.882,1.882,0,0,0,1.771.879,2.369,2.369,0,0,0,1.626-.5,2.126,2.126,0,0,0,.6-1.591ZM74.191,17H71.115V4.2h3.076Zm12.981-6.135a7.546,7.546,0,0,1-.694,3.313A5.132,5.132,0,0,1,84.5,16.4a5.494,5.494,0,0,1-2.914.778,5.572,5.572,0,0,1-2.9-.751,5.123,5.123,0,0,1-1.973-2.149,7.329,7.329,0,0,1-.743-3.208v-.721a7.58,7.58,0,0,1,.69-3.318A5.119,5.119,0,0,1,78.643,4.81,5.854,5.854,0,0,1,84.474,4.8,5.211,5.211,0,0,1,86.456,7a7.362,7.362,0,0,1,.716,3.274Zm-3.138-.536a5.381,5.381,0,0,0-.637-2.9,2.044,2.044,0,0,0-1.824-.989q-2.32,0-2.452,3.48l-.009.94a5.535,5.535,0,0,0,.624,2.892,2.041,2.041,0,0,0,1.854,1.011,2.016,2.016,0,0,0,1.8-.993,5.383,5.383,0,0,0,.642-2.856ZM81.934.775h3.129L82.62,3.535l-2.417,0ZM99.451,17H96.383L91.848,9.037V17H88.763V4.2h3.085l4.526,7.963V4.2h3.076Z" transform="translate(4628.318 -5149.5)" fill="#fff"/>
    <path id="Trazado_192693" data-name="Trazado 192693" d="M15.67,17H12.6V11.656H8.059V17H4.974V4.2H8.059v5.08H12.6V4.2H15.67Zm9.378-2.391H20.821L20.083,17h-3.3L21.48,4.2h2.9L29.109,17H25.8Zm-3.489-2.382H24.31L22.93,7.789ZM30.041,17V4.2h4.6a6.509,6.509,0,0,1,3.757.905,3.012,3.012,0,0,1,1.288,2.628,3.045,3.045,0,0,1-.457,1.7A2.663,2.663,0,0,1,37.88,10.47a2.7,2.7,0,0,1,1.538.984,2.862,2.862,0,0,1,.536,1.758,3.388,3.388,0,0,1-1.191,2.826A5.667,5.667,0,0,1,35.235,17Zm3.085-5.44v3.067h2.021a1.923,1.923,0,0,0,1.283-.382,1.338,1.338,0,0,0,.448-1.077,1.419,1.419,0,0,0-1.591-1.608Zm0-2.021h1.608a2.285,2.285,0,0,0,1.441-.37A1.314,1.314,0,0,0,36.606,8.1a1.379,1.379,0,0,0-.466-1.168,2.493,2.493,0,0,0-1.5-.357H33.125ZM44.938,17H41.862V4.2h3.076Zm5.229-2.373h5.37V17H47.083V4.2h3.085ZM60.125,17H57.049V4.2h3.076Zm2.145,0V4.2h4.122a6.064,6.064,0,0,1,3.05.769,5.406,5.406,0,0,1,2.114,2.171,6.554,6.554,0,0,1,.769,3.142v.589a6.592,6.592,0,0,1-.743,3.151A5.429,5.429,0,0,1,69.49,16.2a5.93,5.93,0,0,1-3.01.8ZM65.355,6.585v8.042h1.072a2.4,2.4,0,0,0,2.039-.945,4.63,4.63,0,0,0,.712-2.808V10.32a4.592,4.592,0,0,0-.712-2.795,2.442,2.442,0,0,0-2.074-.94Zm15.636,8.024H76.763L76.025,17h-3.3L77.422,4.2h2.9L85.051,17H81.738ZM77.5,12.228h2.751l-1.38-4.438ZM85.983,17V4.2H90.1a6.064,6.064,0,0,1,3.05.769,5.406,5.406,0,0,1,2.114,2.171,6.554,6.554,0,0,1,.769,3.142v.589a6.592,6.592,0,0,1-.743,3.151A5.429,5.429,0,0,1,93.2,16.2a5.93,5.93,0,0,1-3.01.8ZM89.068,6.585v8.042H90.14a2.4,2.4,0,0,0,2.039-.945,4.63,4.63,0,0,0,.712-2.808V10.32a4.592,4.592,0,0,0-.712-2.795,2.442,2.442,0,0,0-2.074-.94Zm16.488,4.983H100.7v3.059h5.73V17H97.62V4.2h8.833V6.585H100.7v2.7h4.852Zm8.736,2.03a1.268,1.268,0,0,0-.479-1.055,5.954,5.954,0,0,0-1.683-.782,16.147,16.147,0,0,1-1.969-.782q-2.487-1.222-2.487-3.357a3.011,3.011,0,0,1,.62-1.876,4.008,4.008,0,0,1,1.753-1.266,6.823,6.823,0,0,1,2.549-.453,5.969,5.969,0,0,1,2.474.492,3.917,3.917,0,0,1,1.7,1.4A3.661,3.661,0,0,1,117.377,8H114.3a1.547,1.547,0,0,0-.479-1.213,1.867,1.867,0,0,0-1.3-.431,2.106,2.106,0,0,0-1.305.365,1.074,1.074,0,0,0,.048,1.819,6.65,6.65,0,0,0,1.854.826,11.36,11.36,0,0,1,2.18.918,3.663,3.663,0,0,1,2.074,3.3,3.125,3.125,0,0,1-1.266,2.637,5.629,5.629,0,0,1-3.472.958,6.888,6.888,0,0,1-2.817-.558,4.247,4.247,0,0,1-1.9-1.529,3.985,3.985,0,0,1-.637-2.237h3.094a1.963,1.963,0,0,0,.532,1.516,2.513,2.513,0,0,0,1.727.488,1.985,1.985,0,0,0,1.208-.33A1.088,1.088,0,0,0,114.292,13.6Z" transform="translate(5223.318 -5104.5)" fill="#fff"/>
    <g id="Grupo_134445" data-name="Grupo 134445" transform="translate(4103 -6659)">
      <circle id="Elipse_4800" data-name="Elipse 4800" cx="27" cy="27" r="27" transform="translate(736 1281)" fill="#7fc733" opacity="0.5"/>
      <circle id="Elipse_4801" data-name="Elipse 4801" cx="15" cy="15" r="15" transform="translate(748 1293)" fill="#7fc733"/>
    </g>
    <g id="Grupo_134446" data-name="Grupo 134446" transform="translate(4365 -6614)">
      <circle id="Elipse_4800-2" data-name="Elipse 4800" cx="27" cy="27" r="27" transform="translate(736 1281)" fill="#7fc733" opacity="0.5"/>
      <circle id="Elipse_4801-2" data-name="Elipse 4801" cx="15" cy="15" r="15" transform="translate(748 1293)" fill="#7fc733"/>
    </g>
    <g id="Grupo_134447" data-name="Grupo 134447" transform="translate(4021 -6446)">
      <circle id="Elipse_4800-3" data-name="Elipse 4800" cx="27" cy="27" r="27" transform="translate(736 1281)" fill="#7fc733" opacity="0.5"/>
      <circle id="Elipse_4801-3" data-name="Elipse 4801" cx="15" cy="15" r="15" transform="translate(748 1293)" fill="#7fc733"/>
    </g>
    <g id="Grupo_134448" data-name="Grupo 134448" transform="translate(4419 -6401)">
      <circle id="Elipse_4800-4" data-name="Elipse 4800" cx="27" cy="27" r="27" transform="translate(736 1281)" fill="#7fc733" opacity="0.5"/>
      <circle id="Elipse_4801-4" data-name="Elipse 4801" cx="15" cy="15" r="15" transform="translate(748 1293)" fill="#7fc733"/>
    </g>
    <path id="Trazado_192694" data-name="Trazado 192694" d="M28.359,30H22.906V20.5H14.828V30H9.344V7.25h5.484v9.031h8.078V7.25h5.453Zm2.563-8.609a9.978,9.978,0,0,1,.984-4.508,7.04,7.04,0,0,1,2.828-3.039,8.518,8.518,0,0,1,4.328-1.062,7.774,7.774,0,0,1,5.984,2.352,9.024,9.024,0,0,1,2.188,6.4v.188a8.755,8.755,0,0,1-2.2,6.273,7.794,7.794,0,0,1-5.945,2.32,7.883,7.883,0,0,1-5.8-2.164,8.464,8.464,0,0,1-2.359-5.867Zm5.266.328a6.291,6.291,0,0,0,.734,3.438,2.447,2.447,0,0,0,2.172,1.094q2.813,0,2.875-4.328v-.531q0-4.547-2.906-4.547-2.641,0-2.859,3.922Zm19.031-8.625V30.578A6.137,6.137,0,0,1,53.5,35.2a6.6,6.6,0,0,1-4.75,1.625,11.214,11.214,0,0,1-2.484-.266V32.578a10.075,10.075,0,0,0,1.484.141,1.927,1.927,0,0,0,2.188-2.172V13.094ZM49.547,8.719a2.371,2.371,0,0,1,.813-1.855,3.438,3.438,0,0,1,4.219,0,2.371,2.371,0,0,1,.813,1.855,2.371,2.371,0,0,1-.812,1.855,3.438,3.438,0,0,1-4.219,0A2.371,2.371,0,0,1,49.547,8.719ZM67.719,30a5.946,5.946,0,0,1-.5-1.516,4.9,4.9,0,0,1-4.062,1.828,6,6,0,0,1-4.062-1.445,4.6,4.6,0,0,1-1.672-3.633,4.728,4.728,0,0,1,2.031-4.156,10.348,10.348,0,0,1,5.906-1.406h1.625v-.9q0-2.339-2.016-2.339a1.648,1.648,0,0,0-1.875,1.853H57.828a4.72,4.72,0,0,1,2.086-3.98,8.766,8.766,0,0,1,5.32-1.529,7.686,7.686,0,0,1,5.109,1.578,5.487,5.487,0,0,1,1.922,4.328v7.484a7.665,7.665,0,0,0,.719,3.563V30Zm-3.3-3.437a2.937,2.937,0,0,0,1.633-.422,2.644,2.644,0,0,0,.93-.953v-2.7H65.453q-2.75,0-2.75,2.469a1.507,1.507,0,0,0,.484,1.164A1.753,1.753,0,0,0,64.422,26.563Zm18.063-5.141a10.327,10.327,0,0,1,1.734-6.328,5.709,5.709,0,0,1,4.844-2.312,4.855,4.855,0,0,1,3.813,1.781V6h5.281V30H93.422l-.266-1.812a4.986,4.986,0,0,1-4.125,2.125A5.7,5.7,0,0,1,84.25,28,10.655,10.655,0,0,1,82.484,21.422Zm5.266.328q0,4.5,2.625,4.5a2.592,2.592,0,0,0,2.5-1.469V18.344a2.522,2.522,0,0,0-2.469-1.5q-2.437,0-2.641,3.938Zm21.578,8.563a8.691,8.691,0,0,1-6.3-2.32,8.013,8.013,0,0,1-2.406-6.039v-.437a10.383,10.383,0,0,1,.961-4.578,7.031,7.031,0,0,1,2.8-3.07,8.467,8.467,0,0,1,4.375-1.086,7.318,7.318,0,0,1,5.625,2.211,8.688,8.688,0,0,1,2.063,6.164V23.2H105.984a3.8,3.8,0,0,0,1.234,2.234,3.673,3.673,0,0,0,2.469.813,4.732,4.732,0,0,0,3.906-1.75L116,27.344a6.726,6.726,0,0,1-2.789,2.164A9.425,9.425,0,0,1,109.328,30.313Zm-.594-13.469q-2.312,0-2.75,3.063H111.3V19.5a2.608,2.608,0,0,0-.641-1.961A2.549,2.549,0,0,0,108.734,16.844Zm24.547,6.891,2.672-10.641H141.5L135.984,30h-5.375l-5.516-16.906h5.563ZM148.625,30h-5.281V13.094h5.281ZM143.031,8.719a2.371,2.371,0,0,1,.813-1.855,3.438,3.438,0,0,1,4.219,0,2.371,2.371,0,0,1,.813,1.855,2.371,2.371,0,0,1-.812,1.855,3.438,3.438,0,0,1-4.219,0A2.371,2.371,0,0,1,143.031,8.719Zm8.172,12.7a10.327,10.327,0,0,1,1.734-6.328,5.709,5.709,0,0,1,4.844-2.312,4.855,4.855,0,0,1,3.813,1.781V6h5.281V30h-4.734l-.266-1.812a4.986,4.986,0,0,1-4.125,2.125A5.7,5.7,0,0,1,152.969,28,10.655,10.655,0,0,1,151.2,21.422Zm5.266.328q0,4.5,2.625,4.5a2.592,2.592,0,0,0,2.5-1.469V18.344a2.522,2.522,0,0,0-2.469-1.5q-2.437,0-2.641,3.938ZM179.391,30a5.945,5.945,0,0,1-.5-1.516,4.9,4.9,0,0,1-4.062,1.828,6,6,0,0,1-4.062-1.445,4.6,4.6,0,0,1-1.672-3.633,4.728,4.728,0,0,1,2.031-4.156,10.348,10.348,0,0,1,5.906-1.406h1.625v-.9q0-2.339-2.016-2.339a1.648,1.648,0,0,0-1.875,1.853H169.5a4.72,4.72,0,0,1,2.086-3.98,8.766,8.766,0,0,1,5.32-1.529,7.686,7.686,0,0,1,5.109,1.578,5.487,5.487,0,0,1,1.922,4.328v7.484a7.665,7.665,0,0,0,.719,3.563V30Zm-3.3-3.437a2.937,2.937,0,0,0,1.633-.422,2.644,2.644,0,0,0,.93-.953v-2.7h-1.531q-2.75,0-2.75,2.469a1.507,1.507,0,0,0,.484,1.164A1.753,1.753,0,0,0,176.094,26.563Z" transform="translate(4888 -5400.5)" fill="#6836bf"/>
  </g>
</svg>
