<svg xmlns="http://www.w3.org/2000/svg" width="1030" height="450" viewBox="0 0 1030 450">
  <g id="Grupo_134438" data-name="Grupo 134438" transform="translate(-6146 1138.168)">
    <path id="Trazado_192742" data-name="Trazado 192742" d="M20,0h990a20,20,0,0,1,20,20V430a20,20,0,0,1-20,20H20A20,20,0,0,1,0,430V20A20,20,0,0,1,20,0Z" transform="translate(6146 -1138.168)" fill="none"/>
    <path id="Trazado_192743" data-name="Trazado 192743" d="M0,0H373.609V183.783H0Z" transform="translate(6474.222 -927.284)" fill="#f1f2f2" stroke="#231f20" stroke-width="1"/>
    <path id="Trazado_190056" data-name="Trazado 190056" d="M1600.4,1039.816l186.856,67.816,186.854-67.816Z" transform="translate(4873.772 -1967.1)" fill="#e6e7e8"/>
    <path id="Trazado_190057" data-name="Trazado 190057" d="M1600.4,993.38l186.855-78,186.855,78Z" transform="translate(4873.772 -1920.665)" fill="#f1f2f2" stroke="#af418c" stroke-width="4"/>
    <path id="Trazado_192684" data-name="Trazado 192684" d="M0,0H256.969V343.622H0Z" transform="translate(6532.541 -1093.168)" fill="#fff" stroke="#af418c" stroke-width="4"/>
    <path id="Trazado_190058" data-name="Trazado 190058" d="M2021.044,1109.13a9.532,9.532,0,0,1-9.5,9.5H1921.3a9.532,9.532,0,0,1-9.5-9.5V858.019a9.532,9.532,0,0,1,9.5-9.5h90.239a9.533,9.533,0,0,1,9.5,9.505Z" transform="translate(4757.571 -1877.115)" fill="#6836bf" opacity="0.527"/>
    <path id="Trazado_192744" data-name="Trazado 192744" d="M0,0H65.944V2.487H0Z" transform="translate(6547.18 -1040.202)" fill="#12263f"/>
    <path id="Trazado_192745" data-name="Trazado 192745" d="M0,0H61.139V2.487H0Z" transform="translate(6574.011 -1028.601)" fill="#12263f"/>
    <path id="Trazado_192746" data-name="Trazado 192746" d="M0,0H51.794V2.486H0Z" transform="translate(6556.124 -1017.621)" fill="#12263f"/>
    <path id="Trazado_192747" data-name="Trazado 192747" d="M0,0H51.794V2.486H0Z" transform="translate(6572.143 -994.466)" fill="#12263f"/>
    <path id="Trazado_192748" data-name="Trazado 192748" d="M0,0H55.933V2.486H0Z" transform="translate(6580.152 -1007.262)" fill="#12263f"/>
    <path id="Trazado_192749" data-name="Trazado 192749" d="M0,0H62.206V2.486H0Z" transform="translate(6561.528 -963.817)" fill="#12263f"/>
    <path id="Trazado_192750" data-name="Trazado 192750" d="M0,0H75.956V2.487H0Z" transform="translate(6547.18 -948.635)" fill="#12263f"/>
    <path id="Trazado_192751" data-name="Trazado 192751" d="M0,0H61.805V2.485H0Z" transform="translate(6572.143 -937.679)" fill="#12263f"/>
    <path id="Trazado_192752" data-name="Trazado 192752" d="M0,0H61.539V2.486H0Z" transform="translate(6554.255 -922.292)" fill="#12263f"/>
    <path id="Trazado_192753" data-name="Trazado 192753" d="M0,0H61.539V2.486H0Z" transform="translate(6572.277 -908.272)" fill="#12263f"/>
    <path id="Trazado_192754" data-name="Trazado 192754" d="M0,0H47.656V2.486H0Z" transform="translate(6681.798 -922.6)" fill="#12263f"/>
    <path id="Trazado_192755" data-name="Trazado 192755" d="M0,0H47.656V2.486H0Z" transform="translate(6721.127 -911.07)" fill="#12263f"/>
    <path id="Trazado_192756" data-name="Trazado 192756" d="M0,0H47.656V2.486H0Z" transform="translate(6681.798 -899.54)" fill="#12263f"/>
    <path id="Trazado_192757" data-name="Trazado 192757" d="M0,0H96.959V2.486H0Z" transform="translate(6681.798 -888.01)" fill="#12263f"/>
    <path id="Trazado_192758" data-name="Trazado 192758" d="M0,0H96.959V2.486H0Z" transform="translate(6552.807 -980.668)" fill="#12263f"/>
    <path id="Trazado_192759" data-name="Trazado 192759" d="M0,0H96.959V2.486H0Z" transform="translate(6552.807 -889.029)" fill="#12263f"/>
    <path id="Trazado_192760" data-name="Trazado 192760" d="M0,0H96.959V2.486H0Z" transform="translate(6552.807 -797.391)" fill="#7fc733"/>
    <path id="Trazado_192761" data-name="Trazado 192761" d="M0,0H47.656V2.486H0Z" transform="translate(6681.798 -876.481)" fill="#12263f"/>
    <path id="Trazado_192762" data-name="Trazado 192762" d="M0,0H64.484V2.486H0Z" transform="translate(6681.798 -864.951)" fill="#939598"/>
    <path id="Trazado_192763" data-name="Trazado 192763" d="M0,0H47.656V2.486H0Z" transform="translate(6709.54 -853.421)" fill="#939598"/>
    <path id="Trazado_192764" data-name="Trazado 192764" d="M0,0H47.656V2.486H0Z" transform="translate(6709.262 -841.891)" fill="#939598"/>
    <path id="Trazado_192765" data-name="Trazado 192765" d="M0,0H47.656V2.486H0Z" transform="translate(6681.798 -830.361)" fill="#939598"/>
    <path id="Trazado_192766" data-name="Trazado 192766" d="M0,0H96.959V2.486H0Z" transform="translate(6681.799 -818.831)" fill="#7fc733"/>
    <path id="Trazado_192767" data-name="Trazado 192767" d="M0,0H47.656V2.486H0Z" transform="translate(6681.798 -807.301)" fill="#939598"/>
    <path id="Trazado_192768" data-name="Trazado 192768" d="M0,0H47.656V2.485H0Z" transform="translate(6692.585 -795.771)" fill="#939598"/>
    <path id="Trazado_192769" data-name="Trazado 192769" d="M0,0H47.656V2.486H0Z" transform="translate(6712.929 -784.241)" fill="#939598"/>
    <path id="Trazado_192770" data-name="Trazado 192770" d="M0,0H47.656V2.485H0Z" transform="translate(6681.798 -772.711)" fill="#939598"/>
    <path id="Trazado_192771" data-name="Trazado 192771" d="M0,0H55.265V2.486H0Z" transform="translate(6573.878 -864.733)" fill="#939598"/>
    <path id="Trazado_192772" data-name="Trazado 192772" d="M0,0H62.207V2.487H0Z" transform="translate(6559.328 -853.421)" fill="#939598"/>
    <path id="Trazado_192773" data-name="Trazado 192773" d="M0,0H62.207V2.487H0Z" transform="translate(6569.366 -876.744)" fill="#12263f"/>
    <path id="Trazado_192774" data-name="Trazado 192774" d="M0,0H77.558V2.486H0Z" transform="translate(6552.653 -842.566)" fill="#939598"/>
    <path id="Trazado_192775" data-name="Trazado 192775" d="M0,0H84.232V2.487H0Z" transform="translate(6554.923 -826.823)" fill="#939598"/>
    <path id="Trazado_192776" data-name="Trazado 192776" d="M0,0H59.87V2.487H0Z" transform="translate(6585.158 -813.564)" fill="#939598"/>
    <path id="Trazado_190065" data-name="Trazado 190065" d="M2018.29,947.732a9.532,9.532,0,0,1-9.5,9.5h-71.564a9.533,9.533,0,0,1-9.5-9.5V873.15a9.533,9.533,0,0,1,9.5-9.505h71.563a9.533,9.533,0,0,1,9.5,9.5Z" transform="translate(4750.987 -1883.373)" fill="#e6e7e8"/>
    <path id="Trazado_190066" data-name="Trazado 190066" d="M1991.5,940.452l-1.2-10.685a30.116,30.116,0,0,0,7.159-11.649c.481,1.089,1.049,1.719,1.659,1.719,1.727,0,3.128-5.061,3.128-11.305s-1.4-11.306-3.128-11.306a1.015,1.015,0,0,0-.551.174c-2.8-12.489-11.666-21.616-22.176-21.616s-19.381,9.128-22.178,21.616a1.014,1.014,0,0,0-.55-.174c-1.728,0-3.129,5.061-3.129,11.306s1.4,11.305,3.129,11.305c.609,0,1.177-.63,1.658-1.719a30.11,30.11,0,0,0,7.158,11.649l-1.2,10.685h-25.372v14.435h80.963V940.452Z" transform="translate(4747.599 -1888.393)" fill="#6836bf" opacity="0.329"/>
    <path id="Trazado_192777" data-name="Trazado 192777" d="M24.021,19H20.953l-4.535-7.963V19H13.333V6.2h3.085l4.526,7.963V6.2h3.076Zm12.788-6.135a7.546,7.546,0,0,1-.694,3.313A5.132,5.132,0,0,1,34.141,18.4a5.494,5.494,0,0,1-2.914.778,5.572,5.572,0,0,1-2.9-.751,5.123,5.123,0,0,1-1.973-2.149,7.329,7.329,0,0,1-.743-3.208v-.721a7.58,7.58,0,0,1,.69-3.318A5.119,5.119,0,0,1,28.279,6.81,5.854,5.854,0,0,1,34.11,6.8,5.211,5.211,0,0,1,36.092,9a7.362,7.362,0,0,1,.716,3.274Zm-3.138-.536a5.381,5.381,0,0,0-.637-2.9,2.044,2.044,0,0,0-1.824-.989q-2.32,0-2.452,3.48l-.009.94a5.535,5.535,0,0,0,.624,2.892,2.041,2.041,0,0,0,1.854,1.011,2.016,2.016,0,0,0,1.8-.993,5.383,5.383,0,0,0,.642-2.856ZM42.451,6.2l2.856,8.9,2.848-8.9h4.061V19H49.122V16.012l.3-6.117L46.327,19H44.288l-3.1-9.114.3,6.126V19H38.4V6.2ZM54.176,19V6.2h4.6a6.509,6.509,0,0,1,3.757.905,3.012,3.012,0,0,1,1.288,2.628,3.045,3.045,0,0,1-.457,1.7,2.663,2.663,0,0,1-1.345,1.037,2.7,2.7,0,0,1,1.538.984,2.862,2.862,0,0,1,.536,1.758A3.388,3.388,0,0,1,62.9,18.038,5.667,5.667,0,0,1,59.37,19Zm3.085-5.44v3.067h2.021a1.923,1.923,0,0,0,1.283-.382,1.338,1.338,0,0,0,.448-1.077,1.419,1.419,0,0,0-1.591-1.608Zm0-2.021h1.608a2.285,2.285,0,0,0,1.441-.37,1.314,1.314,0,0,0,.431-1.067,1.379,1.379,0,0,0-.466-1.168,2.493,2.493,0,0,0-1.5-.357H57.261Zm13.28,2.936h-1.67V19H65.786V6.2h5.036a5.621,5.621,0,0,1,3.56,1.01,3.421,3.421,0,0,1,1.283,2.853,4.155,4.155,0,0,1-.541,2.213A3.837,3.837,0,0,1,73.433,13.7L76.1,18.868V19H72.8ZM68.871,12.1h1.951a1.751,1.751,0,0,0,1.323-.463,1.788,1.788,0,0,0,.444-1.291,1.809,1.809,0,0,0-.448-1.3,1.735,1.735,0,0,0-1.318-.471H68.871Zm16.594,1.468H80.613v3.059h5.73V19H77.528V6.2h8.833V8.585H80.613v2.7h4.852Z" transform="translate(6396.318 -1047.668)" fill="#fff"/>
    <path id="Trazado_190072" data-name="Trazado 190072" d="M1791.53,1107.642l-191.05-67.8V1223.61h382.1V1039.845Z" transform="translate(4869.521 -1967.111)" fill="#f1f2f2" stroke="#af418c" stroke-width="4"/>
    <path id="Trazado_190073" data-name="Trazado 190073" d="M1602.6,1263.97,1788.078,1148,1973.55,1263.97Z" transform="translate(4872.949 -2007.471)" fill="#f6f6f6" stroke="#af418c" stroke-width="4"/>
    <path id="Trazado_192778" data-name="Trazado 192778" d="M17.5,0h168a17.5,17.5,0,0,1,0,35H17.5a17.5,17.5,0,0,1,0-35Z" transform="translate(6347 -1053.168)" fill="#b13e8d"/>
    <path id="Trazado_192779" data-name="Trazado 192779" d="M17.5,0h224a17.5,17.5,0,0,1,0,35H17.5a17.5,17.5,0,0,1,0-35Z" transform="translate(6812 -1008.168)" fill="#b13e8d"/>
    <path id="Trazado_192780" data-name="Trazado 192780" d="M17.5,0h168a17.5,17.5,0,0,1,0,35H17.5a17.5,17.5,0,0,1,0-35Z" transform="translate(6265 -840.168)" fill="#b13e8d"/>
    <path id="Trazado_192781" data-name="Trazado 192781" d="M17.5,0h168a17.5,17.5,0,0,1,0,35H17.5a17.5,17.5,0,0,1,0-35Z" transform="translate(6858 -795.168)" fill="#b13e8d"/>
    <path id="Trazado_192782" data-name="Trazado 192782" d="M28.652,19H25.585L21.05,11.037V19H17.965V6.2H21.05l4.526,7.963V6.2h3.076Zm1.441-4.843a5.613,5.613,0,0,1,.554-2.536,3.96,3.96,0,0,1,1.591-1.709,4.791,4.791,0,0,1,2.435-.6,4.373,4.373,0,0,1,3.366,1.323,5.076,5.076,0,0,1,1.23,3.6v.105a4.925,4.925,0,0,1-1.235,3.529,4.384,4.384,0,0,1-3.344,1.305,4.434,4.434,0,0,1-3.261-1.217,4.761,4.761,0,0,1-1.327-3.3Zm2.962.185a3.538,3.538,0,0,0,.413,1.934,1.376,1.376,0,0,0,1.222.615q1.582,0,1.617-2.435v-.3q0-2.558-1.635-2.558-1.485,0-1.608,2.206ZM43.374,9.49l.1,1.116a3.27,3.27,0,0,1,2.716-1.292,2.407,2.407,0,0,1,2.435,1.433,3.165,3.165,0,0,1,2.795-1.433q2.892,0,2.971,3.5V19H51.416V13a1.813,1.813,0,0,0-.246-1.063,1.048,1.048,0,0,0-.9-.334,1.4,1.4,0,0,0-1.31.782l.009.123V19H46V13.015a1.906,1.906,0,0,0-.237-1.081,1.045,1.045,0,0,0-.905-.334,1.42,1.42,0,0,0-1.3.782V19H40.6V9.49Zm21.533,4.834a5.8,5.8,0,0,1-.967,3.595,3.238,3.238,0,0,1-2.725,1.257,2.81,2.81,0,0,1-2.338-1.151L58.755,19H56.1V5.5h2.962v4.755a2.711,2.711,0,0,1,2.136-.94,3.239,3.239,0,0,1,2.742,1.274,5.826,5.826,0,0,1,.967,3.586Zm-2.971-.189a3.866,3.866,0,0,0-.365-1.952,1.229,1.229,0,0,0-1.121-.584,1.418,1.418,0,0,0-1.389.763v3.773a1.426,1.426,0,0,0,1.406.755A1.258,1.258,0,0,0,61.8,15.873,7.309,7.309,0,0,0,61.937,14.135Zm10.028-1.964-.976-.07a1.752,1.752,0,0,0-1.793.879V19H66.234V9.49h2.777l.1,1.222a2.294,2.294,0,0,1,2.083-1.4,2.888,2.888,0,0,1,.826.105Zm5.669,7a4.889,4.889,0,0,1-3.542-1.305,4.507,4.507,0,0,1-1.354-3.4v-.246a5.84,5.84,0,0,1,.541-2.575,3.955,3.955,0,0,1,1.578-1.727,4.763,4.763,0,0,1,2.461-.611,4.117,4.117,0,0,1,3.164,1.244,4.887,4.887,0,0,1,1.16,3.467v1.151H75.753a2.135,2.135,0,0,0,.694,1.257,2.066,2.066,0,0,0,1.389.457,2.662,2.662,0,0,0,2.2-.984l1.354,1.6a3.784,3.784,0,0,1-1.569,1.217A5.3,5.3,0,0,1,77.634,19.176ZM77.3,11.6q-1.3,0-1.547,1.723h2.988v-.229a1.467,1.467,0,0,0-.36-1.1A1.434,1.434,0,0,0,77.3,11.6Z" transform="translate(6396.318 -1047.668)" fill="#fff"/>
    <path id="Trazado_192783" data-name="Trazado 192783" d="M39.84,13.568H34.988v3.059h5.73V19H31.9V6.2h8.833V8.585H34.988v2.7H39.84Zm5.854-1.459,1.38-2.619h3.076l-2.5,4.632L50.272,19H47.179l-1.494-2.812L44.217,19H41.105l2.637-4.878-2.5-4.632h3.111Zm14.238,2.206a5.735,5.735,0,0,1-1,3.538,3.2,3.2,0,0,1-2.694,1.323,2.742,2.742,0,0,1-2.153-.958v4.438H51.125V9.49h2.769l.088.879a2.742,2.742,0,0,1,2.241-1.055,3.224,3.224,0,0,1,2.733,1.3,5.805,5.805,0,0,1,.976,3.564Zm-2.962-.185q0-2.531-1.477-2.531a1.394,1.394,0,0,0-1.406.756V16.1a1.439,1.439,0,0,0,1.424.791q1.415,0,1.459-2.443Zm8.868,5.045A4.889,4.889,0,0,1,62.3,17.871a4.507,4.507,0,0,1-1.354-3.4v-.246a5.84,5.84,0,0,1,.541-2.575,3.955,3.955,0,0,1,1.578-1.727,4.763,4.763,0,0,1,2.461-.611,4.117,4.117,0,0,1,3.164,1.244,4.887,4.887,0,0,1,1.16,3.467v1.151H63.957a2.135,2.135,0,0,0,.694,1.257,2.066,2.066,0,0,0,1.389.457,2.662,2.662,0,0,0,2.2-.984l1.354,1.6a3.784,3.784,0,0,1-1.569,1.217A5.3,5.3,0,0,1,65.838,19.176ZM65.5,11.6q-1.3,0-1.547,1.723h2.988v-.229a1.467,1.467,0,0,0-.36-1.1A1.434,1.434,0,0,0,65.5,11.6Zm11.285.571-.976-.07a1.752,1.752,0,0,0-1.793.879V19H71.059V9.49h2.777l.1,1.222a2.294,2.294,0,0,1,2.083-1.4,2.888,2.888,0,0,1,.826.105ZM80.981,19H78.011V9.49h2.971ZM77.835,7.038A1.322,1.322,0,0,1,78.292,6a1.943,1.943,0,0,1,2.373,0,1.322,1.322,0,0,1,.457,1.037,1.322,1.322,0,0,1-.457,1.037,1.943,1.943,0,0,1-2.373,0A1.322,1.322,0,0,1,77.835,7.038Zm9.571,12.138a4.889,4.889,0,0,1-3.542-1.305,4.507,4.507,0,0,1-1.354-3.4v-.246a5.84,5.84,0,0,1,.541-2.575,3.955,3.955,0,0,1,1.578-1.727,4.763,4.763,0,0,1,2.461-.611,4.117,4.117,0,0,1,3.164,1.244,4.887,4.887,0,0,1,1.16,3.467v1.151H85.525a2.135,2.135,0,0,0,.694,1.257,2.066,2.066,0,0,0,1.389.457,2.662,2.662,0,0,0,2.2-.984l1.354,1.6a3.784,3.784,0,0,1-1.569,1.217A5.3,5.3,0,0,1,87.406,19.176ZM87.072,11.6q-1.3,0-1.547,1.723h2.988v-.229a1.467,1.467,0,0,0-.36-1.1A1.434,1.434,0,0,0,87.072,11.6ZM95.325,9.49l.1,1.116a3.225,3.225,0,0,1,2.716-1.292,2.713,2.713,0,0,1,2.219.888,4.226,4.226,0,0,1,.76,2.672V19H98.146V13a1.6,1.6,0,0,0-.29-1.059A1.342,1.342,0,0,0,96.8,11.6a1.413,1.413,0,0,0-1.292.686V19H92.548V9.49Zm11.452,7.4a1.317,1.317,0,0,0,.967-.338,1.241,1.241,0,0,0,.334-.945h2.777a3.288,3.288,0,0,1-1.121,2.566,4.168,4.168,0,0,1-2.887,1,4.22,4.22,0,0,1-3.27-1.3,5.125,5.125,0,0,1-1.2-3.6v-.123a5.792,5.792,0,0,1,.532-2.544,3.872,3.872,0,0,1,1.534-1.7,4.573,4.573,0,0,1,2.373-.593,4.116,4.116,0,0,1,2.944,1.028,3.647,3.647,0,0,1,1.09,2.786h-2.777a1.626,1.626,0,0,0-.36-1.134,1.244,1.244,0,0,0-.967-.4q-1.151,0-1.345,1.468a10.357,10.357,0,0,0-.062,1.283,4.068,4.068,0,0,0,.343,1.986A1.187,1.187,0,0,0,106.777,16.891ZM115.232,19h-2.971V9.49h2.971ZM112.086,7.038A1.322,1.322,0,0,1,112.543,6a1.943,1.943,0,0,1,2.373,0,1.322,1.322,0,0,1,.457,1.037,1.322,1.322,0,0,1-.457,1.037,1.943,1.943,0,0,1-2.373,0A1.322,1.322,0,0,1,112.086,7.038ZM122.413,19a3.344,3.344,0,0,1-.281-.853,2.754,2.754,0,0,1-2.285,1.028,3.374,3.374,0,0,1-2.285-.813,2.588,2.588,0,0,1-.94-2.043,2.66,2.66,0,0,1,1.143-2.338,5.821,5.821,0,0,1,3.322-.791H122v-.5q0-1.316-1.134-1.316a.927.927,0,0,0-1.055,1.042H116.85a2.655,2.655,0,0,1,1.173-2.239,4.931,4.931,0,0,1,2.993-.86,4.323,4.323,0,0,1,2.874.888,3.086,3.086,0,0,1,1.081,2.435v4.21a4.311,4.311,0,0,0,.4,2V19Zm-1.854-1.934a1.652,1.652,0,0,0,.918-.237,1.487,1.487,0,0,0,.523-.536V14.772h-.861q-1.547,0-1.547,1.389a.848.848,0,0,0,.272.655A.986.986,0,0,0,120.559,17.066ZM134.217,19h-2.971V5.5h2.971Zm7.181,0a3.344,3.344,0,0,1-.281-.853,2.754,2.754,0,0,1-2.285,1.028,3.374,3.374,0,0,1-2.285-.813,2.588,2.588,0,0,1-.94-2.043,2.66,2.66,0,0,1,1.143-2.338,5.821,5.821,0,0,1,3.322-.791h.914v-.5q0-1.316-1.134-1.316a.927.927,0,0,0-1.055,1.042h-2.962a2.655,2.655,0,0,1,1.173-2.239A4.931,4.931,0,0,1,140,9.314a4.323,4.323,0,0,1,2.874.888,3.086,3.086,0,0,1,1.081,2.435v4.21a4.311,4.311,0,0,0,.4,2V19Zm-1.854-1.934a1.652,1.652,0,0,0,.918-.237,1.487,1.487,0,0,0,.523-.536V14.772h-.861q-1.547,0-1.547,1.389a.848.848,0,0,0,.272.655A.986.986,0,0,0,139.543,17.066Zm14.88-2.742a5.8,5.8,0,0,1-.967,3.595,3.238,3.238,0,0,1-2.725,1.257,2.81,2.81,0,0,1-2.338-1.151l-.123.976h-2.654V5.5h2.962v4.755a2.711,2.711,0,0,1,2.136-.94,3.239,3.239,0,0,1,2.742,1.274,5.826,5.826,0,0,1,.967,3.586Zm-2.971-.189a3.866,3.866,0,0,0-.365-1.952,1.229,1.229,0,0,0-1.121-.584,1.418,1.418,0,0,0-1.389.763v3.773a1.426,1.426,0,0,0,1.406.755,1.258,1.258,0,0,0,1.327-1.018A7.309,7.309,0,0,0,151.452,14.135Zm3.9.022a5.613,5.613,0,0,1,.554-2.536A3.96,3.96,0,0,1,157.5,9.912a4.791,4.791,0,0,1,2.435-.6,4.373,4.373,0,0,1,3.366,1.323,5.076,5.076,0,0,1,1.23,3.6v.105a4.925,4.925,0,0,1-1.235,3.529,4.384,4.384,0,0,1-3.344,1.305,4.434,4.434,0,0,1-3.261-1.217,4.761,4.761,0,0,1-1.327-3.3Zm2.962.185a3.538,3.538,0,0,0,.413,1.934,1.376,1.376,0,0,0,1.222.615q1.582,0,1.617-2.435v-.3q0-2.558-1.635-2.558-1.485,0-1.608,2.206Zm13.271-2.171-.976-.07a1.752,1.752,0,0,0-1.793.879V19h-2.962V9.49h2.777l.1,1.222a2.294,2.294,0,0,1,2.083-1.4,2.888,2.888,0,0,1,.826.105ZM177.749,19a3.344,3.344,0,0,1-.281-.853,2.754,2.754,0,0,1-2.285,1.028,3.374,3.374,0,0,1-2.285-.813,2.588,2.588,0,0,1-.94-2.043,2.66,2.66,0,0,1,1.143-2.338,5.821,5.821,0,0,1,3.322-.791h.914v-.5q0-1.316-1.134-1.316a.927.927,0,0,0-1.055,1.042h-2.962a2.655,2.655,0,0,1,1.173-2.239,4.931,4.931,0,0,1,2.993-.86,4.323,4.323,0,0,1,2.874.888,3.086,3.086,0,0,1,1.081,2.435v4.21a4.311,4.311,0,0,0,.4,2V19Zm-1.854-1.934a1.652,1.652,0,0,0,.918-.237,1.487,1.487,0,0,0,.523-.536V14.772h-.861q-1.547,0-1.547,1.389a.848.848,0,0,0,.272.655A.986.986,0,0,0,175.895,17.066ZM185.07,19H182.1V5.5h2.971Z" transform="translate(6839 -1002.668)" fill="#fff"/>
    <path id="Trazado_192784" data-name="Trazado 192784" d="M22.5,13.568H17.646v3.059h5.73V19H14.561V6.2h8.833V8.585H17.646v2.7H22.5Zm1.626.606a5.809,5.809,0,0,1,.976-3.56,3.211,3.211,0,0,1,2.725-1.3,2.731,2.731,0,0,1,2.145,1V5.5h2.971V19H30.275l-.149-1.02a2.8,2.8,0,0,1-2.32,1.2,3.205,3.205,0,0,1-2.689-1.3A5.993,5.993,0,0,1,24.123,14.175Zm2.962.185q0,2.531,1.477,2.531a1.458,1.458,0,0,0,1.406-.826V12.443a1.419,1.419,0,0,0-1.389-.844q-1.371,0-1.485,2.215Zm13.2,3.612a3.054,3.054,0,0,1-2.54,1.2,3,3,0,0,1-2.369-.91,3.826,3.826,0,0,1-.8-2.615V9.49h2.962v6.179a1.065,1.065,0,0,0,1.187,1.222,1.548,1.548,0,0,0,1.45-.729V9.49h2.979V19H40.374Zm8.508-1.081a1.317,1.317,0,0,0,.967-.338,1.241,1.241,0,0,0,.334-.945h2.777a3.288,3.288,0,0,1-1.121,2.566,4.168,4.168,0,0,1-2.887,1,4.22,4.22,0,0,1-3.27-1.3,5.125,5.125,0,0,1-1.2-3.6v-.123a5.792,5.792,0,0,1,.532-2.544,3.872,3.872,0,0,1,1.534-1.7,4.573,4.573,0,0,1,2.373-.593,4.116,4.116,0,0,1,2.944,1.028,3.647,3.647,0,0,1,1.09,2.786H50.095A1.626,1.626,0,0,0,49.734,12a1.244,1.244,0,0,0-.967-.4q-1.151,0-1.345,1.468a10.357,10.357,0,0,0-.062,1.283,4.068,4.068,0,0,0,.343,1.986A1.187,1.187,0,0,0,48.794,16.891ZM59.481,19a3.344,3.344,0,0,1-.281-.853,2.754,2.754,0,0,1-2.285,1.028,3.374,3.374,0,0,1-2.285-.813,2.588,2.588,0,0,1-.94-2.043,2.66,2.66,0,0,1,1.143-2.338,5.821,5.821,0,0,1,3.322-.791h.914v-.5q0-1.316-1.134-1.316a.927.927,0,0,0-1.055,1.042H53.918a2.655,2.655,0,0,1,1.173-2.239,4.931,4.931,0,0,1,2.993-.86,4.323,4.323,0,0,1,2.874.888,3.086,3.086,0,0,1,1.081,2.435v4.21a4.311,4.311,0,0,0,.4,2V19Zm-1.854-1.934a1.652,1.652,0,0,0,.918-.237,1.487,1.487,0,0,0,.523-.536V14.772h-.861q-1.547,0-1.547,1.389a.848.848,0,0,0,.272.655A.986.986,0,0,0,57.627,17.066ZM67.7,16.891a1.317,1.317,0,0,0,.967-.338A1.241,1.241,0,0,0,69,15.607h2.777a3.288,3.288,0,0,1-1.121,2.566,4.168,4.168,0,0,1-2.887,1,4.22,4.22,0,0,1-3.27-1.3,5.125,5.125,0,0,1-1.2-3.6v-.123a5.792,5.792,0,0,1,.532-2.544,3.872,3.872,0,0,1,1.534-1.7,4.573,4.573,0,0,1,2.373-.593,4.116,4.116,0,0,1,2.944,1.028,3.647,3.647,0,0,1,1.09,2.786H69A1.626,1.626,0,0,0,68.64,12a1.244,1.244,0,0,0-.967-.4q-1.151,0-1.345,1.468a10.357,10.357,0,0,0-.062,1.283,4.068,4.068,0,0,0,.343,1.986A1.187,1.187,0,0,0,67.7,16.891ZM76.154,19H73.184V9.49h2.971ZM73.008,7.038A1.322,1.322,0,0,1,73.465,6a1.943,1.943,0,0,1,2.373,0,1.322,1.322,0,0,1,.457,1.037,1.322,1.322,0,0,1-.457,1.037,1.943,1.943,0,0,1-2.373,0A1.322,1.322,0,0,1,73.008,7.038Zm4.6,7.119a5.613,5.613,0,0,1,.554-2.536,3.96,3.96,0,0,1,1.591-1.709,4.791,4.791,0,0,1,2.435-.6,4.373,4.373,0,0,1,3.366,1.323,5.076,5.076,0,0,1,1.23,3.6v.105a4.925,4.925,0,0,1-1.235,3.529A4.384,4.384,0,0,1,82.2,19.176a4.434,4.434,0,0,1-3.261-1.217,4.761,4.761,0,0,1-1.327-3.3Zm2.962.185a3.538,3.538,0,0,0,.413,1.934,1.376,1.376,0,0,0,1.222.615q1.582,0,1.617-2.435v-.3q0-2.558-1.635-2.558-1.485,0-1.608,2.206ZM82.588,5.5h3.129L83.273,8.26l-2.417,0Zm8.218,3.99.1,1.116a3.225,3.225,0,0,1,2.716-1.292,2.713,2.713,0,0,1,2.219.888,4.226,4.226,0,0,1,.76,2.672V19H93.627V13a1.6,1.6,0,0,0-.29-1.059,1.342,1.342,0,0,0-1.055-.338,1.413,1.413,0,0,0-1.292.686V19H88.028V9.49Z" transform="translate(6314.318 -834.668)" fill="#fff"/>
    <path id="Trazado_192785" data-name="Trazado 192785" d="M21.162,19H18.094V13.656H13.55V19H10.465V6.2H13.55v5.08h4.544V6.2h3.067Zm7.172,0a3.344,3.344,0,0,1-.281-.853,2.754,2.754,0,0,1-2.285,1.028,3.374,3.374,0,0,1-2.285-.813,2.588,2.588,0,0,1-.94-2.043,2.66,2.66,0,0,1,1.143-2.338,5.821,5.821,0,0,1,3.322-.791h.914v-.5q0-1.316-1.134-1.316a.927.927,0,0,0-1.055,1.042H22.77a2.655,2.655,0,0,1,1.173-2.239,4.931,4.931,0,0,1,2.993-.86,4.323,4.323,0,0,1,2.874.888,3.086,3.086,0,0,1,1.081,2.435v4.21a4.311,4.311,0,0,0,.4,2V19Zm-1.854-1.934a1.652,1.652,0,0,0,.918-.237,1.487,1.487,0,0,0,.523-.536V14.772h-.861q-1.547,0-1.547,1.389a.848.848,0,0,0,.272.655A.986.986,0,0,0,26.479,17.066Zm14.88-2.742a5.8,5.8,0,0,1-.967,3.595,3.238,3.238,0,0,1-2.725,1.257,2.81,2.81,0,0,1-2.338-1.151L35.207,19H32.552V5.5h2.962v4.755a2.711,2.711,0,0,1,2.136-.94,3.239,3.239,0,0,1,2.742,1.274,5.826,5.826,0,0,1,.967,3.586Zm-2.971-.189a3.866,3.866,0,0,0-.365-1.952A1.229,1.229,0,0,0,36.9,11.6a1.418,1.418,0,0,0-1.389.763v3.773a1.426,1.426,0,0,0,1.406.755,1.258,1.258,0,0,0,1.327-1.018A7.309,7.309,0,0,0,38.388,14.135ZM45.789,19H42.818V9.49h2.971ZM42.642,7.038A1.322,1.322,0,0,1,43.1,6a1.943,1.943,0,0,1,2.373,0,1.322,1.322,0,0,1,.457,1.037,1.322,1.322,0,0,1-.457,1.037,1.943,1.943,0,0,1-2.373,0A1.322,1.322,0,0,1,42.642,7.038ZM50.737,19H47.766V5.5h2.971Zm4.948,0H52.714V9.49h2.971ZM52.539,7.038A1.322,1.322,0,0,1,53,6a1.943,1.943,0,0,1,2.373,0,1.322,1.322,0,0,1,.457,1.037,1.322,1.322,0,0,1-.457,1.037,1.943,1.943,0,0,1-2.373,0A1.322,1.322,0,0,1,52.539,7.038Zm4.6,7.137a5.809,5.809,0,0,1,.976-3.56,3.211,3.211,0,0,1,2.725-1.3,2.731,2.731,0,0,1,2.145,1V5.5h2.971V19H63.288l-.149-1.02a2.8,2.8,0,0,1-2.32,1.2,3.205,3.205,0,0,1-2.689-1.3A5.993,5.993,0,0,1,57.135,14.175Zm2.962.185q0,2.531,1.477,2.531a1.458,1.458,0,0,0,1.406-.826V12.443a1.419,1.419,0,0,0-1.389-.844q-1.371,0-1.485,2.215ZM72.991,19a3.344,3.344,0,0,1-.281-.853,2.754,2.754,0,0,1-2.285,1.028,3.374,3.374,0,0,1-2.285-.813,2.588,2.588,0,0,1-.94-2.043,2.66,2.66,0,0,1,1.143-2.338,5.821,5.821,0,0,1,3.322-.791h.914v-.5q0-1.316-1.134-1.316a.927.927,0,0,0-1.055,1.042H67.427A2.655,2.655,0,0,1,68.6,10.175a4.931,4.931,0,0,1,2.993-.86,4.323,4.323,0,0,1,2.874.888,3.086,3.086,0,0,1,1.081,2.435v4.21a4.311,4.311,0,0,0,.4,2V19Zm-1.854-1.934a1.652,1.652,0,0,0,.918-.237,1.487,1.487,0,0,0,.523-.536V14.772h-.861q-1.547,0-1.547,1.389a.848.848,0,0,0,.272.655A.986.986,0,0,0,71.136,17.066Zm5.678-2.892a5.809,5.809,0,0,1,.976-3.56,3.211,3.211,0,0,1,2.725-1.3,2.731,2.731,0,0,1,2.145,1V5.5h2.971V19H82.966l-.149-1.02a2.8,2.8,0,0,1-2.32,1.2,3.205,3.205,0,0,1-2.689-1.3A5.993,5.993,0,0,1,76.814,14.175Zm2.962.185q0,2.531,1.477,2.531a1.458,1.458,0,0,0,1.406-.826V12.443A1.419,1.419,0,0,0,81.27,11.6q-1.371,0-1.485,2.215Zm12.138,4.816a4.889,4.889,0,0,1-3.542-1.305,4.507,4.507,0,0,1-1.354-3.4v-.246a5.84,5.84,0,0,1,.541-2.575,3.955,3.955,0,0,1,1.578-1.727A4.763,4.763,0,0,1,91.6,9.314a4.117,4.117,0,0,1,3.164,1.244,4.887,4.887,0,0,1,1.16,3.467v1.151H90.033a2.135,2.135,0,0,0,.694,1.257,2.066,2.066,0,0,0,1.389.457,2.662,2.662,0,0,0,2.2-.984l1.354,1.6A3.784,3.784,0,0,1,94.1,18.723,5.3,5.3,0,0,1,91.914,19.176ZM91.58,11.6q-1.3,0-1.547,1.723h2.988v-.229a1.467,1.467,0,0,0-.36-1.1A1.434,1.434,0,0,0,91.58,11.6Zm10.512,4.729a.684.684,0,0,0-.4-.606,6.016,6.016,0,0,0-1.5-.475,6.853,6.853,0,0,1-1.828-.646,3.062,3.062,0,0,1-1.1-.971,2.319,2.319,0,0,1-.378-1.31,2.628,2.628,0,0,1,1.081-2.158,4.453,4.453,0,0,1,2.83-.848,4.934,4.934,0,0,1,3.023.853,2.666,2.666,0,0,1,1.143,2.241h-2.971q0-1.143-1.2-1.143a1.194,1.194,0,0,0-.782.259.8.8,0,0,0-.316.646.737.737,0,0,0,.387.642,3.654,3.654,0,0,0,1.235.4,10.671,10.671,0,0,1,1.49.378,2.706,2.706,0,0,1,2.145,2.646,2.491,2.491,0,0,1-1.156,2.118,5.068,5.068,0,0,1-2.993.817,5.172,5.172,0,0,1-2.18-.439,3.645,3.645,0,0,1-1.494-1.2,2.707,2.707,0,0,1-.536-1.591h2.769a1.145,1.145,0,0,0,.439.962,1.808,1.808,0,0,0,1.081.3,1.422,1.422,0,0,0,.91-.246A.787.787,0,0,0,102.091,16.328Z" transform="translate(6907.318 -789.668)" fill="#fff"/>
    <path id="Trazado_192786" data-name="Trazado 192786" d="M27,0A27,27,0,1,1,0,27,27,27,0,0,1,27,0Z" transform="translate(6523 -1063.168)" fill="#7fc733" opacity="0.5"/>
    <path id="Trazado_192787" data-name="Trazado 192787" d="M27,0A27,27,0,1,1,0,27,27,27,0,0,1,27,0Z" transform="translate(6785 -1018.168)" fill="#7fc733" opacity="0.5"/>
    <path id="Trazado_192788" data-name="Trazado 192788" d="M27,0A27,27,0,1,1,0,27,27,27,0,0,1,27,0Z" transform="translate(6441 -850.168)" fill="#7fc733" opacity="0.5"/>
    <path id="Trazado_192789" data-name="Trazado 192789" d="M27,0A27,27,0,1,1,0,27,27,27,0,0,1,27,0Z" transform="translate(6839 -805.168)" fill="#7fc733" opacity="0.5"/>
    <path id="Trazado_192790" data-name="Trazado 192790" d="M28.359,34H22.906V24.5H14.828V34H9.344V11.25h5.484v9.031h8.078V11.25h5.453Zm2.563-8.609a9.978,9.978,0,0,1,.984-4.508,7.04,7.04,0,0,1,2.828-3.039,8.518,8.518,0,0,1,4.328-1.062,7.774,7.774,0,0,1,5.984,2.352,9.024,9.024,0,0,1,2.188,6.4v.188a8.755,8.755,0,0,1-2.2,6.273,7.794,7.794,0,0,1-5.945,2.32,7.883,7.883,0,0,1-5.8-2.164,8.464,8.464,0,0,1-2.359-5.867Zm5.266.328a6.291,6.291,0,0,0,.734,3.438,2.447,2.447,0,0,0,2.172,1.094q2.813,0,2.875-4.328v-.531q0-4.547-2.906-4.547-2.641,0-2.859,3.922Zm19.031-8.625V34.578A6.137,6.137,0,0,1,53.5,39.2a6.6,6.6,0,0,1-4.75,1.625,11.214,11.214,0,0,1-2.484-.266V36.578a10.075,10.075,0,0,0,1.484.141,1.927,1.927,0,0,0,2.188-2.172V17.094Zm-5.672-4.359a2.35,2.35,0,0,1,.813-1.844,3.455,3.455,0,0,1,4.219,0,2.35,2.35,0,0,1,.813,1.844,2.35,2.35,0,0,1-.812,1.844,3.455,3.455,0,0,1-4.219,0A2.35,2.35,0,0,1,49.547,12.734ZM67.719,34a5.946,5.946,0,0,1-.5-1.516,4.9,4.9,0,0,1-4.062,1.828,6,6,0,0,1-4.062-1.445,4.6,4.6,0,0,1-1.672-3.633,4.728,4.728,0,0,1,2.031-4.156,10.348,10.348,0,0,1,5.906-1.406h1.625v-.9q0-2.339-2.016-2.339a1.648,1.648,0,0,0-1.875,1.853H57.828a4.72,4.72,0,0,1,2.086-3.98,8.766,8.766,0,0,1,5.32-1.529,7.686,7.686,0,0,1,5.109,1.578,5.487,5.487,0,0,1,1.922,4.328v7.484a7.665,7.665,0,0,0,.719,3.563V34Zm-3.3-3.437a2.937,2.937,0,0,0,1.633-.422,2.644,2.644,0,0,0,.93-.953v-2.7H65.453q-2.75,0-2.75,2.469a1.507,1.507,0,0,0,.484,1.164A1.753,1.753,0,0,0,64.422,30.563Zm18.063-5.141a10.327,10.327,0,0,1,1.734-6.328,5.709,5.709,0,0,1,4.844-2.312,4.855,4.855,0,0,1,3.813,1.781V10h5.281V34H93.422l-.266-1.812a4.986,4.986,0,0,1-4.125,2.125A5.7,5.7,0,0,1,84.25,32,10.655,10.655,0,0,1,82.484,25.422Zm5.266.328q0,4.5,2.625,4.5a2.592,2.592,0,0,0,2.5-1.469V22.344a2.522,2.522,0,0,0-2.469-1.5q-2.437,0-2.641,3.938Zm21.578,8.563a8.691,8.691,0,0,1-6.3-2.32,8.013,8.013,0,0,1-2.406-6.039v-.437a10.383,10.383,0,0,1,.961-4.578,7.031,7.031,0,0,1,2.8-3.07,8.467,8.467,0,0,1,4.375-1.086,7.318,7.318,0,0,1,5.625,2.211,8.688,8.688,0,0,1,2.063,6.164V27.2H105.984a3.8,3.8,0,0,0,1.234,2.234,3.673,3.673,0,0,0,2.469.813,4.732,4.732,0,0,0,3.906-1.75L116,31.344a6.726,6.726,0,0,1-2.789,2.164A9.425,9.425,0,0,1,109.328,34.313Zm-.594-13.469q-2.312,0-2.75,3.063H111.3V23.5a2.608,2.608,0,0,0-.641-1.961A2.549,2.549,0,0,0,108.734,20.844Zm24.547,6.891,2.672-10.641H141.5L135.984,34h-5.375l-5.516-16.906h5.563ZM148.625,34h-5.281V17.094h5.281Zm-5.594-21.266a2.35,2.35,0,0,1,.813-1.844,3.455,3.455,0,0,1,4.219,0,2.35,2.35,0,0,1,.813,1.844,2.35,2.35,0,0,1-.812,1.844,3.455,3.455,0,0,1-4.219,0A2.35,2.35,0,0,1,143.031,12.734ZM151.2,25.422a10.327,10.327,0,0,1,1.734-6.328,5.709,5.709,0,0,1,4.844-2.312,4.855,4.855,0,0,1,3.813,1.781V10h5.281V34h-4.734l-.266-1.812a4.986,4.986,0,0,1-4.125,2.125A5.7,5.7,0,0,1,152.969,32,10.655,10.655,0,0,1,151.2,25.422Zm5.266.328q0,4.5,2.625,4.5a2.592,2.592,0,0,0,2.5-1.469V22.344a2.522,2.522,0,0,0-2.469-1.5q-2.437,0-2.641,3.938ZM179.391,34a5.945,5.945,0,0,1-.5-1.516,4.9,4.9,0,0,1-4.062,1.828,6,6,0,0,1-4.062-1.445,4.6,4.6,0,0,1-1.672-3.633,4.728,4.728,0,0,1,2.031-4.156,10.348,10.348,0,0,1,5.906-1.406h1.625v-.9q0-2.339-2.016-2.339a1.648,1.648,0,0,0-1.875,1.853H169.5a4.72,4.72,0,0,1,2.086-3.98,8.766,8.766,0,0,1,5.32-1.529,7.686,7.686,0,0,1,5.109,1.578,5.487,5.487,0,0,1,1.922,4.328v7.484a7.665,7.665,0,0,0,.719,3.563V34Zm-3.3-3.437a2.937,2.937,0,0,0,1.633-.422,2.644,2.644,0,0,0,.93-.953v-2.7h-1.531q-2.75,0-2.75,2.469a1.507,1.507,0,0,0,.484,1.164A1.753,1.753,0,0,0,176.094,30.563Z" transform="translate(6572 -1085.668)" fill="#6836bf"/>
  </g>
</svg>
