<svg xmlns="http://www.w3.org/2000/svg" xmlns:xlink="http://www.w3.org/1999/xlink" width="503.454" height="381.08" viewBox="0 0 503.454 381.08"><defs><clipPath id="a"><path d="M1474.256,83.139c9.01,95.249-51.751,168.9,153.13,191.313,36.267,3.964,86.388,6.806,128.682,5.985,34.269-.662,71.958-3.7,105.263-12.312,55.006-14.244,95.979-43.176,97.251-99.526,1.3-57.662-56.015-95.3-46.841-118.982,28.39-73.294-17.656-126.64-108.585-145.584-115.067-23.972-161.5,55.427-208.418,45.1C1518.685-67.6,1465.085-13.834,1474.256,83.139Z" transform="translate(-1472.43 100.5)" fill="none"/></clipPath></defs><g transform="translate(7804.014 4295)"><g transform="translate(-9267.329 -4194.5)"><g transform="translate(1533.278 -71.726)"><path d="M1608.125-77.8c-10.983,7.667-24.666,9.047-37.7,8.158-7.495-.512-14.917-1.716-22.387-2.487-3.724-.385-7.464-.664-11.211-.692-.206,0-.415,0-.624,0,.085,0,.6-.011.091,0-.447.008-.893.015-1.34.028q-1.323.04-2.641.125-2.451.159-4.888.476-2.9.373-5.773.967-1.385.287-2.763.624-.643.159-1.281.326c-.182.047-.364.1-.548.146-1.164.313.447-.144-.218.063a89.651,89.651,0,0,0-10.788,4.01,4.265,4.265,0,0,1-5.54-2.237,4.31,4.31,0,0,1,2.237-5.538,84.84,84.84,0,0,1,41.591-7.1c7.421.533,14.773,1.722,22.171,2.478,3.337.341,6.685.6,10.039.646.349.006.7.008,1.045.011.2,0,.83.04-.087,0,.173.008.349,0,.523-.006.814-.013,1.625-.04,2.438-.08,1.505-.074,3.009-.193,4.5-.37,1.716-.2,3.424-.474,5.113-.832.84-.178,1.67-.394,2.5-.6-.859.212.279-.083.588-.18q.572-.176,1.137-.368a39.567,39.567,0,0,0,4.719-1.938q1.149-.56,2.256-1.2c-.775.451.313-.209.527-.347.385-.248.762-.508,1.137-.77a4.3,4.3,0,0,1,5.925.758,4.283,4.283,0,0,1-.758,5.925Z" transform="translate(-1500.217 85.323)" fill="#6836bf"/></g><g transform="translate(1875.939 -84.693)"><path d="M1721.9-53.045q-3.174-3.805-6.623-7.369c-.3-.307-.6-.61-.9-.918-.333-.345.07.068.118.114-.131-.131-.262-.26-.393-.389q-.912-.9-1.844-1.788-1.8-1.7-3.657-3.342a130.8,130.8,0,0,0-15.812-11.92q-1.237-.793-2.489-1.557c-.366-.224-.734-.444-1.1-.664-.157-.095-.315-.188-.472-.281-1.012-.6.429.241-.163-.1-1.648-.94-3.307-1.856-4.99-2.734-1.953-1.018-3.3-3.343-2.266-5.527.908-1.928,3.432-3.361,5.529-2.268a137.325,137.325,0,0,1,33.967,25.026q4.075,4.1,7.779,8.547a4.256,4.256,0,0,1-.758,5.925,4.314,4.314,0,0,1-5.925-.758Z" transform="translate(-1680.953 92.163)" fill="#6836bf"/></g><g transform="translate(1931.871 53.559)"><path d="M1719.048-14.464c-.068.516-.125,1.031-.155,1.551-.013.207-.017.415-.029.622-.049,1.022-.04-.637-.008-.044a25.948,25.948,0,0,0,.29,2.937c.087.512.209,1.014.317,1.522.167.783-.171-.5-.006,0,.081.246.151.495.235.741A22.265,22.265,0,0,0,1720.83-4.4a11.642,11.642,0,0,0,.662,1.238c-.288-.438-.25-.423.021,0,.142.218.286.434.434.648a21.768,21.768,0,0,0,1.847,2.307c.07.078.14.154.212.228.214.224.14.154-.22-.207,0,.082.385.368.451.428.379.351.773.69,1.179,1.011s.825.629,1.255.92c.173.116.349.226.521.339.887.58-.8-.436.131.078,1.928,1.064,3.312,3.31,2.266,5.529-.889,1.886-3.456,3.409-5.527,2.266a26.021,26.021,0,0,1-13.393-25.919,4.272,4.272,0,0,1,4.725-3.652,4.294,4.294,0,0,1,3.653,4.725Z" transform="translate(-1710.455 19.242)" fill="#6836bf"/></g><g transform="translate(1463.315 134.891)"><path d="M1473.447,28.439a95.846,95.846,0,0,0-1.676,14.782q-.031.916-.046,1.835c0,.271-.008.544-.009.815,0,.1,0,1.17,0,.658,0-.438.006.377.008.453.005.341.013.681.023,1.02.017.612.042,1.223.07,1.835.12,2.514.343,5.02.658,7.517a4.225,4.225,0,0,1-8.365,1.193,99.7,99.7,0,0,1,.961-31.182,4.3,4.3,0,0,1,4.727-3.653c2.138.372,4.1,2.4,3.651,4.727Z" transform="translate(-1463.315 -23.657)" fill="#6836bf"/></g><g transform="translate(1480.596 -100.5)"><g clip-path="url(#a)"><path d="M1474.256,83.139c9.01,95.249-51.751,168.9,153.13,191.313,36.267,3.964,86.388,6.806,128.682,5.985,34.269-.662,71.958-3.7,105.263-12.312,55.006-14.244,95.979-43.176,97.251-99.526,1.3-57.662-56.015-95.3-46.841-118.982,28.39-73.294-17.656-126.64-108.585-145.584-115.067-23.972-161.5,55.427-208.418,45.1C1518.685-67.6,1465.085-13.834,1474.256,83.139Z" transform="translate(-1472.43 100.5)" fill="#6836bf"/><g transform="translate(162.192 30.027)"><g transform="translate(0)"><rect width="193.169" height="252.598" transform="translate(86.599 0) rotate(20.05)" fill="#b13e8d"/></g><g transform="translate(81.533 27.468)"><path d="M1670.691-21.905a35.764,35.764,0,0,1-15.759,18.783c-.417.241-.836.472-1.263.7a36.058,36.058,0,0,1-11.094,3.7,35.763,35.763,0,0,1-17.966-1.739A35.766,35.766,0,0,1,1610.467-9.9a35.643,35.643,0,0,1-5.492-7.885,35.544,35.544,0,0,1-2.541-6.361,35.777,35.777,0,0,1,.734-22.4,35.942,35.942,0,0,1,46.082-21.441A35.939,35.939,0,0,1,1670.691-21.905Z" transform="translate(-1600.983 70.174)" fill="#efefef"/><g transform="translate(3.992 8.458)"><g transform="translate(7.91)"><path d="M1653.784-46.8c-3.856-17.132-17.209-18.844-17.209-18.844a19.645,19.645,0,0,0-11.507,2.717,39.366,39.366,0,0,0-8.514,7.115q-4.3,4.454-8.219,9.176a3.742,3.742,0,0,0-1.072,2.048,3.753,3.753,0,0,0,.726,2.07c3.6,5.841,10.668,9.646,17.729,12.215a87.6,87.6,0,0,0,29.876,5.278A86.253,86.253,0,0,0,1653.784-46.8Z" transform="translate(-1607.261 65.714)" fill="#384955"/></g><g transform="translate(0 41.552)"><path d="M1651.783-26.057a36.061,36.061,0,0,1-11.095,3.7,35.764,35.764,0,0,1-17.966-1.739,35.767,35.767,0,0,1-14.142-9.438,35.643,35.643,0,0,1-5.492-7.885,31.688,31.688,0,0,1,10.735-2.317,44.986,44.986,0,0,1,9.324.5h0a50.356,50.356,0,0,1,5.028,1.039,50.069,50.069,0,0,1,8.314,2.954,41.6,41.6,0,0,1,7.891,4.717A25.667,25.667,0,0,1,1651.783-26.057Z" transform="translate(-1603.088 43.797)" fill="#ffcfbf"/></g><g transform="translate(19.575 23.289)"><path d="M1626-20.526c3.458.436.633-8.691.633-8.691l5.756-13.133a7.559,7.559,0,0,0-3.576-9.957c-3.653-1.665-5.548-1.839-7.227,2l-7.967,16.282C1611.934-30.2,1621.116-21.142,1626-20.526Z" transform="translate(-1613.413 53.43)" fill="#ffcfbf"/></g><g transform="translate(21.936 6.098)"><path d="M1640.406-55.675s4.173,23.762-6.325,26.852c-6.446,1.9-12.21-3.291-18.5-11.954C1610.164-48.232,1629.956-74.872,1640.406-55.675Z" transform="translate(-1614.658 62.497)" fill="#ffcfbf"/></g><g transform="translate(28.691 35.405)"><path d="M1618.416-45.96a14.26,14.26,0,0,0,8.475,4.086c.705.07.8-1.075.1-1.145a13.333,13.333,0,0,1-7.932-3.883c-.529-.489-1.16.457-.639.942Z" transform="translate(-1618.221 47.039)" fill="#ff9f89"/></g><g transform="translate(27.567 5.294)"><path d="M1639.547-52.668a5.327,5.327,0,0,0-.74-4.042,15.829,15.829,0,0,0-2.766-3.174,11.52,11.52,0,0,0-3-2.3,9.672,9.672,0,0,0-3.716-.719,21.617,21.617,0,0,0-11.317,2.385.7.7,0,0,0-.366.351.687.687,0,0,0,.032.4c.745,2.622,1.731,5.377.992,8,1.7-.216,3.356-.671,5.041-.963a26.458,26.458,0,0,1,15.806,2.192Z" transform="translate(-1617.628 62.921)" fill="#384955"/></g><g transform="translate(19.033 10.505)"><path d="M1626.914-57.923l-.994-2.249a12.161,12.161,0,0,0-9.244,4.414,15.906,15.906,0,0,0-3.542,9.764,7.781,7.781,0,0,0,1.217,4.956,9.757,9.757,0,0,0,3.092,2.377,1.282,1.282,0,0,0,.772.241,1.251,1.251,0,0,0,.694-.464A31.68,31.68,0,0,0,1626.914-57.923Z" transform="translate(-1613.127 60.173)" fill="#384955"/></g><g transform="translate(14.125 4.034)"><path d="M1630.748-63.579c-3.828.956-6.683,3.576-9.374,6.33-3.562,3.648-7.13,7.286-10.769,10.86-.193.188.07.519.263.328q4.991-4.9,9.861-9.923c2.9-3,5.9-6.133,10.085-7.178.261-.064.2-.482-.066-.417Z" transform="translate(-1610.538 63.586)" fill="#4d6371"/></g><g transform="translate(17.67 10.856)"><path d="M1625.308-59.909c-3.978,4.816-7.737,10.41-12.818,14.13-.218.161.045.489.265.33,5.117-3.748,8.89-9.364,12.892-14.208.173-.21-.167-.461-.339-.252Z" transform="translate(-1612.408 59.987)" fill="#4d6371"/></g></g><g transform="translate(3.992 50.07)"><path d="M1651.783-26.086a36.061,36.061,0,0,1-11.095,3.7,35.764,35.764,0,0,1-17.966-1.739,35.767,35.767,0,0,1-14.142-9.438,35.643,35.643,0,0,1-5.492-7.885,31.688,31.688,0,0,1,10.735-2.317c2.774,2.734,8.312,7.724,14.333,10.543h0a18.88,18.88,0,0,0,8.78,2.067,10.873,10.873,0,0,0,7.443-3.4A25.667,25.667,0,0,1,1651.783-26.086Z" transform="translate(-1603.088 43.765)" fill="#384955"/></g></g><g transform="translate(71.985 105.025)"><path d="M1596.835-26.512l50.226,17.854c1.737.616,2.8-2.046,1.058-2.664l-50.227-17.854c-1.737-.616-2.8,2.046-1.058,2.664Z" transform="translate(-1595.947 29.267)" fill="#d3f0f4"/></g><g transform="translate(67.761 116.338)"><path d="M1594.607-20.545l36.081,12.826Q1653.647.44,1676.6,8.6q8.585,3.051,17.167,6.1c1.736.618,2.8-2.044,1.058-2.664q-18.042-6.41-36.082-12.824l-45.915-16.32-17.167-6.1c-1.737-.616-2.8,2.046-1.058,2.664Z" transform="translate(-1593.718 23.3)" fill="#d3f0f4"/></g><g transform="translate(130.815 126.54)"><g transform="translate(0 0)"><path d="M1627.865-15.164Q1660.584-3.532,1693.3,8.1l14.834,5.273c1.735.616,2.8-2.046,1.056-2.664q-32.716-11.629-65.434-23.259l-14.834-5.273c-1.737-.616-2.8,2.046-1.058,2.664Z" transform="translate(-1626.976 17.919)" fill="#efefef"/></g></g><g transform="translate(176.563 155.225)"><g transform="translate(0 0)"><path d="M1652-.034l31.459,11.129c1.737.614,2.8-2.048,1.056-2.664Q1668.781,2.869,1653.053-2.7c-1.737-.614-2.8,2.048-1.058,2.664Z" transform="translate(-1651.106 2.789)" fill="#efefef"/></g></g><g transform="translate(62.731 126.632)"><g transform="translate(0 0)"><path d="M1591.961-15.124q23.811,7.929,47.108,17.293A1.434,1.434,0,0,0,1640.127-.5q-23.286-9.359-47.108-17.293c-1.744-.582-2.808,2.08-1.058,2.664Z" transform="translate(-1591.066 17.871)" fill="#d3f0f4"/></g></g><g transform="translate(118.81 147.062)"><g transform="translate(0 0)"><path d="M1621.529-4.335l84.59,30.913c1.731.633,2.791-2.029,1.058-2.662L1622.587-7c-1.733-.633-2.791,2.031-1.058,2.664Z" transform="translate(-1620.644 7.095)" fill="#efefef"/></g></g><g transform="translate(51.857 148.716)"><g transform="translate(0 0)"><path d="M1586.22-3.467q18.038,6.41,36.079,12.824l45.917,16.32,17.167,6.1c1.735.616,2.8-2.046,1.056-2.664L1650.36,16.291Q1627.4,8.132,1604.443-.029l-17.167-6.1c-1.734-.618-2.8,2.046-1.056,2.664Z" transform="translate(-1585.33 6.223)" fill="#d3f0f4"/></g></g><g transform="translate(160.658 187.602)"><g transform="translate(0 0)"><path d="M1643.606,17.043l31.459,11.131c1.737.614,2.8-2.048,1.058-2.664l-31.459-11.131c-1.737-.614-2.8,2.048-1.058,2.664Z" transform="translate(-1642.717 -14.288)" fill="#d3f0f4"/></g></g><g transform="translate(46.827 159.009)"><g transform="translate(0 0)"><path d="M1583.574,1.953q23.808,7.932,47.108,17.293a1.434,1.434,0,0,0,1.058-2.664q-23.289-9.356-47.108-17.293c-1.746-.582-2.81,2.08-1.058,2.664Z" transform="translate(-1582.677 0.794)" fill="#d3f0f4"/></g></g><g transform="translate(102.905 179.439)"><g transform="translate(0 0)"><path d="M1613.14,12.742l84.59,30.915c1.733.633,2.793-2.031,1.058-2.664q-42.294-15.456-84.59-30.915c-1.731-.631-2.791,2.031-1.058,2.664Z" transform="translate(-1612.256 -9.982)" fill="#d3f0f4"/></g></g><g transform="translate(166.216 58.936)"><g transform="translate(13.832)"><path d="M1653.835-50.824q29.045,10.215,58.091,20.429c1.739.61,2.8-2.051,1.058-2.664l-58.091-20.427c-1.739-.612-2.8,2.049-1.058,2.662Z" transform="translate(-1652.944 53.577)" fill="#efefef"/></g><g transform="translate(10.727 8.409)"><path d="M1652.2-46.388l58.091,20.429c1.739.61,2.8-2.051,1.058-2.664l-58.091-20.429c-1.739-.61-2.8,2.051-1.058,2.664Z" transform="translate(-1651.307 49.142)" fill="#efefef"/></g><g transform="translate(7.669 19.07)"><path d="M1650.584-40.763q28.357,10.047,56.711,20.1c1.737.614,2.8-2.048,1.058-2.664l-56.713-20.1c-1.737-.616-2.8,2.046-1.056,2.664Z" transform="translate(-1649.694 43.518)" fill="#efefef"/></g><g transform="translate(3.812 30.561)"><path d="M1648.554-34.708,1678.212-24.6c1.742.593,2.806-2.068,1.058-2.664l-29.66-10.107c-1.74-.6-2.8,2.067-1.056,2.664Z" transform="translate(-1647.66 37.457)" fill="#d3f0f4"/></g><g transform="translate(41.261 44.023)"><path d="M1668.3-27.595q10.431,3.862,20.864,7.722c1.729.641,2.789-2.023,1.058-2.662l-20.865-7.724c-1.731-.641-2.789,2.023-1.058,2.664Z" transform="translate(-1667.412 30.357)" fill="#efefef"/></g><g transform="translate(0 41.011)"><path d="M1646.531-29.182q28.638,10.679,57.8,19.873c1.752.552,2.817-2.11,1.058-2.664q-29.149-9.191-57.8-19.873c-1.729-.645-2.787,2.019-1.058,2.664Z" transform="translate(-1645.649 31.946)" fill="#d3f0f4"/></g></g></g><g transform="translate(-71.438 67.23)"><g transform="translate(62.131 101.672)"><path d="M1467.521,97.308l69.615,42.427c43.96-26.3,59.23-35.384,59.255-35.423,1.911-2.2,10.911-13.345,16-16.553-4.969-10.016-7.542-15.2-9.639-19.437,0-.053,1.968-79.708,1.926-79.735-3.747,4.442-51.482,66.915-74.227,78.944l-.006,0c-.821.44-.559.239-.673.427-1.221,2-27.972,13.376-60.708,26.818Z" transform="translate(-1467.521 11.413)" fill="#fdbaa0"/></g><g transform="translate(126.6 119.121)"><path d="M1563.476-2.192c.925.5,22.093,4.431,19.867,7.163-8.682,10.668-11.067,27.114-7.455,32.953,6.918,11.19,20.252,6.638,21.7,6.057l-34.7,32.5c-9.442,1.471-61.416,3.543-61.356.375C1501.772,63.872,1561.112-3.458,1563.476-2.192Z" transform="translate(-1501.525 2.209)" fill="#fdbaa0"/></g><g transform="translate(113.541 73.361)"><path d="M1494.637,88.984s24.279-14.676,35.372-33.243c15.421-25.807,29.6-57.333,33.112-60.886,6.05-6.111,25.8-18.17,31.175-18.728s22.819-3.487,26.351-2.108-7.024,13.613-20.22,20.643-27.375,19.2-27.375,19.2l-21.135,65.773Z" transform="translate(-1494.637 26.346)" fill="#fdbaa0"/></g><g transform="translate(167.85 79.67)"><path d="M1523.282,34.189s23.53-44.95,35.774-50.42,26.4-9.354,34.652-4.738S1617.151-2.43,1616.77.284s-13.577,2.992-22.41-.514-32.612,6.907-32.612,6.907L1535.63,35.541Z" transform="translate(-1523.282 23.018)" fill="#fdbaa0"/></g><g transform="translate(170.174 96.181)"><path d="M1524.508,70.869S1547.46-1.17,1553.622-8.816s33.859-5.574,42.48-3.976,25.559,22.125,25.546,28.035c-.015,7.248-14.871,2.228-24.262-4.577-8.628-6.251-21.124-2.817-25.407-2.838-1.247-.006-3.7,1.856-6.321,4.62-3.415,3.6-7.11,8.735-8.778,13.256-5.644,15.3,11.615,30.513,11.615,30.513Z" transform="translate(-1524.508 14.309)" fill="#fdbaa0"/></g><g transform="translate(187.67 82.988)"><path d="M1574.889-19.617q-6.1.512-12.189,1.17c-3.957.43-8.06.7-11.842,2.021-6.768,2.362-11.406,8.24-15.681,13.685-.658.836-1.913-.241-1.255-1.079,4.355-5.547,9.089-11.423,15.9-13.99,3.7-1.4,7.724-1.731,11.626-2.163q6.638-.737,13.3-1.291a.827.827,0,0,1,.146,1.648Z" transform="translate(-1533.737 21.268)" fill="#ef9f8a"/></g><g transform="translate(195.953)"><path d="M1737.082,238.149l-198.976-43L1594.331-65.04l169.325,36.59,24.43,30.568Z" transform="translate(-1538.106 65.04)" fill="#fff"/><g transform="translate(59.717 23.873)"><path d="M1644.505-6.565a37.72,37.72,0,0,1-13.747,21.879,38.043,38.043,0,0,1-12.267,6.368,37.7,37.7,0,0,1-19.007.772,37.7,37.7,0,0,1-16.125-7.815A37.963,37.963,0,0,1,1572.923.926a37.686,37.686,0,0,1-2.457-23.49,37.874,37.874,0,0,1,45.019-29.021A37.876,37.876,0,0,1,1644.505-6.565Z" transform="translate(-1569.603 52.448)" fill="#efefef"/><g transform="translate(3.32 5.196)"><g transform="translate(17.286 7.041)"><path d="M1594.061-45.964a8.747,8.747,0,0,0-7.356,2.624,6.386,6.386,0,0,0-1.53,3.519,24.176,24.176,0,0,0,.123,4.074,7.486,7.486,0,0,1-.624,4.1c-.643,1.187-1.708,2.18-1.96,3.561-.262,1.431.468,2.855.053,4.275a9.351,9.351,0,0,1-1.009,2.029,8.874,8.874,0,0,0-.906,2.07,13.638,13.638,0,0,0-.263,5.079,4.267,4.267,0,0,0,1.559,3.3c.208.138.386-.216.18-.353a4.024,4.024,0,0,1-1.367-3.14,13.787,13.787,0,0,1,.2-4.524,8.226,8.226,0,0,1,.874-2.133A13.611,13.611,0,0,0,1583-23.3c.508-1.3.117-2.516.051-3.847-.076-1.473.794-2.51,1.562-3.661a6.526,6.526,0,0,0,1.1-3.452c.11-2.582-.8-5.333.527-7.745,1.562-2.848,4.874-3.773,7.839-3.566.249.017.228-.379-.019-.4Z" transform="translate(-1580.472 45.993)" fill="#384955"/></g><g transform="translate(18.96 7.03)"><path d="M1601.225-26.636a99.69,99.69,0,0,1,2.541-10.441L1594.026-46a10.119,10.119,0,0,0-5.707,2.133c-2.332,2.11-2.717,5.673-2.5,8.833s.859,6.4-.024,9.453c-.943,3.25-3.521,5.86-4.245,9.165a10.582,10.582,0,0,0,3.633,9.88,18.115,18.115,0,0,0,9.935,3.938,1.2,1.2,0,0,0,.538-.021,1.269,1.269,0,0,0,.62-.8C1599.217-10.777,1599.767-18.84,1601.225-26.636Z" transform="translate(-1581.354 45.999)" fill="#384955"/></g><g transform="translate(0 41.939)"><path d="M1629.189-6.96a38.041,38.041,0,0,1-12.266,6.368,121.065,121.065,0,0,1-19.6-2.719,129.64,129.64,0,0,1-15.528-4.325,37.963,37.963,0,0,1-10.437-13.713,24.673,24.673,0,0,1,10.092-5.005h0a40.383,40.383,0,0,1,9.529-1.229,48.9,48.9,0,0,1,6.077.3,52.59,52.59,0,0,1,5.259.861q1.707.37,3.344.838c.436.123.869.254,1.3.389.3.093.59.186.881.286.561.186,1.113.381,1.659.584.122.046.243.091.364.138a43.182,43.182,0,0,1,9.893,5.269c.48.343.944.7,1.394,1.058l.006,0C1625.206-14.612,1628.035-10.837,1629.189-6.96Z" transform="translate(-1571.354 27.586)" fill="#fcbfaf"/></g><g transform="translate(0 43.172)"><path d="M1629.189-7.543a38.041,38.041,0,0,1-12.266,6.368,37.7,37.7,0,0,1-19.007.772,37.7,37.7,0,0,1-16.125-7.815,37.963,37.963,0,0,1-10.437-13.713,24.673,24.673,0,0,1,10.092-5.005h0s13.84,21.477,37.933,7.65c.123-.07.246-.14.37-.212.48.343.944.7,1.394,1.058l.006,0C1625.206-15.195,1628.035-11.42,1629.189-7.543Z" transform="translate(-1571.354 26.936)" fill="#ff8d67"/></g><g transform="translate(25.522 20.325)"><path d="M1587.386-11.347c-3.1-1.083-2.787-3.555-2.155-7.144l2.508-14.248a7.263,7.263,0,0,1,8.048-6.167c3.743.592,3.974,1.4,3.268,5.405L1596.4-16.464C1595.692-12.463,1590.779-9.9,1587.386-11.347Z" transform="translate(-1584.815 38.987)" fill="#fcbfaf"/></g><g transform="translate(21.514 7.181)"><path d="M1593.208-44.324s-15.01,15.262-9.148,22.9c3.6,4.691,10.312,3.843,19.161.722C1610.836-23.388,1610.343-53.029,1593.208-44.324Z" transform="translate(-1582.702 45.919)" fill="#fcbfaf"/></g><g transform="translate(25.073 33.357)"><path d="M1592.874-29.813a12.069,12.069,0,0,1-8.069-1.346c-.535-.311-.023-1.2.512-.889a11.291,11.291,0,0,0,7.586,1.219c.622-.087.588.929-.028,1.016Z" transform="translate(-1584.579 32.113)" fill="#f3a99c"/></g><g transform="translate(36.68 6.964)"><path d="M1604.827-25.533a31.49,31.49,0,0,0,.521-6.476,18.456,18.456,0,0,0-.719-6.585c-1.274-3.471-4.488-5.75-7.7-7.44L1590.7-44.4a2.69,2.69,0,0,1,2.025,2.709,15.4,15.4,0,0,0-.358,3.3c.211,2.305,2.125,4,3.073,6.088.635,1.4-.009,3.047-.3,4.577a22.912,22.912,0,0,0-.062,3.987,9.648,9.648,0,0,1-.034,2.017,9.01,9.01,0,0,1-.942,1.9,4.321,4.321,0,0,0-.332,3.233,3.122,3.122,0,0,0,2.275,2.137c1.831.353,3.471-1.21,4.626-2.728A21.908,21.908,0,0,0,1604.827-25.533Z" transform="translate(-1590.701 46.034)" fill="#384955"/></g><g transform="translate(30.267)"><path d="M1616.737-1.479c.233-2.412-.389-4.8-.554-7.216a25.185,25.185,0,0,1,.809-7.728,31.569,31.569,0,0,0,1.177-8.437c-.115-4.615-2.313-8.8-6.514-14.959-5.31-7.775-11.857-11.2-18.859-9.436s-5.42,10.183-5.1,9.817c5.47-6.294,12.837,2.762,12.949,10.775l-3.932,5.333a7.713,7.713,0,0,1-1.4,5.265,9.449,9.449,0,0,0-1.674,2.527c-.417,1.333.149,2.776-.027,4.16-.231,1.8-1.665,3.214-2.133,4.965a5.908,5.908,0,0,0,2.675,6.19A10.239,10.239,0,0,0,1601,.994a12.95,12.95,0,0,1,2.616-.21,11.068,11.068,0,0,1,4.5,1.924c1.422.834,3.039,1.589,4.658,1.259C1615.084,3.494,1616.5.931,1616.737-1.479Z" transform="translate(-1587.318 49.707)" fill="#384955"/></g><g transform="translate(38.227 23.585)"><g transform="translate(0 0.297)"><path d="M1591.6-35.288s3.278-2.848,4.566-1.424-.243,5.077-2.017,5.229-2.706-2.736-2.626-3.27Z" transform="translate(-1591.517 37.11)" fill="#fcbfaf"/></g><g transform="translate(0.287)"><path d="M1592.615-31.784c-.2-.421-.159-.068.064-.112a2.313,2.313,0,0,1,.388.042,2.637,2.637,0,0,0,1.312-.332,4.08,4.08,0,0,0,1.515-1.735,2.2,2.2,0,0,0,.44-1.34c-.133-1.022-1.1-1.16-1.8-.77-.554.309-.9-.641-.351-.946a2.03,2.03,0,0,1,3,1.145c.427,1.291-.542,2.848-1.376,3.748a3.752,3.752,0,0,1-2.617,1.249c-.5.015-1.219-.021-1.475-.554-.281-.582.616-.973.893-.4Z" transform="translate(-1591.668 37.267)" fill="#fdbaa0"/></g></g><g transform="translate(35.797 6.904)"><path d="M1590.578-44.609a3.593,3.593,0,0,1,4.9-.167,3.833,3.833,0,0,1,1.195,2.285,7.035,7.035,0,0,1-.421,2.789,5.7,5.7,0,0,0-.286,2.641,3.871,3.871,0,0,0,1.289,2.04c.631.582,1.333,1.077,1.911,1.718a7.613,7.613,0,0,1,1.439,2.33,7.03,7.03,0,0,1-.157,5.568,6.307,6.307,0,0,1-1.757,2.249,9.049,9.049,0,0,0-1.97,1.651c-1.179,1.663-.028,3.657.508,5.3a3.95,3.95,0,0,1-.146,3.14,8.755,8.755,0,0,1-1.972,2.364c-1.439,1.329-3.257,2.975-2.942,5.183.273,1.917,2.19,2.694,3.767,3.225.235.08.317-.309.083-.389-1.659-.559-3.737-1.479-3.473-3.653.26-2.123,2.169-3.371,3.536-4.759a6.53,6.53,0,0,0,1.6-2.4,4.368,4.368,0,0,0-.065-2.774,17.99,17.99,0,0,1-.974-3,2.742,2.742,0,0,1,1.077-2.7,13.549,13.549,0,0,0,2.1-1.75,7.15,7.15,0,0,0,1.289-2.311,7.439,7.439,0,0,0-.229-5.293,8.2,8.2,0,0,0-1.3-2.1,19.9,19.9,0,0,0-1.981-1.816,3.367,3.367,0,0,1-1.318-2.448,11.108,11.108,0,0,1,.584-2.819,4.873,4.873,0,0,0-.017-2.874,4.211,4.211,0,0,0-1.581-2.063,4.011,4.011,0,0,0-4.982.565c-.182.178.1.444.284.267Z" transform="translate(-1590.235 46.065)" fill="#b13e8d"/></g><g transform="translate(36.849 5.397)"><path d="M1591.076-44.746a7.72,7.72,0,0,1,10.255.466,4.886,4.886,0,0,1,1.377,2.793c.119,1.229-.552,2.18-1,3.265a7.578,7.578,0,0,0,.548,6.209,36.9,36.9,0,0,0,4.024,5.529,10.533,10.533,0,0,1,2.571,5.972,5.836,5.836,0,0,1-.728,3.013,4.7,4.7,0,0,1-2.311,1.934,9.5,9.5,0,0,0-2.5,1.312,3.586,3.586,0,0,0-1.208,2.558c-.078,1.947,1.5,3.242,2.684,4.508a6.966,6.966,0,0,1,1.655,2.719c.326,1.06.538,2.614-.351,3.473a1.362,1.362,0,0,1-1.494.341c-.227-.1-.41.25-.182.355a1.825,1.825,0,0,0,2.236-.77,4.162,4.162,0,0,0,.229-3.28,6.919,6.919,0,0,0-1.5-2.764c-.664-.764-1.445-1.424-2.055-2.237a3.515,3.515,0,0,1-.747-3,3.678,3.678,0,0,1,2.33-2.408,9.488,9.488,0,0,0,2.624-1.4,5.153,5.153,0,0,0,1.487-2.556c1.265-4.836-3.073-8.4-5.464-11.88-1.359-1.977-2.423-4.527-1.676-6.986.349-1.153,1.147-2.12,1.217-3.358a4.657,4.657,0,0,0-.855-2.814c-2.182-3.244-6.854-3.926-10.17-2.142a7.637,7.637,0,0,0-1.213.817c-.194.159.013.493.208.334Z" transform="translate(-1590.79 46.86)" fill="#4d6371"/></g><g transform="translate(50.549 39.24)"><path d="M1599.588-29.01a1.73,1.73,0,0,0-1.564,1.64,3.385,3.385,0,0,0,1.3,2.637,29.193,29.193,0,0,1,2.5,2.387,9.539,9.539,0,0,1,1.835,3.157,6.8,6.8,0,0,1,.129,4.04c-.07.246.307.326.379.082a8.206,8.206,0,0,0-1.911-7.369,14.329,14.329,0,0,0-1.358-1.437c-.525-.489-1.105-.92-1.6-1.439a2.845,2.845,0,0,1-.9-1.839,1.362,1.362,0,0,1,1.206-1.462.2.2,0,0,0-.021-.4Z" transform="translate(-1598.016 29.01)" fill="#4d6371"/></g><g transform="translate(43.874 33.494)"><path d="M1594.5-31.837a5.67,5.67,0,0,0,.518,1.905c.106.229.432.009.326-.218a5.08,5.08,0,0,1-.457-1.712.194.194,0,0,0-.387.025Z" transform="translate(-1594.496 32.041)" fill="#4d6371"/></g><g transform="translate(52.865 22.301)"><path d="M1599.269-37.638l.881,1.411c.135.214.461,0,.328-.218l-.881-1.411c-.135-.214-.461,0-.328.218Z" transform="translate(-1599.238 37.944)" fill="#4d6371"/></g></g></g><g transform="translate(80.865 159.104)"><g transform="translate(0 0.862)"><path d="M1609.9,92.385a36.94,36.94,0,1,1,43.909-28.3A36.982,36.982,0,0,1,1609.9,92.385Zm14.4-66.661a31.258,31.258,0,1,0,23.95,37.156A31.292,31.292,0,0,0,1624.3,25.725Z" transform="translate(-1580.757 -19.334)" fill="#7fc733"/></g><g transform="translate(12.54 0)"><path d="M1587.85,49.045l5.343,12.851,2.565,6.167a24.194,24.194,0,0,0,1.812,3.82,9.213,9.213,0,0,0,7.91,4.133c4.19-.123,7.072-3.071,9.973-5.7,1.592-1.445,3.168-2.912,4.738-4.383,8.444-7.917,16.743-15.988,25.143-23.951,3.582-3.4,7.154-6.82,10.887-10.05,1.424-1.234,2.131-3.9,2.032-5.692a7.782,7.782,0,0,0-8.2-7.328,9.086,9.086,0,0,0-5.3,2.512c-14.5,12.555-27.606,26.657-41.919,39.42-.3.264-.592.523-.887.785-.482.425-1.018.542.779-.652q-1.015.68.679-.207,6-.765,7.559,3.488a5.042,5.042,0,0,0-.428-1.028l-.853-2.055-1.5-3.6q-2.778-6.683-5.557-13.364a8.325,8.325,0,0,0-3.786-4.472,7.943,7.943,0,0,0-6.021-.5c-3.689,1.39-6.643,5.792-4.973,9.808Z" transform="translate(-1587.372 -18.88)" fill="#b13e8d"/></g></g><g transform="translate(51.399 104.453)"><g transform="translate(6.546 0)"><path d="M1569.75-7.132l55.006,11.4a1.423,1.423,0,0,0,.6-2.779l-55.006-11.4a1.423,1.423,0,0,0-.6,2.779Z" transform="translate(-1568.668 9.946)" fill="#efefef"/></g><g transform="translate(3.766 12.418)"><path d="M1568.284-.582l39.515,8.19,50.285,10.426,18.8,3.9a1.423,1.423,0,0,0,.6-2.779l-39.515-8.19L1587.684.534l-18.8-3.9a1.423,1.423,0,0,0-.6,2.779Z" transform="translate(-1567.202 3.396)" fill="#efefef"/></g><g transform="translate(71.062 13.986)"><path d="M1603.778.245,1636.369,7l39.189,8.124q8.063,1.672,16.127,3.343a1.423,1.423,0,0,0,.6-2.779q-16.3-3.376-32.591-6.755L1620.505.808l-16.126-3.343a1.423,1.423,0,0,0-.6,2.779Z" transform="translate(-1602.697 2.569)" fill="#efefef"/></g><g transform="translate(122.951 37.341)"><path d="M1631.148,12.562l34.443,7.089a1.423,1.423,0,0,0,.6-2.779q-17.223-3.543-34.443-7.089a1.423,1.423,0,0,0-.6,2.779Z" transform="translate(-1630.066 -9.749)" fill="#efefef"/></g><g transform="translate(0 23.884)"><g transform="translate(0 0)"><path d="M1566.3,5.459q26,4.846,51.669,11.267c1.776.446,2.374-2.334.6-2.779Q1592.917,7.528,1566.9,2.679c-1.8-.334-2.4,2.444-.6,2.779Z" transform="translate(-1565.216 -2.651)" fill="#efefef"/></g></g><g transform="translate(61.484 37.142)"><path d="M1598.724,12.461l72.331,15.662,20.431,4.425a1.423,1.423,0,0,0,.6-2.779L1619.755,14.1l-20.43-4.423a1.423,1.423,0,0,0-.6,2.779Z" transform="translate(-1597.645 -9.645)" fill="#efefef"/></g></g><g transform="translate(151.838 58.152)"><g transform="translate(8.535)"><path d="M1623.771-31.57q31.792,6.478,63.587,12.959a1.415,1.415,0,0,0,.6-2.764q-31.795-6.481-63.587-12.959a1.415,1.415,0,0,0-.6,2.764Z" transform="translate(-1622.694 34.367)" fill="#efefef"/></g><g transform="translate(6.504 9.226)"><path d="M1622.7-26.7q31.792,6.481,63.587,12.959a1.415,1.415,0,0,0,.6-2.764q-31.794-6.478-63.587-12.959a1.415,1.415,0,0,0-.6,2.764Z" transform="translate(-1621.623 29.501)" fill="#efefef"/></g><g transform="translate(4.847 20.796)"><path d="M1621.824-20.6l62.1,12.813a1.415,1.415,0,0,0,.6-2.764l-62.1-12.813a1.415,1.415,0,0,0-.6,2.764Z" transform="translate(-1620.749 23.399)" fill="#efefef"/></g><g transform="translate(2.477 33.345)"><path d="M1620.578-13.986,1653-7.7c1.784.345,2.387-2.417.6-2.764l-32.418-6.281c-1.784-.345-2.389,2.417-.6,2.764Z" transform="translate(-1619.499 16.78)" fill="#efefef"/></g><g transform="translate(43.509 42.01)"><path d="M1642.214-9.407q11.447,2.531,22.893,5.058a1.415,1.415,0,0,0,.6-2.764q-11.447-2.528-22.893-5.058a1.415,1.415,0,0,0-.6,2.764Z" transform="translate(-1641.141 12.209)" fill="#efefef"/></g><g transform="translate(0 44.811)"><g transform="translate(0 0)"><path d="M1619.263-7.928q31.434,7.024,63.2,12.42c1.789.3,2.4-2.459.6-2.764q-31.755-5.392-63.2-12.42a1.415,1.415,0,0,0-.6,2.764Z" transform="translate(-1618.192 10.732)" fill="#efefef"/></g></g></g><g transform="translate(220.33 36.59)"><path d="M1659.539-45.741l-5.221,24.161,29.651,6.407Z" transform="translate(-1654.318 45.741)" fill="#efefef"/></g></g><path d="M1555.464,14.641a34.479,34.479,0,0,1,4.059-7.441C1555.287,4.634,1549.107.91,1544.2-1.96c-6.224,16.43-13.948,39.72-18.112,52.492l21.509,1.109,19.481-6.488S1549.819,29.943,1555.464,14.641Z" transform="translate(-1352.919 121.554)" fill="#fdbaa0"/><g transform="translate(179.512 145.079)"><g transform="translate(0 0)"><path d="M1533.1,89.513c24.48-4.421,52.608-32.879,59.155-42.207,12.242-17.446,30.3-25.876,30.223-29.271s-7.684-10.7-23.843-3.47c-15.353,6.871-26.586,19.53-36.186,18.117-3.8-.557-27.22-1.839-27.22-1.839S1523.749,91.2,1533.1,89.513Z" transform="translate(-1529.433 -11.482)" fill="#fdbaa0"/></g><g transform="translate(78.894 7.208)"><path d="M1580.926,17.163c.055-1.342-1.757-.482-2.239-.167-.357.233-.688.514-1.022.779-.77.609-1.517,1.244-2.265,1.875-1.324,1.119-4.42,2.9-2.62,4.859.495.538-.43,1.2-.92.667-2.645-2.886,1.839-5.587,3.741-7.178,1.21-1.011,2.73-2.685,4.431-2.715a1.933,1.933,0,0,1,2.015,2.07c-.03.728-1.151.531-1.121-.191Z" transform="translate(-1571.046 -15.284)" fill="#e79780"/></g></g><g transform="translate(198.206 165.68)"><g transform="translate(0 0)"><path d="M1540.093,22.358a69.7,69.7,0,0,0,16.7.432c1.06-.1,1.018,1.555-.031,1.653a69.8,69.8,0,0,1-16.7-.43c-1.041-.154-1.02-1.809.03-1.655Z" transform="translate(-1539.293 -22.348)" fill="#ef9f8a"/></g></g><g transform="translate(171.072 220.211)"><path d="M1540.96,53.933a36.606,36.606,0,0,1-15.459-1.282c-.99-.3-.428-1.8.555-1.5a28.949,28.949,0,0,0,14.646,1.2c1.018-.133,1.283,1.448.258,1.583Z" transform="translate(-1524.982 -51.11)" fill="#ef9f8a"/></g><g transform="translate(0 176.241)"><g transform="translate(81.428)"><path d="M1524,120.353s31.639-22.645,30.314-25.375-29.645-50.162-33.118-65.074c0,0,.053-2.869-4.152-1.712S1477.7,42.209,1477.7,42.209l8.039,46.827Z" transform="translate(-1477.699 -27.918)" fill="#fff"/></g><g transform="translate(0 5.031)"><path d="M1454.591,45.781l-19.84,83.39,96.178,22.884c26.89-20.114,41.943-32.291,42.031-37.058a9.777,9.777,0,0,0-1.062-3.94,48.032,48.032,0,0,0-3.644-6.349c-7.986-12.2-23.872-30.689-29.5-45.413-3.14-8.217-5.661-14.832-8.329-19.632a30.568,30.568,0,0,0-2.639-4.059c-3.178-4.048-6.852-5.735-12.1-4.764C1512.39,31.45,1472.464,39.039,1454.591,45.781Z" transform="translate(-1434.75 -30.572)" fill="#384955"/></g><g transform="translate(144.795 64.863)"><path d="M1516.129,65.725a2.6,2.6,0,1,0-3.4,1.412A2.6,2.6,0,0,0,1516.129,65.725Z" transform="translate(-1511.122 -62.13)" fill="#198da5"/></g></g></g></g></g></g></g></svg>