<svg xmlns="http://www.w3.org/2000/svg" width="150" height="150" viewBox="0 0 150 150"><g transform="translate(-13225 8195.168)"><g transform="translate(13225 -8195.168)" fill="#fff" stroke="#707070" stroke-width="1"><circle cx="75" cy="75" r="75" stroke="none"/><circle cx="75" cy="75" r="74.5" fill="none"/></g><g transform="translate(13262 -8161.168)"><g transform="translate(0.002 0)"><path d="M724.22,107.976V56.723a4.308,4.308,0,0,1,.305-2.032,3.339,3.339,0,0,1,1.214-1.18l.176-.122c1.587-1.1,5.325-3.723,9.834-6.885,6.923-4.855,15.539-10.9,21.109-14.763a13.093,13.093,0,0,1,2.493-1.431,5.444,5.444,0,0,1,2.159-.363,7.253,7.253,0,0,1,1.5.161,8.636,8.636,0,0,1,3.152,1.633c5.558,3.859,14.155,9.887,21.064,14.732,4.529,3.175,8.287,5.811,9.88,6.916l.175.121a3.356,3.356,0,0,1,1.215,1.18,4.128,4.128,0,0,1,.3,1.948v51.338Z" transform="translate(-723.774 -29.501)" fill="#fff" stroke="#81c53f" stroke-width="1"/><path d="M797.624,55.014a4.467,4.467,0,0,0-.357-2.156,3.743,3.743,0,0,0-1.354-1.337l-.174-.12c-1.584-1.1-5.309-3.711-9.8-6.863C779,39.676,770.374,33.625,764.795,29.752c-1.866-1.3-3.018-1.874-4.906-1.874s-3.04.578-4.906,1.874c-5.579,3.873-14.207,9.923-21.141,14.784-4.495,3.152-8.219,5.763-9.8,6.863l-.175.12a3.74,3.74,0,0,0-1.353,1.336,4.466,4.466,0,0,0-.358,2.159V106.8h75.471V55.014Zm-74.58,50.893V55.015a3.753,3.753,0,0,1,.252-1.737,3.415,3.415,0,0,1,1.251-1.145c4.008-2.783,21.721-15.245,30.944-21.648,1.871-1.3,2.818-1.715,4.4-1.715s2.527.416,4.4,1.715c9.223,6.4,26.936,18.865,30.943,21.648a3.413,3.413,0,0,1,1.251,1.145,3.753,3.753,0,0,1,.252,1.737v50.891Z" transform="translate(-722.153 -27.878)" fill="#7fc733" stroke="#81c53f" stroke-width="1"/></g><g transform="translate(2.527 8.036)"><g transform="translate(0.446 0.445)"><rect width="69.53" height="46.84" fill="#fff" stroke="#81c53f" stroke-width="1"/></g><path d="M733.869,65.164v47.731h70.422V65.164ZM803.4,112H734.761V66.056H803.4Z" transform="translate(-733.869 -65.164)" fill="#7fc733" stroke="#81c53f" stroke-width="1"/></g><g transform="translate(0.002 26.557)"><path d="M724.222,204.647V153.175h1.744a14.848,14.848,0,0,1,9.537,3.569l26.008,22.225,26.007-22.223a14.847,14.847,0,0,1,9.539-3.571H798.8v51.472Z" transform="translate(-723.776 -152.729)" fill="#fff" stroke="#81c53f" stroke-width="1"/><path d="M796.733,152v50.58H723.045V152h1.3a14.419,14.419,0,0,1,9.25,3.464l26.3,22.471,26.3-22.471a14.418,14.418,0,0,1,9.25-3.464Zm0-.892h-1.3a15.3,15.3,0,0,0-9.825,3.674l-25.721,21.979-25.717-21.976a15.3,15.3,0,0,0-9.829-3.678h-1.3l-.892.892v51.472h75.472V152Z" transform="translate(-722.153 -151.104)" fill="#7fc733" stroke="#81c53f" stroke-width="1"/></g><g transform="translate(0 51.073)"><g transform="translate(0.447 0.446)"><path d="M724.216,293.889V293.2c0-1.341.965-2.753,2.716-3.973,4.05-2.866,20.9-14.569,29.87-20.771a8.031,8.031,0,0,1,9.407,0c8.969,6.2,25.821,17.905,29.833,20.745,1.789,1.246,2.753,2.658,2.753,4v.688Z" transform="translate(-724.216 -266.934)" fill="#fff" stroke="#81c53f" stroke-width="1"/></g><g transform="translate(0 0)"><path d="M759.88,265.755a7.12,7.12,0,0,1,4.45,1.443c9.155,6.331,25.846,17.923,29.829,20.742.295.208,2.565,1.717,2.565,3.636v.242H723.036v-.242c0-1.919,2.27-3.428,2.565-3.636,3.983-2.819,20.673-14.412,29.829-20.742A7.119,7.119,0,0,1,759.88,265.755Zm0-.892a7.974,7.974,0,0,0-4.958,1.6c-8.935,6.178-25.772,17.871-29.837,20.748l-.037.026c-1.873,1.306-2.9,2.847-2.9,4.338v.24l0,.894h75.474v-1.134c0-1.49-1.031-3.031-2.9-4.338l-.037-.026c-4.064-2.876-20.9-14.569-29.837-20.748A7.972,7.972,0,0,0,759.88,264.863Z" transform="translate(-722.142 -264.863)" fill="#7fc733" stroke="#81c53f" stroke-width="1"/></g></g><g transform="translate(24.36 14.722)"><ellipse cx="13.377" cy="13.377" rx="13.377" ry="13.377" fill="#7fc733" stroke="#81c53f" stroke-width="1"/><path d="M872.3,126.912l-1.768-1.768a.662.662,0,0,0-.937,0l-9.028,9.028-3.927-3.927a.663.663,0,0,0-.937,0l-1.768,1.768a.663.663,0,0,0,0,.937l6.163,6.163a.663.663,0,0,0,.937,0L872.3,127.849A.663.663,0,0,0,872.3,126.912Z" transform="translate(-849.738 -118.752)" fill="#fff" stroke="#81c53f" stroke-width="1"/></g></g></g></svg>