<svg xmlns="http://www.w3.org/2000/svg" xmlns:xlink="http://www.w3.org/1999/xlink" width="88" height="88" viewBox="0 0 88 88">
  <defs>
    <filter id="Rect치ngulo_40719" x="0" y="0" width="88" height="88" filterUnits="userSpaceOnUse">
      <feOffset dy="3" input="SourceAlpha"/>
      <feGaussianBlur stdDeviation="3" result="blur"/>
      <feFlood flood-opacity="0.161"/>
      <feComposite operator="in" in2="blur"/>
      <feComposite in="SourceGraphic"/>
    </filter>
  </defs>
  <g id="Grupo_134454" data-name="Grupo 134454" transform="translate(-1289.333 -346)">
    <g id="Grupo_133757" data-name="Grupo 133757" transform="translate(27 14)">
      <g transform="matrix(1, 0, 0, 1, 1262.33, 332)" filter="url(#Rect치ngulo_40719)">
        <path id="Rect치ngulo_40719-2" data-name="Rect치ngulo 40719" d="M10,0H60A10,10,0,0,1,70,10V70a0,0,0,0,1,0,0H10A10,10,0,0,1,0,60V10A10,10,0,0,1,10,0Z" transform="translate(9 6)" fill="#b13e8d"/>
      </g>
    </g>
    <g id="_x37_39_x2C__Document_x2C__Insurance_x2C__Policy" transform="translate(1274.157 329.635)">
      <g id="Grupo_133024" data-name="Grupo 133024" transform="translate(35 30)">
        <path id="Trazado_189707" data-name="Trazado 189707" d="M285.708,79.037a1.19,1.19,0,0,1-1.19-1.19V62.38H276.19a1.19,1.19,0,1,1,0-2.38h9.518a1.19,1.19,0,0,1,1.19,1.19V77.847A1.19,1.19,0,0,1,285.708,79.037Z" transform="translate(-246.445 -56.431)" fill="#fff"/>
        <path id="Trazado_189708" data-name="Trazado 189708" d="M74.263,111.161H36.19a1.19,1.19,0,0,1-1.19-1.19V61.19A1.19,1.19,0,0,1,36.19,60h9.518a1.19,1.19,0,1,1,0,2.38H37.38v46.4H73.073v-8.329a1.19,1.19,0,1,1,2.38,0v9.518A1.19,1.19,0,0,1,74.263,111.161Z" transform="translate(-35 -56.431)" fill="#fff"/>
        <path id="Trazado_189709" data-name="Trazado 189709" d="M135.226,39.518H116.19a1.19,1.19,0,0,1-1.19-1.19V31.19A1.19,1.19,0,0,1,116.19,30h19.037a1.19,1.19,0,0,1,1.19,1.19v7.139A1.19,1.19,0,0,1,135.226,39.518Zm-17.847-2.38h16.657V32.38H117.38Z" transform="translate(-105.482 -30)" fill="#fff"/>
        <path id="Trazado_189710" data-name="Trazado 189710" d="M330.734,263.1a1.186,1.186,0,0,1-.841-.349l-3.786-3.786a2.975,2.975,0,0,1,4.207-4.206l.42.42,2.944-2.945a2.975,2.975,0,0,1,4.208,4.207l-6.312,6.31A1.186,1.186,0,0,1,330.734,263.1Zm-2.524-6.832a.595.595,0,0,0-.421,1.015l2.945,2.945,5.469-5.468a.6.6,0,0,0-.843-.841l-3.785,3.785a1.19,1.19,0,0,1-1.683,0l-1.261-1.261A.593.593,0,0,0,328.21,256.265Z" transform="translate(-290.703 -225.025)" fill="#fff"/>
        <path id="Trazado_189711" data-name="Trazado 189711" d="M299.406,224.986h-4.418a1.189,1.189,0,0,1-.858-.365c-1.074-1.118-1.994-2.037-2.805-2.848-2.578-2.577-4-4-4.713-6.276-.683-2.176-.674-4.982-.656-10.573,0-.99.007-2.07.007-3.251a1.19,1.19,0,0,1,1.368-1.176,20.845,20.845,0,0,0,3.091.249,11.848,11.848,0,0,0,4.15-.67,1.189,1.189,0,0,1,.418-.076h4.418a1.189,1.189,0,0,1,.418.076,11.848,11.848,0,0,0,4.15.67,20.862,20.862,0,0,0,3.091-.249,1.19,1.19,0,0,1,1.368,1.176c0,1.181,0,2.261.007,3.251.018,5.59.027,8.4-.656,10.573-.715,2.279-2.135,3.7-4.713,6.276-.811.811-1.731,1.73-2.805,2.848A1.19,1.19,0,0,1,299.406,224.986Zm-3.912-2.38H298.9c.94-.972,1.757-1.788,2.486-2.517,2.461-2.46,3.585-3.583,4.125-5.3.573-1.825.564-4.508.547-9.853q0-.9-.005-1.912c-.721.07-1.417.106-2.08.106a14.378,14.378,0,0,1-4.777-.746h-4a14.378,14.378,0,0,1-4.777.746c-.664,0-1.359-.035-2.08-.106q0,1.008-.005,1.912c-.017,5.345-.026,8.028.547,9.853.54,1.722,1.663,2.845,4.125,5.3C293.738,220.819,294.554,221.635,295.494,222.607Z" transform="translate(-256.093 -179.775)" fill="#fff"/>
        <path id="Trazado_189712" data-name="Trazado 189712" d="M87.378,145.948a1.19,1.19,0,0,1-1.064-.658l-1.19-2.38a1.19,1.19,0,1,1,2.128-1.064l.552,1.1,3.618-2.714a1.19,1.19,0,0,1,1.428,1.9l-4.759,3.569A1.189,1.189,0,0,1,87.378,145.948Z" transform="translate(-79.049 -126.912)" fill="#fff"/>
        <path id="Trazado_189713" data-name="Trazado 189713" d="M172.139,142.38H166.19a1.19,1.19,0,0,1,0-2.38h5.949a1.19,1.19,0,0,1,0,2.38Z" transform="translate(-149.533 -126.912)" fill="#fff"/>
        <path id="Trazado_189714" data-name="Trazado 189714" d="M178.088,172.38h-11.9a1.19,1.19,0,1,1,0-2.38h11.9a1.19,1.19,0,0,1,0,2.38Z" transform="translate(-149.533 -153.343)" fill="#fff"/>
        <path id="Trazado_189715" data-name="Trazado 189715" d="M87.378,225.948a1.19,1.19,0,0,1-1.064-.658l-1.19-2.38a1.19,1.19,0,1,1,2.128-1.064l.552,1.1,3.618-2.714a1.19,1.19,0,0,1,1.428,1.9l-4.759,3.569A1.189,1.189,0,0,1,87.378,225.948Z" transform="translate(-79.049 -197.394)" fill="#fff"/>
        <path id="Trazado_189716" data-name="Trazado 189716" d="M172.139,222.38H166.19a1.19,1.19,0,1,1,0-2.38h5.949a1.19,1.19,0,0,1,0,2.38Z" transform="translate(-149.533 -197.394)" fill="#fff"/>
        <path id="Trazado_189717" data-name="Trazado 189717" d="M176.9,252.38H166.19a1.19,1.19,0,1,1,0-2.38H176.9a1.19,1.19,0,1,1,0,2.38Z" transform="translate(-149.533 -223.825)" fill="#fff"/>
        <path id="Trazado_189718" data-name="Trazado 189718" d="M87.378,305.949a1.19,1.19,0,0,1-1.064-.658l-1.19-2.38a1.19,1.19,0,1,1,2.128-1.064l.552,1.1,3.618-2.714a1.19,1.19,0,0,1,1.428,1.9l-4.759,3.569A1.189,1.189,0,0,1,87.378,305.949Z" transform="translate(-79.049 -267.876)" fill="#fff"/>
        <path id="Trazado_189719" data-name="Trazado 189719" d="M172.139,302.38H166.19a1.19,1.19,0,1,1,0-2.38h5.949a1.19,1.19,0,0,1,0,2.38Z" transform="translate(-149.533 -267.876)" fill="#fff"/>
        <path id="Trazado_189720" data-name="Trazado 189720" d="M178.088,332.38h-11.9a1.19,1.19,0,1,1,0-2.38h11.9a1.19,1.19,0,0,1,0,2.38Z" transform="translate(-149.533 -294.306)" fill="#fff"/>
        <path id="Trazado_189721" data-name="Trazado 189721" d="M87.378,385.949a1.19,1.19,0,0,1-1.064-.658l-1.19-2.38a1.19,1.19,0,1,1,2.128-1.064l.552,1.1,3.618-2.714a1.19,1.19,0,0,1,1.428,1.9l-4.759,3.569A1.189,1.189,0,0,1,87.378,385.949Z" transform="translate(-79.049 -338.358)" fill="#fff"/>
        <path id="Trazado_189722" data-name="Trazado 189722" d="M172.139,382.38H166.19a1.19,1.19,0,1,1,0-2.38h5.949a1.19,1.19,0,1,1,0,2.38Z" transform="translate(-149.533 -338.358)" fill="#fff"/>
        <path id="Trazado_189723" data-name="Trazado 189723" d="M178.088,412.38h-11.9a1.19,1.19,0,1,1,0-2.38h11.9a1.19,1.19,0,0,1,0,2.38Z" transform="translate(-149.533 -364.788)" fill="#fff"/>
      </g>
    </g>
  </g>
</svg>
