<svg xmlns="http://www.w3.org/2000/svg" xmlns:xlink="http://www.w3.org/1999/xlink" width="400.001" height="428.193" viewBox="0 0 400.001 428.193"><defs><clipPath id="a"><path d="M159.154,0A159.154,159.154,0,1,1,0,159.154,159.154,159.154,0,0,1,159.154,0Z" transform="translate(223.005 438.626)" fill="#0f1" stroke="#707070" stroke-width="1"/></clipPath><clipPath id="b"><rect width="308" height="308" transform="translate(0.43 0.43)" fill="none"/></clipPath><clipPath id="c"><path d="M1419.376-350.5l-3.194-95.483-47.017,1.516a104.456,104.456,0,0,0-97.006-65.7,104.791,104.791,0,0,0-22.035,2.337v-20.54l-35.447.639-38.96,6.706s-7.026,27.464-5.109,39.918c.872,5.669,6.642,13.588,12.669,20.535a103.793,103.793,0,0,0-13.306,33.254,17.9,17.9,0,0,0-5.75,1.457c-3.193,1.916-12.134,15.967-14.37,23.312s2.555,24.589,7.664,30.338c2.719,3.058,10.139,2.952,16.488,2.183a104.465,104.465,0,0,0,98.155,68.71,104.364,104.364,0,0,0,89.486-50.58Z" transform="translate(-1149.287 528.374)" fill="none"/></clipPath><clipPath id="d"><rect width="187.151" height="374.301" fill="#cab8e9"/></clipPath><linearGradient id="g" x1="0.666" y1="-0.309" x2="0.346" y2="1.251" gradientUnits="objectBoundingBox"><stop offset="0" stop-color="#ffc431"/><stop offset="1" stop-color="#ff8300"/></linearGradient><linearGradient id="h" x1="0.666" y1="-0.309" x2="0.346" y2="1.251" gradientUnits="objectBoundingBox"><stop offset="0" stop-color="#84088c"/><stop offset="0.999" stop-color="#b13f8c"/></linearGradient></defs><g transform="translate(-13067 7468.168)"><g transform="translate(12887 -7827.557)" clip-path="url(#a)"><g transform="translate(-4912.694 8948.306)"><g transform="translate(5140.265 -8495.735)"><g transform="translate(0 0)" clip-path="url(#b)"><g transform="translate(11.113 23.161)"><path d="M1183.852-392.154A102.05,102.05,0,0,1,1285.9-494.2a102.044,102.044,0,0,1,102.034,100.863c0-.4.015-.791.015-1.188a104.425,104.425,0,0,0-104.425-104.425A104.425,104.425,0,0,0,1179.1-394.529,104.425,104.425,0,0,0,1283.527-290.1c.4,0,.792-.011,1.188-.015A102.045,102.045,0,0,1,1183.852-392.154Z" transform="translate(-1138.315 511.408)" fill="#ada7bc"/><rect width="17.564" height="30.018" transform="translate(73.811 204.561) rotate(35.34)" fill="#ada7bc"/><path d="M1227.687-184.288a117.592,117.592,0,0,0,12.464,12.787l4.826-6.807-14.327-10.159Z" transform="translate(-1156.839 393.027)" fill="#000d53"/><g transform="translate(0 222.766)"><path d="M1192.814-136.32l-32.044-22.722-47.59,67.114h0l32.044,22.722Z" transform="translate(-1113.18 159.042)" fill="#6836bf"/><rect width="82.274" height="13.168" transform="translate(21.302 82.219) rotate(-54.66)" fill="#000d53"/></g><path d="M1275.852-519.083A116.879,116.879,0,0,0,1158.973-402.2a116.879,116.879,0,0,0,116.879,116.879A116.879,116.879,0,0,0,1392.731-402.2,116.879,116.879,0,0,0,1275.852-519.083Zm0,221.3A104.425,104.425,0,0,1,1171.427-402.2a104.425,104.425,0,0,1,104.425-104.425A104.425,104.425,0,0,1,1380.277-402.2,104.425,104.425,0,0,1,1275.852-297.779Z" transform="translate(-1130.64 519.083)" fill="#c1c1e0"/><path d="M1180.361-135.725a.927.927,0,0,1-.549-.18.928.928,0,0,1-.2-1.3l6.85-9.324a.928.928,0,0,1,1.3-.2.928.928,0,0,1,.2,1.3l-6.85,9.325A.927.927,0,0,1,1180.361-135.725Z" transform="translate(-1138.441 377.181)" fill="#fff"/><path d="M1123.562-76.988a.924.924,0,0,1-.549-.18.928.928,0,0,1-.2-1.3l29-39.474a.928.928,0,0,1,1.3-.2.927.927,0,0,1,.2,1.3l-29,39.474A.927.927,0,0,1,1123.562-76.988Z" transform="translate(-1116.785 366.281)" fill="#fff"/></g></g></g><g transform="translate(5164.413 -8479.891)"><path d="M1372.167-521.075a.924.924,0,0,1-.329-.061,121.871,121.871,0,0,0-43.381-7.914,122.8,122.8,0,0,0-30.356,3.8.927.927,0,0,1-1.129-.67.929.929,0,0,1,.669-1.129,124.665,124.665,0,0,1,30.816-3.853,123.713,123.713,0,0,1,44.04,8.035.928.928,0,0,1,.538,1.2A.929.929,0,0,1,1372.167-521.075Z" transform="translate(-1196.279 530.906)" fill="#b13e8d"/><path d="M1487.161-198.858a.925.925,0,0,1-.661-.277.928.928,0,0,1,.01-1.312,123.256,123.256,0,0,0,14.781-17.583.927.927,0,0,1,1.291-.235.927.927,0,0,1,.235,1.291,125.1,125.1,0,0,1-15,17.848A.925.925,0,0,1,1487.161-198.858Z" transform="translate(-1268.451 411.767)" fill="#b13e8d"/><path d="M1340.355-145.282c-3.785,0-7.608-.172-11.36-.512a.928.928,0,0,1-.841-1.009.935.935,0,0,1,1.008-.841c3.7.335,7.464.505,11.193.505a121.385,121.385,0,0,0,72.312-23.649.928.928,0,0,1,1.3.2.928.928,0,0,1-.2,1.3A123.228,123.228,0,0,1,1340.355-145.282Z" transform="translate(-1208.177 393.67)" fill="#b13e8d"/><path d="M1147.162-287.9a.928.928,0,0,1-.843-.54,131.093,131.093,0,0,1-12.071-55.261,133.6,133.6,0,0,1,1.686-21.167.925.925,0,0,1,1.064-.768.928.928,0,0,1,.769,1.064,131.764,131.764,0,0,0-1.662,20.872,129.248,129.248,0,0,0,11.9,54.484.927.927,0,0,1-.454,1.231A.923.923,0,0,1,1147.162-287.9Z" transform="translate(-1134.247 467.899)" fill="#b13e8d"/><path d="M1406.4-131.982a.928.928,0,0,1-.891-.67.927.927,0,0,1,.634-1.149,129.891,129.891,0,0,0,23.887-9.58.928.928,0,0,1,1.252.393.928.928,0,0,1-.394,1.252,131.709,131.709,0,0,1-24.229,9.717A.914.914,0,0,1,1406.4-131.982Z" transform="translate(-1237.66 383.193)" fill="#b13e8d"/></g><g transform="translate(5162.597 -8458.205)"><path d="M1459.36-455.141l45.506-40.716,13.891,22.514Z" transform="translate(-1256.388 495.857)" fill="#f7ca18"/><path d="M1385.853-455.342l9.316-33.417L1409.4-479.7Z" transform="translate(-1228.362 493.151)" fill="#b13e8d"/><path d="M1480.156-163.565l14.692,35.8,19.613-19.684Z" transform="translate(-1264.318 369.163)" fill="#b13e8d"/><path d="M1180.356-237.521l-49.044,14.159h0l9.609,18.487Z" transform="translate(-1131.312 397.36)" fill="#f7ca18"/><path d="M1164.265-400.484l-31.615-7.984h0l8.942-15.648Z" transform="translate(-1131.822 468.504)" fill="#b13e8d"/></g><g transform="translate(5156.719 -8478.962)"><circle cx="5.908" cy="5.908" r="5.908" transform="translate(110.492 263.777)" fill="none" stroke="#3f12a9" stroke-miterlimit="10" stroke-width="2"/><circle cx="7.026" cy="7.026" r="7.026" transform="matrix(0.231, -0.973, 0.973, 0.231, 255.319, 205.761)" fill="none" stroke="#3f12a9" stroke-miterlimit="10" stroke-width="2"/><circle cx="3.513" cy="3.513" r="3.513" transform="translate(0 158.074)" fill="#6836bf"/><circle cx="6.547" cy="6.547" r="6.547" transform="translate(6.549 21.236) rotate(-45)" fill="none" stroke="#3f12a9" stroke-miterlimit="10" stroke-width="2"/><path d="M1369.108-103.306a2.874,2.874,0,0,1-2.874,2.874,2.874,2.874,0,0,1-2.874-2.874,2.874,2.874,0,0,1,2.874-2.874A2.874,2.874,0,0,1,1369.108-103.306Z" transform="translate(-1213.908 368.041)" fill="#6836bf"/><path d="M1471.7-526.851a2.555,2.555,0,0,1-2.555,2.555,2.554,2.554,0,0,1-2.555-2.555,2.555,2.555,0,0,1,2.555-2.555A2.555,2.555,0,0,1,1471.7-526.851Z" transform="translate(-1253.266 529.406)" fill="#6836bf"/></g><g transform="translate(5173.718 -8478.323)"><g transform="translate(0 0)" clip-path="url(#c)"><g transform="translate(12.369 10.633)"><g transform="translate(36.494 180.493)"><path d="M1336.044-173.245l-47.9,5.748-9.1-22.033-7.666,17.72-3.452-1.38-.866-.346-38.794-15.518,3.836-17.962s86.46-15.326,88.614-11.972S1336.044-173.245,1336.044-173.245Z" transform="translate(-1228.262 219.47)" fill="#6836bf"/><path d="M1327.328-207.653c-1.973-5.823-3.608-10.334-4.254-11.339-2.156-3.353-88.617,11.975-88.617,11.975S1300.74-203.614,1327.328-207.653Z" transform="translate(-1230.624 219.471)" fill="#000d53"/><path d="M1299.073-178.183l-7.245,20.5-.866-.346,7.233-20.461a.472.472,0,0,1,.594-.285A.472.472,0,0,1,1299.073-178.183Z" transform="translate(-1252.168 203.965)" fill="#000d53"/><path d="M1289.267-163.678a.507.507,0,0,1-.1-.011.464.464,0,0,1-.353-.553l2.076-9.421a.464.464,0,0,1,.553-.353.464.464,0,0,1,.353.553l-2.076,9.42A.464.464,0,0,1,1289.267-163.678Z" transform="translate(-1251.345 202.144)" fill="#000d53"/></g><g transform="translate(24.105 57.775)"><path d="M1312.263-417.277s13.173,5.269,19.4,9.341,16.526,17.723,16.526,17.723l-20.6,6.467Z" transform="translate(-1247.9 417.608)" fill="#b13e8d"/><path d="M1228.531-407.182s-17.005,9.82-19.879,13.173,10.059,53.649,12.215,61.793,3.593,49.578,3.593,49.578,68.259-2.4,92.928-10.539c0,0-7.664-19.639-9.82-30.178s-16.286-61.314-18.2-66.583-12.215-26.106-16.766-27.543-25.388,2.156-29.22,4.072S1228.531-407.182,1228.531-407.182Z" transform="translate(-1208.238 417.812)" fill="#b13e8d"/><path d="M1282.757-321.664s-41.477,9.217-59.188,13.8c1.435,5.763,2.615,10.306,3.144,12.306a77.135,77.135,0,0,1,1.4,10.33c17.764-5.879,64.23-27.574,64.23-27.574Z" transform="translate(-1214.083 381.153)" fill="#450332"/><path d="M1237.927-406.645s-2.15,1.242-5.047,2.991c.992,3.022,5.706,14.047,21.174,11.7,16.7-2.536,16.133-19.835,14.684-24.447-6.781.955-13.88,2.49-15.962,3.53C1248.945-410.955,1237.927-406.645,1237.927-406.645Z" transform="translate(-1217.633 417.274)" fill="#fdaea9"/><path d="M1260.955-375.089a32.689,32.689,0,0,1-6.563-.645.464.464,0,0,1-.352-.554.465.465,0,0,1,.554-.352c.142.032,14.288,3.071,20.734-4.986a32.905,32.905,0,0,0,3.612-5.522.463.463,0,0,1,.624-.2.463.463,0,0,1,.2.624,33.908,33.908,0,0,1-3.714,5.679C1272.142-376.159,1265.779-375.089,1260.955-375.089Z" transform="translate(-1225.697 406.217)" fill="#fff"/><path d="M1297.385-396.2a.468.468,0,0,1-.135-.02.464.464,0,0,1-.309-.579,14.226,14.226,0,0,0,.747-4.847.465.465,0,0,1,.42-.5.467.467,0,0,1,.5.418,14.788,14.788,0,0,1-.784,5.2A.465.465,0,0,1,1297.385-396.2Z" transform="translate(-1242.05 411.842)" fill="#fff"/><path d="M1333.151-384.76a.464.464,0,0,1-.439-.314c-2.589-7.529-11.366-22.038-11.454-22.184a.465.465,0,0,1,.156-.638.464.464,0,0,1,.638.156c.089.147,8.918,14.741,11.538,22.364a.464.464,0,0,1-.288.59A.478.478,0,0,1,1333.151-384.76Z" transform="translate(-1251.304 414.057)" fill="#450332"/></g><g transform="translate(19.394)"><path d="M1204.164-483.076s-1.795.083-2.641,2.519-1.294,8.331-.438,11.289,6.207,12.421,6.207,12.421l-.456-15.084Z" transform="translate(-1200.625 500.47)" fill="#671101"/><path d="M1207-456.437s-3.723-2.388-4.97,1.247,1.53,11.068,6.985,12.365C1209.016-442.826,1210.172-450.087,1207-456.437Z" transform="translate(-1201.048 490.607)" fill="#ff656e"/><path d="M1273.85-460.842s2.885-3.475,4.9-.954,1.274,11.469-5.333,13.8Z" transform="translate(-1228.378 492.707)" fill="#ff656e"/><path d="M1253.754-424.826s3.628,6.739,8.984,10.367c0,0-10.021,11.922-21.425,12.267,0,0-3.628-8.639-4.319-12.958C1236.995-415.15,1251.336-421.2,1253.754-424.826Z" transform="translate(-1214.492 478.261)" fill="#fdaea9"/><path d="M1252.891-414.287a23.139,23.139,0,0,0,3.382-6.67,35.8,35.8,0,0,1-2.518-3.869c-2.419,3.628-16.76,9.676-16.76,9.676a43.07,43.07,0,0,0,1.86,6.546C1243.365-409.595,1250.772-411.58,1252.891-414.287Z" transform="translate(-1214.492 478.261)" fill="#ff656e"/><path d="M1248.977-484.987c.629,7.7.931,18.066.442,21.128-.769,4.787-5.639,15.924-10.908,20.2-4.209,3.425-6.569,3.949-7.29,4.005s-12.241-1.908-16.337-9.044c-2.265-3.973-3.464-6.429-3.943-8.97,0,0-2.2-16.664-2.66-18.777s-3.288-12.933,4.348-17.839c7.651-4.893,22.662-3.762,26.315-2.906s7.4,1.144,8.733,3.485a2.4,2.4,0,0,1,.108.244A45.7,45.7,0,0,1,1248.977-484.987Z" transform="translate(-1203.207 506.141)" fill="#fdaea9"/><path d="M1270.739-479.756s.379,3.019.786,4.919a72.986,72.986,0,0,1,.774,8.116c.074,1.6.2,7.743.93,8.029s1.643-9.426,1.649-11.025,1.3-11.569,1.3-11.569Z" transform="translate(-1227.357 499.788)" fill="#3c0100"/><path d="M1244.454-427.852a7.876,7.876,0,0,1-.382.993,5.707,5.707,0,0,1-5.193,3.545,5.166,5.166,0,0,1-4.807-2.931,4.6,4.6,0,0,1-.371-.964A27.6,27.6,0,0,0,1244.454-427.852Z" transform="translate(-1213.236 479.415)" fill="#ff323d"/><path d="M1253.8-453.73c.108,1.4-.322,2.569-.961,2.618s-1.245-1.042-1.354-2.438.322-2.568.961-2.618S1253.694-455.126,1253.8-453.73Z" transform="translate(-1220.011 490.212)" fill="#671101"/><path d="M1233.7-427.209a4.6,4.6,0,0,0,.371.964,5.54,5.54,0,0,0,.3.528l.83-.377c2.2.252,6.025.439,8.87-.765a7.876,7.876,0,0,0,.382-.993A27.6,27.6,0,0,1,1233.7-427.209Z" transform="translate(-1213.236 479.415)" fill="#fff"/><path d="M1231.167-451.97c.108,1.4-.322,2.568-.961,2.618s-1.245-1.042-1.354-2.438.322-2.569.961-2.618S1231.058-453.366,1231.167-451.97Z" transform="translate(-1211.381 489.541)" fill="#671101"/><path d="M1239.17-436.561a7.7,7.7,0,0,0,2.253.293c1.117-.051,2.821-.329,2.821-.329a7.942,7.942,0,0,1-2.933,1.129A4.6,4.6,0,0,1,1239.17-436.561Z" transform="translate(-1215.321 482.749)" fill="#ff656e"/><path d="M1255.422-463.747a2.01,2.01,0,0,0-.212-.129c-.007-.007-.01-.014-.018-.02a3.71,3.71,0,0,0-1.559-.614,5.94,5.94,0,0,0-1.767-.062c-.031,0-.062.012-.094.016a4.97,4.97,0,0,0-1.541.361c-.025.009-.052.014-.077.023a2.931,2.931,0,0,0-1.435.85.1.1,0,0,0,.09.142,2.729,2.729,0,0,0,.674-.257c.238-.1.473-.2.713-.29a6.953,6.953,0,0,1,1.642-.4,6.61,6.61,0,0,1,.7-.038,6.619,6.619,0,0,1,1.189.217c.521.15.98.432,1.488.6A.232.232,0,0,0,1255.422-463.747Z" transform="translate(-1218.957 493.43)" fill="#671101"/><path d="M1224.406-462.3a2.17,2.17,0,0,1,.2-.149.257.257,0,0,1,.016-.022,3.7,3.7,0,0,1,1.5-.755,5.958,5.958,0,0,1,1.754-.225c.031,0,.063.007.095.007a4.967,4.967,0,0,1,1.568.218c.026.006.053.009.079.015a2.93,2.93,0,0,1,1.507.714.1.1,0,0,1-.077.15,2.775,2.775,0,0,1-.7-.193c-.245-.075-.489-.156-.736-.224a7.008,7.008,0,0,0-1.671-.248,6.646,6.646,0,0,0-.7.027,6.654,6.654,0,0,0-1.164.325c-.5.2-.936.522-1.427.733A.232.232,0,0,1,1224.406-462.3Z" transform="translate(-1209.668 492.989)" fill="#671101"/><path d="M1209.1-467.961s-.142,3.843.822,3.958-.068-15.341-.068-15.341,1.357,1.7,1.791.716-.969-7.148-.969-7.148a29.354,29.354,0,0,1,9.1-3.776c4.6-.851,17.8-.422,21.334-.105s10.624-1.849,15.132-4.614c3.813-2.339,6.847-11.679,7.918-15.865a.84.84,0,0,0-1.168-.971c-1.675.784-4.24,1.973-5.259,2.383-4.6,1.854-15.4,2.309-14.942,1.808s.739-1.313.253-1.45-8.736,1.2-15.45,1.192c0,0-10.291-.444-14.737,1.919s-8.188,9.608-7,14.469a94.679,94.679,0,0,1,1.967,14.056C1207.789-475.637,1209.1-467.961,1209.1-467.961Z" transform="translate(-1202.533 511.189)" fill="#671101"/><path d="M1244.337-483.416c-3.794,0-6.763-.145-7.027-.158a.464.464,0,0,1-.44-.486.472.472,0,0,1,.487-.441c.142.008,14.26.7,20.821-.945q.448-.111.876-.229a.464.464,0,0,1,.57.325.464.464,0,0,1-.325.57q-.437.12-.9.234C1254.734-483.628,1248.931-483.416,1244.337-483.416Z" transform="translate(-1214.443 501.468)" fill="#fff"/><path d="M1279.2-489.022a.465.465,0,0,1-.425-.277.464.464,0,0,1,.237-.612,20.04,20.04,0,0,0,3.779-2.083.464.464,0,0,1,.651.082.464.464,0,0,1-.081.65,20.408,20.408,0,0,1-3.973,2.2A.47.47,0,0,1,1279.2-489.022Z" transform="translate(-1230.405 503.908)" fill="#fff"/></g><g transform="translate(90.703 77.261)"><path d="M1367.664-376.3s-5.325-1.051-4.893-5.7c0,0,1.583-.75,2.159-.45s6.189,1.5,7.2,1.951,3.454,4.052,3.454,4.052S1368.96-375.554,1367.664-376.3Z" transform="translate(-1333.746 384.873)" fill="#fdaea9"/><rect width="158.713" height="76.003" transform="translate(0 6.312)" fill="#6836bf"/><path d="M1413.838-382.329s2.276-1.2,3.712-.6,1.8,2.994,1.557,4.191-2.754,8.383-4.55,7.664-2.036-6.107-2.036-6.107Z" transform="translate(-1352.724 385.089)" fill="#fdaea9"/><path d="M1403.037-383.647s3.114-2.275,4.551-2.275,2.874,2.755,3.114,3.473-1.2,10.3-1.437,11.257-1.677,2.993-2.755,2.993-3.353-4.071-3.353-5.388S1403.037-383.647,1403.037-383.647Z" transform="translate(-1349.108 386.167)" fill="#fdaea9"/><path d="M1390.355-382.926s2.635-3.266,4.311-3.386,2.635,1.8,3.353,2.515-.12,6.946-.24,8.743-1.8,8.382-3.353,8.861-3.473-1.317-3.593-2.635-.958-9.58-.958-9.58Z" transform="translate(-1344.09 386.318)" fill="#fdaea9"/><path d="M1379.447-374.52s-1.2-6.382-.838-7.739,2.755-2.308,4.191-2.308,3.233,2.308,3.233,2.308-.119,8.689-.6,10.726-2.635,3.123-3.354,2.851S1379.926-370.446,1379.447-374.52Z" transform="translate(-1339.769 385.65)" fill="#fdaea9"/><text transform="matrix(1, 0.013, -0.013, 1, 24.376, 51.849)" fill="#f9f9fc" font-size="21" font-family="Montserrat-SemiBold, Montserrat" font-weight="600"><tspan x="0" y="0">VACANTE!</tspan></text></g><g transform="translate(0 81.578)"><path d="M1170.973-330.516s.838,6.637,7.544,7.271,6.946-9.506,6.946-9.506S1176.482-335.665,1170.973-330.516Z" transform="translate(-1169.925 361.891)" fill="#450332"/><path d="M1200.425-340.956c-.958-.48-12.295-15.489-18.682-4.95a74.844,74.844,0,0,0-4.831,9.977h0s-5.867,13.016-6.824,16.528a19.763,19.763,0,0,0-.8,5.908l32.733-11.5.16-4.95S1201.383-340.477,1200.425-340.956Z" transform="translate(-1169.279 368.02)" fill="#fdaea9"/><path d="M1194.444-379.341s-17.484,17.005-23.471,31.375a38.6,38.6,0,0,1,31.854,7.271s3.832-18.048,2.874-23.317S1194.444-379.341,1194.444-379.341Z" transform="translate(-1169.925 379.341)" fill="#b13e8d"/><path d="M1223.719-334.325a.471.471,0,0,1-.129-.019.463.463,0,0,1-.316-.575c.035-.121,3.488-12.142,3.176-19.01a.463.463,0,0,1,.442-.485.465.465,0,0,1,.485.442c.319,7.021-3.067,18.812-3.212,19.31A.464.464,0,0,1,1223.719-334.325Z" transform="translate(-1189.859 369.837)" fill="#450332"/><path d="M1226.3-335.019a.462.462,0,0,1-.29-.1.464.464,0,0,1-.072-.652l3.832-4.79a.463.463,0,0,1,.652-.072.464.464,0,0,1,.072.652l-3.832,4.79A.462.462,0,0,1,1226.3-335.019Z" transform="translate(-1190.843 364.622)" fill="#450332"/><path d="M1169.3-304.2s5.749,5.269,8.942,6.227,50.456-6.227,75.525-15.967l-1.916-11.337s-29.7,3.832-34.968,4.152-24.43.16-33.052,4.631S1169.3-307.074,1169.3-304.2Z" transform="translate(-1169.285 358.728)" fill="#fdaea9"/><path d="M1174.821-305.994a.461.461,0,0,1-.335-.143.464.464,0,0,1,.013-.656,44.983,44.983,0,0,1,26.1-10.837.464.464,0,0,1,.491.435.464.464,0,0,1-.436.491,44,44,0,0,0-25.518,10.58A.464.464,0,0,1,1174.821-305.994Z" transform="translate(-1171.215 355.812)" fill="#ff656e"/><path d="M1301.848-336.9a38.91,38.91,0,0,1,5.827-6.312c2.59-1.942,6.8-7.769,7.446-9.711s.647-2.913,1.457-3.075a2.969,2.969,0,0,1,2.751,2.266c.324,1.457-.809,4.532-1.133,5.827a3.528,3.528,0,0,0,.162,2.266s14.567-2.589,18.128-3.4,7.121-1.457,7.931-.486.971,1.942,0,2.589-10.844,3.723-10.844,3.723,1.619,2.914,1.133,3.884a16.931,16.931,0,0,1-1.942,2.59s1.619,1.619.809,3.075a6.873,6.873,0,0,1-2.1,2.266s0,2.913-1.133,3.884-2.1,1.3-5.665,1.942-17.966.324-20.879.162S1301.848-336.9,1301.848-336.9Z" transform="translate(-1219.765 370.447)" fill="#fdaea9"/></g></g></g></g></g></g><g transform="translate(12887 -7987.565)"><g transform="translate(180 560.009)"><path d="M46.778,34.15a1.693,1.693,0,1,1-1.692-1.692,1.693,1.693,0,0,1,1.692,1.692" transform="translate(-43.393 -32.458)" fill="#7fc733"/><path d="M60.733,34.15a1.693,1.693,0,1,1-1.692-1.692,1.693,1.693,0,0,1,1.692,1.692" transform="translate(-46.241 -32.458)" fill="#7fc733"/><path d="M74.689,34.15A1.693,1.693,0,1,1,73,32.458a1.693,1.693,0,0,1,1.693,1.692" transform="translate(-49.089 -32.458)" fill="#7fc733"/><path d="M102.6,34.15a1.693,1.693,0,1,1-1.692-1.692A1.693,1.693,0,0,1,102.6,34.15" transform="translate(-54.785 -32.458)" fill="#7fc733"/><path d="M116.555,34.15a1.693,1.693,0,1,1-1.693-1.692,1.693,1.693,0,0,1,1.693,1.692" transform="translate(-57.633 -32.458)" fill="#7fc733"/><path d="M130.51,34.15a1.693,1.693,0,1,1-1.693-1.692,1.693,1.693,0,0,1,1.693,1.692" transform="translate(-60.48 -32.458)" fill="#7fc733"/><path d="M144.465,34.15a1.693,1.693,0,1,1-1.692-1.692,1.693,1.693,0,0,1,1.692,1.692" transform="translate(-63.329 -32.458)" fill="#7fc733"/><path d="M46.778,47.137a1.693,1.693,0,1,1-1.692-1.692,1.693,1.693,0,0,1,1.692,1.692" transform="translate(-43.393 -35.107)" fill="#7fc733"/><path d="M60.733,47.137a1.693,1.693,0,1,1-1.692-1.692,1.693,1.693,0,0,1,1.692,1.692" transform="translate(-46.241 -35.107)" fill="#7fc733"/><path d="M74.689,47.137A1.693,1.693,0,1,1,73,45.445a1.693,1.693,0,0,1,1.693,1.692" transform="translate(-49.089 -35.107)" fill="#7fc733"/><path d="M88.644,47.137a1.693,1.693,0,1,1-1.693-1.692,1.693,1.693,0,0,1,1.693,1.692" transform="translate(-51.937 -35.107)" fill="#7fc733"/><path d="M102.6,47.137a1.693,1.693,0,1,1-1.692-1.692,1.693,1.693,0,0,1,1.692,1.692" transform="translate(-54.785 -35.107)" fill="#7fc733"/><path d="M116.555,47.137a1.693,1.693,0,1,1-1.693-1.692,1.693,1.693,0,0,1,1.693,1.692" transform="translate(-57.633 -35.107)" fill="#7fc733"/><path d="M130.51,47.137a1.693,1.693,0,1,1-1.693-1.692,1.693,1.693,0,0,1,1.693,1.692" transform="translate(-60.48 -35.107)" fill="#7fc733"/><path d="M144.465,47.137a1.693,1.693,0,1,1-1.692-1.692,1.693,1.693,0,0,1,1.692,1.692" transform="translate(-63.329 -35.107)" fill="#7fc733"/><path d="M46.778,60.123a1.693,1.693,0,1,1-1.692-1.693,1.693,1.693,0,0,1,1.692,1.693" transform="translate(-43.393 -37.758)" fill="#7fc733"/><path d="M60.733,60.123a1.693,1.693,0,1,1-1.692-1.693,1.693,1.693,0,0,1,1.692,1.693" transform="translate(-46.241 -37.758)" fill="#7fc733"/><path d="M74.689,60.123A1.693,1.693,0,1,1,73,58.43a1.693,1.693,0,0,1,1.693,1.693" transform="translate(-49.089 -37.758)" fill="#7fc733"/><path d="M88.644,60.123a1.693,1.693,0,1,1-1.693-1.693,1.693,1.693,0,0,1,1.693,1.693" transform="translate(-51.937 -37.758)" fill="#7fc733"/><path d="M102.6,60.123a1.693,1.693,0,1,1-1.692-1.693,1.693,1.693,0,0,1,1.692,1.693" transform="translate(-54.785 -37.758)" fill="#7fc733"/><path d="M116.555,60.123a1.693,1.693,0,1,1-1.693-1.693,1.693,1.693,0,0,1,1.693,1.693" transform="translate(-57.633 -37.758)" fill="#7fc733"/><path d="M130.51,60.123a1.693,1.693,0,1,1-1.693-1.693,1.693,1.693,0,0,1,1.693,1.693" transform="translate(-60.48 -37.758)" fill="#7fc733"/><path d="M144.465,60.123a1.693,1.693,0,1,1-1.692-1.693,1.693,1.693,0,0,1,1.692,1.693" transform="translate(-63.329 -37.758)" fill="#7fc733"/></g><g transform="translate(571.113 884.636)"><g transform="translate(0 0)"><path d="M529.417,465.389a1.194,1.194,0,1,1-1.194-1.194,1.195,1.195,0,0,1,1.194,1.194" transform="translate(-527.029 -455.937)" fill="#7fc733"/><path d="M529.417,475.764a1.194,1.194,0,1,1-1.194-1.194,1.195,1.195,0,0,1,1.194,1.194" transform="translate(-527.029 -458.055)" fill="#7fc733"/><path d="M529.417,486.139a1.194,1.194,0,1,1-1.194-1.194,1.195,1.195,0,0,1,1.194,1.194" transform="translate(-527.029 -460.171)" fill="#7fc733"/><path d="M529.417,496.514a1.194,1.194,0,1,1-1.194-1.194,1.195,1.195,0,0,1,1.194,1.194" transform="translate(-527.029 -462.29)" fill="#7fc733"/><path d="M529.417,506.889a1.194,1.194,0,1,1-1.194-1.194,1.195,1.195,0,0,1,1.194,1.194" transform="translate(-527.029 -464.408)" fill="#7fc733"/><path d="M529.417,517.264a1.194,1.194,0,1,1-1.194-1.194,1.195,1.195,0,0,1,1.194,1.194" transform="translate(-527.029 -466.525)" fill="#7fc733"/><path d="M529.417,527.639a1.194,1.194,0,1,1-1.194-1.194,1.195,1.195,0,0,1,1.194,1.194" transform="translate(-527.029 -468.641)" fill="#7fc733"/><path d="M537.583,455.014a1.194,1.194,0,1,1-1.194-1.194,1.194,1.194,0,0,1,1.194,1.194" transform="translate(-528.696 -453.82)" fill="#7fc733"/><path d="M537.583,465.389a1.194,1.194,0,1,1-1.194-1.194,1.194,1.194,0,0,1,1.194,1.194" transform="translate(-528.696 -455.937)" fill="#7fc733"/><path d="M537.583,475.764a1.194,1.194,0,1,1-1.194-1.194,1.194,1.194,0,0,1,1.194,1.194" transform="translate(-528.696 -458.055)" fill="#7fc733"/><path d="M537.583,486.139a1.194,1.194,0,1,1-1.194-1.194,1.194,1.194,0,0,1,1.194,1.194" transform="translate(-528.696 -460.171)" fill="#7fc733"/><path d="M537.583,496.514a1.194,1.194,0,1,1-1.194-1.194,1.194,1.194,0,0,1,1.194,1.194" transform="translate(-528.696 -462.29)" fill="#7fc733"/><path d="M537.583,506.889a1.194,1.194,0,1,1-1.194-1.194,1.194,1.194,0,0,1,1.194,1.194" transform="translate(-528.696 -464.408)" fill="#7fc733"/><path d="M537.583,517.264a1.194,1.194,0,1,1-1.194-1.194,1.194,1.194,0,0,1,1.194,1.194" transform="translate(-528.696 -466.525)" fill="#7fc733"/></g></g><g transform="translate(195.212 570.896)"><g transform="translate(0 0)" clip-path="url(#d)"><g clip-path="url(#d)"><g style="mix-blend-mode:multiply;isolation:isolate"><g clip-path="url(#d)"><path d="M187.125,346.379a159.255,159.255,0,1,1,0-318.51V0C83.779,0,0,83.778,0,187.124S83.779,374.249,187.125,374.249Z" transform="translate(0 -0.316)" fill="#cab8e9"/></g></g></g></g></g><path d="M1876,958.5a13.49,13.49,0,0,0-13-13.475v-.031c-87.444-.271-158.5-71.376-158.5-158.744,0-87.034,70.516-157.923,157.5-158.731V627.5c.43,0,.855-.023,1.274-.064s.822-.1,1.226-.177h0a13.491,13.491,0,0,0,0-26.518h0a13.589,13.589,0,0,0-2.2-.226h0c-.1,0-.2-.015-.3-.015-.224,0-.442.023-.663.034C1759.77,601.7,1677.5,684.55,1677.5,786.25c0,101.956,82.684,184.975,184.6,185.73.134,0,.264.02.4.02.072,0,.141-.01.213-.011l.287,0v-.019A13.49,13.49,0,0,0,1876,958.5Z" transform="translate(-1481.287 -28.757)" fill="#cab8e9"/><path d="M2049.5,786.25A184.514,184.514,0,0,0,2017.367,682h-.036a13.494,13.494,0,1,0-23.245,13.687l-.046.029a158.208,158.208,0,0,1-1.593,183.3l.039.028a13.491,13.491,0,1,0,21.97,15.575A184.535,184.535,0,0,0,2049.5,786.25Z" transform="translate(-1481.287 -28.757)" fill="#cab8e9"/><circle cx="45.916" cy="45.916" r="45.916" transform="translate(432.933 610.058) rotate(-80.839)" fill="url(#g)"/><circle cx="13.888" cy="13.888" r="13.888" transform="translate(290.013 934.067) rotate(-80.839)" fill="url(#h)"/><circle cx="36.02" cy="36.02" r="36.02" transform="translate(212 936.121) rotate(-80.839)" fill="url(#h)"/></g></g></svg>