<svg xmlns="http://www.w3.org/2000/svg" width="620" height="356.335" viewBox="0 0 620 356.335"><g transform="translate(4652.319 5456)"><g transform="translate(-5230.225 -4454.762)"><g transform="translate(577.906 -673.862)"><ellipse cx="310" cy="14.48" rx="310" ry="14.48" fill="#6836bf"/></g><g transform="translate(732.358 -1001.238)"><path d="M715.651-999.675a.783.783,0,0,1-.782-.784.782.782,0,0,1,.782-.78l1.581.018a.786.786,0,0,1,.762.8.784.784,0,0,1-.8.76l-1.541-.018Zm-6.984-1.163a.783.783,0,0,1,.869.68.784.784,0,0,1-.684.87c-.51.06-1.019.124-1.527.2a.775.775,0,0,1-.885-.656.781.781,0,0,1,.658-.887c.522-.076,1.045-.14,1.569-.2Zm-9.305,1.826a.785.785,0,0,1,.965.541.78.78,0,0,1-.54.963l-1.477.437a.784.784,0,0,1-.979-.514.786.786,0,0,1,.514-.979c.5-.157,1.011-.305,1.517-.447Zm-8.9,3.274a.779.779,0,0,1,1.037.375.783.783,0,0,1-.377,1.041c-.465.215-.933.435-1.392.662a.783.783,0,0,1-1.047-.351.779.779,0,0,1,.351-1.047l1.427-.68Zm-8.272,4.633a.782.782,0,0,1,1.082.212.784.784,0,0,1-.209,1.084l-1.272.874a.785.785,0,0,1-1.089-.184.781.781,0,0,1,.184-1.088l1.3-.9Zm-7.447,5.874a.78.78,0,0,1,1.1.04.778.778,0,0,1-.042,1.1l-1.117,1.063a.785.785,0,0,1-1.107-.012.785.785,0,0,1,.014-1.106l1.146-1.085Zm-6.436,6.958a.781.781,0,0,1,1.1-.13.785.785,0,0,1,.13,1.1c-.317.4-.628.806-.935,1.214a.786.786,0,0,1-1.095.17.787.787,0,0,1-.166-1.095c.327-.415.638-.843.969-1.258Zm-5.273,7.883a.781.781,0,0,1,1.063-.3.784.784,0,0,1,.3,1.063c-.255.447-.494.9-.736,1.352a.786.786,0,0,1-1.055.333.785.785,0,0,1-.331-1.055c.249-.466.5-.933.758-1.391Zm-3.97,8.613a.78.78,0,0,1,1-.464.78.78,0,0,1,.467,1l-.512,1.447a.78.78,0,0,1-.989.5.78.78,0,0,1-.495-.987c.185-.48.347-1,.528-1.493Zm-2.56,9.135a.784.784,0,0,1,.913-.622.781.781,0,0,1,.62.913l-.277,1.519a.781.781,0,0,1-.9.642.783.783,0,0,1-.644-.9l.285-1.555Zm-1.091,9.419a.785.785,0,0,1,.805-.755.784.784,0,0,1,.756.806l-.036,1.541a.778.778,0,0,1-.785.775.78.78,0,0,1-.778-.785c.006-.526.022-1.053.038-1.581Zm.387,9.471a.784.784,0,0,1,.682-.87.788.788,0,0,1,.869.684c.056.51.126,1.021.2,1.529a.78.78,0,0,1-.66.883.781.781,0,0,1-.885-.658c-.076-.52-.15-1.045-.207-1.569Zm1.862,9.3a.781.781,0,0,1,.532-.967.781.781,0,0,1,.967.532c.14.492.287.987.441,1.477a.782.782,0,0,1-.508.981.78.78,0,0,1-.979-.508c-.162-.5-.309-1.011-.453-1.516Zm3.306,8.889a.781.781,0,0,1,.375-1.039.781.781,0,0,1,1.041.375c.214.465.437.929.666,1.388a.78.78,0,0,1-.345,1.047.784.784,0,0,1-1.051-.343c-.239-.459-.469-.959-.686-1.427Zm4.665,8.254a.784.784,0,0,1,.209-1.086.784.784,0,0,1,1.085.213c.285.422.576.849.875,1.264a.781.781,0,0,1-.176,1.089.783.783,0,0,1-1.091-.176c-.307-.433-.61-.867-.9-1.3Zm5.9,7.425a.781.781,0,0,1,.034-1.1.781.781,0,0,1,1.1.034l1.065,1.114a.781.781,0,0,1-.006,1.1.781.781,0,0,1-1.1-.006c-.371-.377-.732-.76-1.092-1.145Zm6.986,6.412a.779.779,0,0,1-.137-1.094.781.781,0,0,1,1.095-.14c.4.319.812.63,1.228.933a.783.783,0,0,1,.163,1.095.777.777,0,0,1-1.091.163l-1.258-.957Zm7.9,5.241a.78.78,0,0,1-.307-1.058.781.781,0,0,1,1.061-.309l1.358.732a.783.783,0,0,1,.333,1.055.782.782,0,0,1-1.053.333l-1.392-.752Zm8.629,3.938a.782.782,0,0,1-.471-1,.782.782,0,0,1,1-.471l1.455.508a.781.781,0,0,1,.495.987.782.782,0,0,1-.987.5l-1.491-.52Zm9.139,2.522a.78.78,0,0,1-.62-.911.78.78,0,0,1,.913-.62c.5.1,1.017.172,1.513.271a.782.782,0,0,1,.65.893.783.783,0,0,1-.9.648l-1.559-.281Zm9.425,1.057a.783.783,0,0,1-.756-.806.777.777,0,0,1,.806-.755l1.541.032a.778.778,0,0,1,.776.785.78.78,0,0,1-.786.776l-1.581-.032Zm9.474-.421a.784.784,0,0,1-.873-.676.782.782,0,0,1,.676-.874c.508-.064,1.019-.131,1.527-.207a.778.778,0,0,1,.889.65.782.782,0,0,1-.652.891c-.523.082-1.045.152-1.567.215Zm9.291-1.9a.783.783,0,0,1-.969-.534.782.782,0,0,1,.532-.967c.495-.139.987-.291,1.475-.447a.78.78,0,0,1,.981.508.784.784,0,0,1-.506.981c-.5.157-1.007.311-1.513.458Zm8.876-3.344a.78.78,0,0,1-1.04-.373.781.781,0,0,1,.371-1.039q.7-.323,1.388-.674a.778.778,0,0,1,1.049.347.78.78,0,0,1-.345,1.049c-.471.239-.945.466-1.422.69Zm8.239-4.7a.784.784,0,0,1-1.087-.2.782.782,0,0,1,.205-1.087l1.264-.885a.784.784,0,0,1,1.091.179.781.781,0,0,1-.178,1.089l-1.3.907Zm7.4-5.928a.785.785,0,0,1-1.1-.032.784.784,0,0,1,.034-1.106c.373-.347.734-.722,1.109-1.067a.782.782,0,0,1,1.1,0,.781.781,0,0,1,0,1.1l-1.141,1.1ZM763.28-904a.786.786,0,0,1-1.1.138.781.781,0,0,1-.138-1.095l.927-1.23a.781.781,0,0,1,1.091-.17.782.782,0,0,1,.171,1.091c-.313.425-.636.845-.955,1.266Zm5.214-7.927a.784.784,0,0,1-1.059.315.783.783,0,0,1-.315-1.059l.726-1.364a.784.784,0,0,1,1.053-.339.782.782,0,0,1,.339,1.05l-.744,1.4Zm3.9-8.639a.78.78,0,0,1-1,.469.78.78,0,0,1-.469-1l.5-1.453a.781.781,0,0,1,.985-.5.782.782,0,0,1,.5.985l-.516,1.5Zm2.488-9.154a.777.777,0,0,1-.909.624.782.782,0,0,1-.626-.907l.267-1.521a.779.779,0,0,1,.893-.648.781.781,0,0,1,.648.893l-.273,1.559Zm1.019-9.429a.78.78,0,0,1-.8.76.781.781,0,0,1-.762-.8l.026-1.541a.782.782,0,0,1,.781-.783.782.782,0,0,1,.782.783l-.028,1.581Zm-.455-9.469a.785.785,0,0,1-.676.873.785.785,0,0,1-.873-.678c-.048-.481-.13-1.041-.213-1.519a.777.777,0,0,1,.65-.893.776.776,0,0,1,.891.648c.08.51.169,1.057.221,1.569Zm-1.934-9.289a.779.779,0,0,1-.524.971.784.784,0,0,1-.973-.524l-.453-1.475a.781.781,0,0,1,.5-.983.776.776,0,0,1,.983.5l.464,1.509Zm-3.375-8.864a.783.783,0,0,1-.365,1.045.784.784,0,0,1-1.043-.365l-.68-1.388a.782.782,0,0,1,.341-1.051.781.781,0,0,1,1.051.343c.239.466.471.941.7,1.416Zm-4.727-8.22a.782.782,0,0,1-.2,1.087.784.784,0,0,1-1.089-.2l-.889-1.262a.781.781,0,0,1,.172-1.09.78.78,0,0,1,1.09.172l.911,1.29Zm-5.958-7.375a.777.777,0,0,1-.026,1.1.781.781,0,0,1-1.1-.026l-1.075-1.109a.782.782,0,0,1,0-1.1.782.782,0,0,1,1.1,0l1.1,1.137Zm-7.032-6.36a.784.784,0,0,1,.146,1.094.785.785,0,0,1-1.095.145l-1.236-.925a.781.781,0,0,1-.169-1.093.778.778,0,0,1,1.088-.171l1.266.949Zm-7.941-5.184a.786.786,0,0,1,.313,1.063.78.78,0,0,1-1.059.309l-1.354-.712a.785.785,0,0,1-.351-1.055.781.781,0,0,1,1.051-.343c.454.249.937.49,1.4.737Zm-8.659-3.868a.781.781,0,0,1,.477.995.778.778,0,0,1-.995.477l-1.461-.5a.782.782,0,0,1-.5-.983.78.78,0,0,1,.985-.5c.5.163,1,.333,1.5.51Zm-9.165-2.456a.781.781,0,0,1,.634.9.78.78,0,0,1-.905.634l-1.521-.259a.784.784,0,0,1-.654-.891.785.785,0,0,1,.891-.654C725.622-1000.421,726.14-1000.329,726.656-1000.235Z" transform="translate(-655.373 1001.238)" fill="#d0d9ee" fill-rule="evenodd"/></g><g transform="translate(962.304 -977.572)"><path d="M829.906-987.833a.769.769,0,0,1-.768-.767.769.769,0,0,1,.768-.768l1.553.02a.769.769,0,0,1,.747.786.765.765,0,0,1-.785.748l-1.516-.018Zm-6.859-1.14a.769.769,0,0,1,.855.67.771.771,0,0,1-.672.853c-.5.058-1,.12-1.5.192a.762.762,0,0,1-.869-.648.764.764,0,0,1,.644-.869c.51-.072,1.027-.137,1.541-.2Zm-9.138,1.794a.766.766,0,0,1,.945.528.771.771,0,0,1-.529.949l-1.451.425a.764.764,0,0,1-.959-.5.765.765,0,0,1,.5-.959c.493-.155.993-.3,1.49-.439Zm-8.745,3.214a.768.768,0,0,1,1.021.371.772.772,0,0,1-.373,1.021c-.457.209-.917.427-1.368.652a.768.768,0,0,1-1.027-.349.766.766,0,0,1,.345-1.027l1.4-.668Zm-8.127,4.554a.768.768,0,0,1,1.065.205.765.765,0,0,1-.205,1.063l-1.25.859a.767.767,0,0,1-1.069-.182.767.767,0,0,1,.181-1.069l1.278-.877Zm-7.315,5.766a.771.771,0,0,1,1.087.038.762.762,0,0,1-.042,1.083l-1.1,1.045a.77.77,0,0,1-1.087-.014.767.767,0,0,1,.016-1.083l1.122-1.069Zm-6.32,6.837a.772.772,0,0,1,1.079-.13.771.771,0,0,1,.13,1.079c-.317.393-.62.79-.921,1.192a.769.769,0,0,1-1.077.168.771.771,0,0,1-.158-1.075c.319-.409.626-.829.947-1.234Zm-5.178,7.74a.77.77,0,0,1,1.045-.295.771.771,0,0,1,.295,1.045c-.249.439-.486.881-.722,1.328a.768.768,0,0,1-1.036.325.764.764,0,0,1-.323-1.033c.239-.459.484-.917.742-1.37Zm-3.9,8.462a.773.773,0,0,1,.987-.459.768.768,0,0,1,.454.985l-.5,1.424a.766.766,0,0,1-.971.486.766.766,0,0,1-.484-.971c.183-.473.341-.983.516-1.465Zm-2.514,8.972a.769.769,0,0,1,.9-.61.769.769,0,0,1,.61.9l-.273,1.491a.766.766,0,0,1-.881.63.764.764,0,0,1-.63-.881l.277-1.527Zm-1.071,9.253a.769.769,0,0,1,.794-.742.767.767,0,0,1,.742.788l-.038,1.515a.765.765,0,0,1-.77.762.763.763,0,0,1-.763-.77c0-.52.018-1.037.036-1.553Zm.379,9.3a.773.773,0,0,1,.672-.855.772.772,0,0,1,.853.672c.054.5.126,1,.2,1.5a.768.768,0,0,1-.648.869.763.763,0,0,1-.869-.648c-.076-.51-.146-1.025-.205-1.539Zm1.83,9.135a.76.76,0,0,1,.522-.947.768.768,0,0,1,.953.522c.134.485.279.969.431,1.45a.766.766,0,0,1-.5.963.769.769,0,0,1-.963-.5c-.161-.49-.3-.993-.445-1.489Zm3.246,8.731a.768.768,0,0,1,.371-1.021.765.765,0,0,1,1.021.371c.211.454.427.909.654,1.359a.771.771,0,0,1-.337,1.031.775.775,0,0,1-1.035-.339c-.233-.451-.46-.941-.674-1.4Zm4.582,8.1a.771.771,0,0,1,.207-1.065.77.77,0,0,1,1.063.209c.281.415.566.833.861,1.238a.772.772,0,0,1-.171,1.075.768.768,0,0,1-1.071-.176c-.3-.421-.6-.849-.889-1.282Zm5.8,7.3a.764.764,0,0,1,.032-1.083.77.77,0,0,1,1.085.032l1.045,1.095a.766.766,0,0,1-.006,1.085.764.764,0,0,1-1.083-.006c-.365-.371-.722-.744-1.073-1.123Zm6.86,6.3a.766.766,0,0,1-.135-1.076.767.767,0,0,1,1.075-.136c.4.313.8.62,1.206.917a.767.767,0,0,1,.16,1.075.761.761,0,0,1-1.071.16l-1.234-.939Zm7.76,5.148a.766.766,0,0,1-.3-1.041.764.764,0,0,1,1.039-.3l1.338.718a.77.77,0,0,1,.327,1.033.77.77,0,0,1-1.037.327l-1.366-.736Zm8.473,3.866a.768.768,0,0,1-.46-.981.77.77,0,0,1,.981-.463l1.43.5a.767.767,0,0,1,.486.969.767.767,0,0,1-.969.487l-1.467-.512Zm8.978,2.48a.767.767,0,0,1-.608-.9.763.763,0,0,1,.9-.606c.492.1,1,.167,1.485.265a.762.762,0,0,1,.636.877.766.766,0,0,1-.875.638l-1.535-.275Zm9.259,1.037a.766.766,0,0,1-.742-.791.764.764,0,0,1,.788-.742l1.515.03a.767.767,0,0,1,.761.77.772.772,0,0,1-.771.766l-1.551-.032Zm9.3-.415a.771.771,0,0,1-.859-.664.769.769,0,0,1,.666-.857c.5-.062,1-.128,1.5-.205a.766.766,0,0,1,.873.64.769.769,0,0,1-.64.875c-.51.08-1.025.15-1.537.211Zm9.124-1.862a.771.771,0,0,1-.951-.522.771.771,0,0,1,.524-.953c.484-.135.967-.285,1.447-.437a.767.767,0,0,1,.963.5.765.765,0,0,1-.5.963c-.492.155-.987.307-1.485.451Zm8.719-3.284a.768.768,0,0,1-1.023-.365.768.768,0,0,1,.365-1.023c.458-.211.911-.431,1.364-.658a.765.765,0,0,1,1.031.337.767.767,0,0,1-.339,1.031c-.461.233-.929.46-1.4.678Zm8.093-4.612a.771.771,0,0,1-1.069-.2.771.771,0,0,1,.2-1.067l1.24-.865a.77.77,0,0,1,1.073.171.768.768,0,0,1-.174,1.071l-1.272.891Zm7.267-5.824a.768.768,0,0,1-1.085-.032.766.766,0,0,1,.034-1.083c.365-.345.722-.71,1.087-1.049a.767.767,0,0,1,1.084,0,.768.768,0,0,1,0,1.084l-1.12,1.079Zm6.273-6.882a.769.769,0,0,1-1.077.135.765.765,0,0,1-.134-1.075l.909-1.206a.768.768,0,0,1,1.073-.169.767.767,0,0,1,.165,1.073c-.3.419-.624.827-.937,1.242Zm5.122-7.784a.77.77,0,0,1-1.041.307.766.766,0,0,1-.307-1.039l.712-1.338a.77.77,0,0,1,1.035-.333.768.768,0,0,1,.331,1.031l-.73,1.372Zm3.83-8.488a.77.77,0,0,1-.981.465.77.77,0,0,1-.46-.985l.491-1.424a.769.769,0,0,1,.969-.492.763.763,0,0,1,.49.965l-.508,1.471Zm2.446-8.99a.764.764,0,0,1-.893.612.767.767,0,0,1-.614-.893l.261-1.491a.767.767,0,0,1,.877-.636.768.768,0,0,1,.638.879l-.269,1.529Zm1-9.261a.765.765,0,0,1-.786.748.768.768,0,0,1-.748-.786l.024-1.515a.769.769,0,0,1,.768-.768.769.769,0,0,1,.767.768l-.026,1.553Zm-.447-9.3a.767.767,0,0,1-.666.857.766.766,0,0,1-.857-.662c-.048-.476-.126-1.027-.211-1.5a.775.775,0,0,1,.638-.879.776.776,0,0,1,.881.64c.076.5.163,1.036.215,1.541Zm-1.9-9.124a.768.768,0,0,1-.516.953.758.758,0,0,1-.951-.512l-.447-1.452a.766.766,0,0,1,.493-.965.769.769,0,0,1,.967.493l.455,1.483Zm-3.316-8.7a.767.767,0,0,1-.359,1.025.765.765,0,0,1-1.021-.359l-.67-1.359a.769.769,0,0,1,.333-1.033.77.77,0,0,1,1.033.331c.237.462.462.929.684,1.4Zm-4.643-8.077a.769.769,0,0,1-.193,1.069.768.768,0,0,1-1.069-.191l-.869-1.238a.766.766,0,0,1,.163-1.071.77.77,0,0,1,1.075.165l.893,1.266Zm-5.85-7.243a.769.769,0,0,1-.026,1.087.766.766,0,0,1-1.082-.03l-1.057-1.087a.771.771,0,0,1,0-1.084.767.767,0,0,1,1.085,0l1.081,1.114Zm-6.908-6.247a.771.771,0,0,1,.144,1.077.766.766,0,0,1-1.075.143l-1.214-.911a.77.77,0,0,1-.17-1.07.774.774,0,0,1,1.075-.17l1.24.931Zm-7.8-5.09a.773.773,0,0,1,.307,1.043.766.766,0,0,1-1.039.305l-1.332-.7a.771.771,0,0,1-.343-1.035.771.771,0,0,1,1.033-.337c.449.247.919.485,1.374.726Zm-8.5-3.8a.767.767,0,0,1,.468.977.769.769,0,0,1-.981.471l-1.432-.49a.77.77,0,0,1-.494-.965.774.774,0,0,1,.969-.494c.49.163.981.327,1.47.5Zm-9-2.411a.763.763,0,0,1,.622.887.77.77,0,0,1-.887.622l-1.5-.255a.767.767,0,0,1-.642-.875.769.769,0,0,1,.875-.642C839.7-988.564,840.21-988.475,840.718-988.381Z" transform="translate(-770.705 989.368)" fill="#d0d9ee" fill-rule="evenodd"/></g><g transform="translate(824.199 -870.341)"><path d="M757.9-934.122a.73.73,0,0,1-.732-.73.734.734,0,0,1,.732-.734l1.48.018a.735.735,0,0,1,.714.75.734.734,0,0,1-.75.716l-1.444-.02Zm-6.543-1.087a.733.733,0,0,1,.815.636.733.733,0,0,1-.64.815c-.479.056-.955.116-1.432.184a.729.729,0,0,1-.829-.616.731.731,0,0,1,.616-.829c.488-.072.979-.133,1.469-.189ZM742.64-933.5a.731.731,0,0,1,.9.5.731.731,0,0,1-.5.9l-1.386.409a.733.733,0,0,1-.915-.482.734.734,0,0,1,.481-.917c.473-.145.947-.283,1.421-.417Zm-8.338,3.064a.733.733,0,0,1,.971.353.731.731,0,0,1-.353.973c-.437.2-.875.409-1.3.624a.736.736,0,0,1-.981-.329.732.732,0,0,1,.329-.981l1.338-.64Zm-7.75,4.344a.73.73,0,0,1,1.015.2.731.731,0,0,1-.2,1.015l-1.192.819a.731.731,0,0,1-1.017-.173.729.729,0,0,1,.172-1.019l1.22-.838Zm-6.974,5.5a.731.731,0,0,1,1.033.038.731.731,0,0,1-.036,1.033l-1.049.995a.735.735,0,0,1-1.035-.012.735.735,0,0,1,.012-1.035l1.075-1.019Zm-6.031,6.52a.731.731,0,0,1,1.029-.122.731.731,0,0,1,.122,1.027c-.3.373-.588.756-.875,1.139a.734.734,0,0,1-1.025.157.735.735,0,0,1-.156-1.025c.3-.389.6-.792.905-1.176Zm-4.939,7.381a.728.728,0,0,1,1-.279.729.729,0,0,1,.283.995c-.237.417-.463.841-.69,1.266a.731.731,0,0,1-.985.311.734.734,0,0,1-.311-.987c.233-.435.465-.873.708-1.306Zm-3.718,8.071a.738.738,0,0,1,.939-.439.737.737,0,0,1,.437.941l-.479,1.354a.734.734,0,0,1-.927.466.732.732,0,0,1-.463-.925c.174-.453.325-.939.493-1.4Zm-2.4,8.555a.732.732,0,0,1,.855-.582.735.735,0,0,1,.582.855l-.261,1.422a.729.729,0,0,1-.839.6.732.732,0,0,1-.6-.841l.267-1.455Zm-1.021,8.822a.732.732,0,0,1,.754-.706.732.732,0,0,1,.708.754l-.034,1.442a.735.735,0,0,1-.736.729.733.733,0,0,1-.728-.735c0-.5.018-.989.036-1.484Zm.361,8.875a.732.732,0,0,1,.638-.816.729.729,0,0,1,.813.64c.054.475.122.953.19,1.43a.729.729,0,0,1-.616.83.732.732,0,0,1-.829-.616c-.07-.489-.14-.981-.2-1.467Zm1.745,8.711a.734.734,0,0,1,.5-.907.732.732,0,0,1,.9.5c.134.465.269.927.415,1.384a.737.737,0,0,1-.477.921.731.731,0,0,1-.917-.477c-.154-.47-.289-.945-.425-1.419Zm3.1,8.326a.734.734,0,0,1,.353-.975.731.731,0,0,1,.971.353c.2.434.413.869.626,1.3a.734.734,0,0,1-.323.985.736.736,0,0,1-.983-.325c-.225-.429-.441-.9-.644-1.336Zm4.368,7.73a.733.733,0,0,1,.2-1.015.73.73,0,0,1,1.015.2c.265.4.54.793.819,1.182a.733.733,0,0,1-.165,1.021.733.733,0,0,1-1.021-.167c-.287-.4-.57-.807-.847-1.22Zm5.531,6.956a.729.729,0,0,1,.032-1.033.729.729,0,0,1,1.033.032l1,1.045a.731.731,0,0,1-.006,1.033.73.73,0,0,1-1.033-.006c-.349-.353-.688-.708-1.025-1.07Zm6.544,6.007a.733.733,0,0,1-.13-1.027.731.731,0,0,1,1.025-.129c.381.3.762.59,1.15.875a.732.732,0,0,1,.156,1.023.736.736,0,0,1-1.025.153l-1.176-.9Zm7.4,4.909a.731.731,0,0,1-.289-.993.734.734,0,0,1,.995-.289l1.274.688a.733.733,0,0,1,.311.985.735.735,0,0,1-.989.309l-1.3-.7Zm8.081,3.687a.735.735,0,0,1-.441-.937.738.738,0,0,1,.937-.441l1.364.479a.729.729,0,0,1,.463.923.73.73,0,0,1-.923.465l-1.4-.489Zm8.561,2.365a.732.732,0,0,1-.58-.855.731.731,0,0,1,.855-.58c.47.094.951.159,1.418.253a.732.732,0,0,1,.608.837.733.733,0,0,1-.837.609l-1.463-.263Zm8.828.989a.735.735,0,0,1-.708-.755.733.733,0,0,1,.756-.706l1.441.028a.73.73,0,0,1,.726.736.731.731,0,0,1-.736.727l-1.48-.03Zm8.874-.395a.733.733,0,0,1-.818-.632.738.738,0,0,1,.632-.822c.478-.057.957-.119,1.431-.191a.727.727,0,0,1,.833.61.731.731,0,0,1-.61.833q-.733.111-1.469.2Zm8.7-1.776a.731.731,0,0,1-.905-.5.726.726,0,0,1,.5-.905q.694-.2,1.384-.421a.735.735,0,0,1,.917.477.734.734,0,0,1-.475.919c-.471.15-.943.3-1.418.429Zm8.314-3.132a.731.731,0,0,1-.975-.347.725.725,0,0,1,.351-.971c.435-.205.869-.415,1.3-.634a.738.738,0,0,1,.987.323.738.738,0,0,1-.327.985c-.439.221-.885.437-1.332.644Zm7.718-4.4a.735.735,0,0,1-1.017-.192.731.731,0,0,1,.193-1.017l1.182-.828a.728.728,0,0,1,1.019.166.726.726,0,0,1-.164,1.019l-1.214.851Zm6.932-5.553a.733.733,0,0,1-1.035-.032.73.73,0,0,1,.032-1.035c.349-.327.69-.676,1.037-1a.732.732,0,0,1,1.037,0,.734.734,0,0,1,0,1.033l-1.071,1.031Zm5.979-6.565a.73.73,0,0,1-1.025.13.735.735,0,0,1-.132-1.025l.871-1.15a.726.726,0,0,1,1.021-.159.732.732,0,0,1,.161,1.021c-.293.4-.6.792-.9,1.184Zm4.887-7.425a.732.732,0,0,1-.993.3.73.73,0,0,1-.291-.993l.676-1.276a.733.733,0,0,1,.987-.315.731.731,0,0,1,.315.985l-.694,1.3Zm3.655-8.09a.734.734,0,0,1-.937.441.733.733,0,0,1-.441-.937l.469-1.36a.733.733,0,0,1,.923-.47.737.737,0,0,1,.471.923l-.485,1.4Zm2.331-8.575a.73.73,0,0,1-.851.586.732.732,0,0,1-.586-.851l.249-1.425a.732.732,0,0,1,.835-.606.729.729,0,0,1,.608.837l-.255,1.459Zm.955-8.833a.731.731,0,0,1-.75.712.727.727,0,0,1-.712-.746l.022-1.445a.733.733,0,0,1,.734-.732.732.732,0,0,1,.73.732l-.024,1.479Zm-.427-8.866a.735.735,0,0,1-.636.817.736.736,0,0,1-.818-.634c-.044-.453-.116-.977-.2-1.423a.731.731,0,0,1,.606-.839.732.732,0,0,1,.837.608c.074.479.158.989.207,1.472ZM812.1-895a.737.737,0,0,1-.492.911.731.731,0,0,1-.909-.495l-.423-1.38a.732.732,0,0,1,.466-.923.729.729,0,0,1,.923.47L812.1-895Zm-3.16-8.3a.732.732,0,0,1-.345.977.731.731,0,0,1-.975-.341l-.636-1.3a.736.736,0,0,1,.317-.987.737.737,0,0,1,.985.319c.227.437.441.883.654,1.328Zm-4.432-7.7a.734.734,0,0,1-.18,1.019.739.739,0,0,1-1.023-.184l-.827-1.182a.729.729,0,0,1,.157-1.023.732.732,0,0,1,1.021.162l.851,1.208Zm-5.575-6.912a.738.738,0,0,1-.028,1.037.735.735,0,0,1-1.035-.026l-1-1.037a.727.727,0,0,1,0-1.032.731.731,0,0,1,1.033,0l1.033,1.058Zm-6.59-5.953a.732.732,0,0,1,.134,1.027.728.728,0,0,1-1.021.135l-1.158-.867a.732.732,0,0,1-.162-1.023.73.73,0,0,1,1.021-.159l1.186.887Zm-7.437-4.853a.731.731,0,0,1,.291.991.735.735,0,0,1-.993.293l-1.266-.67a.73.73,0,0,1-.327-.985.728.728,0,0,1,.981-.325c.426.237.881.461,1.314.7Zm-8.113-3.627a.732.732,0,0,1,.447.935.734.734,0,0,1-.933.447l-1.366-.466a.733.733,0,0,1-.47-.923.729.729,0,0,1,.921-.467q.706.227,1.4.475Zm-8.583-2.3a.73.73,0,0,1,.592.849.73.73,0,0,1-.849.588l-1.424-.241a.732.732,0,0,1-.612-.831.733.733,0,0,1,.833-.614C767.238-934.819,767.724-934.732,768.208-934.644Z" transform="translate(-701.437 935.585)" fill="#d0d9ee" fill-rule="evenodd"/></g><g transform="translate(953.449 -806.031)"><path d="M827.026-901.753a.788.788,0,0,1-.787-.789.788.788,0,0,1,.787-.787l1.593.02a.784.784,0,0,1,.766.805.784.784,0,0,1-.805.768l-1.553-.016Zm-7.04-1.174a.788.788,0,0,1,.875.69.788.788,0,0,1-.688.875c-.514.062-1.029.122-1.541.2a.785.785,0,0,1-.893-.664.789.789,0,0,1,.666-.893c.524-.076,1.053-.141,1.581-.205Zm-9.38,1.844a.782.782,0,0,1,.971.544.787.787,0,0,1-.542.971l-1.487.439a.79.79,0,0,1-.987-.521.783.783,0,0,1,.516-.983c.506-.158,1.019-.307,1.53-.451Zm-8.972,3.3a.783.783,0,0,1,1.045.379.789.789,0,0,1-.379,1.047c-.47.217-.941.439-1.406.67a.791.791,0,0,1-1.056-.357.788.788,0,0,1,.357-1.053l1.44-.686Zm-8.342,4.669a.791.791,0,0,1,1.095.213.786.786,0,0,1-.213,1.091l-1.282.881a.787.787,0,0,1-1.1-.183.786.786,0,0,1,.188-1.1l1.31-.905Zm-7.5,5.919a.789.789,0,0,1,1.113.04.784.784,0,0,1-.042,1.112l-1.126,1.071a.787.787,0,0,1-1.115-.014.789.789,0,0,1,.014-1.113l1.156-1.1Zm-6.488,7.016a.788.788,0,0,1,1.107-.131.791.791,0,0,1,.132,1.107c-.321.4-.634.811-.943,1.226a.793.793,0,0,1-1.1.17.794.794,0,0,1-.166-1.1c.327-.417.642-.849.975-1.266Zm-5.315,7.945a.788.788,0,0,1,1.071-.3.789.789,0,0,1,.3,1.073c-.255.451-.494.905-.74,1.364a.79.79,0,0,1-1.063.333.788.788,0,0,1-.333-1.063c.247-.47.5-.939.761-1.4Zm-4,8.683a.787.787,0,0,1,1.009-.466.782.782,0,0,1,.469,1.007l-.514,1.461a.792.792,0,0,1-1,.5.788.788,0,0,1-.495-1c.185-.487.349-1.009.53-1.505Zm-2.58,9.209a.789.789,0,0,1,.921-.626.789.789,0,0,1,.626.923l-.281,1.527a.785.785,0,0,1-.905.648.788.788,0,0,1-.648-.905l.287-1.567Zm-1.1,9.494a.785.785,0,0,1,.812-.76.785.785,0,0,1,.76.812l-.036,1.553a.784.784,0,0,1-.794.782.791.791,0,0,1-.782-.789c.006-.532.024-1.067.04-1.6Zm.387,9.546a.791.791,0,0,1,.688-.875.788.788,0,0,1,.875.69c.06.513.129,1.027.205,1.541a.788.788,0,0,1-.666.893.794.794,0,0,1-.893-.666c-.076-.526-.149-1.055-.209-1.583Zm1.878,9.379a.786.786,0,0,1,.538-.975.791.791,0,0,1,.975.534c.14.5.285,1,.443,1.491a.789.789,0,0,1-.512.989.789.789,0,0,1-.987-.512c-.163-.506-.309-1.017-.456-1.527Zm3.333,8.958a.781.781,0,0,1,.381-1.045.782.782,0,0,1,1.045.377c.215.468.443.935.67,1.4a.782.782,0,0,1-.347,1.057.785.785,0,0,1-1.057-.349c-.241-.46-.475-.963-.692-1.438Zm4.7,8.32a.788.788,0,0,1,.215-1.091.786.786,0,0,1,1.092.213c.285.427.58.851.881,1.272a.788.788,0,0,1-.177,1.1.791.791,0,0,1-1.1-.175c-.307-.435-.614-.877-.911-1.318Zm5.952,7.487a.785.785,0,0,1,.036-1.11.785.785,0,0,1,1.111.032l1.074,1.123a.785.785,0,0,1-.006,1.113.787.787,0,0,1-1.114-.006c-.371-.377-.736-.761-1.1-1.151Zm7.044,6.464a.788.788,0,0,1-.142-1.1.788.788,0,0,1,1.1-.14c.409.321.819.636,1.236.943a.786.786,0,0,1,.167,1.1.787.787,0,0,1-1.1.165l-1.266-.965Zm7.965,5.285a.79.79,0,0,1-.311-1.073.789.789,0,0,1,1.068-.309l1.37.74a.789.789,0,0,1,.335,1.063.785.785,0,0,1-1.063.331l-1.4-.751Zm8.7,3.965a.785.785,0,0,1-.473-1.006.788.788,0,0,1,1.009-.475l1.466.512a.786.786,0,0,1,.5.995.79.79,0,0,1-.995.5l-1.505-.527Zm9.213,2.546a.79.79,0,0,1-.624-.923.785.785,0,0,1,.919-.624c.509.1,1.027.171,1.527.275a.787.787,0,0,1,.654.9.785.785,0,0,1-.9.654l-1.573-.279Zm9.5,1.063a.788.788,0,0,1-.757-.811.784.784,0,0,1,.812-.762l1.551.032a.789.789,0,0,1,.784.79.791.791,0,0,1-.793.783l-1.6-.032Zm9.551-.424a.787.787,0,0,1-.878-.682.787.787,0,0,1,.68-.879c.512-.064,1.027-.132,1.541-.209a.789.789,0,0,1,.9.656.786.786,0,0,1-.656.9c-.526.082-1.055.151-1.583.217Zm9.367-1.914a.785.785,0,0,1-.977-.534.789.789,0,0,1,.536-.975c.5-.144.995-.3,1.489-.449a.786.786,0,0,1,.989.51.789.789,0,0,1-.51.989c-.509.158-1.017.315-1.527.458Zm8.946-3.365a.785.785,0,0,1-1.045-.377.784.784,0,0,1,.373-1.047c.469-.219.935-.447,1.4-.68a.794.794,0,0,1,1.061.347.789.789,0,0,1-.349,1.059c-.472.239-.951.47-1.436.7Zm8.306-4.733a.788.788,0,0,1-1.094-.208.786.786,0,0,1,.207-1.094l1.274-.891a.787.787,0,0,1,1.1.179.783.783,0,0,1-.175,1.1l-1.308.917Zm7.461-5.977a.788.788,0,0,1-1.114-.034.785.785,0,0,1,.036-1.11c.375-.353.74-.73,1.114-1.079a.793.793,0,0,1,1.115,0,.787.787,0,0,1,0,1.112l-1.151,1.111Zm6.436-7.064a.788.788,0,0,1-1.1.14.787.787,0,0,1-.138-1.107l.931-1.236a.788.788,0,0,1,1.1-.173.787.787,0,0,1,.171,1.1c-.311.428-.638.849-.963,1.276Zm5.258-7.991a.79.79,0,0,1-1.069.317.791.791,0,0,1-.315-1.069l.732-1.372a.786.786,0,0,1,1.061-.341.791.791,0,0,1,.341,1.059l-.75,1.406Zm3.934-8.707a.788.788,0,0,1-1.009.473.788.788,0,0,1-.474-1.007l.506-1.465a.788.788,0,0,1,.991-.5.786.786,0,0,1,.506.989l-.52,1.513Zm2.51-9.229a.792.792,0,0,1-.917.63.787.787,0,0,1-.632-.917l.267-1.531a.792.792,0,0,1,.9-.654.792.792,0,0,1,.654.9l-.275,1.571Zm1.027-9.5a.788.788,0,0,1-.808.768.788.788,0,0,1-.768-.807l.026-1.553a.788.788,0,0,1,.786-.788.787.787,0,0,1,.787.788l-.024,1.593Zm-.46-9.544a.791.791,0,0,1-.682.881.79.79,0,0,1-.879-.682c-.05-.489-.131-1.051-.215-1.535a.783.783,0,0,1,.652-.9.788.788,0,0,1,.9.654c.078.516.17,1.065.222,1.581Zm-1.95-9.363a.787.787,0,0,1-.53.981.791.791,0,0,1-.979-.532l-.454-1.485a.789.789,0,0,1,.5-.993.789.789,0,0,1,.993.506l.466,1.523Zm-3.4-8.934a.79.79,0,0,1-.367,1.051.79.79,0,0,1-1.051-.369l-.684-1.394a.789.789,0,0,1,.341-1.061.791.791,0,0,1,1.061.341c.241.474.473.953.7,1.431Zm-4.763-8.286a.79.79,0,0,1-.2,1.095.793.793,0,0,1-1.1-.2l-.9-1.27a.789.789,0,0,1,.172-1.1.787.787,0,0,1,1.1.173l.919,1.3Zm-6-7.437a.786.786,0,0,1-.026,1.111.79.79,0,0,1-1.116-.026l-1.083-1.115a.793.793,0,0,1,0-1.114.787.787,0,0,1,1.113,0l1.112,1.144Zm-7.09-6.41a.787.787,0,0,1,.146,1.1.784.784,0,0,1-1.1.146l-1.246-.931a.788.788,0,0,1-.173-1.1.785.785,0,0,1,1.1-.171l1.276.955Zm-8.007-5.225a.788.788,0,0,1,.315,1.068.784.784,0,0,1-1.065.315l-1.366-.719a.8.8,0,0,1-.357-1.063.793.793,0,0,1,1.061-.347c.461.255.945.495,1.411.746Zm-8.729-3.9a.79.79,0,0,1,.485,1,.788.788,0,0,1-1.005.48l-1.473-.5a.787.787,0,0,1-.5-.993.783.783,0,0,1,.991-.5c.5.166,1.007.335,1.507.515Zm-9.235-2.478a.787.787,0,0,1,.636.913.789.789,0,0,1-.913.638l-1.533-.261a.791.791,0,0,1-.66-.9.79.79,0,0,1,.9-.658C837.079-902.507,837.6-902.413,838.124-902.319Z" transform="translate(-766.264 903.33)" fill="#d0d9ee" fill-rule="evenodd"/></g><g transform="translate(680.719 -800.62)"><path d="M685.253-899.171a.722.722,0,0,1-.722-.722.722.722,0,0,1,.722-.724l1.461.018a.724.724,0,0,1,.706.742.724.724,0,0,1-.739.7l-1.428-.018Zm-6.464-1.075a.724.724,0,0,1,.8.63.718.718,0,0,1-.63.8q-.709.084-1.414.183a.724.724,0,0,1-.82-.61.722.722,0,0,1,.61-.82c.481-.07.967-.131,1.45-.187Zm-8.609,1.691a.723.723,0,0,1,.891.5.724.724,0,0,1-.5.893l-1.368.4a.722.722,0,0,1-.905-.474.72.72,0,0,1,.476-.9c.467-.148.933-.283,1.4-.415Zm-8.24,3.029a.722.722,0,0,1,.961.349.72.72,0,0,1-.349.959c-.431.2-.863.4-1.288.616a.722.722,0,0,1-.969-.327.725.725,0,0,1,.327-.969l1.318-.628Zm-7.654,4.289a.726.726,0,0,1,1,.2.725.725,0,0,1-.2,1.005l-1.176.807a.723.723,0,0,1-1.009-.172.725.725,0,0,1,.171-1.007l1.206-.829ZM647.4-885.8a.72.72,0,0,1,1.021.038.716.716,0,0,1-.038,1.019l-1.035.983a.725.725,0,0,1-1.021-.012.723.723,0,0,1,.01-1.021L647.4-885.8Zm-5.958,6.442a.722.722,0,0,1,1.015-.124.726.726,0,0,1,.122,1.017c-.3.369-.582.746-.865,1.123a.721.721,0,0,1-1.013.156.721.721,0,0,1-.152-1.011c.3-.383.588-.779.893-1.16Zm-4.879,7.293a.724.724,0,0,1,.983-.281.726.726,0,0,1,.279.985c-.235.415-.456.831-.68,1.252a.72.72,0,0,1-.975.305.722.722,0,0,1-.307-.973c.227-.433.458-.865.7-1.288Zm-3.674,7.971a.728.728,0,0,1,.929-.433.725.725,0,0,1,.428.929l-.472,1.34a.722.722,0,0,1-.913.461.726.726,0,0,1-.459-.917c.172-.447.321-.925.487-1.38Zm-2.369,8.451a.727.727,0,0,1,.847-.574.724.724,0,0,1,.572.848l-.255,1.4a.724.724,0,0,1-.831.594.724.724,0,0,1-.6-.831l.263-1.44Zm-1.009,8.719a.726.726,0,0,1,.746-.7.723.723,0,0,1,.7.744l-.034,1.428a.719.719,0,0,1-.728.718.721.721,0,0,1-.718-.726c0-.488.018-.975.034-1.463Zm.357,8.763a.726.726,0,0,1,.632-.8.723.723,0,0,1,.8.632c.054.473.12.941.185,1.412a.719.719,0,0,1-.61.821.72.72,0,0,1-.818-.61c-.07-.483-.139-.967-.193-1.451Zm1.725,8.611a.726.726,0,0,1,.492-.9.722.722,0,0,1,.9.495c.13.455.265.913.407,1.366a.722.722,0,0,1-.469.907.723.723,0,0,1-.907-.471c-.15-.465-.285-.933-.419-1.4Zm3.058,8.22a.722.722,0,0,1,.349-.959.722.722,0,0,1,.961.347c.2.433.4.857.618,1.284a.722.722,0,0,1-.321.969.721.721,0,0,1-.971-.321c-.221-.423-.435-.881-.636-1.32Zm4.318,7.64a.721.721,0,0,1,.194-1,.725.725,0,0,1,1,.193c.263.395.534.788.812,1.17a.723.723,0,0,1-.164,1.007.719.719,0,0,1-1.009-.16q-.428-.6-.836-1.208Zm5.461,6.873a.722.722,0,0,1,.032-1.021.718.718,0,0,1,1.021.032l.987,1.031a.723.723,0,0,1-.006,1.021.723.723,0,0,1-1.021-.006q-.514-.52-1.013-1.057Zm6.466,5.931a.721.721,0,0,1-.13-1.011.721.721,0,0,1,1.013-.128c.377.291.754.58,1.138.863a.723.723,0,0,1,.152,1.011.721.721,0,0,1-1.011.152l-1.162-.887Zm7.311,4.853a.725.725,0,0,1-.285-.983.727.727,0,0,1,.981-.283l1.258.678a.725.725,0,0,1,.309.975.721.721,0,0,1-.975.3l-1.288-.692Zm7.985,3.641a.72.72,0,0,1-.435-.923.72.72,0,0,1,.925-.435l1.346.471a.721.721,0,0,1,.456.913.723.723,0,0,1-.913.459l-1.38-.484Zm8.458,2.336a.72.72,0,0,1-.574-.845.719.719,0,0,1,.843-.572c.467.09.943.158,1.4.251a.724.724,0,0,1,.6.825.728.728,0,0,1-.829.6l-1.444-.261Zm8.721.975a.722.722,0,0,1-.7-.744.725.725,0,0,1,.746-.7l1.423.028a.725.725,0,0,1,.718.73.724.724,0,0,1-.726.72l-1.463-.034Zm8.769-.387a.726.726,0,0,1-.81-.626.724.724,0,0,1,.626-.807c.473-.058.943-.12,1.414-.2a.727.727,0,0,1,.823.606.722.722,0,0,1-.6.823c-.484.074-.967.137-1.451.2Zm8.6-1.758a.72.72,0,0,1-.9-.491.722.722,0,0,1,.493-.9c.456-.128.911-.271,1.366-.411a.719.719,0,0,1,.907.468.722.722,0,0,1-.47.905c-.467.15-.931.293-1.4.423Zm8.212-3.09a.72.72,0,0,1-.961-.345.72.72,0,0,1,.343-.959c.433-.205.859-.413,1.284-.626a.722.722,0,0,1,.971.319.72.72,0,0,1-.319.971c-.435.219-.875.432-1.318.64Zm7.624-4.346a.72.72,0,0,1-1-.189.721.721,0,0,1,.189-1l1.168-.818a.724.724,0,0,1,1.011.164.727.727,0,0,1-.163,1.009l-1.2.838Zm6.849-5.483a.723.723,0,0,1-1.021-.032.726.726,0,0,1,.03-1.023c.347-.321.682-.668,1.027-.987a.727.727,0,0,1,1.021,0,.722.722,0,0,1,0,1.023l-1.057,1.019Zm5.911-6.49a.724.724,0,0,1-1.015.13.721.721,0,0,1-.127-1.013l.857-1.136a.724.724,0,0,1,1.011-.157.72.72,0,0,1,.157,1.007c-.289.4-.588.784-.883,1.17Zm4.825-7.335a.72.72,0,0,1-.979.293.723.723,0,0,1-.291-.981l.672-1.258a.721.721,0,0,1,.971-.315.724.724,0,0,1,.315.975l-.688,1.286Zm3.611-7.993a.725.725,0,0,1-.927.437.723.723,0,0,1-.435-.925l.465-1.346a.721.721,0,0,1,.911-.461.722.722,0,0,1,.465.907l-.479,1.388Zm2.3-8.471a.721.721,0,0,1-.841.578.721.721,0,0,1-.578-.84l.245-1.408a.725.725,0,0,1,.827-.6.721.721,0,0,1,.6.825l-.253,1.442Zm.943-8.723a.721.721,0,0,1-.742.7.72.72,0,0,1-.7-.742l.022-1.426a.725.725,0,0,1,.724-.724.725.725,0,0,1,.724.724l-.026,1.464Zm-.421-8.763a.726.726,0,0,1-.626.809.727.727,0,0,1-.809-.628c-.044-.447-.117-.963-.2-1.408a.721.721,0,0,1,.6-.825.719.719,0,0,1,.828.6c.074.476.155.977.205,1.453Zm-1.79-8.6a.725.725,0,0,1-.487.9.722.722,0,0,1-.9-.485L737-861.47a.72.72,0,0,1,.462-.909.721.721,0,0,1,.911.463l.429,1.4Zm-3.122-8.2a.723.723,0,0,1-.339.963.721.721,0,0,1-.965-.335l-.628-1.282a.726.726,0,0,1,.313-.975.723.723,0,0,1,.973.315c.223.433.435.873.646,1.314Zm-4.376-7.608a.724.724,0,0,1-.184,1.007.723.723,0,0,1-1-.181l-.821-1.168a.723.723,0,0,1,.158-1.009.721.721,0,0,1,1.009.157l.844,1.194Zm-5.511-6.828a.723.723,0,0,1-.026,1.023.719.719,0,0,1-1.021-.024l-.995-1.025a.723.723,0,0,1,0-1.021.722.722,0,0,1,1.023,0l1.019,1.047Zm-6.51-5.884a.728.728,0,0,1,.136,1.017.728.728,0,0,1-1.015.134l-1.142-.857a.726.726,0,0,1-.158-1.011.721.721,0,0,1,1.009-.157l1.17.875Zm-7.347-4.793a.725.725,0,0,1,.289.979.724.724,0,0,1-.981.289l-1.252-.664a.721.721,0,0,1-.325-.971.725.725,0,0,1,.971-.321c.423.237.869.455,1.3.688Zm-8.013-3.583a.724.724,0,0,1,.441.921.719.719,0,0,1-.921.441l-1.352-.457a.726.726,0,0,1-.464-.911.724.724,0,0,1,.911-.465c.463.151.925.307,1.386.471Zm-8.481-2.271a.723.723,0,0,1,.586.837.725.725,0,0,1-.839.584l-1.408-.239a.726.726,0,0,1-.6-.824.722.722,0,0,1,.826-.6C694.48-899.86,694.961-899.775,695.439-899.687Z" transform="translate(-629.473 900.616)" fill="#d0d9ee" fill-rule="evenodd"/></g><g transform="translate(891.187 -957.433)"><path d="M753.71-977.9a.683.683,0,0,1-.684-.686.682.682,0,0,1,.684-.684c.479,0,.939.02,1.411.052a.681.681,0,0,1,.636.73.682.682,0,0,1-.73.638c-.443-.03-.873-.048-1.318-.05Zm-5.495-.552a.687.687,0,0,1,.859.451.686.686,0,0,1-.451.857c-.419.126-.837.273-1.246.433a.685.685,0,0,1-.887-.387.686.686,0,0,1,.387-.887c.434-.172.889-.333,1.338-.467Zm-7.311,4.235a.686.686,0,0,1,.969.032.684.684,0,0,1-.03.967c-.323.3-.624.612-.927.933a.688.688,0,0,1-.965.048.686.686,0,0,1-.048-.969c.325-.347.654-.686,1-1.011Zm-4.715,7.012a.681.681,0,0,1,.881-.395.683.683,0,0,1,.4.881c-.156.411-.3.823-.423,1.244a.683.683,0,0,1-.847.467.687.687,0,0,1-.467-.849c.142-.458.287-.9.457-1.348Zm-1.151,8.374a.686.686,0,0,1,.618-.746.684.684,0,0,1,.744.62,12.922,12.922,0,0,0,.168,1.3.686.686,0,0,1-.558.791.685.685,0,0,1-.792-.558c-.082-.455-.14-.951-.179-1.412Zm2.638,8.031a.686.686,0,0,1,.227-.943.686.686,0,0,1,.943.229c.225.373.467.744.724,1.1a.681.681,0,0,1-.155.951.683.683,0,0,1-.955-.156c-.277-.387-.536-.775-.784-1.182Zm5.9,6.051a.685.685,0,0,1-.205-.945.682.682,0,0,1,.945-.207c.377.245.75.443,1.132.672a.681.681,0,0,1,.279.925.684.684,0,0,1-.927.279c-.409-.215-.835-.471-1.224-.724Zm7.957,2.849a.684.684,0,0,1-.6-.76.684.684,0,0,1,.758-.6c.437.052.875.084,1.312.1a.686.686,0,0,1,.66.712.683.683,0,0,1-.712.656c-.47-.02-.949-.052-1.416-.11Zm8.4-.931a.681.681,0,0,1-.871-.421.677.677,0,0,1,.419-.869,13.094,13.094,0,0,0,1.222-.484.692.692,0,0,1,.905.349.689.689,0,0,1-.351.9,12.969,12.969,0,0,1-1.324.522Zm7.136-4.534a.683.683,0,0,1-.965.012.687.687,0,0,1-.012-.969c.311-.315.6-.636.889-.971a.688.688,0,0,1,.967-.082.689.689,0,0,1,.078.965c-.307.359-.622.708-.957,1.045Zm4.428-7.2a.685.685,0,0,1-.865.435.68.68,0,0,1-.434-.863c.137-.419.263-.838.371-1.268a.688.688,0,0,1,.829-.5.687.687,0,0,1,.5.833c-.118.461-.249.909-.4,1.36Zm.806-8.41a.681.681,0,0,1-.586.768.68.68,0,0,1-.768-.586c-.06-.439-.132-.867-.223-1.3a.685.685,0,0,1,.532-.811.68.68,0,0,1,.807.528c.1.456.179.933.237,1.4Zm-2.965-7.915a.683.683,0,0,1-.187.949.688.688,0,0,1-.951-.187c-.239-.365-.5-.724-.768-1.069a.684.684,0,0,1,.114-.963.691.691,0,0,1,.963.118c.289.371.572.762.83,1.153Zm-6.137-5.806a.687.687,0,0,1,.245.935.686.686,0,0,1-.939.245c-.379-.221-.766-.429-1.162-.626a.68.68,0,0,1-.309-.915.686.686,0,0,1,.917-.313C762.369-977.15,762.78-976.935,763.195-976.693Z" transform="translate(-735.035 979.267)" fill="#d0d9ee" fill-rule="evenodd"/></g><g transform="translate(671.481 -849.661)"><path d="M643.512-923.843a.684.684,0,0,1-.684-.686.684.684,0,0,1,.684-.684c.477,0,.939.022,1.414.054a.681.681,0,0,1,.638.73.687.687,0,0,1-.73.636c-.447-.03-.875-.048-1.322-.05Zm-5.491-.552a.686.686,0,0,1,.855.451.683.683,0,0,1-.448.857c-.419.124-.838.275-1.246.433a.684.684,0,0,1-.887-.387.685.685,0,0,1,.385-.887c.437-.171.893-.331,1.342-.467Zm-7.313,4.235a.683.683,0,0,1,.969.034.682.682,0,0,1-.032.965c-.321.3-.622.61-.925.931a.68.68,0,0,1-.965.046.682.682,0,0,1-.048-.965c.325-.347.654-.686,1-1.011Zm-4.717,7.012a.684.684,0,0,1,.885-.395.683.683,0,0,1,.4.881c-.156.413-.3.823-.423,1.244a.688.688,0,0,1-.85.467.686.686,0,0,1-.464-.849c.141-.458.287-.9.454-1.348Zm-1.148,8.374a.682.682,0,0,1,.618-.744.686.686,0,0,1,.746.618,12.325,12.325,0,0,0,.165,1.3.687.687,0,0,1-.56.792.686.686,0,0,1-.79-.56c-.084-.452-.142-.949-.18-1.409Zm2.638,8.031a.688.688,0,0,1,.227-.945.688.688,0,0,1,.941.227c.225.375.469.748.726,1.1a.685.685,0,0,1-.158.955.683.683,0,0,1-.955-.156c-.275-.387-.534-.778-.781-1.182Zm5.9,6.051a.686.686,0,0,1-.207-.949.686.686,0,0,1,.945-.2c.375.245.75.443,1.131.672a.684.684,0,0,1,.281.925.685.685,0,0,1-.927.279c-.411-.215-.835-.469-1.222-.724Zm7.955,2.849a.687.687,0,0,1-.6-.76.683.683,0,0,1,.758-.6c.437.052.875.082,1.312.1a.685.685,0,0,1,.658.71.687.687,0,0,1-.71.66c-.471-.022-.949-.056-1.416-.112Zm8.4-.931a.684.684,0,0,1-.873-.421.682.682,0,0,1,.418-.871c.4-.126.834-.317,1.222-.483a.685.685,0,0,1,.9.351.686.686,0,0,1-.347.9,13.39,13.39,0,0,1-1.324.522Zm7.134-4.532a.685.685,0,0,1-.967.008.684.684,0,0,1-.012-.967c.313-.315.6-.638.891-.971a.685.685,0,0,1,.965-.082.683.683,0,0,1,.08.963c-.309.361-.622.71-.957,1.049Zm4.426-7.2a.682.682,0,0,1-.863.435.683.683,0,0,1-.435-.863c.138-.419.263-.837.371-1.268a.684.684,0,0,1,.83-.495.685.685,0,0,1,.5.831c-.118.461-.249.911-.4,1.36Zm.808-8.41a.682.682,0,0,1-.588.768.683.683,0,0,1-.768-.588c-.058-.435-.13-.865-.219-1.3a.684.684,0,0,1,.526-.812.682.682,0,0,1,.812.529c.1.458.175.933.237,1.4Zm-2.965-7.915a.684.684,0,0,1-.19.949.685.685,0,0,1-.949-.19c-.239-.365-.5-.722-.767-1.066a.687.687,0,0,1,.114-.963.685.685,0,0,1,.961.118c.291.371.574.76.831,1.152ZM653-922.641a.683.683,0,0,1,.245.937.683.683,0,0,1-.935.245c-.381-.225-.766-.428-1.162-.624a.683.683,0,0,1-.311-.917.682.682,0,0,1,.913-.313C652.173-923.1,652.586-922.882,653-922.641Z" transform="translate(-624.839 925.213)" fill="#d0d9ee" fill-rule="evenodd"/></g><g transform="translate(844.532 -725.924)"><path d="M730.308-861.781a.686.686,0,0,1-.684-.686.685.685,0,0,1,.684-.684c.479,0,.939.02,1.416.054a.68.68,0,0,1,.636.726.691.691,0,0,1-.73.64c-.445-.03-.875-.048-1.322-.05Zm-5.491-.552a.687.687,0,0,1,.857.449.688.688,0,0,1-.451.859c-.421.122-.839.273-1.246.433a.685.685,0,0,1-.887-.387.687.687,0,0,1,.385-.887c.435-.172.893-.333,1.342-.467ZM717.5-858.1a.684.684,0,0,1,.969.032.684.684,0,0,1-.03.967c-.323.3-.626.61-.927.931a.684.684,0,0,1-.967.046.686.686,0,0,1-.046-.965c.325-.349.654-.686,1-1.011Zm-4.717,7.012a.686.686,0,0,1,.883-.4.685.685,0,0,1,.4.885c-.153.413-.3.824-.421,1.244a.686.686,0,0,1-.847.467.687.687,0,0,1-.467-.849c.142-.458.287-.9.455-1.348Zm-1.148,8.374a.685.685,0,0,1,.618-.746.684.684,0,0,1,.743.62,12.9,12.9,0,0,0,.168,1.3.689.689,0,0,1-.56.792.688.688,0,0,1-.789-.561c-.082-.453-.141-.949-.179-1.41Zm2.64,8.029a.684.684,0,0,1,.225-.943.688.688,0,0,1,.941.227c.225.375.469.748.724,1.1a.683.683,0,0,1-.154.955.686.686,0,0,1-.957-.156c-.275-.389-.534-.78-.779-1.184Zm5.9,6.053a.688.688,0,0,1-.207-.949.685.685,0,0,1,.945-.2c.375.245.751.443,1.132.672a.683.683,0,0,1,.277.925.683.683,0,0,1-.925.277c-.411-.218-.835-.469-1.222-.722Zm7.955,2.849a.688.688,0,0,1-.6-.76.681.681,0,0,1,.758-.6c.435.052.875.082,1.312.1a.684.684,0,0,1,.658.71.685.685,0,0,1-.71.656c-.47-.018-.949-.052-1.415-.108Zm8.4-.931a.687.687,0,0,1-.871-.421.684.684,0,0,1,.419-.873c.4-.126.833-.315,1.222-.481a.686.686,0,0,1,.9.347.687.687,0,0,1-.347.905c-.413.178-.9.387-1.326.522Zm7.135-4.534a.683.683,0,0,1-.967.01.686.686,0,0,1-.012-.967c.313-.315.6-.638.893-.971a.681.681,0,0,1,.963-.082.683.683,0,0,1,.08.963c-.309.361-.622.71-.957,1.047Zm4.428-7.2a.685.685,0,0,1-.865.435.682.682,0,0,1-.435-.863c.139-.419.263-.84.369-1.268a.691.691,0,0,1,.833-.5.686.686,0,0,1,.495.833c-.116.46-.247.909-.4,1.36Zm.805-8.412a.682.682,0,0,1-.588.77.686.686,0,0,1-.768-.588c-.058-.436-.13-.865-.22-1.3a.683.683,0,0,1,.528-.812.684.684,0,0,1,.811.528c.1.457.176.933.235,1.4Zm-2.963-7.913a.688.688,0,0,1-.19.949.686.686,0,0,1-.951-.189c-.239-.365-.5-.722-.77-1.067a.689.689,0,0,1,.116-.963.688.688,0,0,1,.963.118c.289.367.572.758.832,1.152Zm-6.141-5.808a.684.684,0,0,1,.245.937.685.685,0,0,1-.937.245c-.379-.225-.764-.428-1.158-.626a.683.683,0,0,1-.315-.915.69.69,0,0,1,.917-.315C738.969-861.038,739.382-860.822,739.793-860.579Z" transform="translate(-711.635 863.151)" fill="#d0d9ee" fill-rule="evenodd"/></g><g transform="translate(1086.627 -849.661)"><path d="M851.733-923.843a.682.682,0,0,1-.682-.686.682.682,0,0,1,.682-.684c.476,0,.941.022,1.414.054a.679.679,0,0,1,.636.73.686.686,0,0,1-.73.636c-.445-.03-.873-.048-1.32-.05Zm-5.493-.552a.69.69,0,0,1,.859.451.688.688,0,0,1-.451.857c-.421.124-.841.275-1.246.433a.684.684,0,0,1-.887-.387.684.684,0,0,1,.385-.887c.435-.171.891-.331,1.34-.467Zm-7.311,4.235a.68.68,0,0,1,.967.034.68.68,0,0,1-.03.965c-.321.3-.624.61-.925.931a.682.682,0,0,1-.967.046.684.684,0,0,1-.046-.965c.327-.347.654-.686,1-1.011Zm-4.717,7.012a.683.683,0,0,1,.885-.395.686.686,0,0,1,.4.881c-.158.413-.3.823-.423,1.244a.688.688,0,0,1-.849.467.686.686,0,0,1-.466-.849c.145-.458.287-.9.457-1.348Zm-1.148,8.374a.681.681,0,0,1,.618-.744.681.681,0,0,1,.744.618,12.345,12.345,0,0,0,.168,1.3.692.692,0,0,1-.562.792.687.687,0,0,1-.79-.56c-.082-.452-.139-.949-.177-1.409Zm2.638,8.031a.688.688,0,0,1,.225-.945.69.69,0,0,1,.943.227c.223.375.469.748.726,1.1a.686.686,0,0,1-.158.955.683.683,0,0,1-.955-.156c-.277-.387-.534-.778-.782-1.182Zm5.9,6.051a.69.69,0,0,1-.207-.949.687.687,0,0,1,.945-.2c.377.245.752.443,1.133.672a.686.686,0,0,1,.281.925.687.687,0,0,1-.929.279c-.407-.215-.833-.469-1.222-.724Zm7.957,2.849a.687.687,0,0,1-.6-.76.686.686,0,0,1,.758-.6c.439.052.875.082,1.314.1a.683.683,0,0,1,.656.71.686.686,0,0,1-.708.66c-.471-.022-.949-.056-1.416-.112Zm8.4-.931a.685.685,0,0,1-.873-.421.683.683,0,0,1,.42-.871c.4-.126.831-.317,1.222-.483a.683.683,0,0,1,.9.351.682.682,0,0,1-.347.9,13.19,13.19,0,0,1-1.324.522Zm7.136-4.532a.685.685,0,0,1-.967.008.682.682,0,0,1-.012-.967c.311-.315.6-.638.891-.971a.685.685,0,0,1,.965-.082.687.687,0,0,1,.08.963c-.309.361-.622.71-.957,1.049Zm4.428-7.2a.686.686,0,0,1-.865.435.682.682,0,0,1-.437-.863c.139-.419.265-.837.373-1.268a.683.683,0,0,1,.829-.495.684.684,0,0,1,.5.831c-.118.461-.249.911-.4,1.36Zm.806-8.41a.682.682,0,0,1-.589.768.68.68,0,0,1-.768-.588c-.058-.435-.131-.865-.221-1.3a.685.685,0,0,1,.528-.812.683.683,0,0,1,.812.529c.1.458.175.933.237,1.4Zm-2.967-7.915a.685.685,0,0,1-.185.949.689.689,0,0,1-.953-.19c-.24-.365-.5-.722-.768-1.066a.688.688,0,0,1,.114-.963.69.69,0,0,1,.965.118c.287.371.57.76.827,1.152Zm-6.135-5.808a.686.686,0,0,1,.243.937.686.686,0,0,1-.937.245c-.381-.225-.766-.428-1.162-.624a.683.683,0,0,1-.309-.917.682.682,0,0,1,.913-.313C860.394-923.1,860.805-922.882,861.22-922.641Z" transform="translate(-833.061 925.213)" fill="#d0d9ee" fill-rule="evenodd"/></g><g transform="translate(767.286 -770.656)"><path d="M672.892-885.587l135.932,2.9,4.676,96.832-138.61,4.513Z" transform="translate(-672.892 885.587)" fill="#7fc733" fill-rule="evenodd"/></g><g transform="translate(774.872 -766.401)"><path d="M676.7-883.453l1.769,92.332,126.849-4.127-4.13-85.552Z" transform="translate(-676.696 883.453)" fill="#6836bf" fill-rule="evenodd"/></g><g transform="translate(756.864 -770.656)"><path d="M679.967-787.424l-12.3.12,10.421-98.283Z" transform="translate(-667.665 885.587)" fill="#99a9d4" fill-rule="evenodd"/></g><g transform="translate(793.989 -779.044)"><path d="M768.524-879.083a19.594,19.594,0,0,1,1.5-6.1c.919-1.95,2.311-3.392,4.376-3.392,1.846,0,3.429,1.392,4.49,3.643a17.937,17.937,0,0,1,1.473,7.449,17.953,17.953,0,0,1-1.473,7.451c-1.061,2.251-2.644,3.643-4.49,3.643a1.394,1.394,0,0,1-1.394-1.4,1.392,1.392,0,0,1,1.394-1.392c.674,0,1.38-.782,1.974-2.039a15.148,15.148,0,0,0,1.2-6.266,15.123,15.123,0,0,0-1.2-6.264c-.594-1.26-1.3-2.038-1.974-2.038-.756,0-1.376.76-1.862,1.791a16.207,16.207,0,0,0-1.228,4.978l-2.789-.062Zm-82.239-1.75a18.924,18.924,0,0,1,1.445-5.569c.919-1.95,2.311-3.391,4.376-3.391,1.848,0,3.429,1.392,4.49,3.643a17.926,17.926,0,0,1,1.475,7.447,17.963,17.963,0,0,1-1.475,7.453c-1.061,2.251-2.642,3.641-4.49,3.641a1.4,1.4,0,0,1-1.394-1.4,1.4,1.4,0,0,1,1.394-1.394c.676,0,1.382-.777,1.976-2.04a15.15,15.15,0,0,0,1.2-6.264,15.149,15.149,0,0,0-1.2-6.263c-.594-1.26-1.3-2.039-1.976-2.039-.756,0-1.376.762-1.86,1.788a15.588,15.588,0,0,0-1.168,4.442l-2.793-.058Zm27.375.584a19.668,19.668,0,0,1,1.5-6.119c.921-1.95,2.315-3.391,4.378-3.391,1.848,0,3.429,1.39,4.49,3.641a17.933,17.933,0,0,1,1.475,7.449,17.943,17.943,0,0,1-1.475,7.451c-1.061,2.251-2.642,3.643-4.49,3.643a1.394,1.394,0,0,1-1.394-1.4,1.393,1.393,0,0,1,1.394-1.391c.674,0,1.381-.782,1.976-2.04a15.212,15.212,0,0,0,1.2-6.267,15.173,15.173,0,0,0-1.2-6.26c-.594-1.262-1.3-2.044-1.976-2.044-.756,0-1.376.762-1.862,1.792a16.3,16.3,0,0,0-1.23,4.99l-2.787-.058Zm27.432.582a19.681,19.681,0,0,1,1.5-6.111c.919-1.95,2.313-3.391,4.378-3.391,1.848,0,3.429,1.392,4.49,3.643a17.961,17.961,0,0,1,1.476,7.449,17.978,17.978,0,0,1-1.476,7.451c-1.06,2.247-2.642,3.641-4.49,3.641a1.394,1.394,0,0,1-1.394-1.4,1.393,1.393,0,0,1,1.394-1.391c.674,0,1.382-.78,1.974-2.042a15.151,15.151,0,0,0,1.2-6.263,15.159,15.159,0,0,0-1.2-6.264c-.592-1.26-1.3-2.04-1.974-2.04-.756,0-1.376.762-1.862,1.788a16.328,16.328,0,0,0-1.228,4.987Z" transform="translate(-686.285 889.794)" fill="#99a9d4" fill-rule="evenodd"/></g><g transform="translate(788.881 -744.534)"><path d="M684.479-872.485q5.4.063,10.818.112a.791.791,0,0,1,.777.786q.042,5.823.094,11.654a.769.769,0,0,1-.78.762c-3.631-.008-7.275-.02-10.9-.032a.779.779,0,0,1-.766-.786V-871.72a.75.75,0,0,1,.755-.765Zm.01,20.974H695.44a.784.784,0,0,1,.788.768q.042,5.832.084,11.654a.781.781,0,0,1-.78.774c-3.683.024-7.367.054-11.031.08a.772.772,0,0,1-.778-.778v-11.723a.766.766,0,0,1,.766-.773Zm87.868-.018h10.95a.814.814,0,0,1,.829.724q.332,5.568.676,11.135a.728.728,0,0,1-.758.742c-3.674.018-7.359.052-11.034.076a.8.8,0,0,1-.817-.734c-.2-3.734-.4-7.475-.594-11.207a.717.717,0,0,1,.748-.736Zm-17.575.006q5.467,0,10.952-.006a.815.815,0,0,1,.819.742q.275,5.614.552,11.235a.729.729,0,0,1-.758.744l-11.033.078a.8.8,0,0,1-.818-.74q-.236-5.649-.472-11.31a.734.734,0,0,1,.758-.742Zm-17.571,0h10.95a.8.8,0,0,1,.809.748q.221,5.664.439,11.336a.741.741,0,0,1-.768.752q-5.524.045-11.034.08a.8.8,0,0,1-.8-.748q-.179-5.709-.357-11.418a.74.74,0,0,1,.758-.75Zm-17.575.006h10.952a.793.793,0,0,1,.8.75c.1,3.818.215,7.636.317,11.445a.759.759,0,0,1-.758.759q-5.526.036-11.033.076a.79.79,0,0,1-.807-.75c-.074-3.838-.162-7.68-.237-11.524a.756.756,0,0,1,.768-.756Zm-17.571.006q5.464,0,10.95-.006a.794.794,0,0,1,.8.762c.064,3.85.14,7.7.2,11.55a.767.767,0,0,1-.778.762c-3.684.026-7.369.056-11.031.078a.778.778,0,0,1-.8-.758c-.036-3.87-.086-7.746-.122-11.626a.768.768,0,0,1,.778-.762ZM684.5-830.54q5.527-.057,11.085-.12a.783.783,0,0,1,.8.762q.039,5.823.082,11.662a.782.782,0,0,1-.789.769q-5.587.1-11.165.2a.762.762,0,0,1-.787-.756V-829.76a.776.776,0,0,1,.778-.78Zm88.918-.949q5.542-.054,11.086-.122a.806.806,0,0,1,.837.718q.335,5.568.676,11.141a.722.722,0,0,1-.748.742l-11.165.191a.813.813,0,0,1-.849-.718q-.3-5.6-.594-11.211a.739.739,0,0,1,.758-.742Zm-17.788.187q5.542-.057,11.085-.115a.8.8,0,0,1,.829.724c.184,3.756.357,7.5.552,11.245a.723.723,0,0,1-.748.748q-5.587.092-11.165.193a.806.806,0,0,1-.839-.724q-.236-5.658-.473-11.316a.748.748,0,0,1,.758-.754Zm-17.777.194q5.527-.054,11.074-.12a.793.793,0,0,1,.819.738q.218,5.67.439,11.345a.739.739,0,0,1-.758.754q-5.586.093-11.165.193a.786.786,0,0,1-.817-.73q-.183-5.706-.361-11.422a.762.762,0,0,1,.769-.758Zm-17.778.189q5.527-.057,11.075-.118a.791.791,0,0,1,.808.74q.152,5.727.317,11.452a.754.754,0,0,1-.758.762l-11.165.194a.783.783,0,0,1-.819-.742q-.122-5.757-.235-11.52a.767.767,0,0,1,.778-.768Zm-17.789.187,11.085-.114a.777.777,0,0,1,.8.75q.1,5.775.205,11.554a.771.771,0,0,1-.777.77l-11.167.192a.776.776,0,0,1-.808-.744q-.057-5.82-.124-11.628a.785.785,0,0,1,.788-.78Zm69-40.84q5.4.048,10.816.11a.831.831,0,0,1,.829.74q.347,5.569.676,11.135a.715.715,0,0,1-.748.736q-5.449-.021-10.9-.032a.818.818,0,0,1-.817-.748c-.2-3.738-.383-7.475-.584-11.213a.693.693,0,0,1,.728-.728Zm-17.37-.184c3.6.036,7.217.074,10.818.112a.825.825,0,0,1,.819.756c.184,3.744.379,7.493.562,11.239a.718.718,0,0,1-.748.736q-5.464-.021-10.91-.038a.811.811,0,0,1-.81-.752c-.155-3.772-.3-7.546-.47-11.311a.719.719,0,0,1,.738-.742Zm-17.358-.181c3.593.038,7.206.072,10.818.108a.818.818,0,0,1,.807.766q.221,5.673.441,11.344a.73.73,0,0,1-.757.74c-3.633-.016-7.275-.024-10.9-.038a.807.807,0,0,1-.8-.756c-.12-3.806-.227-7.616-.347-11.418a.719.719,0,0,1,.736-.746Zm-17.36-.183,10.82.112a.807.807,0,0,1,.788.767q.168,5.727.327,11.45a.743.743,0,0,1-.756.75c-3.635-.012-7.279-.024-10.9-.038a.8.8,0,0,1-.8-.768q-.107-5.757-.235-11.52a.744.744,0,0,1,.756-.754Zm-17.358-.181c3.595.038,7.207.076,10.818.109a.812.812,0,0,1,.791.776c.064,3.852.138,7.706.2,11.552a.753.753,0,0,1-.765.76q-5.467-.018-10.91-.042a.777.777,0,0,1-.777-.77q-.057-5.811-.124-11.628A.752.752,0,0,1,701.846-872.3Z" transform="translate(-683.723 872.485)" fill="#fff" fill-rule="evenodd"/></g><g transform="translate(1041.486 -884.353)"><path d="M861.594-872.592a18.858,18.858,0,0,1-18.849-18.855,18.827,18.827,0,0,1,18.849-18.843,18.828,18.828,0,0,1,18.847,18.843,18.858,18.858,0,0,1-18.847,18.855Zm40.779-18.855a14.343,14.343,0,0,1,10.388-13.815,52.294,52.294,0,0,0-5.242-12.608,14.368,14.368,0,0,1-17-2.333l-.1-.106-.1-.133h-.036c-.447-.443-.919-.9-1.366-1.33.365.337.781.712,1.162,1.085a14.253,14.253,0,0,1-2.087-16.686,51.791,51.791,0,0,0-12.589-5.24,14.4,14.4,0,0,1-13.807,10.38,14.4,14.4,0,0,1-13.813-10.38,52.681,52.681,0,0,0-12.615,5.24,14.255,14.255,0,0,1-2.187,16.829l1.156-1.1c-.439.447-.917.9-1.372,1.34l-.227.25a14.391,14.391,0,0,1-16.871,2.189,52.309,52.309,0,0,0-5.245,12.608,14.373,14.373,0,0,1,10.389,13.815A14.324,14.324,0,0,1,810.42-877.67a52.37,52.37,0,0,0,5.245,12.617,14.389,14.389,0,0,1,16.975,2.291l.094.143.106.068a14.315,14.315,0,0,1,2.327,16.993,52.661,52.661,0,0,0,12.615,5.238A14.44,14.44,0,0,1,861.046-850.7h1.1A14.427,14.427,0,0,1,875.4-840.32a51.771,51.771,0,0,0,12.589-5.238,14.394,14.394,0,0,1,2.255-16.9l.036-.032.313-.305a14.348,14.348,0,0,1,16.925-2.263,53.406,53.406,0,0,0,5.242-12.617A14.324,14.324,0,0,1,902.373-891.447Z" transform="translate(-810.42 942.613)" fill="#7fc733" fill-rule="evenodd"/></g><g transform="translate(1073.812 -852.03)"><path d="M845.482-893.2a14.351,14.351,0,0,1-14.363-14.357,14.333,14.333,0,0,1,14.363-14.363,14.33,14.33,0,0,1,14.355,14.363A14.348,14.348,0,0,1,845.482-893.2Zm0-33.2a18.824,18.824,0,0,0-18.849,18.843A18.86,18.86,0,0,0,845.482-888.7a18.861,18.861,0,0,0,18.847-18.855A18.825,18.825,0,0,0,845.482-926.4Z" transform="translate(-826.633 926.401)" fill="#f2f2f3" fill-rule="evenodd"/></g><g transform="translate(1063.604 -863.512)"><path d="M821.711-930.7l-.2.25.227-.25Zm.245-.235,1.156-1.1c-.439.447-.917.9-1.372,1.34l.215-.235Zm28.071,69.848.544.024.55-.024Zm29.027-69.992c-.381-.373-.8-.748-1.162-1.085.447.431.919.887,1.366,1.33Z" transform="translate(-821.513 932.16)" fill="#bac1c2" fill-rule="evenodd"/></g><g transform="translate(1051.876 -873.965)"><path d="M856.416-866.772a29.848,29.848,0,0,1-29.869-29.853A29.87,29.87,0,0,1,856.416-926.5a29.878,29.878,0,0,1,29.871,29.877,29.858,29.858,0,0,1-29.871,29.853Zm28.924-58.609-.092-.082-.116-.14a40.676,40.676,0,0,0-28.716-11.8,40.647,40.647,0,0,0-28.846,11.941,40.676,40.676,0,0,0-11.939,28.838,40.676,40.676,0,0,0,11.813,28.711l.125.1.092.088a40.613,40.613,0,0,0,28.754,11.873,40.593,40.593,0,0,0,28.663-11.781l.036-.04.133-.14.14-.13.036-.02a40.7,40.7,0,0,0,11.763-28.665A40.746,40.746,0,0,0,885.339-925.38Z" transform="translate(-815.631 937.403)" fill="#6836bf" fill-rule="evenodd"/></g><g transform="translate(1073.812 -852.03)"><path d="M845.482-893.2a14.351,14.351,0,0,1-14.363-14.357,14.333,14.333,0,0,1,14.363-14.363,14.33,14.33,0,0,1,14.355,14.363A14.348,14.348,0,0,1,845.482-893.2Zm0-33.2a18.824,18.824,0,0,0-18.849,18.843A18.86,18.86,0,0,0,845.482-888.7a18.861,18.861,0,0,0,18.847-18.855A18.825,18.825,0,0,0,845.482-926.4Z" transform="translate(-826.633 926.401)" fill="#fff" fill-rule="evenodd"/></g><g transform="translate(1045.253 -995.787)"><path d="M818.418-954.84a37.554,37.554,0,0,1,37.553-37.549V-998.5a43.711,43.711,0,0,0-43.662,43.664,43.712,43.712,0,0,0,43.662,43.664v-6.115A37.554,37.554,0,0,1,818.418-954.84Z" transform="translate(-812.309 998.504)" fill="#7fc733" fill-rule="evenodd"/></g><g transform="translate(1051.362 -989.672)"><path d="M815.373-957.888a37.554,37.554,0,0,0,37.553,37.549v-6.107a31.478,31.478,0,0,1-31.436-31.442,31.474,31.474,0,0,1,31.436-31.438v-6.111A37.554,37.554,0,0,0,815.373-957.888Z" transform="translate(-815.373 995.437)" fill="#fff" fill-rule="evenodd"/></g><g transform="translate(1057.479 -983.561)"><path d="M824.556-960.934a25.351,25.351,0,0,1,25.321-25.325v-6.113a31.474,31.474,0,0,0-31.436,31.438,31.478,31.478,0,0,0,31.436,31.442v-6.119A25.35,25.35,0,0,1,824.556-960.934Z" transform="translate(-818.441 992.372)" fill="#7fc733" fill-rule="evenodd"/></g><g transform="translate(1063.594 -977.448)"><path d="M821.508-963.981a25.35,25.35,0,0,0,25.321,25.323v-6.109a19.239,19.239,0,0,1-19.212-19.214A19.237,19.237,0,0,1,846.829-983.2v-6.111A25.351,25.351,0,0,0,821.508-963.981Z" transform="translate(-821.508 989.306)" fill="#fff" fill-rule="evenodd"/></g><g transform="translate(1069.703 -971.337)"><path d="M830.687-967.027a13.114,13.114,0,0,1,13.1-13.1v-6.115a19.237,19.237,0,0,0-19.212,19.214,19.239,19.239,0,0,0,19.212,19.214v-6.111A13.116,13.116,0,0,1,830.687-967.027Z" transform="translate(-824.572 986.241)" fill="#7fc733" fill-rule="evenodd"/></g><g transform="translate(1075.818 -965.222)"><path d="M827.639-970.075a13.116,13.116,0,0,0,13.1,13.1v-6.115a6.989,6.989,0,0,1-6.982-6.988,6.988,6.988,0,0,1,6.982-6.984v-6.115A13.114,13.114,0,0,0,827.639-970.075Z" transform="translate(-827.639 983.174)" fill="#fff" fill-rule="evenodd"/></g><g transform="translate(1081.932 -959.108)"><path d="M830.706-973.123a6.989,6.989,0,0,0,6.982,6.988v-13.972A6.988,6.988,0,0,0,830.706-973.123Z" transform="translate(-830.706 980.107)" fill="#7fc733" fill-rule="evenodd"/></g><g transform="translate(1088.914 -995.787)"><path d="M834.208-998.5v6.115a37.547,37.547,0,0,1,37.549,37.549,37.547,37.547,0,0,1-37.549,37.549v6.115a43.711,43.711,0,0,0,43.664-43.664A43.71,43.71,0,0,0,834.208-998.5Z" transform="translate(-834.208 998.504)" fill="#7fc733" fill-rule="evenodd"/></g><g transform="translate(1088.914 -989.672)"><path d="M865.648-957.888a31.476,31.476,0,0,1-31.44,31.442v6.107a37.547,37.547,0,0,0,37.549-37.549,37.547,37.547,0,0,0-37.549-37.549v6.111A31.473,31.473,0,0,1,865.648-957.888Z" transform="translate(-834.208 995.437)" fill="#fff" fill-rule="evenodd"/></g><g transform="translate(1088.914 -983.561)"><path d="M865.648-960.934a31.472,31.472,0,0,0-31.44-31.438v6.113a25.357,25.357,0,0,1,25.329,25.325,25.355,25.355,0,0,1-25.329,25.323v6.119A31.476,31.476,0,0,0,865.648-960.934Z" transform="translate(-834.208 992.372)" fill="#7fc733" fill-rule="evenodd"/></g><g transform="translate(1088.914 -977.448)"><path d="M853.418-963.981a19.233,19.233,0,0,1-19.21,19.214v6.109a25.355,25.355,0,0,0,25.329-25.323,25.357,25.357,0,0,0-25.329-25.325v6.111A19.232,19.232,0,0,1,853.418-963.981Z" transform="translate(-834.208 989.306)" fill="#fff" fill-rule="evenodd"/></g><g transform="translate(1088.914 -971.337)"><path d="M853.418-967.027a19.232,19.232,0,0,0-19.21-19.214v6.115a13.114,13.114,0,0,1,13.1,13.1,13.117,13.117,0,0,1-13.1,13.1v6.111A19.233,19.233,0,0,0,853.418-967.027Z" transform="translate(-834.208 986.241)" fill="#7fc733" fill-rule="evenodd"/></g><g transform="translate(1088.914 -965.222)"><path d="M841.2-970.075a6.994,6.994,0,0,1-6.99,6.988v6.115a13.117,13.117,0,0,0,13.1-13.1,13.115,13.115,0,0,0-13.1-13.1v6.115A6.993,6.993,0,0,1,841.2-970.075Z" transform="translate(-834.208 983.174)" fill="#fff" fill-rule="evenodd"/></g><g transform="translate(1088.914 -959.108)"><path d="M841.2-973.123a6.994,6.994,0,0,0-6.99-6.984v13.972A6.994,6.994,0,0,0,841.2-973.123Z" transform="translate(-834.208 980.107)" fill="#7fc733" fill-rule="evenodd"/></g><g transform="translate(1076.118 -963.819)"><path d="M840.562-970.226c-3.844-5.74-10.688-12.244-10.688-12.244l-1.045,1.1-1.039,1.1S834.631-973.775,840.562-970.226Z" transform="translate(-827.79 982.47)" fill="#7fc733" fill-rule="evenodd"/></g><g transform="translate(1063.769 -975.592)"><path d="M835.556-974.961s1.635-1.44.919-2.113l-11.893-11.3-2.987,3.14,11.9,11.3C834.208-973.256,835.556-974.961,835.556-974.961Z" transform="translate(-821.596 988.375)" fill="#7fc733" fill-rule="evenodd"/></g><g transform="translate(1053.5 -985.347)"><rect width="4.336" height="20.23" transform="translate(0 3.144) rotate(-46.473)" fill="#7fc733"/></g><g transform="translate(1037.286 -1000.93)"><path d="M827.844-982.2s4.807-7.305.461-11.4c-3.21-3.016-11.175-10.962-18.53-5.764-4.811,7.608,3.531,15.156,6.713,18.209C820.8-977.022,827.844-982.2,827.844-982.2Z" transform="translate(-808.313 1001.084)" fill="#7fc733" fill-rule="evenodd"/></g><g transform="translate(1038.039 -1000.355)"><path d="M819.826-1000.037a14.7,14.7,0,0,0-1.852-.758l.441,9.708-9.724.06a15.637,15.637,0,0,0,.855,1.812l10.764-.069Z" transform="translate(-808.691 1000.795)" fill="#fff" fill-rule="evenodd"/></g><g transform="translate(1039.792 -998.782)"><path d="M823.305-986.39l-.542-12.035a25.686,25.686,0,0,0-2.309-1.581l.517,11.394-11.4.07a23.927,23.927,0,0,0,1.693,2.227Z" transform="translate(-809.57 1000.006)" fill="#fff" fill-rule="evenodd"/></g><g transform="translate(752.756 -978.503)"><path d="M749.088-883.814a6.227,6.227,0,0,1-6.185,6.274H671.787a6.236,6.236,0,0,1-6.183-6.288v-99.723a6.253,6.253,0,0,1,6.2-6.284h71.116a6.232,6.232,0,0,1,6.165,6.3Z" transform="translate(-665.604 989.835)" fill="#99a9d4" fill-rule="evenodd"/></g><g transform="translate(752.756 -979.316)"><path d="M749.088-884.22a6.228,6.228,0,0,1-6.185,6.273H671.787a6.235,6.235,0,0,1-6.183-6.286v-99.723a6.255,6.255,0,0,1,6.2-6.286h71.116a6.234,6.234,0,0,1,6.165,6.3Z" transform="translate(-665.604 990.243)" fill="#6836bf" fill-rule="evenodd"/></g><g transform="translate(759.082 -971.062)"><path d="M739.634-963.86a3.036,3.036,0,0,1-3.023,3.051l-64.811-.012a3.036,3.036,0,0,1-3.023-3.051l0-19.182a3.037,3.037,0,0,1,3.025-3.048l64.81.008a3.042,3.042,0,0,1,3.024,3.056Z" transform="translate(-668.777 986.103)" fill="#fff" fill-rule="evenodd"/></g><g transform="translate(761.088 -922.723)"><path d="M682.694-951.443a1.6,1.6,0,0,1-1.639,1.561l-9.634,0a1.6,1.6,0,0,1-1.639-1.563l0-8.845a1.6,1.6,0,0,1,1.639-1.565h9.634a1.605,1.605,0,0,1,1.637,1.571Z" transform="translate(-669.783 961.858)" fill="#7fc733" fill-rule="evenodd"/></g><g transform="translate(761.086 -904.763)"><path d="M682.692-942.442a1.6,1.6,0,0,1-1.639,1.565h-9.634a1.6,1.6,0,0,1-1.637-1.565v-8.847a1.6,1.6,0,0,1,1.639-1.561h9.634a1.6,1.6,0,0,1,1.639,1.563Z" transform="translate(-669.782 952.85)" fill="#7fc733" fill-rule="evenodd"/></g><g transform="translate(761.084 -886.807)"><path d="M682.691-933.432a1.6,1.6,0,0,1-1.639,1.561h-9.636a1.6,1.6,0,0,1-1.635-1.565v-8.842a1.6,1.6,0,0,1,1.639-1.565l9.634,0a1.6,1.6,0,0,1,1.637,1.565Z" transform="translate(-669.781 943.844)" fill="#7fc733" fill-rule="evenodd"/></g><g transform="translate(779.062 -922.717)"><path d="M691.708-951.445a1.6,1.6,0,0,1-1.637,1.561h-9.634a1.6,1.6,0,0,1-1.639-1.561v-8.844a1.6,1.6,0,0,1,1.643-1.565l9.632,0a1.6,1.6,0,0,1,1.637,1.561Z" transform="translate(-678.798 961.855)" fill="#7fc733" fill-rule="evenodd"/></g><g transform="translate(779.06 -904.761)"><path d="M691.709-942.44a1.6,1.6,0,0,1-1.639,1.563l-9.634,0a1.6,1.6,0,0,1-1.639-1.561l0-8.844a1.6,1.6,0,0,1,1.639-1.565l9.634,0a1.6,1.6,0,0,1,1.637,1.561Z" transform="translate(-678.797 952.849)" fill="#7fc733" fill-rule="evenodd"/></g><g transform="translate(779.056 -886.805)"><path d="M691.707-933.432a1.6,1.6,0,0,1-1.639,1.561l-9.632,0a1.6,1.6,0,0,1-1.641-1.559l0-8.846a1.6,1.6,0,0,1,1.639-1.565l9.634,0a1.6,1.6,0,0,1,1.637,1.561Z" transform="translate(-678.795 943.843)" fill="#7fc733" fill-rule="evenodd"/></g><g transform="translate(797.036 -922.713)"><path d="M700.723-951.448a1.6,1.6,0,0,1-1.637,1.567l-9.634,0a1.6,1.6,0,0,1-1.639-1.563l0-8.844a1.6,1.6,0,0,1,1.641-1.561h9.634a1.6,1.6,0,0,1,1.637,1.561Z" transform="translate(-687.813 961.853)" fill="#7fc733" fill-rule="evenodd"/></g><g transform="translate(814.557 -922.49)"><path d="M709.511-951.326a1.6,1.6,0,0,1-1.639,1.561H698.24a1.606,1.606,0,0,1-1.639-1.567v-8.844a1.605,1.605,0,0,1,1.639-1.565l9.636,0a1.6,1.6,0,0,1,1.637,1.567Z" transform="translate(-696.601 961.741)" fill="#7fc733" fill-rule="evenodd"/></g><g transform="translate(797.032 -904.757)"><path d="M700.725-942.436a1.6,1.6,0,0,1-1.639,1.561h-9.632a1.607,1.607,0,0,1-1.643-1.567l0-8.844a1.6,1.6,0,0,1,1.639-1.561h9.634a1.6,1.6,0,0,1,1.637,1.563Z" transform="translate(-687.811 952.847)" fill="#7fc733" fill-rule="evenodd"/></g><g transform="translate(797.03 -886.801)"><path d="M700.72-933.43a1.6,1.6,0,0,1-1.635,1.563l-9.636,0a1.6,1.6,0,0,1-1.639-1.561l0-8.848a1.605,1.605,0,0,1,1.641-1.563h9.632a1.606,1.606,0,0,1,1.639,1.567Z" transform="translate(-687.81 943.841)" fill="#7fc733" fill-rule="evenodd"/></g><g transform="translate(760.638 -938.384)"><path d="M683.376-960.8a1.389,1.389,0,0,1-1.421,1.354H670.979a1.392,1.392,0,0,1-1.422-1.356v-7.562a1.39,1.39,0,0,1,1.422-1.352h10.98a1.387,1.387,0,0,1,1.418,1.353Z" transform="translate(-669.557 969.713)" fill="#7fc733" fill-rule="evenodd"/></g><g transform="translate(778.612 -938.384)"><path d="M692.389-960.793a1.388,1.388,0,0,1-1.418,1.354H679.993a1.4,1.4,0,0,1-1.421-1.358v-7.563a1.388,1.388,0,0,1,1.421-1.353h10.978a1.39,1.39,0,0,1,1.419,1.358Z" transform="translate(-678.572 969.713)" fill="#7fc733" fill-rule="evenodd"/></g><g transform="translate(796.585 -938.378)"><path d="M701.406-960.794a1.388,1.388,0,0,1-1.42,1.354l-10.978,0a1.389,1.389,0,0,1-1.422-1.354l0-7.561a1.385,1.385,0,0,1,1.422-1.353h10.978a1.387,1.387,0,0,1,1.418,1.355Z" transform="translate(-687.587 969.71)" fill="#7fc733" fill-rule="evenodd"/></g><g transform="translate(814.559 -938.378)"><path d="M710.419-960.792A1.386,1.386,0,0,1,709-959.436l-10.98,0a1.388,1.388,0,0,1-1.42-1.354l0-7.561a1.387,1.387,0,0,1,1.42-1.355l10.978,0a1.39,1.39,0,0,1,1.42,1.358Z" transform="translate(-696.602 969.71)" fill="#7fc733" fill-rule="evenodd"/></g><g transform="translate(814.551 -904.404)"><path d="M710.417-927.421c0,2.117-.636,3.836-1.422,3.832h-10.98c-.782,0-1.418-1.719-1.418-3.834l0-21.409c0-2.12.634-3.838,1.42-3.838l10.978,0c.785,0,1.42,1.721,1.42,3.838Z" transform="translate(-696.598 952.67)" fill="#7fc733" fill-rule="evenodd"/></g><g transform="translate(803.502 -968.293)"><path d="M691.832-982.829l-.776-.937.776-.943,6.837-.006.794.94-.794.94Z" transform="translate(-691.056 984.714)" fill="#99a9d4" fill-rule="evenodd"/></g><g transform="translate(803.023 -959.338)"><path d="M691.594-978.337l-.778-.937.775-.945,6.837,0,.8.94-.8.943Z" transform="translate(-690.816 980.223)" fill="#99a9d4" fill-rule="evenodd"/></g><g transform="translate(802.293 -950.112)"><path d="M691.547-973.71l-1.1-.948,1.095-.934,6.837,0,.8.937-.8.943Z" transform="translate(-690.45 975.595)" fill="#99a9d4" fill-rule="evenodd"/></g><g transform="translate(816.851 -968.425)"><path d="M698.53-982.895l-.779-.94.776-.943,6.836,0,.8.94-.794.94Z" transform="translate(-697.751 984.78)" fill="#99a9d4" fill-rule="evenodd"/></g><g transform="translate(815.963 -959.336)"><path d="M698.083-978.336l-.776-.94.776-.943,6.836,0,.8.94-.8.94Z" transform="translate(-697.306 980.221)" fill="#99a9d4" fill-rule="evenodd"/></g><g transform="translate(815.324 -950.246)"><path d="M697.763-973.777l-.778-.94.776-.943,6.837,0,.794.94-.794.94Z" transform="translate(-696.986 975.663)" fill="#99a9d4" fill-rule="evenodd"/></g><g transform="translate(796.428 -958.072)"><path d="M689.351-971.777l-.985.706-.858-.861.568-6.926.988-.73.854.882Z" transform="translate(-687.508 979.588)" fill="#99a9d4" fill-rule="evenodd"/></g><g transform="translate(823.885 -967.146)"><path d="M703.123-976.328l-.985.712-.858-.864.568-6.929.986-.73.857.887Z" transform="translate(-701.279 984.139)" fill="#99a9d4" fill-rule="evenodd"/></g><g transform="translate(810.855 -967.146)"><path d="M696.588-976.328l-.986.709-.857-.867.568-6.926.985-.727.858.887Z" transform="translate(-694.745 984.139)" fill="#99a9d4" fill-rule="evenodd"/></g><g transform="translate(797.145 -967.149)"><path d="M689.712-976.327l-.984.709-.861-.867.569-6.929.988-.727.855.884Z" transform="translate(-687.868 984.14)" fill="#99a9d4" fill-rule="evenodd"/></g><g transform="translate(823.164 -958.069)"><path d="M702.764-971.773l-.986.706-.859-.864.569-6.929.988-.727.855.885Z" transform="translate(-700.918 979.586)" fill="#99a9d4" fill-rule="evenodd"/></g><g transform="translate(801.088 -958.069)"><path d="M691.691-971.778l-.987.709-.859-.864.569-6.926.99-.727.854.881Z" transform="translate(-689.845 979.586)" fill="#99a9d4" fill-rule="evenodd"/></g><g transform="translate(757.3 -860.691)"><path d="M718.726-873.735a38.119,38.119,0,0,1-16.128,3.461c-19.168,0-34.716-13.54-34.716-30.236s15.547-30.235,34.716-30.235,34.715,13.54,34.715,30.235a27.793,27.793,0,0,1-8.053,19.364l10.551,27.426Z" transform="translate(-667.883 930.745)" fill="#7fc733" fill-rule="evenodd"/></g><g transform="translate(773.141 -846.543)"><path d="M675.828-915.267q0-4.268,1.884-6.322a6.561,6.561,0,0,1,5.094-2.059,6.715,6.715,0,0,1,5.206,2.043q1.878,2.049,1.876,6.338,0,4.274-1.876,6.328a6.578,6.578,0,0,1-5.1,2.061,6.7,6.7,0,0,1-5.2-2.047q-1.881-2.049-1.884-6.342Zm4.761,0q0,3.083.72,4.139a1.736,1.736,0,0,0,1.5.78,1.761,1.761,0,0,0,1.529-.78q.7-1.055.7-4.139t-.7-4.111a1.752,1.752,0,0,0-1.529-.8,1.736,1.736,0,0,0-1.5.779q-.724,1.056-.72,4.135Zm6.875,25.3,16.861-33.677h-4.418l-16.959,33.677Zm9.853-8.4q0-4.28,1.884-6.344a6.588,6.588,0,0,1,5.14-2.069,6.62,6.62,0,0,1,5.162,2.069q1.878,2.067,1.874,6.344c0,2.879-.622,5-1.874,6.378a6.557,6.557,0,0,1-5.1,2.07,6.652,6.652,0,0,1-5.2-2.07c-1.252-1.38-1.884-3.5-1.884-6.378Zm4.761.016c0-2.075.237-3.471.72-4.175a1.689,1.689,0,0,1,1.505-.784,1.744,1.744,0,0,1,1.527.784c.467.7.7,2.1.7,4.175s-.237,3.469-.72,4.177a1.7,1.7,0,0,1-1.506.783,1.718,1.718,0,0,1-1.505-.807C702.315-894.895,702.078-896.282,702.078-898.358Z" transform="translate(-675.828 923.649)" fill="#fff" fill-rule="evenodd"/></g><g transform="translate(921.635 -999.131)"><path d="M759.247-986.912a4.333,4.333,0,0,1-4.335-4.325,4.337,4.337,0,0,1,4.333-4.334,4.336,4.336,0,0,1,4.334,4.334,4.331,4.331,0,0,1-4.332,4.325Zm0-13.269a8.941,8.941,0,0,0-8.94,8.944,8.939,8.939,0,0,0,8.938,8.934,8.939,8.939,0,0,0,8.942-8.934A8.94,8.94,0,0,0,759.247-1000.181Z" transform="translate(-750.307 1000.181)" fill="#7fc733" fill-rule="evenodd"/></g><g transform="translate(905.412 -985.572)"><path d="M787.948-993.381h-41.23l-4.548,16.932H792.5Z" transform="translate(-742.171 993.381)" fill="#7fc733" fill-rule="evenodd"/></g><g transform="translate(851.793 -972.777)"><path d="M864.744-821.942a7.457,7.457,0,0,1-7.451,7.445H730.822a7.456,7.456,0,0,1-7.451-7.445V-971.418a7.456,7.456,0,0,1,7.451-7.445H857.294a7.457,7.457,0,0,1,7.451,7.445v149.476Zm-7.451-165.021H730.822a15.562,15.562,0,0,0-15.545,15.545v149.476A15.561,15.561,0,0,0,730.822-806.4H857.294a15.565,15.565,0,0,0,15.551-15.545V-971.418A15.566,15.566,0,0,0,857.294-986.963Z" transform="translate(-715.277 986.963)" fill="#6836bf" fill-rule="evenodd"/></g><g transform="translate(859.887 -964.677)"><path d="M3.737,0h133.9a3.734,3.734,0,0,1,3.734,3.734v156.9a3.737,3.737,0,0,1-3.737,3.737H3.734A3.734,3.734,0,0,1,0,160.632V3.737A3.737,3.737,0,0,1,3.737,0Z" fill="#fff"/></g><g transform="translate(875.853 -893.489)"><path d="M730.974-902.667l-3.63-6.923,62.039-32.535,7.624,17.2,21.184-14.935-6.45-4.962L835.88-947.2l-10.5,21.861-2.591-8.2-29.062,20.493-8.1-18.28Z" transform="translate(-727.345 947.195)" fill="#7fc733" fill-rule="evenodd"/></g><g transform="translate(874.493 -836.988)"><rect width="17.257" height="25.376" fill="#7fc733"/></g><g transform="translate(905.523 -846.999)"><rect width="17.256" height="35.387" fill="#7fc733"/></g><g transform="translate(936.555 -857.01)"><rect width="17.256" height="45.398" fill="#7fc733"/></g><g transform="translate(967.585 -867.018)"><rect width="17.256" height="55.406" fill="#7fc733"/></g><g transform="translate(869.368 -946.405)"><path d="M724.092-943.2h57.885v-7.044H724.092v7.044Zm0-17.417h57.885v-13.119H724.092v13.119Zm0,31.507h57.885v-7.042H724.092Z" transform="translate(-724.092 973.736)" fill="#7fc733" fill-rule="evenodd"/></g><g transform="translate(888.062 -975.937)"><rect width="85.025" height="16.132" fill="#6836bf"/></g><g transform="translate(942.982 -949.639)"><path d="M761.014-961.766l12.469,5.22a9.841,9.841,0,0,1,7.353-5.257v-13.554A23.329,23.329,0,0,0,761.014-961.766Z" transform="translate(-761.014 975.358)" fill="#7fc733" fill-rule="evenodd"/></g><g transform="translate(953.456 -924.695)"><path d="M786.715-962.847a9.846,9.846,0,0,1-9.7,8.18,9.774,9.774,0,0,1-3.289-.566l-7.463,11.438a23.241,23.241,0,0,0,10.752,2.616,23.317,23.317,0,0,0,23.268-21.668Z" transform="translate(-766.267 962.847)" fill="#7fc733" fill-rule="evenodd"/></g><g transform="translate(940.875 -933.428)"><path d="M773.594-958.494a9.819,9.819,0,0,1-.14-1.653,10.5,10.5,0,0,1,.064-1.157c.028-.219.064-.443.1-.664l-12.567-5.26a23.139,23.139,0,0,0-1.1,7.08,23.292,23.292,0,0,0,10.176,19.264l7.377-11.3A9.862,9.862,0,0,1,773.594-958.494Z" transform="translate(-759.957 967.227)" fill="#7fc733" fill-rule="evenodd"/></g><g transform="translate(965.603 -957.427)"><path d="M802.165-949.342H772.36v-29.922A31.189,31.189,0,0,1,802.165-949.342Z" transform="translate(-772.36 979.264)" fill="#7fc733" fill-rule="evenodd"/></g><g transform="translate(940.622 -781.157)"><path d="M806.468-867.537v-23.317H759.83v23.317a23.329,23.329,0,0,0,14.931,21.766,7.937,7.937,0,0,1,5.042,7.425h0a7.939,7.939,0,0,1-5.042,7.425,23.326,23.326,0,0,0-14.931,21.762v23.321h46.638v-23.321a23.329,23.329,0,0,0-14.931-21.762,7.942,7.942,0,0,1-5.042-7.425h0a7.939,7.939,0,0,1,5.042-7.425A23.332,23.332,0,0,0,806.468-867.537Z" transform="translate(-759.83 890.854)" fill="#7fc733" fill-rule="evenodd"/></g><g transform="translate(936.03 -676.141)"><path d="M810.946-838.182H759.93a2.4,2.4,0,0,0-2.4,2.4,2.4,2.4,0,0,0,2.4,2.4h51.019a2.4,2.4,0,0,0,2.4-2.4A2.4,2.4,0,0,0,810.946-838.182Z" transform="translate(-757.527 838.182)" fill="#99a9d4" fill-rule="evenodd"/></g><g transform="translate(936.03 -785.958)"><path d="M810.946-893.262H759.93a2.4,2.4,0,0,0-2.4,2.4,2.4,2.4,0,0,0,2.4,2.4h51.019a2.4,2.4,0,0,0,2.4-2.4A2.4,2.4,0,0,0,810.946-893.262Z" transform="translate(-757.527 893.262)" fill="#7fc733" fill-rule="evenodd"/></g><g transform="translate(940.621 -781.158)"><rect width="46.639" height="4.291" fill="#b13e8d"/></g><g transform="translate(946.14 -754.909)"><path d="M794.231-813.757h-8.854a3.747,3.747,0,0,1-3.748-3.748v-41.227a4.843,4.843,0,0,1,3.437-4.727,17.8,17.8,0,0,0,12.882-14.229h-35.1a17.8,17.8,0,0,0,12.88,14.229,4.841,4.841,0,0,1,3.439,4.727V-817.5a3.748,3.748,0,0,1-3.744,3.748h-8.862a3.965,3.965,0,0,0-3.964,3.96v10.876h35.6V-809.8A3.963,3.963,0,0,0,794.231-813.757Z" transform="translate(-762.598 877.689)" fill="#b13e8d" fill-rule="evenodd"/></g><g transform="translate(948.459 -685.817)"><path d="M763.761-839.355a3.678,3.678,0,0,1,3.677-3.68,3.683,3.683,0,0,1,3.685,3.68,3.681,3.681,0,0,1-3.685,3.679A3.677,3.677,0,0,1,763.761-839.355Z" transform="translate(-763.761 843.035)" fill="#fff" fill-rule="evenodd"/></g><g transform="translate(1027.873 -919.488)"><path d="M851.921-914.123c3.649-5.345-4.24-6.717-4.165-12.563.054-4.031-2.468-8.228-1.713-12.25,1.547-8.224-1.663-10.718-1.681-11.342-.194-6.234-3.92-6.392-7.632-8.494-6.586-3.731-12.312.831-14.18.951-9.518.626-4.251,4.717-8.512,8.4-3.509,3.036-1.85,5.339-1.489,7.165.164.819.929,4.207-1.5,5.92-3.563,2.51.088,9.213-2.014,9.851-8.091,2.45-4.833,3.461-4.615,9.111.07,1.81,1.812,3.182,2.951,4.51C821.3-917.223,830.883-899.891,851.921-914.123Z" transform="translate(-803.592 960.235)" fill="#6836bf" fill-rule="evenodd"/></g><g transform="translate(1049.143 -882.736)"><path d="M828.926-939.946a5.22,5.22,0,0,0-1.882-1.856,27.263,27.263,0,0,1-12.784,3.561,72.921,72.921,0,0,0,1.05,8.133Q826.424-938.752,828.926-939.946Z" transform="translate(-814.26 941.802)" fill="#fff" fill-rule="evenodd"/></g><g transform="translate(1043.743 -882.445)"><path d="M813.767-940.418a27.207,27.207,0,0,0-2.215,6.45,8.62,8.62,0,0,1,5.4-4.418c-.927-.977-.856-2.251-1.23-3.27C814.674-941.012,814.02-940.6,813.767-940.418Z" transform="translate(-811.552 941.656)" fill="#fff" fill-rule="evenodd"/></g><g transform="translate(1028.449 -881.187)"><path d="M818.22-941.025c-11.193,28.447-1.757,26.24,22.484.616a25.01,25.01,0,0,1,3.906,1.25q-4.725,4.364-3.533,14.6.718,7.925,1.571,15.406a25.951,25.951,0,0,0-2.207,9.74,40.718,40.718,0,0,0,.969,9.7,134.452,134.452,0,0,0,6.059,19.234q-25.463,8.67-43.588.2c7.01-15.408,6.077-20.185,5.28-30.491-.789-16.732-10.988-11.478,5.964-39.614A15.138,15.138,0,0,1,818.22-941.025Z" transform="translate(-803.881 941.025)" fill="#b13e8d" fill-rule="evenodd"/></g><g transform="translate(1038.11 -881.255)"><path d="M819.759-938.979a72.981,72.981,0,0,0,1.051,8.133q11.113-8.643,13.616-9.837c.5.094.991.2,1.463.309-24.24,25.624-33.677,27.831-22.484-.616a21.987,21.987,0,0,1,3.17-.02,27.2,27.2,0,0,0-2.215,6.45A8.62,8.62,0,0,1,819.759-938.979Z" transform="translate(-808.727 941.059)" fill="#b13e8d" fill-rule="evenodd"/></g><g transform="translate(1055.088 -879.321)"><path d="M817.637-900.08q6.914.018,12.9-.522-1.561-11.843-2.74-24.888-1.19-10.234,3.533-14.6,6.286,2.641,8,8.278c2.478,7.993,2.171,37.768-.52,40.46q-5.105,2.237-21.567-.911A15.965,15.965,0,0,0,817.637-900.08Z" transform="translate(-817.242 940.089)" fill="#b13e8d" fill-rule="evenodd"/></g><g transform="translate(1035.958 -843.933)"><path d="M824.393-916.608c.626.07,1.611.134,2.961.19a16.114,16.114,0,0,1-.249,5.373c-1.176-.216-2.664-.528-4.474-.937a26.186,26.186,0,0,1-11.594-.128q-4.719-1.812-2.869-6.647,7.378.858,8.83-.554-2.581-1.313-1.828-3.029Q822.422-919.684,824.393-916.608Z" transform="translate(-807.647 922.34)" fill="#f4ae7c" fill-rule="evenodd"/></g><g transform="translate(1001.623 -852.305)"><path d="M824.829-921.325l-34.4-5.214,7.429,14.854,34.464,5.409-.548-1.1q-1.734-.179-3.621-.556-4.719-1.812-2.869-6.647,1.675.195,3.039.271Z" transform="translate(-790.426 926.539)" fill="#d0d9ee" fill-rule="evenodd"/></g><g transform="translate(1007.044 -844.436)"><path d="M822.585-921.364l1.513,3.015h0c-.483-.044-.991-.1-1.519-.158q-1.606,4.2,1.737,6.115l-28.282-4.422-2.889-5.778a50.432,50.432,0,0,0,12.076,2.6,4.69,4.69,0,0,0,3.194,1.679,1.174,1.174,0,0,0,1.308-1.479A54.836,54.836,0,0,0,822.585-921.364Z" transform="translate(-793.145 922.592)" fill="#aab9de" fill-rule="evenodd"/></g><g transform="translate(1042.968 -833.147)"><path d="M815.53-916.812l-3.818.987-.548-1.1A26.707,26.707,0,0,0,815.53-916.812Z" transform="translate(-811.163 916.93)" fill="#8d9fca" fill-rule="evenodd"/></g><g transform="translate(1008.988 -837.451)"><path d="M828.648-913.68l3.818-.987a18.884,18.884,0,0,0,3.607-.546q1.821.413,3.21.692l-9.526,3.12-9.4-1.6L794.12-917.46l.064-1.629,25.193,3.956h0Z" transform="translate(-794.12 919.089)" fill="#8d9fca" fill-rule="evenodd"/></g><g transform="translate(1027.632 -852.776)"><path d="M803.471-922.365a17.587,17.587,0,0,0,3.385-4.41c.544,1.519,1.2,3.126,1.741,5.188Z" transform="translate(-803.471 926.775)" fill="#b13e8d" fill-rule="evenodd"/></g><g transform="translate(1031.341 -880.553)"><path d="M813.683-940.707a110.588,110.588,0,0,0-7.922,15.009C804.322-936.991,806.385-939.533,813.683-940.707Z" transform="translate(-805.332 940.707)" fill="#b13e8d" fill-rule="evenodd"/></g><g transform="translate(1025.175 -809.774)"><path d="M846.419-905.207q6.011,12.405,3.383,53.9-33.008,4.465-47.563-.911,1.184-37.9,5.345-52.763Q824.1-898.293,846.419-905.207Z" transform="translate(-802.239 905.207)" fill="#6836bf" fill-rule="evenodd"/></g><g transform="translate(1042.195 -906.891)"><path d="M830.507-929.762a27.267,27.267,0,0,1-12.784,3.561,5.857,5.857,0,0,1-1.111-2.893l-.044-.158a3.276,3.276,0,0,0,.736-3.274c-.01-.024-.016-.05-.024-.074-4.851-1.629-7.864-9.792-5.894-14.59q-.149-2.407-.465-4.994c7.192,2.083,11.706,1.97,16.971-1.733.921,2.4,1.382,3.762.833,6.292-.122.873-.566,2.737.6,2.909.54-3.034,1.647-4.713,3.694-3.986,1.824,2.921.736,6.6-3.648,7.363q-1.935,3.992-1.667,5.459c-.139,1.657,1.314,3.89,2.406,5.525C830.252-930.147,830.385-929.95,830.507-929.762Z" transform="translate(-810.776 953.917)" fill="#f4ae7c" fill-rule="evenodd"/></g><g transform="translate(1048.676 -886.443)"><path d="M814.026-942.888a11.82,11.82,0,0,0,6.99-.773,10.118,10.118,0,0,1-6.92,2.909A4.486,4.486,0,0,0,814.026-942.888Z" transform="translate(-814.026 943.661)" fill="#ed7d5b" fill-rule="evenodd"/></g><g transform="translate(1027.13 -756.024)"><path d="M804.581-853.445q-.855-11.694-1.011-24.8a68.558,68.558,0,0,0,18.341,2.179c-1.774,7.486-4.462,15.673-5.866,23.76,7.451,20.2-2.807,36.9-1.354,50.117-2.026,3.24-5.4,10.559-10.485,13.244-1.693-.44-.423-1.984-.987-2.863q3.933-4.088,4.922-12.814Q809.048-825.358,804.581-853.445Z" transform="translate(-803.219 878.248)" fill="#f4ae7c" fill-rule="evenodd"/></g><g transform="translate(1049.844 -755.262)"><path d="M820.962-856.714c-1.535-6.4-4.322-12.834-6.35-19.772q8.144-.2,18.114-1.38-.168,9.836-.255,20.53c10.435,18.446,3.447,40,6.239,49.274-2.036,4.823-2.578,10.864-7.1,14.415-1.663-.132-.8-1.758-1.426-2.524a32.134,32.134,0,0,0,2.329-12.124Q830.108-829.167,820.962-856.714Z" transform="translate(-814.612 877.866)" fill="#f4ae7c" fill-rule="evenodd"/></g><g transform="translate(1014.366 -680.581)"><path d="M807.932-830.026c3.573.186.313,2.871,2.639,3.475,5.086-2.688,7.9-10.015,9.931-13.251,1.069-1.7,1.846.465,2.371,2.887.841,3.864-.221,2.516-.694,5.6-.119.768.875,4.907,1.039,7.2a1.768,1.768,0,0,1-.527,1.419c-.931-1.567-1.731-6.39-2.576-9.335-4.994,4.29-3.9,9.022-6.863,10.633-7.1.76-10.94.949-16.333,1.063C795.736-824.764,805.117-823.267,807.932-830.026Z" transform="translate(-796.817 840.409)" fill="#142d4d" fill-rule="evenodd"/></g><g transform="translate(1054.676 -686.107)"><path d="M826.049-830.988c3.447-.433.823,2.692,3.152,2.871,4.37-3.435,5.722-10.912,7.07-14.351.712-1.806,1.844.129,2.792,2.357,1.507,3.543.251,2.437.359,5.461.026.756,1.731,4.538,2.309,6.707a1.7,1.7,0,0,1-.245,1.442c-1.174-1.34-2.817-5.808-4.163-8.476-3.988,4.951-2.082,9.281-4.614,11.325-6.643,1.934-10.278,2.769-15.406,3.8C815.362-823.88,824.591-824.053,826.049-830.988Z" transform="translate(-817.035 843.181)" fill="#142d4d" fill-rule="evenodd"/></g><g transform="translate(1019.254 -843.963)"><path d="M800.134-922.355c-.83,0-1.109.668-.634,1.493a3.1,3.1,0,0,0,2.358,1.5c.827,0,1.107-.668.63-1.5A3.093,3.093,0,0,0,800.134-922.355Z" transform="translate(-799.269 922.355)" fill="#aab9de" fill-rule="evenodd"/></g><g transform="translate(1052.025 -900.442)"><path d="M816.5-948c.666.082,1.492-2.484-.125-2.683C815.509-950.783,815.413-948.138,816.5-948Z" transform="translate(-815.706 950.682)" fill="#0f3970" fill-rule="evenodd"/></g><g transform="translate(1043.908 -901.212)"><path d="M812.136-948.489c-.666-.08-.887-2.765.736-2.57C813.735-950.953,813.232-948.351,812.136-948.489Z" transform="translate(-811.634 951.069)" fill="#0f3970" fill-rule="evenodd"/></g><g transform="translate(1051.505 -902.842)"><path d="M816.34-951.88c-1.076-.092-1.15.8-.395,1.136.219.1,4.476,1.491,4.319,1.2A5.555,5.555,0,0,0,816.34-951.88Z" transform="translate(-815.445 951.886)" fill="#0f3970" fill-rule="evenodd"/></g><g transform="translate(1042.193 -903.698)"><path d="M815.023-952.286c1.079.122.985,1.013.179,1.19-.379.082-4.715.612-4.412.269A5.547,5.547,0,0,1,815.023-952.286Z" transform="translate(-810.774 952.316)" fill="#0f3970" fill-rule="evenodd"/></g><g transform="translate(1046.082 -899.373)"><path d="M813.014-944.81c2.4.682,2.117-.425,1.442-.293-2.249.44-.094-.857-.469-4.753-.046-.409-.5-.359-.512-.018-.006.236.07,1.095.046,1.348C813.226-945.414,812.243-945.03,813.014-944.81Z" transform="translate(-812.725 950.147)" fill="#ed7d5b" fill-rule="evenodd"/></g><g transform="translate(1045.703 -892.658)"><path d="M812.6-946.389c3.132,6,6.51.616,5.581.455C813.444-946.736,812.216-947.122,812.6-946.389Z" transform="translate(-812.535 946.779)" fill="#fff" fill-rule="evenodd"/></g><g transform="translate(768.232 -666.286)"><path d="M694.248-825.483c-8.872-.142-15.505-.251-18.568-1.216-3.306-1.045-2.624-3.062-.724-6.284,8.364,3.846,6.135-.791,10.046-.2q4.122,3.317,12.208,4.45C699.49-827.058,698.565-825.559,694.248-825.483Z" transform="translate(-673.366 833.239)" fill="#142d4d" fill-rule="evenodd"/></g><g transform="translate(710.595 -793.72)"><path d="M711.581-897.155H656.758a2.739,2.739,0,0,0-2.478,1.964l-9.755,37.144a1.468,1.468,0,0,0,1.449,1.964h54.821a2.737,2.737,0,0,0,2.48-1.964l9.753-37.144A1.468,1.468,0,0,0,711.581-897.155Z" transform="translate(-644.458 897.155)" fill="#7fc733" fill-rule="evenodd"/></g><g transform="translate(669.723 -835.595)"><path d="M673.477-875.212,666.856-850c-7.953-3.878-17.531-10.108-27.58-18.1a83.347,83.347,0,0,0-1-8.6q1.205-2.4,2.65-5.126-13.91-.086-16.965-5.981a121.455,121.455,0,0,1,10.4-22.234q4.671-6.909,18.3-8.123c1.063,12.186,19.752,11.562,15.356,1.071A36.472,36.472,0,0,1,685.255-907q6.077,14.968,7.411,20.893a36.536,36.536,0,0,1-12.5,5.983,26.583,26.583,0,0,0-.423,2.945h-3.786A2.742,2.742,0,0,0,673.477-875.212Z" transform="translate(-623.958 918.158)" fill="#6998d0" fill-rule="evenodd"/></g><g transform="translate(709.462 -794.613)"><path d="M647.049-870.424l6.621-25.215a2.741,2.741,0,0,1,2.48-1.964h54.823c1.081,0,3,1.4,2.684,2.466a1.435,1.435,0,0,0-1.511-1.573H657.323a2.74,2.74,0,0,0-2.478,1.964L645.089-857.6a1.553,1.553,0,0,0,.391,1.583c-.9-.585-1.762-1.709-1.561-2.477Z" transform="translate(-643.889 897.603)" fill="#8d9fca" fill-rule="evenodd"/></g><g transform="translate(693.848 -755.336)"><path d="M654.321-875.216h54.821a2.231,2.231,0,0,0,.6-.088c-1.092,2.827-4.055,2.409-5.214,2.4h-65c-3.521-.15-3.431-2.622-3.475-5h15.615a3.2,3.2,0,0,0,1.589,2.307A1.543,1.543,0,0,0,654.321-875.216Z" transform="translate(-636.058 877.903)" fill="#8d9fca" fill-rule="evenodd"/></g><g transform="translate(713.736 -778.446)"><path d="M652.08-889.494c5.878,2.973,12.828,3.884,19.976,4.253a5.783,5.783,0,0,0-.183.787,4.7,4.7,0,0,0,4.715,5.578,6.211,6.211,0,0,0,5.962-5.136,5.457,5.457,0,0,0,.066-.909c7.423.2,14.592.606,20.522,2.927l-4.077,15.528H646.033Z" transform="translate(-646.033 889.494)" fill="#b13e8d" fill-rule="evenodd"/></g><g transform="translate(741.311 -776.741)"><path d="M664.03-888.639a4.328,4.328,0,0,0-4.121,3.557,2.963,2.963,0,0,0,2.995,3.559,4.33,4.33,0,0,0,4.121-3.559A2.958,2.958,0,0,0,664.03-888.639Z" transform="translate(-659.864 888.639)" fill="#b13e8d" fill-rule="evenodd"/></g><g transform="translate(682.4 -772.073)"><path d="M630.316-875.922a57.656,57.656,0,0,0,2.361-10.376c7.381,2.857,15.823,5.614,26.5,9.829l-1.443,5.493Q633.538-870.186,630.316-875.922Z" transform="translate(-630.316 886.298)" fill="#6998d0" fill-rule="evenodd"/></g><g transform="translate(666.908 -803.27)"><path d="M666.9-860.919c-10.677-4.215-19.118-6.972-26.5-9.829a90.268,90.268,0,0,1-17.852-8.865,68.175,68.175,0,0,1,4.3-22.332q4.118,3.942,15.475,4.013-3.284,6.212-5.357,10.715c11.389,9.439,22.364,16.754,31.29,21.108Z" transform="translate(-622.546 901.945)" fill="#f4ae7c" fill-rule="evenodd"/></g><g transform="translate(725.509 -802.578)"><path d="M663.438-901.6q1.235,4.31,2.285,7.965H651.938a26.721,26.721,0,0,1,.423-2.949A34.755,34.755,0,0,0,663.438-901.6Z" transform="translate(-651.938 901.598)" fill="#f4ae7c" fill-rule="evenodd"/></g><g transform="translate(739.599 -750.856)"><path d="M689.891-793.756q-12.232-44.354-8.749-62.317a72.218,72.218,0,0,1-13.963.622c.712-3.2,1.426-6.408,2.152-9.656-.082-4.41-2.335-7.682-10.326-10.029h22.721a7.067,7.067,0,0,0,3.637-.52c7.321,2.09,10.9,5.543,12.118,9.757.891,11.6-1.519,24.819.536,72.232A37.31,37.31,0,0,1,689.891-793.756Z" transform="translate(-659.005 875.656)" fill="#3a2a60" fill-rule="evenodd"/></g><g transform="translate(761.965 -750.856)"><path d="M670.223-875.136h.355a7.024,7.024,0,0,0,3.637-.52c7.321,2.09,10.9,5.543,12.118,9.757.891,11.6-1.519,24.819.536,72.232a34.912,34.912,0,0,1-4.743.161c-4.213-16.482-14.232-56.916-2.943-74.338A44,44,0,0,0,670.223-875.136Z" transform="translate(-670.223 875.656)" fill="#6836bf" fill-rule="evenodd"/></g><g transform="translate(695.904 -862.377)"><path d="M639.629-904.683a19.144,19.144,0,0,0,3.108-4.787q-.439-1.253-.919-3.16-8.164-5.548-2.233-8.2,1.2.67,2.969,4.129a2.431,2.431,0,0,0,2.143-1.447,72.067,72.067,0,0,1-2.193-9.48c2.682-3.983,8.952-4.556,17.256-3.479q.577,3.313.947,7.022c1.467,1.352,1.278,6.366-.074,12.146q1.014,4.929-6.087,5.379a10.36,10.36,0,0,0,.425,2.827h0l0,0,.014.034C659.305-893.285,640.809-892.643,639.629-904.683Z" transform="translate(-637.089 931.591)" fill="#f4ae7c" fill-rule="evenodd"/></g><g transform="translate(689.697 -872.034)"><path d="M662.854-926.3c-8.3-1.077-14.575-.5-17.256,3.479a72.077,72.077,0,0,0,2.193,9.48,2.432,2.432,0,0,1-2.143,1.447q-1.774-3.457-2.969-4.129-5.93,2.661,2.233,8.2.478,1.908.919,3.16c-4.895-1.1-8.99-5.475-9.568-7.367-5.71-11.257.66-16.01,4.067-17.743,1.5-11.147,17.687-1.294,25.8-6.667C669.352-931.982,665.366-926.4,662.854-926.3Z" transform="translate(-633.976 936.434)" fill="#6836bf" fill-rule="evenodd"/></g><g transform="translate(707.21 -837.495)"><path d="M642.76-919.111a48.036,48.036,0,0,0,6.151.144,8.507,8.507,0,0,0,.3,2.331Q644.808-916.75,642.76-919.111Z" transform="translate(-642.76 919.111)" fill="#ed7d5b" fill-rule="evenodd"/></g><g transform="translate(679.615 -732.75)"><rect width="55.891" height="6.43" rx="1.612" fill="#9d7558"/></g><g transform="translate(680.94 -675.708)"><path d="M634.423-834.131a13.02,13.02,0,0,1,9.223-3.834h25.116a13.017,13.017,0,0,1,9.223,3.834,13.021,13.021,0,0,1,3.834,9.223v2.634h1v3.26h-7.411v-3.26h1v-2.634a7.635,7.635,0,0,0-2.249-5.405,7.635,7.635,0,0,0-5.407-2.253H643.646a7.633,7.633,0,0,0-5.405,2.253,7.629,7.629,0,0,0-2.251,5.405v2.634H637v3.26h-7.413v-3.26h1.007v-2.634A13.027,13.027,0,0,1,634.423-834.131Z" transform="translate(-629.584 837.965)" fill="#d1a383" fill-rule="evenodd"/></g><g transform="translate(704.861 -726.32)"><rect width="5.4" height="50.611" fill="#d1a383"/></g><g transform="translate(681.327 -760.308)"><path d="M638.71-853.041c-9.564-3.433-10.864-12.961-6.657-27.356q5.186,4.24,26.214,3.557l-.325,1.246a.79.79,0,0,0-.028.169H642.3c.044,2.379-.046,4.851,3.475,5H688.05c7.991,2.347,10.244,5.618,10.326,10.029-5.058,22.607-9.56,43.335-15.689,71.979q-3.1,1.738-8.484-.265-4.315-41.672,2.365-60.6C664.741-849.241,652.12-850.851,638.71-853.041Z" transform="translate(-629.778 880.397)" fill="#6836bf" fill-rule="evenodd"/></g><g transform="translate(681.327 -760.308)"><path d="M638.71-853.041c-9.564-3.433-10.864-12.961-6.657-27.356a10.3,10.3,0,0,0,2.923,1.581c-3.485,14.792.3,22.9,11.544,23.674q19.673,2.919,32.616,2.807-5.706,36.991-1.956,64.508a18.528,18.528,0,0,1-2.979-.855q-4.312-41.672,2.367-60.6C664.741-849.241,652.12-850.851,638.71-853.041Z" transform="translate(-629.778 880.397)" fill="#3a2a60" fill-rule="evenodd"/></g><g transform="translate(770.427 -668.906)"><path d="M681.794-834.435a8.119,8.119,0,0,0,1.16,2.514c-2.56.243-1.573,3.539-8.487.512a10.839,10.839,0,0,0,.5-3.144A37.882,37.882,0,0,0,681.794-834.435Z" transform="translate(-674.467 834.553)" fill="#f4ae7c" fill-rule="evenodd"/></g><g transform="translate(724.085 -665.401)"><path d="M661.353-820.735c-4.712-1.944-5.417-5.108-8.009-6.316-2.608-1.216-2.907-3.388-.357-5.744,1.884,1.507,4.221,3.354,5.459,2.377.827-.654,3.631-.614,4.187.341,2.44,5.676,5.838,3.876,6.506,6.46C669.216-820.181,664.316-819.511,661.353-820.735Z" transform="translate(-651.223 832.795)" fill="#142d4d" fill-rule="evenodd"/></g><g transform="translate(726.271 -668.214)"><path d="M659.458-833.937a14.375,14.375,0,0,0,.622,4.542,4.12,4.12,0,0,0-2.724.379c-1.148.905-3.238-.616-5.036-2.039a12.5,12.5,0,0,0,.59-3.15A10.168,10.168,0,0,0,659.458-833.937Z" transform="translate(-652.32 834.206)" fill="#f4ae7c" fill-rule="evenodd"/></g><g transform="translate(682.4 -811.239)"><path d="M634.6-893.96a65.041,65.041,0,0,0,3.866-8.888c-.732,4.334-.694,7.459-1.872,11.022a75.174,75.174,0,0,1,1.248,15.37q-2.422-1.815-4.889-3.776a83.4,83.4,0,0,0-1-8.6q1.205-2.4,2.65-5.126Zm42.077.869a26.379,26.379,0,0,1-2.833.829q.529-8.278.7-13.681,1.591,7.979,2.137,12.852ZM630.316-856.4a57.717,57.717,0,0,0,2.361-10.378c1.368.526,2.769,1.053,4.217,1.587a103.559,103.559,0,0,1-2.462,11.757A7.5,7.5,0,0,1,630.316-856.4Z" transform="translate(-630.316 905.942)" fill="#406fb5" fill-rule="evenodd"/></g><g transform="translate(705.33 -858.659)"><path d="M647.394-929.652c-2.46-.544-6.681,2.1-5.309,2.381.447.088,1.7-.672,2.185-.8.965-.267,2.833-.136,3.357-.768A.528.528,0,0,0,647.394-929.652Z" transform="translate(-641.817 929.726)" fill="#0f3970" fill-rule="evenodd"/></g><g transform="translate(714.535 -858.709)"><path d="M646.548-928.858c.524.634,2.39.5,3.355.766.483.131,1.74.883,2.189.79,1.368-.277-2.861-2.939-5.311-2.369A.514.514,0,0,0,646.548-928.858Z" transform="translate(-646.434 929.751)" fill="#0f3970" fill-rule="evenodd"/></g><g transform="translate(708.016 -855.411)"><path d="M643.85-925.387c-.712,0-1.268-2.71.46-2.71C645.231-928.1,645.016-925.387,643.85-925.387Z" transform="translate(-643.164 928.097)" fill="#0f3970" fill-rule="evenodd"/></g><g transform="translate(716.539 -855.39)"><path d="M648.47-925.378c.716,0,1.272-2.708-.457-2.708C647.092-928.086,647.3-925.378,648.47-925.378Z" transform="translate(-647.439 928.086)" fill="#0f3970" fill-rule="evenodd"/></g><g transform="translate(713.69 -854.782)"><path d="M646.993-921.1c-.175-.257.3-.463.572-.642,1.011-.654,1.26-.137-.975-4.57-.435-.865-.772-1.3-.457-1.442.3-.132.349.255.845,1.24,2.431,4.823,2.209,4.2.317,5.467A.219.219,0,0,1,646.993-921.1Z" transform="translate(-646.01 927.782)" fill="#ed7d5b" fill-rule="evenodd"/></g><g transform="translate(711.292 -844.939)"><path d="M644.862-921.959c-.293-.532.467-.387,5.126-.883C651.382-922.983,647.279-917.56,644.862-921.959Z" transform="translate(-644.807 922.844)" fill="#ed7d5b" fill-rule="evenodd"/></g></g></g></svg>